<?xml version="1.0" encoding="utf-8" standalone="no"?>
<!DOCTYPE svg PUBLIC "-//W3C//DTD SVG 1.1//EN"
  "http://www.w3.org/Graphics/SVG/1.1/DTD/svg11.dtd">
<svg xmlns:xlink="http://www.w3.org/1999/xlink" width="576pt" height="432pt" viewBox="0 0 576 432" xmlns="http://www.w3.org/2000/svg" version="1.1">
 <metadata>
  <rdf:RDF xmlns:dc="http://purl.org/dc/elements/1.1/" xmlns:cc="http://creativecommons.org/ns#" xmlns:rdf="http://www.w3.org/1999/02/22-rdf-syntax-ns#">
   <cc:Work>
    <dc:type rdf:resource="http://purl.org/dc/dcmitype/StillImage"/>
    <dc:date>2024-09-16T22:59:17.585127</dc:date>
    <dc:format>image/svg+xml</dc:format>
    <dc:creator>
     <cc:Agent>
      <dc:title>Matplotlib v3.9.2, https://matplotlib.org/</dc:title>
     </cc:Agent>
    </dc:creator>
   </cc:Work>
  </rdf:RDF>
 </metadata>
 <defs>
  <style type="text/css">*{stroke-linejoin: round; stroke-linecap: butt}</style>
 </defs>
 <g id="figure_1">
  <g id="patch_1">
   <path d="M 0 432 
L 576 432 
L 576 0 
L 0 0 
z
" style="fill: #ffffff"/>
  </g>
  <g id="axes_1">
   <g id="patch_2">
    <path d="M 45.74 371.474144 
L 565.2 371.474144 
L 565.2 25.44 
L 45.74 25.44 
z
" style="fill: #ffffff"/>
   </g>
   <g id="matplotlib.axis_1">
    <g id="xtick_1">
     <g id="line2d_1">
      <defs>
       <path id="mff86401256" d="M 0 0 
L 0 3.5 
" style="stroke: #000000; stroke-width: 0.8"/>
      </defs>
      <g>
       <use xlink:href="#mff86401256" x="69.351818" y="371.474144" style="stroke: #000000; stroke-width: 0.8"/>
      </g>
     </g>
     <g id="text_1">
      <text style="font: 10px 'Arial'" transform="translate(55.003166 402.733929) rotate(-30)">meCLIP</text>
     </g>
    </g>
    <g id="xtick_2">
     <g id="line2d_2">
      <g>
       <use xlink:href="#mff86401256" x="110.41585" y="371.474144" style="stroke: #000000; stroke-width: 0.8"/>
      </g>
     </g>
     <g id="text_2">
      <text style="font: 10px 'Arial'" transform="translate(91.679851 406.64792) rotate(-30)">m6A-seq</text>
      <text style="font: 10px 'Arial'" transform="translate(93.676093 417.877387) rotate(-30)">(improved)</text>
     </g>
    </g>
    <g id="xtick_3">
     <g id="line2d_3">
      <g>
       <use xlink:href="#mff86401256" x="151.479881" y="371.474144" style="stroke: #000000; stroke-width: 0.8"/>
      </g>
     </g>
     <g id="text_3">
      <text style="font: 10px 'Arial'" transform="translate(136.169129 403.844866) rotate(-30)">miCLIP2</text>
     </g>
    </g>
    <g id="xtick_4">
     <g id="line2d_4">
      <g>
       <use xlink:href="#mff86401256" x="192.543913" y="371.474144" style="stroke: #000000; stroke-width: 0.8"/>
      </g>
     </g>
     <g id="text_4">
      <text style="font: 10px 'Arial'" transform="translate(178.91785 401.899554) rotate(-30)">m6ACE</text>
     </g>
    </g>
    <g id="xtick_5">
     <g id="line2d_5">
      <g>
       <use xlink:href="#mff86401256" x="233.607945" y="371.474144" style="stroke: #000000; stroke-width: 0.8"/>
      </g>
     </g>
     <g id="text_5">
      <text style="font: 10px 'Arial'" transform="translate(206.53686 417.565257) rotate(-30)">m6A-CLIP-seq</text>
     </g>
    </g>
    <g id="xtick_6">
     <g id="line2d_6">
      <g>
       <use xlink:href="#mff86401256" x="274.671976" y="371.474144" style="stroke: #000000; stroke-width: 0.8"/>
      </g>
     </g>
     <g id="text_6">
      <text style="font: 10px 'Arial'" transform="translate(248.544005 416.369795) rotate(-30)">m6A-REF-seq</text>
     </g>
    </g>
    <g id="xtick_7">
     <g id="line2d_7">
      <g>
       <use xlink:href="#mff86401256" x="315.736008" y="371.474144" style="stroke: #000000; stroke-width: 0.8"/>
      </g>
     </g>
     <g id="text_7">
      <text style="font: 10px 'Arial'" transform="translate(287.917257 418.322139) rotate(-30)">m6A-label-seq </text>
     </g>
    </g>
    <g id="xtick_8">
     <g id="line2d_8">
      <g>
       <use xlink:href="#mff86401256" x="356.80004" y="371.474144" style="stroke: #000000; stroke-width: 0.8"/>
      </g>
     </g>
     <g id="text_8">
      <text style="font: 10px 'Arial'" transform="translate(342.770057 402.36596) rotate(-30)">miCLIP </text>
     </g>
    </g>
    <g id="xtick_9">
     <g id="line2d_9">
      <g>
       <use xlink:href="#mff86401256" x="397.864071" y="371.474144" style="stroke: #000000; stroke-width: 0.8"/>
      </g>
     </g>
     <g id="text_9">
      <text style="font: 10px 'Arial'" transform="translate(374.93904 412.671357) rotate(-30)">PA-m6A-seq</text>
     </g>
    </g>
    <g id="xtick_10">
     <g id="line2d_10">
      <g>
       <use xlink:href="#mff86401256" x="438.928103" y="371.474144" style="stroke: #000000; stroke-width: 0.8"/>
      </g>
     </g>
     <g id="text_10">
      <text style="font: 10px 'Arial'" transform="translate(412.579608 416.730882) rotate(-30)">m6A-SAC-seq</text>
     </g>
    </g>
    <g id="xtick_11">
     <g id="line2d_11">
      <g>
       <use xlink:href="#mff86401256" x="479.992134" y="371.474144" style="stroke: #000000; stroke-width: 0.8"/>
      </g>
     </g>
     <g id="text_11">
      <text style="font: 10px 'Arial'" transform="translate(461.388455 407.64721) rotate(-30)">DART-seq</text>
     </g>
    </g>
    <g id="xtick_12">
     <g id="line2d_12">
      <g>
       <use xlink:href="#mff86401256" x="521.056166" y="371.474144" style="stroke: #000000; stroke-width: 0.8"/>
      </g>
     </g>
     <g id="text_12">
      <text style="font: 10px 'Arial'" transform="translate(496.125766 414.952679) rotate(-30)">MAZTER-seq</text>
     </g>
    </g>
   </g>
   <g id="matplotlib.axis_2">
    <g id="ytick_1">
     <g id="line2d_13">
      <defs>
       <path id="m1d7a6f688e" d="M 0 0 
L -3.5 0 
" style="stroke: #000000; stroke-width: 0.8"/>
      </defs>
      <g>
       <use xlink:href="#m1d7a6f688e" x="45.74" y="342.251215" style="stroke: #000000; stroke-width: 0.8"/>
      </g>
     </g>
     <g id="text_13">
      <text style="font: 10px 'Arial'; text-anchor: end" x="38.74" y="345.830122" transform="rotate(-0 38.74 345.830122)">0.4</text>
     </g>
    </g>
    <g id="ytick_2">
     <g id="line2d_14">
      <g>
       <use xlink:href="#m1d7a6f688e" x="45.74" y="278.028906" style="stroke: #000000; stroke-width: 0.8"/>
      </g>
     </g>
     <g id="text_14">
      <text style="font: 10px 'Arial'; text-anchor: end" x="38.74" y="281.607812" transform="rotate(-0 38.74 281.607812)">0.5</text>
     </g>
    </g>
    <g id="ytick_3">
     <g id="line2d_15">
      <g>
       <use xlink:href="#m1d7a6f688e" x="45.74" y="213.806596" style="stroke: #000000; stroke-width: 0.8"/>
      </g>
     </g>
     <g id="text_15">
      <text style="font: 10px 'Arial'; text-anchor: end" x="38.74" y="217.385503" transform="rotate(-0 38.74 217.385503)">0.6</text>
     </g>
    </g>
    <g id="ytick_4">
     <g id="line2d_16">
      <g>
       <use xlink:href="#m1d7a6f688e" x="45.74" y="149.584287" style="stroke: #000000; stroke-width: 0.8"/>
      </g>
     </g>
     <g id="text_16">
      <text style="font: 10px 'Arial'; text-anchor: end" x="38.74" y="153.163193" transform="rotate(-0 38.74 153.163193)">0.7</text>
     </g>
    </g>
    <g id="ytick_5">
     <g id="line2d_17">
      <g>
       <use xlink:href="#m1d7a6f688e" x="45.74" y="85.361977" style="stroke: #000000; stroke-width: 0.8"/>
      </g>
     </g>
     <g id="text_17">
      <text style="font: 10px 'Arial'; text-anchor: end" x="38.74" y="88.940883" transform="rotate(-0 38.74 88.940883)">0.8</text>
     </g>
    </g>
    <g id="text_18">
     <text style="font: 10px 'Arial'; text-anchor: middle" x="18.8525" y="198.457072" transform="rotate(-90 18.8525 198.457072)">AUPRC</text>
    </g>
   </g>
   <g id="LineCollection_1">
    <path d="M 89.883834 355.745319 
L 89.883834 41.168825 
" clip-path="url(#p3ff78fa32c)" style="fill: none; stroke-dasharray: 0.74,0.32; stroke-dashoffset: 0; stroke: #808080; stroke-width: 0.2"/>
   </g>
   <g id="LineCollection_2">
    <path d="M 130.947866 355.745319 
L 130.947866 41.168825 
" clip-path="url(#p3ff78fa32c)" style="fill: none; stroke-dasharray: 0.74,0.32; stroke-dashoffset: 0; stroke: #808080; stroke-width: 0.2"/>
   </g>
   <g id="LineCollection_3">
    <path d="M 172.011897 355.745319 
L 172.011897 41.168825 
" clip-path="url(#p3ff78fa32c)" style="fill: none; stroke-dasharray: 0.74,0.32; stroke-dashoffset: 0; stroke: #808080; stroke-width: 0.2"/>
   </g>
   <g id="LineCollection_4">
    <path d="M 213.075929 355.745319 
L 213.075929 41.168825 
" clip-path="url(#p3ff78fa32c)" style="fill: none; stroke-dasharray: 0.74,0.32; stroke-dashoffset: 0; stroke: #808080; stroke-width: 0.2"/>
   </g>
   <g id="LineCollection_5">
    <path d="M 254.13996 355.745319 
L 254.13996 41.168825 
" clip-path="url(#p3ff78fa32c)" style="fill: none; stroke-dasharray: 0.74,0.32; stroke-dashoffset: 0; stroke: #808080; stroke-width: 0.2"/>
   </g>
   <g id="LineCollection_6">
    <path d="M 295.203992 355.745319 
L 295.203992 41.168825 
" clip-path="url(#p3ff78fa32c)" style="fill: none; stroke-dasharray: 0.74,0.32; stroke-dashoffset: 0; stroke: #808080; stroke-width: 0.2"/>
   </g>
   <g id="LineCollection_7">
    <path d="M 336.268024 355.745319 
L 336.268024 41.168825 
" clip-path="url(#p3ff78fa32c)" style="fill: none; stroke-dasharray: 0.74,0.32; stroke-dashoffset: 0; stroke: #808080; stroke-width: 0.2"/>
   </g>
   <g id="LineCollection_8">
    <path d="M 377.332055 355.745319 
L 377.332055 41.168825 
" clip-path="url(#p3ff78fa32c)" style="fill: none; stroke-dasharray: 0.74,0.32; stroke-dashoffset: 0; stroke: #808080; stroke-width: 0.2"/>
   </g>
   <g id="LineCollection_9">
    <path d="M 418.396087 355.745319 
L 418.396087 41.168825 
" clip-path="url(#p3ff78fa32c)" style="fill: none; stroke-dasharray: 0.74,0.32; stroke-dashoffset: 0; stroke: #808080; stroke-width: 0.2"/>
   </g>
   <g id="LineCollection_10">
    <path d="M 459.460119 355.745319 
L 459.460119 41.168825 
" clip-path="url(#p3ff78fa32c)" style="fill: none; stroke-dasharray: 0.74,0.32; stroke-dashoffset: 0; stroke: #808080; stroke-width: 0.2"/>
   </g>
   <g id="LineCollection_11">
    <path d="M 500.52415 355.745319 
L 500.52415 41.168825 
" clip-path="url(#p3ff78fa32c)" style="fill: none; stroke-dasharray: 0.74,0.32; stroke-dashoffset: 0; stroke: #808080; stroke-width: 0.2"/>
   </g>
   <g id="LineCollection_12">
    <path d="M 541.588182 355.745319 
L 541.588182 41.168825 
" clip-path="url(#p3ff78fa32c)" style="fill: none; stroke-dasharray: 0.74,0.32; stroke-dashoffset: 0; stroke: #808080; stroke-width: 0.2"/>
   </g>
   <g id="patch_3">
    <path d="M 45.74 371.474144 
L 45.74 25.44 
" style="fill: none; stroke: #000000; stroke-width: 0.8; stroke-linejoin: miter; stroke-linecap: square"/>
   </g>
   <g id="patch_4">
    <path d="M 45.74 371.474144 
L 565.2 371.474144 
" style="fill: none; stroke: #000000; stroke-width: 0.8; stroke-linejoin: miter; stroke-linecap: square"/>
   </g>
   <g id="PathCollection_1">
    <defs>
     <path id="C0_0_dd96102015" d="M 0 5 
C 1.326016 5 2.597899 4.473168 3.535534 3.535534 
C 4.473168 2.597899 5 1.326016 5 -0 
C 5 -1.326016 4.473168 -2.597899 3.535534 -3.535534 
C 2.597899 -4.473168 1.326016 -5 0 -5 
C -1.326016 -5 -2.597899 -4.473168 -3.535534 -3.535534 
C -4.473168 -2.597899 -5 -1.326016 -5 0 
C -5 1.326016 -4.473168 2.597899 -3.535534 3.535534 
C -2.597899 4.473168 -1.326016 5 0 5 
z
"/>
    </defs>
    <g clip-path="url(#p3ff78fa32c)">
     <use xlink:href="#C0_0_dd96102015" x="69.351818" y="57.965555" style="fill: #ffdb00; fill-opacity: 0.75; stroke: #2b2b2b; stroke-opacity: 0.75"/>
    </g>
    <g clip-path="url(#p3ff78fa32c)">
     <use xlink:href="#C0_0_dd96102015" x="69.351818" y="41.168825" style="fill: #bc141a; fill-opacity: 0.75; stroke: #2b2b2b; stroke-opacity: 0.75"/>
    </g>
    <g clip-path="url(#p3ff78fa32c)">
     <use xlink:href="#C0_0_dd96102015" x="69.351818" y="80.494374" style="fill: #f14432; fill-opacity: 0.75; stroke: #2b2b2b; stroke-opacity: 0.75"/>
    </g>
   </g>
   <g id="PathCollection_2">
    <defs>
     <path id="m74fc18fad6" d="M 0 5 
C 1.326016 5 2.597899 4.473168 3.535534 3.535534 
C 4.473168 2.597899 5 1.326016 5 0 
C 5 -1.326016 4.473168 -2.597899 3.535534 -3.535534 
C 2.597899 -4.473168 1.326016 -5 0 -5 
C -1.326016 -5 -2.597899 -4.473168 -3.535534 -3.535534 
C -4.473168 -2.597899 -5 -1.326016 -5 0 
C -5 1.326016 -4.473168 2.597899 -3.535534 3.535534 
C -2.597899 4.473168 -1.326016 5 0 5 
z
" style="stroke: #2b2b2b; stroke-opacity: 0.75"/>
    </defs>
    <g clip-path="url(#p3ff78fa32c)">
     <use xlink:href="#m74fc18fad6" x="110.41585" y="70.159455" style="fill: #8c564b; fill-opacity: 0.75; stroke: #2b2b2b; stroke-opacity: 0.75"/>
    </g>
   </g>
   <g id="PathCollection_3">
    <defs>
     <path id="m9a11ebee65" d="M 0 5 
C 1.326016 5 2.597899 4.473168 3.535534 3.535534 
C 4.473168 2.597899 5 1.326016 5 0 
C 5 -1.326016 4.473168 -2.597899 3.535534 -3.535534 
C 2.597899 -4.473168 1.326016 -5 0 -5 
C -1.326016 -5 -2.597899 -4.473168 -3.535534 -3.535534 
C -4.473168 -2.597899 -5 -1.326016 -5 0 
C -5 1.326016 -4.473168 2.597899 -3.535534 3.535534 
C -2.597899 4.473168 -1.326016 5 0 5 
z
" style="stroke: #2b2b2b; stroke-opacity: 0.75"/>
    </defs>
    <g clip-path="url(#p3ff78fa32c)">
     <use xlink:href="#m9a11ebee65" x="151.479881" y="121.412691" style="fill: #ff9200; fill-opacity: 0.75; stroke: #2b2b2b; stroke-opacity: 0.75"/>
    </g>
   </g>
   <g id="PathCollection_4">
    <g clip-path="url(#p3ff78fa32c)">
     <use xlink:href="#m9a11ebee65" x="192.543913" y="124.770804" style="fill: #ff9200; fill-opacity: 0.75; stroke: #2b2b2b; stroke-opacity: 0.75"/>
    </g>
   </g>
   <g id="PathCollection_5">
    <defs>
     <path id="C1_0_8d34bab7d9" d="M 0 5 
C 1.326016 5 2.597899 4.473168 3.535534 3.535534 
C 4.473168 2.597899 5 1.326016 5 -0 
C 5 -1.326016 4.473168 -2.597899 3.535534 -3.535534 
C 2.597899 -4.473168 1.326016 -5 0 -5 
C -1.326016 -5 -2.597899 -4.473168 -3.535534 -3.535534 
C -4.473168 -2.597899 -5 -1.326016 -5 0 
C -5 1.326016 -4.473168 2.597899 -3.535534 3.535534 
C -2.597899 4.473168 -1.326016 5 0 5 
z
"/>
    </defs>
    <g clip-path="url(#p3ff78fa32c)">
     <use xlink:href="#C1_0_8d34bab7d9" x="233.607945" y="155.813376" style="fill: #8c564b; fill-opacity: 0.75; stroke: #2b2b2b; stroke-opacity: 0.75"/>
    </g>
    <g clip-path="url(#p3ff78fa32c)">
     <use xlink:href="#C1_0_8d34bab7d9" x="227.369798" y="146.555761" style="fill: #7f7f7f; fill-opacity: 0.75; stroke: #2b2b2b; stroke-opacity: 0.75"/>
    </g>
    <g clip-path="url(#p3ff78fa32c)">
     <use xlink:href="#C1_0_8d34bab7d9" x="233.607945" y="134.798738" style="fill: #17becf; fill-opacity: 0.75; stroke: #2b2b2b; stroke-opacity: 0.75"/>
    </g>
   </g>
   <g id="PathCollection_6">
    <defs>
     <path id="C2_0_b3c02a3a05" d="M 0 5 
C 1.326016 5 2.597899 4.473168 3.535534 3.535534 
C 4.473168 2.597899 5 1.326016 5 -0 
C 5 -1.326016 4.473168 -2.597899 3.535534 -3.535534 
C 2.597899 -4.473168 1.326016 -5 0 -5 
C -1.326016 -5 -2.597899 -4.473168 -3.535534 -3.535534 
C -4.473168 -2.597899 -5 -1.326016 -5 0 
C -5 1.326016 -4.473168 2.597899 -3.535534 3.535534 
C -2.597899 4.473168 -1.326016 5 0 5 
z
"/>
    </defs>
    <g clip-path="url(#p3ff78fa32c)">
     <use xlink:href="#C2_0_b3c02a3a05" x="274.671976" y="138.845268" style="fill: #ffdb00; fill-opacity: 0.75; stroke: #2b2b2b; stroke-opacity: 0.75"/>
    </g>
    <g clip-path="url(#p3ff78fa32c)">
     <use xlink:href="#C2_0_b3c02a3a05" x="274.671976" y="83.355496" style="fill: #ff9200; fill-opacity: 0.75; stroke: #2b2b2b; stroke-opacity: 0.75"/>
    </g>
   </g>
   <g id="PathCollection_7">
    <g clip-path="url(#p3ff78fa32c)">
     <use xlink:href="#m9a11ebee65" x="315.736008" y="177.97787" style="fill: #ff9200; fill-opacity: 0.75; stroke: #2b2b2b; stroke-opacity: 0.75"/>
    </g>
   </g>
   <g id="PathCollection_8">
    <defs>
     <path id="C3_0_d2b9a9f488" d="M 0 5 
C 1.326016 5 2.597899 4.473168 3.535534 3.535534 
C 4.473168 2.597899 5 1.326016 5 -0 
C 5 -1.326016 4.473168 -2.597899 3.535534 -3.535534 
C 2.597899 -4.473168 1.326016 -5 0 -5 
C -1.326016 -5 -2.597899 -4.473168 -3.535534 -3.535534 
C -4.473168 -2.597899 -5 -1.326016 -5 0 
C -5 1.326016 -4.473168 2.597899 -3.535534 3.535534 
C -2.597899 4.473168 -1.326016 5 0 5 
z
"/>
    </defs>
    <g clip-path="url(#p3ff78fa32c)">
     <use xlink:href="#C3_0_d2b9a9f488" x="366.624308" y="163.220209" style="fill: #4594c7; fill-opacity: 0.75; stroke: #2b2b2b; stroke-opacity: 0.75"/>
    </g>
    <g clip-path="url(#p3ff78fa32c)">
     <use xlink:href="#C3_0_d2b9a9f488" x="356.80004" y="169.004404" style="fill: #5fa6d1; fill-opacity: 0.75; stroke: #2b2b2b; stroke-opacity: 0.75"/>
    </g>
    <g clip-path="url(#p3ff78fa32c)">
     <use xlink:href="#C3_0_d2b9a9f488" x="356.80004" y="208.578438" style="fill: #bcbd22; fill-opacity: 0.75; stroke: #2b2b2b; stroke-opacity: 0.75"/>
    </g>
    <g clip-path="url(#p3ff78fa32c)">
     <use xlink:href="#C3_0_d2b9a9f488" x="356.80004" y="95.185027" style="fill: #ffdb00; fill-opacity: 0.75; stroke: #2b2b2b; stroke-opacity: 0.75"/>
    </g>
    <g clip-path="url(#p3ff78fa32c)">
     <use xlink:href="#C3_0_d2b9a9f488" x="356.80004" y="317.536794" style="fill: #ffb600; fill-opacity: 0.75; stroke: #2b2b2b; stroke-opacity: 0.75"/>
    </g>
    <g clip-path="url(#p3ff78fa32c)">
     <use xlink:href="#C3_0_d2b9a9f488" x="354.88887" y="231.709075" style="fill: #ff9200; fill-opacity: 0.75; stroke: #2b2b2b; stroke-opacity: 0.75"/>
    </g>
    <g clip-path="url(#p3ff78fa32c)">
     <use xlink:href="#C3_0_d2b9a9f488" x="356.80004" y="276.922791" style="fill: #17becf; fill-opacity: 0.75; stroke: #2b2b2b; stroke-opacity: 0.75"/>
    </g>
    <g clip-path="url(#p3ff78fa32c)">
     <use xlink:href="#C3_0_d2b9a9f488" x="356.80004" y="242.557439" style="fill: #e377c2; fill-opacity: 0.75; stroke: #2b2b2b; stroke-opacity: 0.75"/>
    </g>
    <g clip-path="url(#p3ff78fa32c)">
     <use xlink:href="#C3_0_d2b9a9f488" x="373.225652" y="162.015119" style="fill: #157f3b; fill-opacity: 0.75; stroke: #2b2b2b; stroke-opacity: 0.75"/>
    </g>
    <g clip-path="url(#p3ff78fa32c)">
     <use xlink:href="#C3_0_d2b9a9f488" x="356.80004" y="128.287767" style="fill: #8d89c0; fill-opacity: 0.75; stroke: #2b2b2b; stroke-opacity: 0.75"/>
    </g>
    <g clip-path="url(#p3ff78fa32c)">
     <use xlink:href="#C3_0_d2b9a9f488" x="345.337917" y="167.650065" style="fill: #084488; fill-opacity: 0.75; stroke: #2b2b2b; stroke-opacity: 0.75"/>
    </g>
    <g clip-path="url(#p3ff78fa32c)">
     <use xlink:href="#C3_0_d2b9a9f488" x="364.034929" y="148.873006" style="fill: #0e58a2; fill-opacity: 0.75; stroke: #2b2b2b; stroke-opacity: 0.75"/>
    </g>
    <g clip-path="url(#p3ff78fa32c)">
     <use xlink:href="#C3_0_d2b9a9f488" x="354.139637" y="143.199684" style="fill: #1d6cb1; fill-opacity: 0.75; stroke: #2b2b2b; stroke-opacity: 0.75"/>
    </g>
    <g clip-path="url(#p3ff78fa32c)">
     <use xlink:href="#C3_0_d2b9a9f488" x="346.173287" y="153.138129" style="fill: #3080bd; fill-opacity: 0.75; stroke: #2b2b2b; stroke-opacity: 0.75"/>
    </g>
    <g clip-path="url(#p3ff78fa32c)">
     <use xlink:href="#C3_0_d2b9a9f488" x="356.80004" y="157.447549" style="fill: #4bb062; fill-opacity: 0.75; stroke: #2b2b2b; stroke-opacity: 0.75"/>
    </g>
   </g>
   <g id="PathCollection_9">
    <defs>
     <path id="mf4f73550a9" d="M 0 5 
C 1.326016 5 2.597899 4.473168 3.535534 3.535534 
C 4.473168 2.597899 5 1.326016 5 0 
C 5 -1.326016 4.473168 -2.597899 3.535534 -3.535534 
C 2.597899 -4.473168 1.326016 -5 0 -5 
C -1.326016 -5 -2.597899 -4.473168 -3.535534 -3.535534 
C -4.473168 -2.597899 -5 -1.326016 -5 0 
C -5 1.326016 -4.473168 2.597899 -3.535534 3.535534 
C -2.597899 4.473168 -1.326016 5 0 5 
z
" style="stroke: #2b2b2b; stroke-opacity: 0.75"/>
    </defs>
    <g clip-path="url(#p3ff78fa32c)">
     <use xlink:href="#mf4f73550a9" x="397.864071" y="236.192281" style="fill: #17becf; fill-opacity: 0.75; stroke: #2b2b2b; stroke-opacity: 0.75"/>
    </g>
   </g>
   <g id="PathCollection_10">
    <defs>
     <path id="C4_0_2c91de2c8b" d="M 0 5 
C 1.326016 5 2.597899 4.473168 3.535534 3.535534 
C 4.473168 2.597899 5 1.326016 5 -0 
C 5 -1.326016 4.473168 -2.597899 3.535534 -3.535534 
C 2.597899 -4.473168 1.326016 -5 0 -5 
C -1.326016 -5 -2.597899 -4.473168 -3.535534 -3.535534 
C -4.473168 -2.597899 -5 -1.326016 -5 0 
C -5 1.326016 -4.473168 2.597899 -3.535534 3.535534 
C -2.597899 4.473168 -1.326016 5 0 5 
z
"/>
    </defs>
    <g clip-path="url(#p3ff78fa32c)">
     <use xlink:href="#C4_0_2c91de2c8b" x="438.928103" y="230.446452" style="fill: #ffdb00; fill-opacity: 0.75; stroke: #2b2b2b; stroke-opacity: 0.75"/>
    </g>
    <g clip-path="url(#p3ff78fa32c)">
     <use xlink:href="#C4_0_2c91de2c8b" x="438.928103" y="355.745319" style="fill: #705eaa; fill-opacity: 0.75; stroke: #2b2b2b; stroke-opacity: 0.75"/>
    </g>
    <g clip-path="url(#p3ff78fa32c)">
     <use xlink:href="#C4_0_2c91de2c8b" x="438.928103" y="163.478984" style="fill: #17becf; fill-opacity: 0.75; stroke: #2b2b2b; stroke-opacity: 0.75"/>
    </g>
    <g clip-path="url(#p3ff78fa32c)">
     <use xlink:href="#C4_0_2c91de2c8b" x="438.928103" y="203.266119" style="fill: #e377c2; fill-opacity: 0.75; stroke: #2b2b2b; stroke-opacity: 0.75"/>
    </g>
   </g>
   <g id="PathCollection_11">
    <g clip-path="url(#p3ff78fa32c)">
     <use xlink:href="#m9a11ebee65" x="479.992134" y="262.434296" style="fill: #ff9200; fill-opacity: 0.75; stroke: #2b2b2b; stroke-opacity: 0.75"/>
    </g>
   </g>
   <g id="PathCollection_12">
    <defs>
     <path id="C5_0_7e8b7b0663" d="M 0 5 
C 1.326016 5 2.597899 4.473168 3.535534 3.535534 
C 4.473168 2.597899 5 1.326016 5 -0 
C 5 -1.326016 4.473168 -2.597899 3.535534 -3.535534 
C 2.597899 -4.473168 1.326016 -5 0 -5 
C -1.326016 -5 -2.597899 -4.473168 -3.535534 -3.535534 
C -4.473168 -2.597899 -5 -1.326016 -5 0 
C -5 1.326016 -4.473168 2.597899 -3.535534 3.535534 
C -2.597899 4.473168 -1.326016 5 0 5 
z
"/>
    </defs>
    <g clip-path="url(#p3ff78fa32c)">
     <use xlink:href="#C5_0_7e8b7b0663" x="521.056166" y="283.924225" style="fill: #572c92; fill-opacity: 0.75; stroke: #2b2b2b; stroke-opacity: 0.75"/>
    </g>
    <g clip-path="url(#p3ff78fa32c)">
     <use xlink:href="#C5_0_7e8b7b0663" x="521.056166" y="341.636608" style="fill: #ff9200; fill-opacity: 0.75; stroke: #2b2b2b; stroke-opacity: 0.75"/>
    </g>
   </g>
   <g id="line2d_18"/>
   <g id="line2d_19"/>
   <g id="line2d_20"/>
   <g id="line2d_21"/>
   <g id="line2d_22"/>
   <g id="line2d_23"/>
   <g id="line2d_24"/>
   <g id="line2d_25"/>
   <g id="line2d_26"/>
   <g id="line2d_27"/>
   <g id="line2d_28"/>
   <g id="line2d_29"/>
   <g id="line2d_30"/>
   <g id="line2d_31"/>
   <g id="line2d_32"/>
   <g id="line2d_33"/>
   <g id="line2d_34"/>
   <g id="line2d_35"/>
   <g id="line2d_36"/>
   <g id="line2d_37"/>
   <g id="line2d_38"/>
   <g id="PathCollection_13">
    <path d="M 6.071068 433 
L 7.071068 432 
L 0 424.928932 
L -1 425.928932 
" clip-path="url(#p3ff78fa32c)" style="fill: none; stroke: #3d3d3d; stroke-opacity: 0.75"/>
   </g>
   <g id="PathCollection_14">
    <path d="M 6.071068 433 
L 7.071068 432 
L 0 424.928932 
L -1 425.928932 
" clip-path="url(#p3ff78fa32c)" style="fill: none; stroke: #3d3d3d; stroke-opacity: 0.75"/>
   </g>
   <g id="PathCollection_15">
    <path d="M 6.071068 433 
L 7.071068 432 
L 0 424.928932 
L -1 425.928932 
" clip-path="url(#p3ff78fa32c)" style="fill: none; stroke: #3d3d3d; stroke-opacity: 0.75"/>
   </g>
   <g id="PathCollection_16">
    <path d="M 6.071068 433 
L 7.071068 432 
L 0 424.928932 
L -1 425.928932 
" clip-path="url(#p3ff78fa32c)" style="fill: none; stroke: #3d3d3d; stroke-opacity: 0.75"/>
   </g>
   <g id="PathCollection_17">
    <path d="M 6.071068 433 
L 7.071068 432 
L 0 424.928932 
L -1 425.928932 
" clip-path="url(#p3ff78fa32c)" style="fill: none; stroke: #3d3d3d; stroke-opacity: 0.75"/>
   </g>
   <g id="PathCollection_18">
    <path d="M 274.671976 195.233575 
L 281.743044 188.162507 
L 274.671976 181.091439 
L 267.600908 188.162507 
z
" clip-path="url(#p3ff78fa32c)" style="fill: #1f77b4; fill-opacity: 0.75; stroke: #3d3d3d; stroke-opacity: 0.75"/>
    <path d="M 274.671976 181.490344 
L 281.743044 174.419276 
L 274.671976 167.348208 
L 267.600908 174.419276 
z
" clip-path="url(#p3ff78fa32c)" style="fill: #ff7f0e; fill-opacity: 0.75; stroke: #3d3d3d; stroke-opacity: 0.75"/>
    <path d="M 274.671976 164.168025 
L 281.743044 157.096957 
L 274.671976 150.025889 
L 267.600908 157.096957 
z
" clip-path="url(#p3ff78fa32c)" style="fill: #2ca02c; fill-opacity: 0.75; stroke: #3d3d3d; stroke-opacity: 0.75"/>
   </g>
   <g id="PathCollection_19">
    <path d="M 6.071068 433 
L 7.071068 432 
L 0 424.928932 
L -1 425.928932 
" clip-path="url(#p3ff78fa32c)" style="fill: none; stroke: #3d3d3d; stroke-opacity: 0.75"/>
   </g>
   <g id="PathCollection_20">
    <path d="M 6.071068 433 
L 7.071068 432 
L 0 424.928932 
L -1 425.928932 
" clip-path="url(#p3ff78fa32c)" style="fill: none; stroke: #3d3d3d; stroke-opacity: 0.75"/>
   </g>
   <g id="PathCollection_21">
    <path d="M 6.071068 433 
L 7.071068 432 
L 0 424.928932 
L -1 425.928932 
" clip-path="url(#p3ff78fa32c)" style="fill: none; stroke: #3d3d3d; stroke-opacity: 0.75"/>
   </g>
   <g id="PathCollection_22">
    <path d="M 6.071068 433 
L 7.071068 432 
L 0 424.928932 
L -1 425.928932 
" clip-path="url(#p3ff78fa32c)" style="fill: none; stroke: #3d3d3d; stroke-opacity: 0.75"/>
   </g>
   <g id="PathCollection_23">
    <path d="M 6.071068 433 
L 7.071068 432 
L 0 424.928932 
L -1 425.928932 
" clip-path="url(#p3ff78fa32c)" style="fill: none; stroke: #3d3d3d; stroke-opacity: 0.75"/>
   </g>
   <g id="PathCollection_24">
    <path d="M 6.071068 433 
L 7.071068 432 
L 0 424.928932 
L -1 425.928932 
" clip-path="url(#p3ff78fa32c)" style="fill: none; stroke: #3d3d3d; stroke-opacity: 0.75"/>
   </g>
   <g id="line2d_39"/>
   <g id="line2d_40"/>
   <g id="line2d_41"/>
   <g id="text_19">
    <text style="font: 12px 'Arial'; text-anchor: middle" x="305.47" y="19.44" transform="rotate(-0 305.47 19.44)">Human</text>
   </g>
   <g id="legend_1">
    <g id="line2d_42">
     <defs>
      <path id="m583ee4794b" d="M 0 5 
C 1.326016 5 2.597899 4.473168 3.535534 3.535534 
C 4.473168 2.597899 5 1.326016 5 0 
C 5 -1.326016 4.473168 -2.597899 3.535534 -3.535534 
C 2.597899 -4.473168 1.326016 -5 0 -5 
C -1.326016 -5 -2.597899 -4.473168 -3.535534 -3.535534 
C -4.473168 -2.597899 -5 -1.326016 -5 0 
C -5 1.326016 -4.473168 2.597899 -3.535534 3.535534 
C -2.597899 4.473168 -1.326016 5 0 5 
z
" style="stroke: #2b2b2b; stroke-opacity: 0.75"/>
     </defs>
     <g>
      <use xlink:href="#m583ee4794b" x="64.74" y="201.149144" style="fill: #084488; fill-opacity: 0.75; stroke: #2b2b2b; stroke-opacity: 0.75"/>
     </g>
    </g>
    <g id="text_20">
     <text style="font: 10px 'Arial'; text-anchor: start" x="82.74" y="204.649144" transform="rotate(-0 82.74 204.649144)">OCM1</text>
    </g>
    <g id="line2d_43">
     <defs>
      <path id="m9b12f2feb4" d="M 0 5 
C 1.326016 5 2.597899 4.473168 3.535534 3.535534 
C 4.473168 2.597899 5 1.326016 5 0 
C 5 -1.326016 4.473168 -2.597899 3.535534 -3.535534 
C 2.597899 -4.473168 1.326016 -5 0 -5 
C -1.326016 -5 -2.597899 -4.473168 -3.535534 -3.535534 
C -4.473168 -2.597899 -5 -1.326016 -5 0 
C -5 1.326016 -4.473168 2.597899 -3.535534 3.535534 
C -2.597899 4.473168 -1.326016 5 0 5 
z
" style="stroke: #2b2b2b; stroke-opacity: 0.75"/>
     </defs>
     <g>
      <use xlink:href="#m9b12f2feb4" x="64.74" y="215.294456" style="fill: #0e58a2; fill-opacity: 0.75; stroke: #2b2b2b; stroke-opacity: 0.75"/>
     </g>
    </g>
    <g id="text_21">
     <text style="font: 10px 'Arial'; text-anchor: start" x="82.74" y="218.794456" transform="rotate(-0 82.74 218.794456)">OCM1a</text>
    </g>
    <g id="line2d_44">
     <defs>
      <path id="mcac1a6b7a3" d="M 0 5 
C 1.326016 5 2.597899 4.473168 3.535534 3.535534 
C 4.473168 2.597899 5 1.326016 5 0 
C 5 -1.326016 4.473168 -2.597899 3.535534 -3.535534 
C 2.597899 -4.473168 1.326016 -5 0 -5 
C -1.326016 -5 -2.597899 -4.473168 -3.535534 -3.535534 
C -4.473168 -2.597899 -5 -1.326016 -5 0 
C -5 1.326016 -4.473168 2.597899 -3.535534 3.535534 
C -2.597899 4.473168 -1.326016 5 0 5 
z
" style="stroke: #2b2b2b; stroke-opacity: 0.75"/>
     </defs>
     <g>
      <use xlink:href="#mcac1a6b7a3" x="64.74" y="229.439769" style="fill: #1d6cb1; fill-opacity: 0.75; stroke: #2b2b2b; stroke-opacity: 0.75"/>
     </g>
    </g>
    <g id="text_22">
     <text style="font: 10px 'Arial'; text-anchor: start" x="82.74" y="232.939769" transform="rotate(-0 82.74 232.939769)">OM431</text>
    </g>
    <g id="line2d_45">
     <defs>
      <path id="mdfee042a95" d="M 0 5 
C 1.326016 5 2.597899 4.473168 3.535534 3.535534 
C 4.473168 2.597899 5 1.326016 5 0 
C 5 -1.326016 4.473168 -2.597899 3.535534 -3.535534 
C 2.597899 -4.473168 1.326016 -5 0 -5 
C -1.326016 -5 -2.597899 -4.473168 -3.535534 -3.535534 
C -4.473168 -2.597899 -5 -1.326016 -5 0 
C -5 1.326016 -4.473168 2.597899 -3.535534 3.535534 
C -2.597899 4.473168 -1.326016 5 0 5 
z
" style="stroke: #2b2b2b; stroke-opacity: 0.75"/>
     </defs>
     <g>
      <use xlink:href="#mdfee042a95" x="64.74" y="243.585081" style="fill: #3080bd; fill-opacity: 0.75; stroke: #2b2b2b; stroke-opacity: 0.75"/>
     </g>
    </g>
    <g id="text_23">
     <text style="font: 10px 'Arial'; text-anchor: start" x="82.74" y="247.085081" transform="rotate(-0 82.74 247.085081)">PIG1</text>
    </g>
    <g id="line2d_46">
     <defs>
      <path id="m1b14ee3f4a" d="M 0 5 
C 1.326016 5 2.597899 4.473168 3.535534 3.535534 
C 4.473168 2.597899 5 1.326016 5 0 
C 5 -1.326016 4.473168 -2.597899 3.535534 -3.535534 
C 2.597899 -4.473168 1.326016 -5 0 -5 
C -1.326016 -5 -2.597899 -4.473168 -3.535534 -3.535534 
C -4.473168 -2.597899 -5 -1.326016 -5 0 
C -5 1.326016 -4.473168 2.597899 -3.535534 3.535534 
C -2.597899 4.473168 -1.326016 5 0 5 
z
" style="stroke: #2b2b2b; stroke-opacity: 0.75"/>
     </defs>
     <g>
      <use xlink:href="#m1b14ee3f4a" x="64.74" y="257.730394" style="fill: #4594c7; fill-opacity: 0.75; stroke: #2b2b2b; stroke-opacity: 0.75"/>
     </g>
    </g>
    <g id="text_24">
     <text style="font: 10px 'Arial'; text-anchor: start" x="82.74" y="261.230394" transform="rotate(-0 82.74 261.230394)">CM2005.1</text>
    </g>
    <g id="line2d_47">
     <defs>
      <path id="mdff1a30c4d" d="M 0 5 
C 1.326016 5 2.597899 4.473168 3.535534 3.535534 
C 4.473168 2.597899 5 1.326016 5 0 
C 5 -1.326016 4.473168 -2.597899 3.535534 -3.535534 
C 2.597899 -4.473168 1.326016 -5 0 -5 
C -1.326016 -5 -2.597899 -4.473168 -3.535534 -3.535534 
C -4.473168 -2.597899 -5 -1.326016 -5 0 
C -5 1.326016 -4.473168 2.597899 -3.535534 3.535534 
C -2.597899 4.473168 -1.326016 5 0 5 
z
" style="stroke: #2b2b2b; stroke-opacity: 0.75"/>
     </defs>
     <g>
      <use xlink:href="#mdff1a30c4d" x="64.74" y="271.875706" style="fill: #5fa6d1; fill-opacity: 0.75; stroke: #2b2b2b; stroke-opacity: 0.75"/>
     </g>
    </g>
    <g id="text_25">
     <text style="font: 10px 'Arial'; text-anchor: start" x="82.74" y="275.375706" transform="rotate(-0 82.74 275.375706)">CRMM1</text>
    </g>
    <g id="line2d_48">
     <defs>
      <path id="m3377ece77d" d="M 0 5 
C 1.326016 5 2.597899 4.473168 3.535534 3.535534 
C 4.473168 2.597899 5 1.326016 5 0 
C 5 -1.326016 4.473168 -2.597899 3.535534 -3.535534 
C 2.597899 -4.473168 1.326016 -5 0 -5 
C -1.326016 -5 -2.597899 -4.473168 -3.535534 -3.535534 
C -4.473168 -2.597899 -5 -1.326016 -5 0 
C -5 1.326016 -4.473168 2.597899 -3.535534 3.535534 
C -2.597899 4.473168 -1.326016 5 0 5 
z
" style="stroke: #2b2b2b; stroke-opacity: 0.75"/>
     </defs>
     <g>
      <use xlink:href="#m3377ece77d" x="64.74" y="286.021019" style="fill: #ffdb00; fill-opacity: 0.75; stroke: #2b2b2b; stroke-opacity: 0.75"/>
     </g>
    </g>
    <g id="text_26">
     <text style="font: 10px 'Arial'; text-anchor: start" x="82.74" y="289.521019" transform="rotate(-0 82.74 289.521019)">HEK293</text>
    </g>
    <g id="line2d_49">
     <defs>
      <path id="me8dcfb5619" d="M 0 5 
C 1.326016 5 2.597899 4.473168 3.535534 3.535534 
C 4.473168 2.597899 5 1.326016 5 0 
C 5 -1.326016 4.473168 -2.597899 3.535534 -3.535534 
C 2.597899 -4.473168 1.326016 -5 0 -5 
C -1.326016 -5 -2.597899 -4.473168 -3.535534 -3.535534 
C -4.473168 -2.597899 -5 -1.326016 -5 0 
C -5 1.326016 -4.473168 2.597899 -3.535534 3.535534 
C -2.597899 4.473168 -1.326016 5 0 5 
z
" style="stroke: #2b2b2b; stroke-opacity: 0.75"/>
     </defs>
     <g>
      <use xlink:href="#me8dcfb5619" x="64.74" y="300.166331" style="fill: #ffb600; fill-opacity: 0.75; stroke: #2b2b2b; stroke-opacity: 0.75"/>
     </g>
    </g>
    <g id="text_27">
     <text style="font: 10px 'Arial'; text-anchor: start" x="82.74" y="303.666331" transform="rotate(-0 82.74 303.666331)">HEK293E</text>
    </g>
    <g id="line2d_50">
     <g>
      <use xlink:href="#m9a11ebee65" x="64.74" y="314.311644" style="fill: #ff9200; fill-opacity: 0.75; stroke: #2b2b2b; stroke-opacity: 0.75"/>
     </g>
    </g>
    <g id="text_28">
     <text style="font: 10px 'Arial'; text-anchor: start" x="82.74" y="317.811644" transform="rotate(-0 82.74 317.811644)">HEK293T</text>
    </g>
    <g id="line2d_51">
     <defs>
      <path id="me237a156ce" d="M 0 5 
C 1.326016 5 2.597899 4.473168 3.535534 3.535534 
C 4.473168 2.597899 5 1.326016 5 0 
C 5 -1.326016 4.473168 -2.597899 3.535534 -3.535534 
C 2.597899 -4.473168 1.326016 -5 0 -5 
C -1.326016 -5 -2.597899 -4.473168 -3.535534 -3.535534 
C -4.473168 -2.597899 -5 -1.326016 -5 0 
C -5 1.326016 -4.473168 2.597899 -3.535534 3.535534 
C -2.597899 4.473168 -1.326016 5 0 5 
z
" style="stroke: #2b2b2b; stroke-opacity: 0.75"/>
     </defs>
     <g>
      <use xlink:href="#me237a156ce" x="64.74" y="328.456956" style="fill: #572c92; fill-opacity: 0.75; stroke: #2b2b2b; stroke-opacity: 0.75"/>
     </g>
    </g>
    <g id="text_29">
     <text style="font: 10px 'Arial'; text-anchor: start" x="82.74" y="331.956956" transform="rotate(-0 82.74 331.956956)">ESC</text>
    </g>
    <g id="line2d_52">
     <defs>
      <path id="m227fca7467" d="M 0 5 
C 1.326016 5 2.597899 4.473168 3.535534 3.535534 
C 4.473168 2.597899 5 1.326016 5 0 
C 5 -1.326016 4.473168 -2.597899 3.535534 -3.535534 
C 2.597899 -4.473168 1.326016 -5 0 -5 
C -1.326016 -5 -2.597899 -4.473168 -3.535534 -3.535534 
C -4.473168 -2.597899 -5 -1.326016 -5 0 
C -5 1.326016 -4.473168 2.597899 -3.535534 3.535534 
C -2.597899 4.473168 -1.326016 5 0 5 
z
" style="stroke: #2b2b2b; stroke-opacity: 0.75"/>
     </defs>
     <g>
      <use xlink:href="#m227fca7467" x="64.74" y="342.602269" style="fill: #705eaa; fill-opacity: 0.75; stroke: #2b2b2b; stroke-opacity: 0.75"/>
     </g>
    </g>
    <g id="text_30">
     <text style="font: 10px 'Arial'; text-anchor: start" x="82.74" y="346.102269" transform="rotate(-0 82.74 346.102269)">HSPC</text>
    </g>
    <g id="line2d_53">
     <defs>
      <path id="m30d4ce898e" d="M 0 5 
C 1.326016 5 2.597899 4.473168 3.535534 3.535534 
C 4.473168 2.597899 5 1.326016 5 0 
C 5 -1.326016 4.473168 -2.597899 3.535534 -3.535534 
C 2.597899 -4.473168 1.326016 -5 0 -5 
C -1.326016 -5 -2.597899 -4.473168 -3.535534 -3.535534 
C -4.473168 -2.597899 -5 -1.326016 -5 0 
C -5 1.326016 -4.473168 2.597899 -3.535534 3.535534 
C -2.597899 4.473168 -1.326016 5 0 5 
z
" style="stroke: #2b2b2b; stroke-opacity: 0.75"/>
     </defs>
     <g>
      <use xlink:href="#m30d4ce898e" x="64.74" y="356.747581" style="fill: #8d89c0; fill-opacity: 0.75; stroke: #2b2b2b; stroke-opacity: 0.75"/>
     </g>
    </g>
    <g id="text_31">
     <text style="font: 10px 'Arial'; text-anchor: start" x="82.74" y="360.247581" transform="rotate(-0 82.74 360.247581)">MOLM13</text>
    </g>
    <g id="line2d_54">
     <defs>
      <path id="m6ef1c37364" d="M 0 5 
C 1.326016 5 2.597899 4.473168 3.535534 3.535534 
C 4.473168 2.597899 5 1.326016 5 0 
C 5 -1.326016 4.473168 -2.597899 3.535534 -3.535534 
C 2.597899 -4.473168 1.326016 -5 0 -5 
C -1.326016 -5 -2.597899 -4.473168 -3.535534 -3.535534 
C -4.473168 -2.597899 -5 -1.326016 -5 0 
C -5 1.326016 -4.473168 2.597899 -3.535534 3.535534 
C -2.597899 4.473168 -1.326016 5 0 5 
z
" style="stroke: #2b2b2b; stroke-opacity: 0.75"/>
     </defs>
     <g>
      <use xlink:href="#m6ef1c37364" x="158.874375" y="201.149144" style="fill: #157f3b; fill-opacity: 0.75; stroke: #2b2b2b; stroke-opacity: 0.75"/>
     </g>
    </g>
    <g id="text_32">
     <text style="font: 10px 'Arial'; text-anchor: start" x="176.874375" y="204.649144" transform="rotate(-0 176.874375 204.649144)">LNCaP</text>
    </g>
    <g id="line2d_55">
     <defs>
      <path id="m194777044c" d="M 0 5 
C 1.326016 5 2.597899 4.473168 3.535534 3.535534 
C 4.473168 2.597899 5 1.326016 5 0 
C 5 -1.326016 4.473168 -2.597899 3.535534 -3.535534 
C 2.597899 -4.473168 1.326016 -5 0 -5 
C -1.326016 -5 -2.597899 -4.473168 -3.535534 -3.535534 
C -4.473168 -2.597899 -5 -1.326016 -5 0 
C -5 1.326016 -4.473168 2.597899 -3.535534 3.535534 
C -2.597899 4.473168 -1.326016 5 0 5 
z
" style="stroke: #2b2b2b; stroke-opacity: 0.75"/>
     </defs>
     <g>
      <use xlink:href="#m194777044c" x="158.874375" y="215.294456" style="fill: #4bb062; fill-opacity: 0.75; stroke: #2b2b2b; stroke-opacity: 0.75"/>
     </g>
    </g>
    <g id="text_33">
     <text style="font: 10px 'Arial'; text-anchor: start" x="176.874375" y="218.794456" transform="rotate(-0 176.874375 218.794456)">RWPE</text>
    </g>
    <g id="line2d_56">
     <defs>
      <path id="m38a9561067" d="M 0 5 
C 1.326016 5 2.597899 4.473168 3.535534 3.535534 
C 4.473168 2.597899 5 1.326016 5 0 
C 5 -1.326016 4.473168 -2.597899 3.535534 -3.535534 
C 2.597899 -4.473168 1.326016 -5 0 -5 
C -1.326016 -5 -2.597899 -4.473168 -3.535534 -3.535534 
C -4.473168 -2.597899 -5 -1.326016 -5 0 
C -5 1.326016 -4.473168 2.597899 -3.535534 3.535534 
C -2.597899 4.473168 -1.326016 5 0 5 
z
" style="stroke: #2b2b2b; stroke-opacity: 0.75"/>
     </defs>
     <g>
      <use xlink:href="#m38a9561067" x="158.874375" y="229.439769" style="fill: #bc141a; fill-opacity: 0.75; stroke: #2b2b2b; stroke-opacity: 0.75"/>
     </g>
    </g>
    <g id="text_34">
     <text style="font: 10px 'Arial'; text-anchor: start" x="176.874375" y="232.939769" transform="rotate(-0 176.874375 232.939769)">MCF7</text>
    </g>
    <g id="line2d_57">
     <defs>
      <path id="m15c843f985" d="M 0 5 
C 1.326016 5 2.597899 4.473168 3.535534 3.535534 
C 4.473168 2.597899 5 1.326016 5 0 
C 5 -1.326016 4.473168 -2.597899 3.535534 -3.535534 
C 2.597899 -4.473168 1.326016 -5 0 -5 
C -1.326016 -5 -2.597899 -4.473168 -3.535534 -3.535534 
C -4.473168 -2.597899 -5 -1.326016 -5 0 
C -5 1.326016 -4.473168 2.597899 -3.535534 3.535534 
C -2.597899 4.473168 -1.326016 5 0 5 
z
" style="stroke: #2b2b2b; stroke-opacity: 0.75"/>
     </defs>
     <g>
      <use xlink:href="#m15c843f985" x="158.874375" y="243.585081" style="fill: #f14432; fill-opacity: 0.75; stroke: #2b2b2b; stroke-opacity: 0.75"/>
     </g>
    </g>
    <g id="text_35">
     <text style="font: 10px 'Arial'; text-anchor: start" x="176.874375" y="247.085081" transform="rotate(-0 176.874375 247.085081)">MDAMB231</text>
    </g>
    <g id="line2d_58">
     <g>
      <use xlink:href="#m74fc18fad6" x="158.874375" y="257.730394" style="fill: #8c564b; fill-opacity: 0.75; stroke: #2b2b2b; stroke-opacity: 0.75"/>
     </g>
    </g>
    <g id="text_36">
     <text style="font: 10px 'Arial'; text-anchor: start" x="176.874375" y="261.230394" transform="rotate(-0 176.874375 261.230394)">A549</text>
    </g>
    <g id="line2d_59">
     <defs>
      <path id="md2864f7349" d="M 0 5 
C 1.326016 5 2.597899 4.473168 3.535534 3.535534 
C 4.473168 2.597899 5 1.326016 5 0 
C 5 -1.326016 4.473168 -2.597899 3.535534 -3.535534 
C 2.597899 -4.473168 1.326016 -5 0 -5 
C -1.326016 -5 -2.597899 -4.473168 -3.535534 -3.535534 
C -4.473168 -2.597899 -5 -1.326016 -5 0 
C -5 1.326016 -4.473168 2.597899 -3.535534 3.535534 
C -2.597899 4.473168 -1.326016 5 0 5 
z
" style="stroke: #2b2b2b; stroke-opacity: 0.75"/>
     </defs>
     <g>
      <use xlink:href="#md2864f7349" x="158.874375" y="271.997581" style="fill: #e377c2; fill-opacity: 0.75; stroke: #2b2b2b; stroke-opacity: 0.75"/>
     </g>
    </g>
    <g id="text_37">
     <text style="font: 10px 'Arial'; text-anchor: start" x="176.874375" y="275.497581" transform="rotate(-0 176.874375 275.497581)">HepG2</text>
    </g>
    <g id="line2d_60">
     <defs>
      <path id="m4a5e7e9ff3" d="M 0 5 
C 1.326016 5 2.597899 4.473168 3.535534 3.535534 
C 4.473168 2.597899 5 1.326016 5 0 
C 5 -1.326016 4.473168 -2.597899 3.535534 -3.535534 
C 2.597899 -4.473168 1.326016 -5 0 -5 
C -1.326016 -5 -2.597899 -4.473168 -3.535534 -3.535534 
C -4.473168 -2.597899 -5 -1.326016 -5 0 
C -5 1.326016 -4.473168 2.597899 -3.535534 3.535534 
C -2.597899 4.473168 -1.326016 5 0 5 
z
" style="stroke: #2b2b2b; stroke-opacity: 0.75"/>
     </defs>
     <g>
      <use xlink:href="#m4a5e7e9ff3" x="158.874375" y="286.142894" style="fill: #7f7f7f; fill-opacity: 0.75; stroke: #2b2b2b; stroke-opacity: 0.75"/>
     </g>
    </g>
    <g id="text_38">
     <text style="font: 10px 'Arial'; text-anchor: start" x="176.874375" y="289.642894" transform="rotate(-0 176.874375 289.642894)">CD8T</text>
    </g>
    <g id="line2d_61">
     <defs>
      <path id="m7dd740b87b" d="M 0 5 
C 1.326016 5 2.597899 4.473168 3.535534 3.535534 
C 4.473168 2.597899 5 1.326016 5 0 
C 5 -1.326016 4.473168 -2.597899 3.535534 -3.535534 
C 2.597899 -4.473168 1.326016 -5 0 -5 
C -1.326016 -5 -2.597899 -4.473168 -3.535534 -3.535534 
C -4.473168 -2.597899 -5 -1.326016 -5 0 
C -5 1.326016 -4.473168 2.597899 -3.535534 3.535534 
C -2.597899 4.473168 -1.326016 5 0 5 
z
" style="stroke: #2b2b2b; stroke-opacity: 0.75"/>
     </defs>
     <g>
      <use xlink:href="#m7dd740b87b" x="158.874375" y="300.288206" style="fill: #bcbd22; fill-opacity: 0.75; stroke: #2b2b2b; stroke-opacity: 0.75"/>
     </g>
    </g>
    <g id="text_39">
     <text style="font: 10px 'Arial'; text-anchor: start" x="176.874375" y="303.788206" transform="rotate(-0 176.874375 303.788206)">HCT116</text>
    </g>
    <g id="line2d_62">
     <g>
      <use xlink:href="#mf4f73550a9" x="158.874375" y="314.433519" style="fill: #17becf; fill-opacity: 0.75; stroke: #2b2b2b; stroke-opacity: 0.75"/>
     </g>
    </g>
    <g id="text_40">
     <text style="font: 10px 'Arial'; text-anchor: start" x="176.874375" y="317.933519" transform="rotate(-0 176.874375 317.933519)">HeLa</text>
    </g>
    <g id="line2d_63">
     <defs>
      <path id="m35bd73ebef" d="M -0 7.071068 
L 7.071068 0 
L 0 -7.071068 
L -7.071068 -0 
z
" style="stroke: #3d3d3d; stroke-opacity: 0.75; stroke-linejoin: miter"/>
     </defs>
     <g>
      <use xlink:href="#m35bd73ebef" x="158.874375" y="328.578831" style="fill: #1f77b4; fill-opacity: 0.75; stroke: #3d3d3d; stroke-opacity: 0.75; stroke-linejoin: miter"/>
     </g>
    </g>
    <g id="text_41">
     <text style="font: 10px 'Arial'; text-anchor: start" x="176.874375" y="332.078831" transform="rotate(-0 176.874375 332.078831)">Brain</text>
    </g>
    <g id="line2d_64">
     <defs>
      <path id="ma8070c805c" d="M -0 7.071068 
L 7.071068 0 
L 0 -7.071068 
L -7.071068 -0 
z
" style="stroke: #3d3d3d; stroke-opacity: 0.75; stroke-linejoin: miter"/>
     </defs>
     <g>
      <use xlink:href="#ma8070c805c" x="158.874375" y="342.724144" style="fill: #2ca02c; fill-opacity: 0.75; stroke: #3d3d3d; stroke-opacity: 0.75; stroke-linejoin: miter"/>
     </g>
    </g>
    <g id="text_42">
     <text style="font: 10px 'Arial'; text-anchor: start" x="176.874375" y="346.224144" transform="rotate(-0 176.874375 346.224144)">Liver</text>
    </g>
    <g id="line2d_65">
     <defs>
      <path id="m699018798f" d="M -0 7.071068 
L 7.071068 0 
L 0 -7.071068 
L -7.071068 -0 
z
" style="stroke: #3d3d3d; stroke-opacity: 0.75; stroke-linejoin: miter"/>
     </defs>
     <g>
      <use xlink:href="#m699018798f" x="158.874375" y="356.869456" style="fill: #ff7f0e; fill-opacity: 0.75; stroke: #3d3d3d; stroke-opacity: 0.75; stroke-linejoin: miter"/>
     </g>
    </g>
    <g id="text_43">
     <text style="font: 10px 'Arial'; text-anchor: start" x="176.874375" y="360.369456" transform="rotate(-0 176.874375 360.369456)">Kidney</text>
    </g>
   </g>
  </g>
 </g>
 <defs>
  <clipPath id="p3ff78fa32c">
   <rect x="45.74" y="25.44" width="519.46" height="346.034144"/>
  </clipPath>
 </defs>
</svg>
