<?xml version="1.0" encoding="utf-8" standalone="no"?>
<!DOCTYPE svg PUBLIC "-//W3C//DTD SVG 1.1//EN"
  "http://www.w3.org/Graphics/SVG/1.1/DTD/svg11.dtd">
<svg xmlns:xlink="http://www.w3.org/1999/xlink" width="360pt" height="288pt" viewBox="0 0 360 288" xmlns="http://www.w3.org/2000/svg" version="1.1">
 <metadata>
  <rdf:RDF xmlns:dc="http://purl.org/dc/elements/1.1/" xmlns:cc="http://creativecommons.org/ns#" xmlns:rdf="http://www.w3.org/1999/02/22-rdf-syntax-ns#">
   <cc:Work>
    <dc:type rdf:resource="http://purl.org/dc/dcmitype/StillImage"/>
    <dc:date>2024-09-16T22:59:52.737204</dc:date>
    <dc:format>image/svg+xml</dc:format>
    <dc:creator>
     <cc:Agent>
      <dc:title>Matplotlib v3.9.2, https://matplotlib.org/</dc:title>
     </cc:Agent>
    </dc:creator>
   </cc:Work>
  </rdf:RDF>
 </metadata>
 <defs>
  <style type="text/css">*{stroke-linejoin: round; stroke-linecap: butt}</style>
 </defs>
 <g id="figure_1">
  <g id="patch_1">
   <path d="M 0 288 
L 360 288 
L 360 0 
L 0 0 
z
" style="fill: #ffffff"/>
  </g>
  <g id="axes_1">
   <g id="patch_2">
    <path d="M 45.74 227.474144 
L 349.2 227.474144 
L 349.2 25.44 
L 45.74 25.44 
z
" style="fill: #ffffff"/>
   </g>
   <g id="matplotlib.axis_1">
    <g id="xtick_1">
     <g id="line2d_1">
      <defs>
       <path id="mdc72ec43bc" d="M 0 0 
L 0 3.5 
" style="stroke: #000000; stroke-width: 0.8"/>
      </defs>
      <g>
       <use xlink:href="#mdc72ec43bc" x="68.571156" y="227.474144" style="stroke: #000000; stroke-width: 0.8"/>
      </g>
     </g>
     <g id="text_1">
      <text style="font: 10px 'Arial'" transform="translate(43.640755 270.952679) rotate(-30)">MAZTER-seq</text>
     </g>
    </g>
    <g id="xtick_2">
     <g id="line2d_2">
      <g>
       <use xlink:href="#mdc72ec43bc" x="109.622726" y="227.474144" style="stroke: #000000; stroke-width: 0.8"/>
      </g>
     </g>
     <g id="text_2">
      <text style="font: 10px 'Arial'" transform="translate(91.188849 263.48542) rotate(-30)">m6A-seq2</text>
     </g>
    </g>
    <g id="xtick_3">
     <g id="line2d_3">
      <g>
       <use xlink:href="#mdc72ec43bc" x="150.674297" y="227.474144" style="stroke: #000000; stroke-width: 0.8"/>
      </g>
     </g>
     <g id="text_3">
      <text style="font: 10px 'Arial'" transform="translate(131.938298 262.64792) rotate(-30)">m6A-seq</text>
      <text style="font: 10px 'Arial'" transform="translate(133.93454 273.877387) rotate(-30)">(improved)</text>
     </g>
    </g>
    <g id="xtick_4">
     <g id="line2d_4">
      <g>
       <use xlink:href="#mdc72ec43bc" x="191.725867" y="227.474144" style="stroke: #000000; stroke-width: 0.8"/>
      </g>
     </g>
     <g id="text_4">
      <text style="font: 10px 'Arial'" transform="translate(176.415114 259.844866) rotate(-30)">miCLIP2</text>
     </g>
    </g>
    <g id="xtick_5">
     <g id="line2d_5">
      <g>
       <use xlink:href="#mdc72ec43bc" x="232.777438" y="227.474144" style="stroke: #000000; stroke-width: 0.8"/>
      </g>
     </g>
     <g id="text_5">
      <text style="font: 10px 'Arial'" transform="translate(205.706353 273.565257) rotate(-30)">m6A-CLIP-seq</text>
     </g>
    </g>
    <g id="xtick_6">
     <g id="line2d_6">
      <g>
       <use xlink:href="#mdc72ec43bc" x="273.829008" y="227.474144" style="stroke: #000000; stroke-width: 0.8"/>
      </g>
     </g>
     <g id="text_6">
      <text style="font: 10px 'Arial'" transform="translate(247.701036 272.369795) rotate(-30)">m6A-REF-seq</text>
     </g>
    </g>
    <g id="xtick_7">
     <g id="line2d_7">
      <g>
       <use xlink:href="#mdc72ec43bc" x="314.880578" y="227.474144" style="stroke: #000000; stroke-width: 0.8"/>
      </g>
     </g>
     <g id="text_7">
      <text style="font: 10px 'Arial'" transform="translate(300.850596 258.36596) rotate(-30)">miCLIP </text>
     </g>
    </g>
   </g>
   <g id="matplotlib.axis_2">
    <g id="ytick_1">
     <g id="line2d_8">
      <defs>
       <path id="m59cdea3b71" d="M 0 0 
L -3.5 0 
" style="stroke: #000000; stroke-width: 0.8"/>
      </defs>
      <g>
       <use xlink:href="#m59cdea3b71" x="45.74" y="224.329091" style="stroke: #000000; stroke-width: 0.8"/>
      </g>
     </g>
     <g id="text_8">
      <text style="font: 10px 'Arial'; text-anchor: end" x="38.74" y="227.907997" transform="rotate(-0 38.74 227.907997)">0.4</text>
     </g>
    </g>
    <g id="ytick_2">
     <g id="line2d_9">
      <g>
       <use xlink:href="#m59cdea3b71" x="45.74" y="183.973459" style="stroke: #000000; stroke-width: 0.8"/>
      </g>
     </g>
     <g id="text_9">
      <text style="font: 10px 'Arial'; text-anchor: end" x="38.74" y="187.552365" transform="rotate(-0 38.74 187.552365)">0.5</text>
     </g>
    </g>
    <g id="ytick_3">
     <g id="line2d_10">
      <g>
       <use xlink:href="#m59cdea3b71" x="45.74" y="143.617826" style="stroke: #000000; stroke-width: 0.8"/>
      </g>
     </g>
     <g id="text_10">
      <text style="font: 10px 'Arial'; text-anchor: end" x="38.74" y="147.196732" transform="rotate(-0 38.74 147.196732)">0.6</text>
     </g>
    </g>
    <g id="ytick_4">
     <g id="line2d_11">
      <g>
       <use xlink:href="#m59cdea3b71" x="45.74" y="103.262194" style="stroke: #000000; stroke-width: 0.8"/>
      </g>
     </g>
     <g id="text_11">
      <text style="font: 10px 'Arial'; text-anchor: end" x="38.74" y="106.8411" transform="rotate(-0 38.74 106.8411)">0.7</text>
     </g>
    </g>
    <g id="ytick_5">
     <g id="line2d_12">
      <g>
       <use xlink:href="#m59cdea3b71" x="45.74" y="62.906562" style="stroke: #000000; stroke-width: 0.8"/>
      </g>
     </g>
     <g id="text_12">
      <text style="font: 10px 'Arial'; text-anchor: end" x="38.74" y="66.485468" transform="rotate(-0 38.74 66.485468)">0.8</text>
     </g>
    </g>
    <g id="text_13">
     <text style="font: 10px 'Arial'; text-anchor: middle" x="18.8525" y="126.457072" transform="rotate(-90 18.8525 126.457072)">AUPRC</text>
    </g>
   </g>
   <g id="LineCollection_1">
    <path d="M 89.096941 218.290773 
L 89.096941 34.62337 
" clip-path="url(#p0d5a8da6ff)" style="fill: none; stroke-dasharray: 0.74,0.32; stroke-dashoffset: 0; stroke: #808080; stroke-width: 0.2"/>
   </g>
   <g id="LineCollection_2">
    <path d="M 130.148511 218.290773 
L 130.148511 34.62337 
" clip-path="url(#p0d5a8da6ff)" style="fill: none; stroke-dasharray: 0.74,0.32; stroke-dashoffset: 0; stroke: #808080; stroke-width: 0.2"/>
   </g>
   <g id="LineCollection_3">
    <path d="M 171.200082 218.290773 
L 171.200082 34.62337 
" clip-path="url(#p0d5a8da6ff)" style="fill: none; stroke-dasharray: 0.74,0.32; stroke-dashoffset: 0; stroke: #808080; stroke-width: 0.2"/>
   </g>
   <g id="LineCollection_4">
    <path d="M 212.251652 218.290773 
L 212.251652 34.62337 
" clip-path="url(#p0d5a8da6ff)" style="fill: none; stroke-dasharray: 0.74,0.32; stroke-dashoffset: 0; stroke: #808080; stroke-width: 0.2"/>
   </g>
   <g id="LineCollection_5">
    <path d="M 253.303223 218.290773 
L 253.303223 34.62337 
" clip-path="url(#p0d5a8da6ff)" style="fill: none; stroke-dasharray: 0.74,0.32; stroke-dashoffset: 0; stroke: #808080; stroke-width: 0.2"/>
   </g>
   <g id="LineCollection_6">
    <path d="M 294.354793 218.290773 
L 294.354793 34.62337 
" clip-path="url(#p0d5a8da6ff)" style="fill: none; stroke-dasharray: 0.74,0.32; stroke-dashoffset: 0; stroke: #808080; stroke-width: 0.2"/>
   </g>
   <g id="LineCollection_7">
    <path d="M 335.406364 218.290773 
L 335.406364 34.62337 
" clip-path="url(#p0d5a8da6ff)" style="fill: none; stroke-dasharray: 0.74,0.32; stroke-dashoffset: 0; stroke: #808080; stroke-width: 0.2"/>
   </g>
   <g id="patch_3">
    <path d="M 45.74 227.474144 
L 45.74 25.44 
" style="fill: none; stroke: #000000; stroke-width: 0.8; stroke-linejoin: miter; stroke-linecap: square"/>
   </g>
   <g id="patch_4">
    <path d="M 45.74 227.474144 
L 349.2 227.474144 
" style="fill: none; stroke: #000000; stroke-width: 0.8; stroke-linejoin: miter; stroke-linecap: square"/>
   </g>
   <g id="PathCollection_1">
    <path d="M 6.071068 289 
L 7.071068 288 
L 0 280.928932 
L -1 281.928932 
" clip-path="url(#p0d5a8da6ff)" style="fill: none; stroke: #3d3d3d; stroke-opacity: 0.75"/>
   </g>
   <g id="PathCollection_2">
    <path d="M 6.071068 289 
L 7.071068 288 
L 0 280.928932 
L -1 281.928932 
" clip-path="url(#p0d5a8da6ff)" style="fill: none; stroke: #3d3d3d; stroke-opacity: 0.75"/>
   </g>
   <g id="PathCollection_3">
    <defs>
     <path id="m8715b5f384" d="M -0 7.071068 
L 7.071068 0 
L 0 -7.071068 
L -7.071068 -0 
z
" style="stroke: #3d3d3d; stroke-opacity: 0.75"/>
    </defs>
    <g clip-path="url(#p0d5a8da6ff)">
     <use xlink:href="#m8715b5f384" x="150.674297" y="62.773473" style="fill: #1f77b4; fill-opacity: 0.75; stroke: #3d3d3d; stroke-opacity: 0.75"/>
    </g>
   </g>
   <g id="PathCollection_4">
    <path d="M 6.071068 289 
L 7.071068 288 
L 0 280.928932 
L -1 281.928932 
" clip-path="url(#p0d5a8da6ff)" style="fill: none; stroke: #3d3d3d; stroke-opacity: 0.75"/>
   </g>
   <g id="PathCollection_5">
    <path d="M 232.777438 138.502334 
L 239.848505 131.431266 
L 232.777438 124.360198 
L 225.70637 131.431266 
z
" clip-path="url(#p0d5a8da6ff)" style="fill: #1f77b4; fill-opacity: 0.75; stroke: #3d3d3d; stroke-opacity: 0.75"/>
    <path d="M 232.777438 94.226062 
L 239.848505 87.154995 
L 232.777438 80.083927 
L 225.70637 87.154995 
z
" clip-path="url(#p0d5a8da6ff)" style="fill: #d62728; fill-opacity: 0.75; stroke: #3d3d3d; stroke-opacity: 0.75"/>
    <path d="M 232.777438 220.532535 
L 239.848505 213.461467 
L 232.777438 206.390399 
L 225.70637 213.461467 
z
" clip-path="url(#p0d5a8da6ff)" style="fill: #e377c2; fill-opacity: 0.75; stroke: #3d3d3d; stroke-opacity: 0.75"/>
   </g>
   <g id="PathCollection_6">
    <path d="M 273.829008 172.78884 
L 280.900076 165.717772 
L 273.829008 158.646704 
L 266.75794 165.717772 
z
" clip-path="url(#p0d5a8da6ff)" style="fill: #1f77b4; fill-opacity: 0.75; stroke: #3d3d3d; stroke-opacity: 0.75"/>
    <path d="M 273.829008 189.213531 
L 280.900076 182.142464 
L 273.829008 175.071396 
L 266.75794 182.142464 
z
" clip-path="url(#p0d5a8da6ff)" style="fill: #ff7f0e; fill-opacity: 0.75; stroke: #3d3d3d; stroke-opacity: 0.75"/>
    <path d="M 263.626109 148.913846 
L 270.697177 141.842778 
L 263.626109 134.77171 
L 256.555041 141.842778 
z
" clip-path="url(#p0d5a8da6ff)" style="fill: #2ca02c; fill-opacity: 0.75; stroke: #3d3d3d; stroke-opacity: 0.75"/>
    <path d="M 273.829008 154.069328 
L 280.900076 146.99826 
L 273.829008 139.927193 
L 266.75794 146.99826 
z
" clip-path="url(#p0d5a8da6ff)" style="fill: #d62728; fill-opacity: 0.75; stroke: #3d3d3d; stroke-opacity: 0.75"/>
    <path d="M 283.160136 147.586659 
L 290.231203 140.515592 
L 283.160136 133.444524 
L 276.089068 140.515592 
z
" clip-path="url(#p0d5a8da6ff)" style="fill: #8c564b; fill-opacity: 0.75; stroke: #3d3d3d; stroke-opacity: 0.75"/>
   </g>
   <g id="PathCollection_7">
    <path d="M 314.880578 69.704042 
L 321.951646 62.632974 
L 314.880578 55.561907 
L 307.809511 62.632974 
z
" clip-path="url(#p0d5a8da6ff)" style="fill: #d62728; fill-opacity: 0.75; stroke: #3d3d3d; stroke-opacity: 0.75"/>
    <path d="M 314.880578 225.361841 
L 321.951646 218.290773 
L 314.880578 211.219706 
L 307.809511 218.290773 
z
" clip-path="url(#p0d5a8da6ff)" style="fill: #9467bd; fill-opacity: 0.75; stroke: #3d3d3d; stroke-opacity: 0.75"/>
    <path d="M 314.880578 184.211437 
L 321.951646 177.14037 
L 314.880578 170.069302 
L 307.809511 177.14037 
z
" clip-path="url(#p0d5a8da6ff)" style="fill: #8c564b; fill-opacity: 0.75; stroke: #3d3d3d; stroke-opacity: 0.75"/>
   </g>
   <g id="line2d_13"/>
   <g id="line2d_14"/>
   <g id="line2d_15"/>
   <g id="line2d_16"/>
   <g id="line2d_17"/>
   <g id="line2d_18"/>
   <g id="line2d_19"/>
   <g id="PathCollection_8">
    <defs>
     <path id="C0_0_072c2b5115" d="M 0 5 
C 1.326016 5 2.597899 4.473168 3.535534 3.535534 
C 4.473168 2.597899 5 1.326016 5 -0 
C 5 -1.326016 4.473168 -2.597899 3.535534 -3.535534 
C 2.597899 -4.473168 1.326016 -5 0 -5 
C -1.326016 -5 -2.597899 -4.473168 -3.535534 -3.535534 
C -4.473168 -2.597899 -5 -1.326016 -5 0 
C -5 1.326016 -4.473168 2.597899 -3.535534 3.535534 
C -2.597899 4.473168 -1.326016 5 0 5 
z
"/>
    </defs>
    <g clip-path="url(#p0d5a8da6ff)">
     <use xlink:href="#C0_0_072c2b5115" x="68.571156" y="40.558747" style="fill: #1f77b4; fill-opacity: 0.75; stroke: #3d3d3d; stroke-opacity: 0.75"/>
    </g>
    <g clip-path="url(#p0d5a8da6ff)">
     <use xlink:href="#C0_0_072c2b5115" x="58.846812" y="34.62337" style="fill: #ff7f0e; fill-opacity: 0.75; stroke: #3d3d3d; stroke-opacity: 0.75"/>
    </g>
   </g>
   <g id="PathCollection_9">
    <defs>
     <path id="m7c35d932f4" d="M 0 5 
C 1.326016 5 2.597899 4.473168 3.535534 3.535534 
C 4.473168 2.597899 5 1.326016 5 0 
C 5 -1.326016 4.473168 -2.597899 3.535534 -3.535534 
C 2.597899 -4.473168 1.326016 -5 0 -5 
C -1.326016 -5 -2.597899 -4.473168 -3.535534 -3.535534 
C -4.473168 -2.597899 -5 -1.326016 -5 0 
C -5 1.326016 -4.473168 2.597899 -3.535534 3.535534 
C -2.597899 4.473168 -1.326016 5 0 5 
z
" style="stroke: #3d3d3d; stroke-opacity: 0.75"/>
    </defs>
    <g clip-path="url(#p0d5a8da6ff)">
     <use xlink:href="#m7c35d932f4" x="109.622726" y="61.55947" style="fill: #ff7f0e; fill-opacity: 0.75; stroke: #3d3d3d; stroke-opacity: 0.75"/>
    </g>
   </g>
   <g id="PathCollection_10">
    <path d="M 0 293 
C 1.326016 293 2.597899 292.473168 3.535534 291.535534 
C 4.473168 290.597899 5 289.326015 5 288 
C 5 286.673985 4.473168 285.402101 3.535534 284.464466 
C 2.597899 283.526832 1.326016 283 0 283 
C -1.326016 283 -2.597899 283.526832 -3.535534 284.464466 
C -4.473168 285.402101 -5 286.673985 -5 288 
C -5 289.326015 -4.473168 290.597899 -3.535534 291.535534 
C -2.597899 292.473168 -1.326016 293 0 293 
" clip-path="url(#p0d5a8da6ff)" style="fill: none; stroke: #3d3d3d; stroke-opacity: 0.75"/>
   </g>
   <g id="PathCollection_11">
    <defs>
     <path id="m62a730e42c" d="M 0 5 
C 1.326016 5 2.597899 4.473168 3.535534 3.535534 
C 4.473168 2.597899 5 1.326016 5 0 
C 5 -1.326016 4.473168 -2.597899 3.535534 -3.535534 
C 2.597899 -4.473168 1.326016 -5 0 -5 
C -1.326016 -5 -2.597899 -4.473168 -3.535534 -3.535534 
C -4.473168 -2.597899 -5 -1.326016 -5 0 
C -5 1.326016 -4.473168 2.597899 -3.535534 3.535534 
C -2.597899 4.473168 -1.326016 5 0 5 
z
" style="stroke: #3d3d3d; stroke-opacity: 0.75"/>
    </defs>
    <g clip-path="url(#p0d5a8da6ff)">
     <use xlink:href="#m62a730e42c" x="191.725867" y="90.560866" style="fill: #d62728; fill-opacity: 0.75; stroke: #3d3d3d; stroke-opacity: 0.75"/>
    </g>
   </g>
   <g id="PathCollection_12">
    <g clip-path="url(#p0d5a8da6ff)">
     <use xlink:href="#m7c35d932f4" x="232.777438" y="130.37723" style="fill: #ff7f0e; fill-opacity: 0.75; stroke: #3d3d3d; stroke-opacity: 0.75"/>
    </g>
   </g>
   <g id="PathCollection_13">
    <g clip-path="url(#p0d5a8da6ff)">
     <use xlink:href="#m7c35d932f4" x="273.829008" y="72.610706" style="fill: #ff7f0e; fill-opacity: 0.75; stroke: #3d3d3d; stroke-opacity: 0.75"/>
    </g>
   </g>
   <g id="PathCollection_14">
    <defs>
     <path id="m2ad3bb895a" d="M 0 5 
C 1.326016 5 2.597899 4.473168 3.535534 3.535534 
C 4.473168 2.597899 5 1.326016 5 0 
C 5 -1.326016 4.473168 -2.597899 3.535534 -3.535534 
C 2.597899 -4.473168 1.326016 -5 0 -5 
C -1.326016 -5 -2.597899 -4.473168 -3.535534 -3.535534 
C -4.473168 -2.597899 -5 -1.326016 -5 0 
C -5 1.326016 -4.473168 2.597899 -3.535534 3.535534 
C -2.597899 4.473168 -1.326016 5 0 5 
z
" style="stroke: #3d3d3d; stroke-opacity: 0.75"/>
    </defs>
    <g clip-path="url(#p0d5a8da6ff)">
     <use xlink:href="#m2ad3bb895a" x="314.880578" y="122.267508" style="fill: #2ca02c; fill-opacity: 0.75; stroke: #3d3d3d; stroke-opacity: 0.75"/>
    </g>
   </g>
   <g id="line2d_20"/>
   <g id="line2d_21"/>
   <g id="line2d_22"/>
   <g id="line2d_23"/>
   <g id="text_14">
    <text style="font: 12px 'Arial'; text-anchor: middle" x="197.47" y="19.44" transform="rotate(-0 197.47 19.44)">Mouse</text>
   </g>
   <g id="legend_1">
    <g id="line2d_24">
     <defs>
      <path id="mb61372e73d" d="M -0 7.071068 
L 7.071068 0 
L 0 -7.071068 
L -7.071068 -0 
z
" style="stroke: #3d3d3d; stroke-opacity: 0.75; stroke-linejoin: miter"/>
     </defs>
     <g>
      <use xlink:href="#mb61372e73d" x="64.74" y="142.142894" style="fill: #1f77b4; fill-opacity: 0.75; stroke: #3d3d3d; stroke-opacity: 0.75; stroke-linejoin: miter"/>
     </g>
    </g>
    <g id="text_15">
     <text style="font: 10px 'Arial'; text-anchor: start" x="82.74" y="145.642894" transform="rotate(-0 82.74 145.642894)">Brain</text>
    </g>
    <g id="line2d_25">
     <defs>
      <path id="mb4801eddd7" d="M -0 7.071068 
L 7.071068 0 
L 0 -7.071068 
L -7.071068 -0 
z
" style="stroke: #3d3d3d; stroke-opacity: 0.75; stroke-linejoin: miter"/>
     </defs>
     <g>
      <use xlink:href="#mb4801eddd7" x="64.74" y="156.288206" style="fill: #ff7f0e; fill-opacity: 0.75; stroke: #3d3d3d; stroke-opacity: 0.75; stroke-linejoin: miter"/>
     </g>
    </g>
    <g id="text_16">
     <text style="font: 10px 'Arial'; text-anchor: start" x="82.74" y="159.788206" transform="rotate(-0 82.74 159.788206)">Heart</text>
    </g>
    <g id="line2d_26">
     <defs>
      <path id="m51c8a7b9d7" d="M -0 7.071068 
L 7.071068 0 
L 0 -7.071068 
L -7.071068 -0 
z
" style="stroke: #3d3d3d; stroke-opacity: 0.75; stroke-linejoin: miter"/>
     </defs>
     <g>
      <use xlink:href="#m51c8a7b9d7" x="64.74" y="170.433519" style="fill: #2ca02c; fill-opacity: 0.75; stroke: #3d3d3d; stroke-opacity: 0.75; stroke-linejoin: miter"/>
     </g>
    </g>
    <g id="text_17">
     <text style="font: 10px 'Arial'; text-anchor: start" x="82.74" y="173.933519" transform="rotate(-0 82.74 173.933519)">Kidney</text>
    </g>
    <g id="line2d_27">
     <defs>
      <path id="m96eb04a6a0" d="M -0 7.071068 
L 7.071068 0 
L 0 -7.071068 
L -7.071068 -0 
z
" style="stroke: #3d3d3d; stroke-opacity: 0.75; stroke-linejoin: miter"/>
     </defs>
     <g>
      <use xlink:href="#m96eb04a6a0" x="64.74" y="184.696019" style="fill: #d62728; fill-opacity: 0.75; stroke: #3d3d3d; stroke-opacity: 0.75; stroke-linejoin: miter"/>
     </g>
    </g>
    <g id="text_18">
     <text style="font: 10px 'Arial'; text-anchor: start" x="82.74" y="188.196019" transform="rotate(-0 82.74 188.196019)">Liver</text>
    </g>
    <g id="line2d_28">
     <defs>
      <path id="m8d43cc2f08" d="M -0 7.071068 
L 7.071068 0 
L 0 -7.071068 
L -7.071068 -0 
z
" style="stroke: #3d3d3d; stroke-opacity: 0.75; stroke-linejoin: miter"/>
     </defs>
     <g>
      <use xlink:href="#m8d43cc2f08" x="64.74" y="198.841331" style="fill: #9467bd; fill-opacity: 0.75; stroke: #3d3d3d; stroke-opacity: 0.75; stroke-linejoin: miter"/>
     </g>
    </g>
    <g id="text_19">
     <text style="font: 10px 'Arial'; text-anchor: start" x="82.74" y="202.341331" transform="rotate(-0 82.74 202.341331)">Skin</text>
    </g>
    <g id="line2d_29">
     <defs>
      <path id="m42cc43f50f" d="M -0 7.071068 
L 7.071068 0 
L 0 -7.071068 
L -7.071068 -0 
z
" style="stroke: #3d3d3d; stroke-opacity: 0.75; stroke-linejoin: miter"/>
     </defs>
     <g>
      <use xlink:href="#m42cc43f50f" x="64.74" y="212.986644" style="fill: #8c564b; fill-opacity: 0.75; stroke: #3d3d3d; stroke-opacity: 0.75; stroke-linejoin: miter"/>
     </g>
    </g>
    <g id="text_20">
     <text style="font: 10px 'Arial'; text-anchor: start" x="82.74" y="216.486644" transform="rotate(-0 82.74 216.486644)">Testis</text>
    </g>
    <g id="line2d_30">
     <defs>
      <path id="m3d2865677d" d="M -0 7.071068 
L 7.071068 0 
L 0 -7.071068 
L -7.071068 -0 
z
" style="stroke: #3d3d3d; stroke-opacity: 0.75; stroke-linejoin: miter"/>
     </defs>
     <g>
      <use xlink:href="#m3d2865677d" x="143.315" y="142.142894" style="fill: #e377c2; fill-opacity: 0.75; stroke: #3d3d3d; stroke-opacity: 0.75; stroke-linejoin: miter"/>
     </g>
    </g>
    <g id="text_21">
     <text style="font: 10px 'Arial'; text-anchor: start" x="161.315" y="145.642894" transform="rotate(-0 161.315 145.642894)">DRG</text>
    </g>
    <g id="line2d_31">
     <defs>
      <path id="m4995dea00d" d="M 0 5 
C 1.326016 5 2.597899 4.473168 3.535534 3.535534 
C 4.473168 2.597899 5 1.326016 5 0 
C 5 -1.326016 4.473168 -2.597899 3.535534 -3.535534 
C 2.597899 -4.473168 1.326016 -5 0 -5 
C -1.326016 -5 -2.597899 -4.473168 -3.535534 -3.535534 
C -4.473168 -2.597899 -5 -1.326016 -5 0 
C -5 1.326016 -4.473168 2.597899 -3.535534 3.535534 
C -2.597899 4.473168 -1.326016 5 0 5 
z
" style="stroke: #3d3d3d; stroke-opacity: 0.75"/>
     </defs>
     <g>
      <use xlink:href="#m4995dea00d" x="143.315" y="156.288206" style="fill: #1f77b4; fill-opacity: 0.75; stroke: #3d3d3d; stroke-opacity: 0.75"/>
     </g>
    </g>
    <g id="text_22">
     <text style="font: 10px 'Arial'; text-anchor: start" x="161.315" y="159.788206" transform="rotate(-0 161.315 159.788206)">EB</text>
    </g>
    <g id="line2d_32">
     <g>
      <use xlink:href="#m7c35d932f4" x="143.315" y="170.433519" style="fill: #ff7f0e; fill-opacity: 0.75; stroke: #3d3d3d; stroke-opacity: 0.75"/>
     </g>
    </g>
    <g id="text_23">
     <text style="font: 10px 'Arial'; text-anchor: start" x="161.315" y="173.933519" transform="rotate(-0 161.315 173.933519)">ESC</text>
    </g>
    <g id="line2d_33">
     <g>
      <use xlink:href="#m2ad3bb895a" x="143.315" y="184.578831" style="fill: #2ca02c; fill-opacity: 0.75; stroke: #3d3d3d; stroke-opacity: 0.75"/>
     </g>
    </g>
    <g id="text_24">
     <text style="font: 10px 'Arial'; text-anchor: start" x="161.315" y="188.078831" transform="rotate(-0 161.315 188.078831)">MEFs</text>
    </g>
    <g id="line2d_34">
     <g>
      <use xlink:href="#m62a730e42c" x="143.315" y="198.724144" style="fill: #d62728; fill-opacity: 0.75; stroke: #3d3d3d; stroke-opacity: 0.75"/>
     </g>
    </g>
    <g id="text_25">
     <text style="font: 10px 'Arial'; text-anchor: start" x="161.315" y="202.224144" transform="rotate(-0 161.315 202.224144)">Macrophages</text>
    </g>
   </g>
  </g>
 </g>
 <defs>
  <clipPath id="p0d5a8da6ff">
   <rect x="45.74" y="25.44" width="303.46" height="202.034144"/>
  </clipPath>
 </defs>
</svg>
