<?xml version="1.0" encoding="utf-8" standalone="no"?>
<!DOCTYPE svg PUBLIC "-//W3C//DTD SVG 1.1//EN"
  "http://www.w3.org/Graphics/SVG/1.1/DTD/svg11.dtd">
<svg xmlns:xlink="http://www.w3.org/1999/xlink" width="288pt" height="288pt" viewBox="0 0 288 288" xmlns="http://www.w3.org/2000/svg" version="1.1">
 <metadata>
  <rdf:RDF xmlns:dc="http://purl.org/dc/elements/1.1/" xmlns:cc="http://creativecommons.org/ns#" xmlns:rdf="http://www.w3.org/1999/02/22-rdf-syntax-ns#">
   <cc:Work>
    <dc:type rdf:resource="http://purl.org/dc/dcmitype/StillImage"/>
    <dc:date>2024-09-14T23:14:17.477301</dc:date>
    <dc:format>image/svg+xml</dc:format>
    <dc:creator>
     <cc:Agent>
      <dc:title>Matplotlib v3.9.2, https://matplotlib.org/</dc:title>
     </cc:Agent>
    </dc:creator>
   </cc:Work>
  </rdf:RDF>
 </metadata>
 <defs>
  <style type="text/css">*{stroke-linejoin: round; stroke-linecap: butt}</style>
 </defs>
 <g id="figure_1">
  <g id="patch_1">
   <path d="M 0 288 
L 288 288 
L 288 0 
L 0 0 
L 0 288 
z
" style="fill: none"/>
  </g>
  <g id="axes_1">
   <g id="patch_2">
    <path d="M 45.83 246.04 
L 272.413235 246.04 
L 272.413235 12.585882 
L 45.83 12.585882 
L 45.83 246.04 
z
" style="fill: none"/>
   </g>
   <g id="matplotlib.axis_1">
    <g id="xtick_1">
     <g id="line2d_1">
      <defs>
       <path id="m4339b2ae77" d="M 0 0 
L 0 3.5 
" style="stroke: #000000; stroke-width: 0.8"/>
      </defs>
      <g>
       <use xlink:href="#m4339b2ae77" x="48.051404" y="246.04" style="stroke: #000000; stroke-width: 0.8"/>
      </g>
     </g>
     <g id="text_1">
      <text style="font: 10px 'Arial'; text-anchor: middle" x="48.051404" y="260.197812" transform="rotate(-0 48.051404 260.197812)">0.0</text>
     </g>
    </g>
    <g id="xtick_2">
     <g id="line2d_2">
      <g>
       <use xlink:href="#m4339b2ae77" x="92.47949" y="246.04" style="stroke: #000000; stroke-width: 0.8"/>
      </g>
     </g>
     <g id="text_2">
      <text style="font: 10px 'Arial'; text-anchor: middle" x="92.47949" y="260.197812" transform="rotate(-0 92.47949 260.197812)">0.2</text>
     </g>
    </g>
    <g id="xtick_3">
     <g id="line2d_3">
      <g>
       <use xlink:href="#m4339b2ae77" x="136.907575" y="246.04" style="stroke: #000000; stroke-width: 0.8"/>
      </g>
     </g>
     <g id="text_3">
      <text style="font: 10px 'Arial'; text-anchor: middle" x="136.907575" y="260.197812" transform="rotate(-0 136.907575 260.197812)">0.4</text>
     </g>
    </g>
    <g id="xtick_4">
     <g id="line2d_4">
      <g>
       <use xlink:href="#m4339b2ae77" x="181.33566" y="246.04" style="stroke: #000000; stroke-width: 0.8"/>
      </g>
     </g>
     <g id="text_4">
      <text style="font: 10px 'Arial'; text-anchor: middle" x="181.33566" y="260.197812" transform="rotate(-0 181.33566 260.197812)">0.6</text>
     </g>
    </g>
    <g id="xtick_5">
     <g id="line2d_5">
      <g>
       <use xlink:href="#m4339b2ae77" x="225.763746" y="246.04" style="stroke: #000000; stroke-width: 0.8"/>
      </g>
     </g>
     <g id="text_5">
      <text style="font: 10px 'Arial'; text-anchor: middle" x="225.763746" y="260.197812" transform="rotate(-0 225.763746 260.197812)">0.8</text>
     </g>
    </g>
    <g id="xtick_6">
     <g id="line2d_6">
      <g>
       <use xlink:href="#m4339b2ae77" x="270.191831" y="246.04" style="stroke: #000000; stroke-width: 0.8"/>
      </g>
     </g>
     <g id="text_6">
      <text style="font: 10px 'Arial'; text-anchor: middle" x="270.191831" y="260.197812" transform="rotate(-0 270.191831 260.197812)">1.0</text>
     </g>
    </g>
    <g id="text_7">
     <text style="font: 10px 'Arial'; text-anchor: middle" x="159.121618" y="273.343125" transform="rotate(-0 159.121618 273.343125)">False Postive Rate</text>
    </g>
   </g>
   <g id="matplotlib.axis_2">
    <g id="ytick_1">
     <g id="line2d_7">
      <defs>
       <path id="md16f7dbcec" d="M 0 0 
L -3.5 0 
" style="stroke: #000000; stroke-width: 0.8"/>
      </defs>
      <g>
       <use xlink:href="#md16f7dbcec" x="45.83" y="243.751234" style="stroke: #000000; stroke-width: 0.8"/>
      </g>
     </g>
     <g id="text_8">
      <text style="font: 10px 'Arial'; text-anchor: end" x="38.83" y="247.33014" transform="rotate(-0 38.83 247.33014)">0.0</text>
     </g>
    </g>
    <g id="ytick_2">
     <g id="line2d_8">
      <g>
       <use xlink:href="#md16f7dbcec" x="45.83" y="197.975917" style="stroke: #000000; stroke-width: 0.8"/>
      </g>
     </g>
     <g id="text_9">
      <text style="font: 10px 'Arial'; text-anchor: end" x="38.83" y="201.554823" transform="rotate(-0 38.83 201.554823)">0.2</text>
     </g>
    </g>
    <g id="ytick_3">
     <g id="line2d_9">
      <g>
       <use xlink:href="#md16f7dbcec" x="45.83" y="152.2006" style="stroke: #000000; stroke-width: 0.8"/>
      </g>
     </g>
     <g id="text_10">
      <text style="font: 10px 'Arial'; text-anchor: end" x="38.83" y="155.779506" transform="rotate(-0 38.83 155.779506)">0.4</text>
     </g>
    </g>
    <g id="ytick_4">
     <g id="line2d_10">
      <g>
       <use xlink:href="#md16f7dbcec" x="45.83" y="106.425283" style="stroke: #000000; stroke-width: 0.8"/>
      </g>
     </g>
     <g id="text_11">
      <text style="font: 10px 'Arial'; text-anchor: end" x="38.83" y="110.004189" transform="rotate(-0 38.83 110.004189)">0.6</text>
     </g>
    </g>
    <g id="ytick_5">
     <g id="line2d_11">
      <g>
       <use xlink:href="#md16f7dbcec" x="45.83" y="60.649965" style="stroke: #000000; stroke-width: 0.8"/>
      </g>
     </g>
     <g id="text_12">
      <text style="font: 10px 'Arial'; text-anchor: end" x="38.83" y="64.228872" transform="rotate(-0 38.83 64.228872)">0.8</text>
     </g>
    </g>
    <g id="ytick_6">
     <g id="line2d_12">
      <g>
       <use xlink:href="#md16f7dbcec" x="45.83" y="14.874648" style="stroke: #000000; stroke-width: 0.8"/>
      </g>
     </g>
     <g id="text_13">
      <text style="font: 10px 'Arial'; text-anchor: end" x="38.83" y="18.453554" transform="rotate(-0 38.83 18.453554)">1.0</text>
     </g>
    </g>
    <g id="text_14">
     <text style="font: 10px 'Arial'; text-anchor: middle" x="18.9425" y="129.312941" transform="rotate(-90 18.9425 129.312941)">True Postive Rate</text>
    </g>
   </g>
   <g id="line2d_13">
    <path d="M 48.051404 243.751234 
L 48.055507 242.563477 
L 48.160132 238.682056 
L 48.982768 229.137578 
L 49.109958 228.543699 
L 52.180996 207.439797 
L 53.902172 198.467988 
L 54.486838 196.007633 
L 55.420253 191.617174 
L 55.799773 189.962797 
L 56.169036 188.244791 
L 60.657633 170.173913 
L 61.779783 166.610641 
L 62.602419 163.132209 
L 63.831244 159.823456 
L 64.735938 157.151002 
L 65.049812 156.408654 
L 66.018102 153.269581 
L 66.992546 150.448658 
L 67.7003 148.624602 
L 68.685001 145.888518 
L 70.584654 141.498058 
L 73.17565 135.304752 
L 74.660908 131.88995 
L 75.440463 130.490093 
L 75.879476 129.387176 
L 76.318488 128.920557 
L 77.155485 127.351021 
L 78.076591 125.420915 
L 78.486883 124.869456 
L 81.539457 118.90946 
L 81.998985 118.188322 
L 82.858547 116.321846 
L 83.338589 115.176509 
L 83.837094 114.37053 
L 84.333547 113.797862 
L 87.144049 109.004413 
L 88.079516 107.540926 
L 88.584175 106.947047 
L 89.064217 106.035019 
L 89.999683 104.804842 
L 97.5347 94.390756 
L 98.074235 93.860507 
L 99.662066 91.569833 
L 100.737031 90.085136 
L 102.854139 87.476312 
L 104.519926 85.440157 
L 105.598994 84.252399 
L 107.262729 82.258664 
L 107.843293 81.770835 
L 110.723545 78.101513 
L 114.334116 74.262512 
L 116.159917 72.565716 
L 116.744583 71.738528 
L 119.177616 69.511483 
L 119.764334 68.769135 
L 120.950079 67.751057 
L 122.246602 66.860239 
L 128.257384 61.96074 
L 129.638017 60.348784 
L 131.591008 58.694408 
L 132.329534 58.291419 
L 134.419973 56.615833 
L 136.541184 55.428075 
L 137.27971 54.876617 
L 140.289204 53.158611 
L 141.893446 52.246583 
L 145.791223 50.083168 
L 147.356488 49.10751 
L 150.747553 47.241034 
L 151.545571 46.731995 
L 152.466677 46.307796 
L 153.311879 45.713918 
L 154.16939 45.395768 
L 155.822868 44.441321 
L 156.707048 43.995912 
L 158.417966 43.317193 
L 161.889039 41.768867 
L 164.484137 40.22054 
L 168.939911 37.866236 
L 169.873326 37.484456 
L 170.769814 36.975418 
L 172.64485 36.254279 
L 173.588522 35.78766 
L 174.548606 35.172572 
L 180.231154 32.945527 
L 181.164568 32.754637 
L 184.108415 31.842609 
L 185.121837 31.6093 
L 186.959946 30.973001 
L 192.786096 29.148946 
L 193.754386 28.979266 
L 196.70849 27.791509 
L 197.637802 27.621829 
L 200.643193 26.561331 
L 209.874768 23.867668 
L 210.810235 23.697988 
L 214.470041 22.595071 
L 218.911455 21.343683 
L 226.727522 19.922617 
L 228.309199 19.477208 
L 231.44178 19.031799 
L 237.272033 18.056141 
L 241.278537 17.398632 
L 241.854997 17.250163 
L 242.46223 17.228953 
L 245.459415 16.635074 
L 248.249402 16.232085 
L 251.972804 15.829096 
L 252.428228 15.744256 
L 254.834592 15.553367 
L 255.607993 15.468527 
L 262.642454 15.129168 
L 264.320549 15.023118 
L 265.446801 14.938278 
L 270.191831 14.874648 
L 270.191831 14.874648 
" clip-path="url(#pe8abf9ba4c)" style="fill: none; stroke: #44757a; stroke-width: 2; stroke-linecap: square"/>
   </g>
   <g id="line2d_14">
    <path d="M 48.051404 243.751234 
L 48.157639 229.679382 
L 48.164279 229.679382 
L 48.270514 223.897383 
L 48.283793 223.827721 
L 48.393348 221.250203 
L 48.413267 221.145709 
L 48.519502 219.090661 
L 48.54938 218.986168 
L 48.648975 217.105276 
L 48.678854 217.000782 
L 48.788409 215.572698 
L 48.798368 215.468204 
L 48.904603 214.249108 
L 48.917882 214.179446 
L 49.027437 213.343494 
L 49.044036 213.239 
L 49.153591 211.358109 
L 49.18347 211.253615 
L 49.293024 209.825531 
L 49.296344 209.825531 
L 49.405899 208.258122 
L 49.412539 208.188459 
L 49.522093 206.760375 
L 49.548652 206.655881 
L 49.658207 205.018809 
L 49.691405 204.949147 
L 49.79764 203.590725 
L 49.810919 203.486231 
L 49.920474 202.719942 
L 49.933753 202.685111 
L 50.023389 201.640172 
L 50.079826 201.60534 
L 50.182741 200.177256 
L 50.21262 200.142425 
L 50.322175 198.43569 
L 50.345413 198.331196 
L 50.448328 197.146932 
L 50.478207 197.077269 
L 50.587762 196.067161 
L 50.591082 196.067161 
L 50.700636 194.012113 
L 50.717235 193.907619 
L 50.82679 192.409872 
L 50.843389 192.305378 
L 50.952944 190.981788 
L 50.966223 190.877294 
L 51.075778 189.727861 
L 51.112296 189.658198 
L 51.221851 188.752584 
L 51.24841 188.64809 
L 51.348005 187.637982 
L 51.364604 187.603151 
L 51.464199 186.453717 
L 51.477479 186.453717 
L 51.587033 185.339115 
L 51.600313 185.234621 
L 51.699908 184.537995 
L 51.716507 184.433501 
L 51.816102 183.284067 
L 51.839341 183.179573 
L 51.945576 181.960477 
L 51.995374 181.855983 
L 52.098289 181.22902 
L 52.114888 181.124526 
L 52.224443 180.323405 
L 52.244362 180.218911 
L 52.353916 179.626779 
L 52.377155 179.522285 
L 52.453512 178.790827 
L 52.503309 178.686333 
L 52.612864 177.745888 
L 52.656022 177.641394 
L 52.758937 176.909936 
L 52.775536 176.840274 
L 52.881771 176.039153 
L 52.89837 175.934659 
L 53.004605 175.029045 
L 53.017884 174.924551 
L 53.127439 174.227925 
L 53.167277 174.123431 
L 53.276832 173.182985 
L 53.30671 173.078491 
L 53.396346 172.381865 
L 53.429544 172.312202 
L 53.535779 171.302094 
L 53.555698 171.232432 
L 53.665253 170.605468 
L 53.691812 170.535805 
L 53.788087 169.839179 
L 53.841205 169.734685 
L 53.947439 168.724577 
L 53.970678 168.620083 
L 54.076913 167.853794 
L 54.13335 167.7493 
L 54.242905 166.913348 
L 54.269464 166.808854 
L 54.379019 165.938071 
L 54.408897 165.868409 
L 54.511812 164.788638 
L 54.571569 164.684144 
L 54.677804 164.196505 
L 54.694403 164.161674 
L 54.797318 163.395385 
L 54.823877 163.290891 
L 54.933432 162.629096 
L 54.940071 162.594265 
L 55.016428 161.758313 
L 55.089464 161.653819 
L 55.195699 160.88753 
L 55.228897 160.783036 
L 55.335132 160.225735 
L 55.351732 160.156073 
L 55.461286 159.250458 
L 55.527683 159.145964 
L 55.630598 158.24035 
L 55.647197 158.205519 
L 55.733513 157.160579 
L 55.79659 157.056085 
L 55.886226 156.603278 
L 55.936023 156.498784 
L 56.042258 156.011146 
L 56.068817 155.906652 
L 56.171732 155.279688 
L 56.20161 155.175194 
L 56.304525 154.513399 
L 56.367602 154.408905 
L 56.470517 153.712279 
L 56.550194 153.607785 
L 56.659748 152.94599 
L 56.692947 152.841496 
L 56.802501 152.353858 
L 56.812461 152.249364 
L 56.912056 151.308918 
L 56.945255 151.204424 
L 57.054809 150.57746 
L 57.097967 150.472966 
L 57.204202 149.811171 
L 57.227441 149.706677 
L 57.317077 149.288702 
L 57.363554 149.184208 
L 57.45983 148.696569 
L 57.489708 148.626907 
L 57.599263 148.243762 
L 57.649061 148.139268 
L 57.758615 147.547136 
L 57.801773 147.442642 
L 57.908008 146.780847 
L 57.931247 146.676353 
L 58.020883 146.119052 
L 58.054081 146.014558 
L 58.153676 145.387594 
L 58.180235 145.317931 
L 58.28647 144.76063 
L 58.306389 144.725799 
L 58.412624 143.889847 
L 58.445822 143.785354 
L 58.552057 143.088727 
L 58.601854 142.984233 
L 58.708089 142.531426 
L 58.744608 142.426932 
L 58.854162 141.730306 
L 58.864122 141.695474 
L 58.973677 140.964017 
L 59.010195 140.859523 
L 59.089871 140.580872 
L 59.126389 140.580872 
L 59.212705 139.98874 
L 59.31562 139.884246 
L 59.418535 139.18762 
L 59.441774 139.117957 
L 59.538049 138.490993 
L 59.561288 138.386499 
L 59.670843 137.724704 
L 59.690762 137.62021 
L 59.800317 137.097741 
L 59.816916 137.028078 
L 59.92647 136.54044 
L 59.976268 136.435946 
L 60.072543 135.843813 
L 60.109062 135.739319 
L 60.205337 135.391006 
L 60.314892 135.286512 
L 60.411167 134.69438 
L 60.457645 134.624717 
L 60.5506 133.858428 
L 60.577159 133.788765 
L 60.676754 133.405621 
L 60.723232 133.301127 
L 60.819507 132.84832 
L 60.862665 132.743826 
L 60.9689 132.0472 
L 60.995459 131.942706 
L 61.078455 131.664055 
L 61.134892 131.559561 
L 61.241127 130.72361 
L 61.280965 130.619116 
L 61.37724 130.131477 
L 61.440317 130.026983 
L 61.510034 129.67867 
L 61.58639 129.574176 
L 61.692625 128.982044 
L 61.712544 128.87755 
L 61.80218 128.250586 
L 61.885176 128.180923 
L 61.988091 127.55396 
L 62.01465 127.449466 
L 62.124204 127.03149 
L 62.160723 126.961827 
L 62.266957 126.543851 
L 62.283557 126.474189 
L 62.393111 125.98655 
L 62.486067 125.882056 
L 62.592302 125.324755 
L 62.6255 125.220261 
L 62.715136 124.767454 
L 62.771573 124.697792 
L 62.847929 124.419141 
L 62.944205 124.349478 
L 63.04712 123.827009 
L 63.067039 123.722515 
L 63.159994 123.234876 
L 63.203152 123.130382 
L 63.312707 122.677575 
L 63.339266 122.573081 
L 63.428901 122.155105 
L 63.46542 122.050612 
L 63.574974 121.528142 
L 63.584934 121.423648 
L 63.687849 121.005672 
L 63.740966 120.901178 
L 63.840561 120.552865 
L 63.887039 120.483202 
L 63.986634 120.16972 
L 64.053031 120.065226 
L 64.126068 119.333769 
L 64.179185 119.264106 
L 64.212383 119.159612 
L 64.318618 119.08995 
L 64.424853 118.706805 
L 64.464691 118.602311 
L 64.574246 118.079841 
L 64.600805 117.975347 
L 64.70372 117.418046 
L 64.720319 117.383215 
L 64.823234 116.616926 
L 64.91287 116.512432 
L 64.979266 116.164119 
L 65.055623 116.059625 
L 65.161858 115.67648 
L 65.205015 115.571987 
L 65.301291 115.014685 
L 65.334489 114.910191 
L 65.424125 114.59671 
L 65.473922 114.492216 
L 65.573518 113.760758 
L 65.593437 113.656264 
L 65.693032 113.203457 
L 65.72955 113.098963 
L 65.812546 112.75065 
L 65.862344 112.646156 
L 65.971898 112.054023 
L 65.991817 111.94953 
L 66.091413 111.70571 
L 66.15117 111.601216 
L 66.260724 111.357397 
L 66.320482 111.252903 
L 66.423397 110.695602 
L 66.439996 110.625939 
L 66.54955 110.10347 
L 66.605988 109.998976 
L 66.715542 109.337181 
L 66.7587 109.232687 
L 66.864935 108.710217 
L 66.924692 108.605723 
L 67.034247 108.187747 
L 67.077405 108.118085 
L 67.18696 107.491121 
L 67.246717 107.386627 
L 67.356272 106.93382 
L 67.362911 106.864157 
L 67.462506 106.063037 
L 67.548822 105.958543 
L 67.645098 105.366411 
L 67.688255 105.261917 
L 67.79449 104.634953 
L 67.857567 104.530459 
L 67.963802 104.182146 
L 67.983721 104.077652 
L 68.063397 103.624845 
L 68.136434 103.555182 
L 68.239349 103.172038 
L 68.262588 103.067544 
L 68.322345 102.649568 
L 68.468418 102.545074 
L 68.571333 102.196761 
L 68.62777 102.092267 
L 68.707446 101.709122 
L 68.773843 101.604628 
L 68.880078 101.256315 
L 68.926556 101.151821 
L 69.03611 100.838339 
L 69.105827 100.733845 
L 69.215382 100.281038 
L 69.275139 100.176544 
L 69.384693 99.723737 
L 69.407932 99.654075 
L 69.514167 99.166436 
L 69.530766 99.131605 
L 69.637001 98.643966 
L 69.66688 98.539472 
L 69.759835 98.365316 
L 69.816273 98.260822 
L 69.905908 97.842846 
L 69.959026 97.773183 
L 70.065261 97.215882 
L 70.118378 97.111388 
L 70.211334 96.832738 
L 70.254491 96.728244 
L 70.364046 96.170943 
L 70.383965 96.10128 
L 70.48688 95.718136 
L 70.556597 95.613642 
L 70.666152 95.230497 
L 70.722589 95.160835 
L 70.828824 94.77769 
L 70.865342 94.673196 
L 70.968257 94.394546 
L 71.028014 94.290052 
L 71.11765 93.97657 
L 71.197326 93.872076 
L 71.296921 93.697919 
L 71.350039 93.593425 
L 71.459593 93.245112 
L 71.492792 93.140618 
L 71.585747 92.861968 
L 71.632225 92.757474 
L 71.73846 92.165341 
L 71.861294 92.060847 
L 71.970849 91.712534 
L 72.007367 91.60804 
L 72.113602 91.120402 
L 72.14016 91.015908 
L 72.239756 90.597932 
L 72.309472 90.493438 
L 72.412387 90.040631 
L 72.475464 89.936137 
L 72.56178 89.518161 
L 72.681294 89.448499 
L 72.790849 88.995691 
L 72.943562 88.891197 
L 73.046477 88.403559 
L 73.066396 88.299065 
L 73.159351 88.020415 
L 73.248987 87.950752 
L 73.335303 87.63727 
L 73.418299 87.532776 
L 73.507934 87.254126 
L 73.571011 87.149632 
L 73.663967 86.801318 
L 73.717084 86.696824 
L 73.823319 86.174355 
L 73.873117 86.069861 
L 73.972712 85.79121 
L 74.068987 85.686716 
L 74.178542 85.408066 
L 74.2217 85.303572 
L 74.308016 84.885596 
L 74.347854 84.781102 
L 74.42089 84.572114 
L 74.533765 84.46762 
L 74.580242 84.119307 
L 74.713036 84.014813 
L 74.822591 83.353018 
L 74.905587 83.248524 
L 75.015141 82.935042 
L 75.108097 82.830548 
L 75.217652 82.517066 
L 75.240891 82.447404 
L 75.347125 82.029428 
L 75.373684 81.924934 
L 75.476599 81.576621 
L 75.576194 81.472127 
L 75.682429 81.228308 
L 75.722267 81.123814 
L 75.818543 80.845163 
L 75.974575 80.740669 
L 76.057571 80.462019 
L 76.163806 80.357525 
L 76.273361 79.939549 
L 76.303239 79.835055 
L 76.409474 79.521573 
L 76.445992 79.417079 
L 76.552227 78.894609 
L 76.625264 78.790115 
L 76.70162 78.511465 
L 76.797895 78.476634 
L 76.890851 78.12832 
L 76.973847 78.023826 
L 77.073442 77.605851 
L 77.206236 77.501357 
L 77.292551 77.362031 
L 77.412066 77.257537 
L 77.495062 76.909224 
L 77.571418 76.80473 
L 77.667693 76.386755 
L 77.680973 76.386755 
L 77.74073 76.282261 
L 77.850284 75.899116 
L 77.903402 75.794622 
L 77.993038 75.620466 
L 78.046155 75.550803 
L 78.14907 75.272152 
L 78.268584 75.167658 
L 78.378139 74.610357 
L 78.527532 74.505863 
L 78.627127 74.15755 
L 78.706803 74.053056 
L 78.756601 73.774406 
L 78.852876 73.704743 
L 78.955791 73.391261 
L 79.164941 73.286767 
L 79.244617 73.147442 
L 79.354172 73.042948 
L 79.460407 72.659804 
L 79.483646 72.659804 
L 79.540083 72.241828 
L 79.629718 72.137334 
L 79.712714 71.963177 
L 79.785751 71.858683 
L 79.885346 71.684527 
L 79.981621 71.580033 
L 80.084537 71.196888 
L 80.154253 71.092394 
L 80.240569 70.569925 
L 80.356763 70.465431 
L 80.449719 70.18678 
L 80.542674 70.082286 
L 80.64227 69.803636 
L 80.818221 69.699142 
L 80.884618 69.524985 
L 81.030691 69.420491 
L 81.140246 69.176672 
L 81.209962 69.072178 
L 81.309557 68.758696 
L 81.359355 68.654202 
L 81.442351 68.375552 
L 81.492148 68.34072 
L 81.568505 68.027238 
L 81.724537 67.922744 
L 81.830772 67.574431 
L 81.897169 67.469937 
L 82.006724 67.01713 
L 82.156116 66.912636 
L 82.242432 66.73848 
L 82.315469 66.633986 
L 82.398465 66.250841 
L 82.484781 66.146347 
L 82.584376 65.902528 
L 82.591015 65.902528 
L 82.600975 65.902528 
L 82.683971 65.449721 
L 82.820084 65.345227 
L 82.91968 64.962082 
L 82.962837 64.857589 
L 83.059113 64.613769 
L 83.10891 64.509275 
L 83.198546 64.0913 
L 83.271583 63.986806 
L 83.364538 63.812649 
L 83.404376 63.777818 
L 83.513931 63.533998 
L 83.583647 63.429505 
L 83.683243 63.185685 
L 83.74632 63.116023 
L 83.819356 62.837372 
L 83.958789 62.732878 
L 84.068344 62.454228 
L 84.14138 62.349734 
L 84.227696 62.105914 
L 84.347211 62.001421 
L 84.440166 61.896927 
L 84.480004 61.792433 
L 84.56964 61.583445 
L 84.586239 61.583445 
L 84.695794 61.478951 
L 84.795389 61.235132 
L 84.835227 61.2003 
L 84.855146 61.026144 
L 85.051017 60.92165 
L 85.127373 60.747493 
L 85.197089 60.67783 
L 85.306644 60.155361 
L 85.359762 60.050867 
L 85.469316 59.841879 
L 85.555632 59.737385 
L 85.641948 59.458734 
L 85.695065 59.389072 
L 85.8013 59.180084 
L 85.907535 59.07559 
L 86.01045 58.448626 
L 86.22624 58.344132 
L 86.325835 58.065482 
L 86.402191 57.960988 
L 86.508426 57.717168 
L 86.551584 57.612675 
L 86.654499 57.22953 
L 86.720896 57.125036 
L 86.807212 56.811554 
L 86.920086 56.70706 
L 86.979843 56.498072 
L 87.079439 56.393578 
L 87.175714 56.114928 
L 87.242111 56.010434 
L 87.348346 55.731783 
L 87.391503 55.627289 
L 87.487779 55.313808 
L 87.527617 55.209314 
L 87.633852 55.000326 
L 87.690289 54.895832 
L 87.760006 54.477856 
L 87.852961 54.373362 
L 87.962516 54.164374 
L 87.995714 54.05988 
L 88.09199 53.816061 
L 88.161706 53.711567 
L 88.248022 53.53741 
L 88.337658 53.467748 
L 88.443893 53.328423 
L 88.606565 53.223929 
L 88.69952 52.875615 
L 88.802435 52.805953 
L 88.885431 52.492471 
L 88.991666 52.387977 
L 89.091261 52.004832 
L 89.137739 51.900338 
L 89.227375 51.621688 
L 89.283812 51.552025 
L 89.353529 51.377869 
L 89.496282 51.273375 
L 89.579278 51.099218 
L 89.698792 50.994724 
L 89.778468 50.820568 
L 89.891343 50.716074 
L 89.967699 50.437423 
L 90.077254 50.332929 
L 90.166889 50.193604 
L 90.249885 50.08911 
L 90.339521 49.810459 
L 90.419197 49.705966 
L 90.468995 49.601472 
L 90.548671 49.496978 
L 90.615068 49.357652 
L 90.721303 49.253158 
L 90.810938 49.04417 
L 90.98357 48.939677 
L 91.083165 48.730689 
L 91.156202 48.626195 
L 91.262436 48.417207 
L 91.411829 48.312713 
L 91.498145 48.034062 
L 91.59774 47.929568 
L 91.680736 47.685749 
L 91.783651 47.581255 
L 91.876607 47.407099 
L 92.01272 47.302605 
L 92.122275 47.198111 
L 92.23183 47.093617 
L 92.331425 46.884629 
L 92.43434 46.780135 
L 92.490777 46.675641 
L 92.613611 46.571147 
L 92.663409 46.431822 
L 92.802842 46.327328 
L 92.875878 46.11834 
L 92.955555 46.013846 
L 93.061789 45.804858 
L 93.164705 45.700364 
L 93.25766 45.526207 
L 93.423652 45.421713 
L 93.503328 45.212726 
L 93.569725 45.143063 
L 93.619523 44.899244 
L 93.808753 44.79475 
L 93.88843 44.655424 
L 93.958146 44.550931 
L 94.061061 44.307111 
L 94.190535 44.202617 
L 94.29345 44.028461 
L 94.409644 43.923967 
L 94.49928 43.714979 
L 94.625434 43.610485 
L 94.691831 43.401497 
L 94.91426 43.297003 
L 94.974017 43.157678 
L 95.063653 43.053184 
L 95.149969 42.879027 
L 95.256203 42.774533 
L 95.365758 42.495883 
L 95.372398 42.461052 
L 95.478633 42.043076 
L 95.611426 41.938582 
L 95.720981 41.694763 
L 95.810617 41.590269 
L 95.910212 41.381281 
L 96.019767 41.276787 
L 96.126001 40.998136 
L 96.1592 40.928474 
L 96.262115 40.684654 
L 96.444706 40.58016 
L 96.550941 40.336341 
L 96.690374 40.231847 
L 96.77337 40.092522 
L 96.859686 39.988028 
L 96.949322 39.813871 
L 97.18835 39.709377 
L 97.258067 39.430727 
L 97.294585 39.430727 
L 97.384221 39.326233 
L 97.493775 39.047582 
L 97.556852 38.97792 
L 97.663087 38.734101 
L 97.699605 38.629607 
L 97.739443 38.490281 
L 97.908755 38.420619 
L 98.00835 38.211631 
L 98.078067 38.107137 
L 98.177662 37.898149 
L 98.2175 37.793655 
L 98.240739 37.689161 
L 98.459849 37.584667 
L 98.506326 37.410511 
L 98.64908 37.306017 
L 98.758634 37.166691 
L 98.987703 37.062197 
L 99.093938 36.922872 
L 99.166974 36.818378 
L 99.240011 36.679053 
L 99.432562 36.574559 
L 99.442521 36.504896 
L 99.611833 36.400402 
L 99.698149 36.226246 
L 99.784465 36.121752 
L 99.87742 35.773439 
L 100.152967 35.668945 
L 100.262522 35.494788 
L 100.448433 35.390294 
L 100.557987 35.146475 
L 100.720659 35.041981 
L 100.777097 34.937487 
L 100.876692 34.867824 
L 100.986247 34.693668 
L 101.036044 34.658836 
L 101.145599 34.275692 
L 101.251834 34.171198 
L 101.351429 33.892547 
L 101.454344 33.788054 
L 101.547299 33.579066 
L 101.706652 33.474572 
L 101.796287 33.300415 
L 101.998798 33.195921 
L 102.085114 33.021765 
L 102.234506 32.917271 
L 102.340741 32.673451 
L 102.37062 32.568957 
L 102.476855 32.290307 
L 102.57313 32.185813 
L 102.682685 32.11615 
L 102.818798 32.011656 
L 102.895154 31.872331 
L 103.19394 31.767837 
L 103.290215 31.558849 
L 103.313454 31.524018 
L 103.379851 31.384693 
L 103.423009 31.384693 
L 103.691916 31.280199 
L 103.791511 31.071211 
L 104.047139 30.966717 
L 104.070378 30.79256 
L 104.262928 30.688066 
L 104.345924 30.444247 
L 104.508596 30.339753 
L 104.608192 30.165597 
L 104.797422 30.061103 
L 104.897018 29.921777 
L 105.036451 29.817283 
L 105.146006 29.677958 
L 105.27216 29.573464 
L 105.308678 29.503801 
L 105.560986 29.399308 
L 105.643982 29.259982 
L 105.730297 29.19032 
L 105.790054 29.050994 
L 106.138638 28.9465 
L 106.241553 28.842006 
L 106.410864 28.737512 
L 106.463982 28.598187 
L 106.596776 28.493693 
L 106.70633 28.389199 
L 106.809245 28.284705 
L 106.90884 28.075717 
L 107.064873 28.006055 
L 107.167788 27.831898 
L 107.247464 27.727404 
L 107.3371 27.588079 
L 107.410136 27.518416 
L 107.463254 27.379091 
L 107.695642 27.274597 
L 107.805197 27.100441 
L 107.94463 26.995947 
L 108.034266 26.717296 
L 108.15378 26.612802 
L 108.216857 26.473477 
L 108.439286 26.368983 
L 108.465845 26.29932 
L 108.804469 26.194826 
L 108.867546 26.02067 
L 109.089975 25.916176 
L 109.136453 25.846513 
L 109.285846 25.742019 
L 109.39208 25.567863 
L 109.621149 25.463369 
L 109.677587 25.393706 
L 109.906656 25.289212 
L 109.906656 25.254381 
L 110.135725 25.149887 
L 110.232 24.940899 
L 110.474348 24.836405 
L 110.547385 24.731911 
L 110.882688 24.627417 
L 110.909247 24.45326 
L 111.387304 24.348767 
L 111.447061 24.139779 
L 111.745847 24.035285 
L 111.852082 23.826297 
L 111.991515 23.721803 
L 112.034673 23.65214 
L 112.436373 23.547646 
L 112.539288 23.477984 
L 112.668762 23.37349 
L 112.768357 23.268996 
L 112.871272 23.164502 
L 112.91111 23.060008 
L 113.083742 22.955514 
L 113.189977 22.781357 
L 113.462204 22.676863 
L 113.54852 22.572369 
L 113.74771 22.467875 
L 113.794188 22.293719 
L 113.933621 22.224056 
L 114.033216 22.015068 
L 114.182609 21.910574 
L 114.245686 21.80608 
L 114.414998 21.701586 
L 114.504633 21.422936 
L 114.766901 21.318442 
L 114.856536 21.144285 
L 114.893055 21.039791 
L 114.972731 20.900466 
L 115.128763 20.795972 
L 115.231678 20.72631 
L 115.40099 20.621816 
L 115.500585 20.48249 
L 115.716375 20.377996 
L 115.789411 20.238671 
L 116.01516 20.134177 
L 116.098156 19.960021 
L 116.260829 19.855527 
L 116.274108 19.785864 
L 116.533055 19.68137 
L 116.616051 19.472382 
L 117.226902 19.367888 
L 117.326497 19.228563 
L 117.645202 19.124069 
L 117.751437 18.984744 
L 117.997105 18.88025 
L 118.080101 18.775756 
L 118.538239 18.671262 
L 118.597996 18.601599 
L 119.441235 18.497105 
L 119.53419 18.427443 
L 120.297754 18.322949 
L 120.38075 18.253286 
L 120.57994 18.148792 
L 120.613138 18.079129 
L 121.184151 17.974635 
L 121.187471 17.904973 
L 121.635649 17.800479 
L 121.741884 17.661154 
L 122.259779 17.55666 
L 122.332815 17.452166 
L 122.897188 17.347672 
L 122.897188 17.31284 
L 123.514678 17.208346 
L 123.571115 17.138684 
L 124.341318 17.03419 
L 124.341318 16.999359 
L 124.992007 16.894865 
L 125.051764 16.755539 
L 125.762209 16.651045 
L 125.762209 16.616214 
L 126.286744 16.51172 
L 126.326582 16.442057 
L 126.734922 16.337564 
L 126.734922 16.302732 
L 127.046987 16.198238 
L 127.096785 16.128576 
L 127.700996 16.024082 
L 127.793951 15.954419 
L 128.139215 15.849925 
L 128.139215 15.815094 
L 128.756705 15.7106 
L 128.756705 15.675769 
L 129.845612 15.571275 
L 129.845612 15.536443 
L 130.888042 15.431949 
L 130.888042 15.397118 
L 132.607719 15.292624 
L 132.607719 15.257793 
L 134.503347 15.153299 
L 134.503347 15.118467 
L 135.240352 15.013973 
L 135.240352 14.979142 
L 270.191831 14.874648 
L 270.191831 14.874648 
" clip-path="url(#pe8abf9ba4c)" style="fill: none; stroke: #a5a58d; stroke-width: 2; stroke-linecap: square"/>
   </g>
   <g id="line2d_15">
    <path d="M 48.051404 243.751234 
L 48.157639 240.302934 
L 48.174238 240.19844 
L 48.283793 238.35238 
L 48.293753 238.317549 
L 48.403307 235.670369 
L 48.413267 235.565875 
L 48.516182 233.615321 
L 48.542741 233.510827 
L 48.652295 231.525442 
L 48.655615 231.525442 
L 48.76185 229.470394 
L 48.775129 229.435563 
L 48.884684 227.833322 
L 48.904603 227.728828 
L 49.014158 226.509732 
L 49.017478 226.509732 
L 49.127032 224.802998 
L 49.150271 224.698504 
L 49.259826 222.469299 
L 49.279745 222.364805 
L 49.3893 221.250203 
L 49.399259 221.215372 
L 49.505494 220.065938 
L 49.545332 219.961444 
L 49.654887 219.090661 
L 49.668166 218.986168 
L 49.767761 217.418758 
L 49.79764 217.349096 
L 49.907195 216.060337 
L 49.950353 215.990674 
L 50.053268 214.980566 
L 50.059907 214.980566 
L 50.073187 214.910903 
L 50.179421 213.726639 
L 50.20598 213.622145 
L 50.315535 212.925518 
L 50.325494 212.821024 
L 50.431729 211.91541 
L 50.451648 211.845748 
L 50.554563 211.149121 
L 50.571163 211.044627 
L 50.680717 210.034519 
L 50.697316 210.034519 
L 50.806871 209.163736 
L 50.82347 209.059242 
L 50.933025 207.979471 
L 50.966223 207.94464 
L 51.062499 207.248014 
L 51.092377 207.178351 
L 51.195292 206.377231 
L 51.255049 206.272737 
L 51.364604 205.192966 
L 51.377884 205.088472 
L 51.487438 204.008701 
L 51.490758 204.008701 
L 51.587033 203.103087 
L 51.65011 202.998593 
L 51.759665 202.058147 
L 51.782904 201.988485 
L 51.892459 200.560401 
L 51.912378 200.455907 
L 52.021932 199.585124 
L 52.045171 199.48063 
L 52.154726 198.818835 
L 52.174645 198.714341 
L 52.2842 198.226702 
L 52.294159 198.122208 
L 52.393754 197.599739 
L 52.420313 197.495245 
L 52.529868 196.83345 
L 52.609544 196.763787 
L 52.719099 195.893004 
L 52.788815 195.78851 
L 52.89837 194.639077 
L 52.924929 194.569414 
L 53.034483 194.046944 
L 53.057722 193.977282 
L 53.163957 193.071667 
L 53.170597 193.071667 
L 53.273512 192.409872 
L 53.296751 192.305378 
L 53.402986 191.260439 
L 53.416265 191.155945 
L 53.51254 190.319993 
L 53.545739 190.215499 
L 53.655294 189.205391 
L 53.675213 189.135729 
L 53.784767 188.508765 
L 53.801366 188.404271 
L 53.910921 187.742476 
L 53.917561 187.742476 
L 54.007196 187.185175 
L 54.073593 187.080681 
L 54.183148 186.175067 
L 54.206387 186.070573 
L 54.312622 185.408778 
L 54.335861 185.304284 
L 54.445415 184.189682 
L 54.475294 184.085188 
L 54.584849 183.284067 
L 54.621367 183.179573 
L 54.727602 182.761598 
L 54.780719 182.657104 
L 54.890274 181.960477 
L 54.896914 181.890815 
L 55.006468 181.194188 
L 55.046306 181.124526 
L 55.155861 180.497562 
L 55.17246 180.427899 
L 55.282015 179.208803 
L 55.325173 179.104309 
L 55.424768 178.651502 
L 55.494485 178.547008 
L 55.5974 178.094201 
L 55.647197 177.989707 
L 55.746792 177.641394 
L 55.80655 177.571731 
L 55.912784 176.840274 
L 55.922744 176.805442 
L 56.022339 176.387466 
L 56.055538 176.282973 
L 56.135214 175.725671 
L 56.22153 175.621178 
L 56.327764 175.029045 
L 56.380882 174.959382 
L 56.480477 174.402081 
L 56.543554 174.297587 
L 56.649789 173.496467 
L 56.689627 173.391973 
L 56.792542 172.556022 
L 56.82242 172.451528 
L 56.931975 171.894227 
L 56.958534 171.789733 
L 57.068089 170.953781 
L 57.088008 170.849287 
L 57.174323 170.117829 
L 57.24736 170.013335 
L 57.356915 169.525697 
L 57.370194 169.456034 
L 57.479749 168.794239 
L 57.516267 168.689745 
L 57.625822 168.097613 
L 57.65902 167.993119 
L 57.748656 167.609975 
L 57.831652 167.505481 
L 57.924607 167.122336 
L 57.964445 167.017842 
L 58.060721 166.669529 
L 58.103879 166.599866 
L 58.203474 166.042565 
L 58.246632 165.972903 
L 58.352867 165.136951 
L 58.396024 165.032457 
L 58.505579 164.370662 
L 58.585255 164.266168 
L 58.69481 163.883024 
L 58.747927 163.77853 
L 58.854162 163.221229 
L 58.867442 163.186397 
L 58.976996 162.803253 
L 59.006875 162.698759 
L 59.10979 162.280783 
L 59.152948 162.245952 
L 59.259183 161.827976 
L 59.285741 161.723482 
L 59.395296 161.201012 
L 59.451733 161.096518 
L 59.551329 160.88753 
L 59.597806 160.783036 
L 59.707361 160.225735 
L 59.717321 160.156073 
L 59.803636 159.633603 
L 59.860074 159.529109 
L 59.966309 159.180796 
L 59.982908 159.111133 
L 60.089143 158.693157 
L 60.165499 158.588663 
L 60.211977 158.275182 
L 60.314892 158.170688 
L 60.424446 157.71788 
L 60.441046 157.613386 
L 60.530681 157.299905 
L 60.630276 157.195411 
L 60.723232 157.021254 
L 60.816188 156.91676 
L 60.925742 156.359459 
L 60.958941 156.254965 
L 61.022018 155.976315 
L 61.081775 155.906652 
L 61.17805 155.558339 
L 61.271006 155.453845 
L 61.37724 154.931375 
L 61.430358 154.826881 
L 61.526633 154.374074 
L 61.579751 154.26958 
L 61.689305 153.956098 
L 61.755702 153.851604 
L 61.861937 153.329134 
L 61.868577 153.329134 
L 61.968172 152.911159 
L 62.01465 152.841496 
L 62.124204 152.388689 
L 62.187281 152.284195 
L 62.260318 151.761725 
L 62.316755 151.692063 
L 62.42631 151.378581 
L 62.466148 151.274087 
L 62.549144 150.716786 
L 62.671978 150.612292 
L 62.778213 150.089822 
L 62.804771 149.985328 
L 62.914326 149.532521 
L 62.947525 149.462858 
L 63.027201 149.044882 
L 63.096917 148.940388 
L 63.206472 148.278593 
L 63.233031 148.208931 
L 63.342585 147.581967 
L 63.45214 147.477473 
L 63.548415 146.641522 
L 63.601533 146.537028 
L 63.707768 145.979727 
L 63.797403 145.875233 
L 63.903638 145.387594 
L 63.953436 145.2831 
L 64.062991 145.039281 
L 64.132707 144.969618 
L 64.219023 144.621305 
L 64.29206 144.551642 
L 64.398294 144.064004 
L 64.474651 143.95951 
L 64.547687 143.471872 
L 64.647282 143.367378 
L 64.740238 142.914571 
L 64.836513 142.810077 
L 64.932789 142.392101 
L 65.005825 142.287607 
L 65.10542 142.043788 
L 65.171817 141.939294 
L 65.274732 141.381993 
L 65.31125 141.277499 
L 65.417485 141.103342 
L 65.457323 140.998848 
L 65.563558 140.580872 
L 65.593437 140.476378 
L 65.699672 140.023571 
L 65.772708 139.953909 
L 65.882263 139.535933 
L 65.958619 139.431439 
L 66.054894 139.013463 
L 66.094732 138.9438 
L 66.200967 138.595487 
L 66.297243 138.490993 
L 66.366959 138.351668 
L 66.430036 138.282005 
L 66.539591 137.480885 
L 66.605988 137.376391 
L 66.702263 137.167403 
L 66.76866 137.062909 
L 66.874895 136.749427 
L 66.894814 136.644933 
L 67.004369 136.052801 
L 67.034247 135.948307 
L 67.143802 135.425837 
L 67.193599 135.321343 
L 67.276595 134.938199 
L 67.339672 134.868536 
L 67.442587 134.520223 
L 67.472466 134.415729 
L 67.572061 134.102247 
L 67.648417 133.997753 
L 67.754652 133.64944 
L 67.767932 133.544946 
L 67.850928 133.266296 
L 67.927284 133.161802 
L 68.036839 132.604501 
L 68.089956 132.500007 
L 68.186231 132.151694 
L 68.289146 132.082031 
L 68.395381 131.594392 
L 68.445179 131.52473 
L 68.544774 131.246079 
L 68.607851 131.141585 
L 68.704126 130.793272 
L 68.783803 130.72361 
L 68.890037 130.410128 
L 68.966394 130.340465 
L 69.059349 129.957321 
L 69.132386 129.852827 
L 69.188823 129.574176 
L 69.281778 129.469682 
L 69.388013 128.773056 
L 69.417892 128.703393 
L 69.524127 128.285417 
L 69.627042 128.180923 
L 69.733277 127.693285 
L 69.819592 127.588791 
L 69.922508 127.344972 
L 69.975625 127.240478 
L 70.061941 126.822502 
L 70.08518 126.822502 
L 70.141617 126.718008 
L 70.181455 126.543851 
L 70.27773 126.439357 
L 70.377326 126.265201 
L 70.476921 126.160707 
L 70.563237 126.021382 
L 70.652872 125.916888 
L 70.752467 125.673069 
L 70.795625 125.568575 
L 70.90518 125.289924 
L 70.971577 125.220261 
L 71.077812 124.871948 
L 71.097731 124.837117 
L 71.194006 124.488804 
L 71.270362 124.38431 
L 71.366638 124.001165 
L 71.403156 123.931503 
L 71.512711 123.583189 
L 71.599027 123.513527 
L 71.645504 123.304539 
L 71.771658 123.200045 
L 71.881213 122.886563 
L 72.010687 122.782069 
L 72.120241 122.468587 
L 72.279594 122.364093 
L 72.375869 122.155105 
L 72.455545 122.050612 
L 72.55182 121.73713 
L 72.624857 121.632636 
L 72.717812 121.353985 
L 72.817408 121.249491 
L 72.903723 120.901178 
L 72.98008 120.796684 
L 73.076355 120.622528 
L 73.136112 120.518034 
L 73.222428 120.309046 
L 73.295465 120.204552 
L 73.3851 119.821407 
L 73.474736 119.751745 
L 73.577651 119.229275 
L 73.637408 119.124781 
L 73.730364 118.741636 
L 73.836598 118.637142 
L 73.916275 118.497817 
L 73.982671 118.393323 
L 74.01919 118.219167 
L 74.178542 118.114673 
L 74.288097 117.766359 
L 74.391012 117.661866 
L 74.480647 117.452878 
L 74.537085 117.348384 
L 74.646639 117.000071 
L 74.732955 116.895577 
L 74.822591 116.72142 
L 74.902267 116.616926 
L 75.008502 116.442769 
L 75.098137 116.338275 
L 75.204372 115.989962 
L 75.330526 115.885468 
L 75.426802 115.39783 
L 75.546316 115.293336 
L 75.65587 115.049517 
L 75.705668 115.014685 
L 75.811903 114.701204 
L 75.858381 114.59671 
L 75.938057 114.039409 
L 76.004454 113.969746 
L 76.110689 113.830421 
L 76.177085 113.760758 
L 76.28332 113.586601 
L 76.336438 113.482107 
L 76.442672 113.064132 
L 76.48583 112.994469 
L 76.592065 112.785481 
L 76.648503 112.680987 
L 76.748098 112.402337 
L 76.811175 112.297843 
L 76.90745 112.054023 
L 76.983806 111.94953 
L 77.090041 111.810204 
L 77.156438 111.70571 
L 77.256033 111.531554 
L 77.295871 111.42706 
L 77.398786 110.90459 
L 77.52162 110.800096 
L 77.614576 110.486614 
L 77.710851 110.38212 
L 77.783888 110.138301 
L 77.810446 110.138301 
L 77.870204 110.033807 
L 77.969799 109.720325 
L 78.072714 109.615831 
L 78.14243 109.441675 
L 78.265264 109.337181 
L 78.368179 109.093361 
L 78.464455 108.988868 
L 78.500973 108.77988 
L 78.597248 108.77988 
L 78.693524 108.361904 
L 78.746641 108.25741 
L 78.856196 107.978759 
L 78.995629 107.874265 
L 79.105184 107.595615 
L 79.138382 107.491121 
L 79.244617 107.21247 
L 79.370771 107.107976 
L 79.477006 106.898988 
L 79.496925 106.829326 
L 79.60316 106.515844 
L 79.623079 106.41135 
L 79.732634 106.1327 
L 79.901945 106.028206 
L 79.991581 105.854049 
L 80.064617 105.749555 
L 80.170852 105.505736 
L 80.230609 105.401242 
L 80.320245 105.227085 
L 80.353444 105.122591 
L 80.43644 104.878772 
L 80.565913 104.774278 
L 80.658869 104.530459 
L 80.731905 104.425965 
L 80.824861 104.04282 
L 80.891258 103.973158 
L 80.967614 103.799001 
L 81.000812 103.799001 
L 81.060569 103.694507 
L 81.140246 103.555182 
L 81.206642 103.485519 
L 81.312877 103.2417 
L 81.375954 103.172038 
L 81.478869 102.823724 
L 81.531987 102.71923 
L 81.611663 102.579905 
L 81.780975 102.475411 
L 81.887209 102.266423 
L 81.920408 102.161929 
L 82.020003 101.883279 
L 82.08308 101.778785 
L 82.185995 101.500134 
L 82.275631 101.39564 
L 82.381866 101.082159 
L 82.441623 100.977665 
L 82.527938 100.733845 
L 82.717169 100.629351 
L 82.826724 100.31587 
L 82.873202 100.211376 
L 82.926319 100.07205 
L 82.996036 99.967556 
L 83.092311 99.688906 
L 83.195226 99.584412 
L 83.301461 99.027111 
L 83.347939 98.957448 
L 83.440894 98.643966 
L 83.52057 98.539472 
L 83.603566 98.121497 
L 83.666643 98.051834 
L 83.699842 97.94734 
L 83.832635 97.842846 
L 83.908992 97.703521 
L 83.985348 97.599027 
L 84.031826 97.42487 
L 84.227696 97.355208 
L 84.310692 97.181051 
L 84.416927 97.076557 
L 84.496603 96.763075 
L 84.55968 96.658581 
L 84.609478 96.449593 
L 84.662595 96.449593 
L 84.811988 96.345099 
L 84.914903 95.961955 
L 84.964701 95.857461 
L 85.070936 95.648473 
L 85.134013 95.543979 
L 85.236928 95.265329 
L 85.300005 95.160835 
L 85.373041 95.056341 
L 85.59215 94.951847 
L 85.661867 94.638365 
L 85.754823 94.533871 
L 85.857738 94.429377 
L 85.950693 94.324883 
L 86.02041 94.150726 
L 86.116685 94.046232 
L 86.206321 93.732751 
L 86.289317 93.628257 
L 86.365673 93.4541 
L 86.498467 93.349606 
L 86.594742 93.001293 
L 86.661139 92.896799 
L 86.754094 92.65298 
L 86.83377 92.548486 
L 86.930046 92.304667 
L 87.072799 92.200173 
L 87.169074 91.921522 
L 87.218872 91.817028 
L 87.321787 91.538378 
L 87.444621 91.433884 
L 87.46786 91.190064 
L 87.67037 91.155233 
L 87.743406 90.876583 
L 87.856281 90.772089 
L 87.955876 90.528269 
L 88.058791 90.423775 
L 88.168346 90.075462 
L 88.204864 90.0058 
L 88.307779 89.796812 
L 88.384135 89.692318 
L 88.49037 89.309173 
L 88.556767 89.204679 
L 88.656362 88.926029 
L 88.749318 88.821535 
L 88.762597 88.751872 
L 88.822354 88.751872 
L 88.935229 88.647378 
L 89.021545 88.43839 
L 89.147699 88.333896 
L 89.253933 88.020415 
L 89.32033 87.915921 
L 89.416606 87.602439 
L 89.463083 87.497945 
L 89.572638 87.219294 
L 89.73531 87.1148 
L 89.805027 87.010306 
L 89.891343 86.905812 
L 89.984298 86.801318 
L 90.077254 86.696824 
L 90.16025 86.383343 
L 90.425837 86.278849 
L 90.535392 86.174355 
L 90.638307 86.104692 
L 90.747861 85.860873 
L 90.830857 85.756379 
L 90.933772 85.582222 
L 91.003489 85.477728 
L 91.046647 85.338403 
L 91.229238 85.233909 
L 91.298955 84.850765 
L 91.40519 84.746271 
L 91.498145 84.432789 
L 91.614339 84.328295 
L 91.723894 84.18897 
L 91.833449 84.084476 
L 91.943004 83.840656 
L 92.075797 83.736162 
L 92.162113 83.492343 
L 92.21855 83.387849 
L 92.304866 83.248524 
L 92.321465 83.248524 
L 92.404461 83.178861 
L 92.500737 82.935042 
L 92.696607 82.830548 
L 92.802842 82.62156 
L 92.988753 82.517066 
L 93.088348 82.308078 
L 93.174664 82.203585 
L 93.26098 81.994597 
L 93.390454 81.890103 
L 93.480089 81.750777 
L 93.586324 81.646283 
L 93.652721 81.437296 
L 93.768915 81.332802 
L 93.831992 81.228308 
L 94.004624 81.123814 
L 94.100899 80.914826 
L 94.190535 80.810332 
L 94.30009 80.671007 
L 94.442843 80.566513 
L 94.519199 80.392356 
L 94.612155 80.287862 
L 94.718389 79.869886 
L 94.781466 79.765392 
L 94.884381 79.45191 
L 95.000576 79.347417 
L 95.093531 79.138429 
L 95.189807 79.033935 
L 95.249564 78.929441 
L 95.339199 78.824947 
L 95.398957 78.755284 
L 95.505191 78.65079 
L 95.53507 78.546296 
L 95.664544 78.476634 
L 95.774098 78.37214 
L 95.853775 78.267646 
L 95.95337 78.093489 
L 96.003167 77.988995 
L 96.112722 77.745176 
L 96.189078 77.640682 
L 96.202358 77.571019 
L 96.268755 77.571019 
L 96.544301 77.466525 
L 96.637257 77.222706 
L 96.819848 77.118212 
L 96.909484 76.944056 
L 97.052237 76.839562 
L 97.155152 76.595742 
L 97.39086 76.491249 
L 97.497095 76.177767 
L 97.60997 76.073273 
L 97.633209 76.00361 
L 97.789241 75.933947 
L 97.898796 75.550803 
L 97.938634 75.48114 
L 98.00835 75.20249 
L 98.094666 75.097996 
L 98.171023 74.784514 
L 98.287217 74.68002 
L 98.386812 74.436201 
L 98.682278 74.331707 
L 98.785193 74.122719 
L 98.871509 74.018225 
L 98.971104 73.948562 
L 99.143736 73.844068 
L 99.193533 73.704743 
L 99.339606 73.600249 
L 99.429242 73.35643 
L 99.542116 73.251936 
L 99.635072 73.147442 
L 99.847542 73.042948 
L 99.957096 72.83396 
L 100.116449 72.729466 
L 100.222683 72.450816 
L 100.315639 72.346322 
L 100.395315 72.241828 
L 100.534748 72.137334 
L 100.631024 71.893515 
L 100.70738 71.789021 
L 100.797016 71.649695 
L 100.91321 71.545201 
L 101.019445 71.336214 
L 101.102441 71.266551 
L 101.182117 71.057563 
L 101.268433 70.953069 
L 101.361388 70.813744 
L 101.494182 70.744081 
L 101.53734 70.569925 
L 101.809567 70.465431 
L 101.885923 70.221611 
L 101.985518 70.117117 
L 102.038636 69.977792 
L 102.231186 69.873298 
L 102.271025 69.768804 
L 102.440336 69.66431 
L 102.520012 69.524985 
L 102.672725 69.455322 
L 102.762361 69.211503 
L 102.822118 69.107009 
L 102.871915 69.002515 
L 102.911754 69.002515 
L 103.034588 68.898021 
L 103.061146 68.828359 
L 103.227138 68.723865 
L 103.336693 68.34072 
L 103.38981 68.236226 
L 103.469487 67.957576 
L 103.668677 67.853082 
L 103.735074 67.748588 
L 103.964143 67.644094 
L 104.073697 67.400275 
L 104.206491 67.295781 
L 104.239689 67.156455 
L 104.385762 67.051962 
L 104.485358 66.982299 
L 104.691188 66.877805 
L 104.750945 66.703648 
L 105.089568 66.599154 
L 105.185844 66.49466 
L 105.408273 66.390166 
L 105.511188 66.21601 
L 105.580905 66.111516 
L 105.643982 65.972191 
L 105.753536 65.867697 
L 105.836532 65.763203 
L 106.0822 65.658709 
L 106.151917 65.519384 
L 106.278071 65.41489 
L 106.364387 65.310396 
L 106.420824 65.205902 
L 106.51046 65.031745 
L 106.683091 64.927251 
L 106.792646 64.787926 
L 106.839124 64.683432 
L 106.935399 64.404781 
L 107.011755 64.335119 
L 107.11799 64.0913 
L 107.237505 63.986806 
L 107.343739 63.777818 
L 107.503092 63.673324 
L 107.592727 63.533998 
L 107.74212 63.429505 
L 107.788598 63.325011 
L 108.004387 63.220517 
L 108.094023 63.116023 
L 108.220177 63.011529 
L 108.316452 62.802541 
L 108.432647 62.732878 
L 108.525602 62.454228 
L 108.668355 62.349734 
L 108.77459 61.966589 
L 108.953862 61.862095 
L 109.053457 61.72277 
L 109.179611 61.618276 
L 109.282526 61.513782 
L 109.421959 61.409288 
L 109.478396 61.304794 
L 109.564712 61.235132 
L 109.631109 61.060975 
L 109.717425 60.956481 
L 109.783822 60.817156 
L 109.959773 60.712662 
L 110.056048 60.503674 
L 110.172243 60.39918 
L 110.261878 60.190192 
L 110.314996 60.085698 
L 110.401312 59.87671 
L 110.580583 59.772216 
L 110.663579 59.59806 
L 110.749895 59.493566 
L 110.769814 59.423903 
L 111.038721 59.319409 
L 111.038721 59.284578 
L 111.221312 59.180084 
L 111.277749 58.936265 
L 111.46698 58.831771 
L 111.566575 58.657614 
L 111.725928 58.55312 
L 111.825523 58.448626 
L 112.160827 58.344132 
L 112.243823 58.204807 
L 112.360017 58.100313 
L 112.462932 57.960988 
L 112.7086 57.856494 
L 112.814835 57.647506 
L 113.143499 57.543012 
L 113.206576 57.368855 
L 113.458884 57.264361 
L 113.53856 57.020542 
L 113.644795 56.916048 
L 113.664714 56.846386 
L 113.890463 56.741892 
L 113.990058 56.532904 
L 114.132811 56.42841 
L 114.219127 56.323916 
L 114.298803 56.219422 
L 114.405038 56.114928 
L 114.561071 56.010434 
L 114.637427 55.90594 
L 115.125443 55.801446 
L 115.228358 55.731783 
L 115.324634 55.627289 
L 115.371112 55.418302 
L 115.61014 55.313808 
L 115.689816 55.174482 
L 115.792731 55.069988 
L 115.829249 54.895832 
L 116.244229 54.791338 
L 116.327225 54.686844 
L 116.546335 54.58235 
L 116.655889 54.408193 
L 116.818562 54.303699 
L 116.904877 54.094711 
L 117.104068 53.990218 
L 117.147226 53.920555 
L 117.339776 53.816061 
L 117.409493 53.641904 
L 117.489169 53.572242 
L 117.562206 53.432916 
L 118.036943 53.328423 
L 118.109979 53.189097 
L 118.342368 53.084603 
L 118.412085 52.910447 
L 118.561477 52.805953 
L 118.647793 52.631796 
L 118.757348 52.527302 
L 118.863583 52.387977 
L 119.029575 52.283483 
L 119.139129 52.074495 
L 119.371518 52.004832 
L 119.427956 51.795845 
L 119.650385 51.691351 
L 119.733381 51.621688 
L 119.859535 51.552025 
L 119.95913 51.273375 
L 120.155 51.168881 
L 120.254596 51.029556 
L 120.37411 50.959893 
L 120.460426 50.820568 
L 120.5733 50.750905 
L 120.629737 50.576748 
L 120.828928 50.472254 
L 120.885365 50.367761 
L 121.19743 50.263267 
L 121.287066 50.193604 
L 121.555973 50.08911 
L 121.60909 49.984616 
L 121.765123 49.880122 
L 121.82156 49.775628 
L 122.02739 49.671134 
L 122.123665 49.462146 
L 122.183422 49.357652 
L 122.183422 49.322821 
L 122.385933 49.218327 
L 122.478888 49.113833 
L 122.634921 49.009339 
L 122.737836 48.835183 
L 123.232492 48.730689 
L 123.232492 48.695857 
L 123.561156 48.591363 
L 123.654111 48.417207 
L 123.906419 48.312713 
L 123.959537 48.24305 
L 124.225124 48.138556 
L 124.255002 48.068894 
L 124.696541 47.9644 
L 124.703181 47.894737 
L 124.942209 47.790243 
L 125.021885 47.685749 
L 125.161319 47.581255 
L 125.234355 47.44193 
L 125.383748 47.337436 
L 125.486663 47.198111 
L 125.649335 47.093617 
L 125.719052 46.884629 
L 126.084234 46.780135 
L 126.190469 46.605978 
L 126.432817 46.501484 
L 126.542372 46.292496 
L 126.79468 46.188002 
L 126.890955 46.083509 
L 127.169821 45.979015 
L 127.279376 45.839689 
L 127.485206 45.735195 
L 127.574842 45.561039 
L 127.687716 45.456545 
L 127.707635 45.386882 
L 128.24545 45.282388 
L 128.348365 45.0734 
L 128.706907 44.968906 
L 128.706907 44.934075 
L 128.979134 44.829581 
L 129.052171 44.725087 
L 129.26796 44.620593 
L 129.26796 44.585762 
L 129.802454 44.481268 
L 129.912009 44.307111 
L 130.041483 44.202617 
L 130.121159 44.098123 
L 130.257272 43.993629 
L 130.340268 43.854304 
L 130.579297 43.819473 
L 130.612495 43.540822 
L 130.805046 43.47116 
L 130.874762 43.331834 
L 131.087232 43.22734 
L 131.166908 43.088015 
L 131.236625 42.983521 
L 131.276463 42.913859 
L 131.678164 42.844196 
L 131.75784 42.704871 
L 131.907233 42.600377 
L 131.95703 42.495883 
L 132.415168 42.391389 
L 132.524723 42.112738 
L 132.830148 42.008244 
L 132.913144 41.868919 
L 133.20197 41.764425 
L 133.298245 41.6251 
L 133.776302 41.520606 
L 133.806181 41.450943 
L 134.061808 41.346449 
L 134.061808 41.311618 
L 134.091687 41.311618 
L 134.44027 41.207124 
L 134.533226 41.10263 
L 134.735736 40.998136 
L 134.775574 40.928474 
L 135.170635 40.82398 
L 135.233712 40.614992 
L 135.578975 40.545329 
L 135.661971 40.371172 
L 135.847882 40.30151 
L 135.940838 40.127353 
L 135.957437 40.127353 
L 136.189826 40.022859 
L 136.206425 39.918365 
L 136.462052 39.813871 
L 136.564968 39.709377 
L 136.880352 39.604883 
L 136.880352 39.570052 
L 137.13266 39.465558 
L 137.225616 39.395896 
L 137.567559 39.291402 
L 137.590798 39.186908 
L 137.989179 39.082414 
L 138.025697 38.943088 
L 138.148531 38.838595 
L 138.234847 38.734101 
L 138.57347 38.629607 
L 138.57347 38.559944 
L 139.131204 38.45545 
L 139.240758 38.350956 
L 139.363592 38.246462 
L 139.396791 38.176799 
L 139.642459 38.072306 
L 139.718815 37.863318 
L 140.064078 37.793655 
L 140.097277 37.689161 
L 140.578654 37.584667 
L 140.664969 37.480173 
L 140.986994 37.375679 
L 141.023512 37.271185 
L 141.455091 37.201523 
L 141.455091 37.13186 
L 141.531448 37.13186 
L 141.89995 37.027366 
L 141.943108 36.957703 
L 142.690072 36.853209 
L 142.746509 36.748715 
L 143.048614 36.644222 
L 143.154849 36.504896 
L 143.367319 36.400402 
L 143.367319 36.365571 
L 143.616307 36.261077 
L 143.666104 36.156583 
L 143.95825 36.052089 
L 144.064485 35.947595 
L 144.260356 35.877933 
L 144.336712 35.738607 
L 144.552502 35.634113 
L 144.552502 35.599282 
L 144.964162 35.494788 
L 145.057117 35.355463 
L 145.402381 35.250969 
L 145.4223 35.181306 
L 145.634769 35.076812 
L 145.734364 34.902656 
L 146.122786 34.798162 
L 146.122786 34.76333 
L 146.418251 34.658836 
L 146.521166 34.48468 
L 146.763515 34.380186 
L 146.800033 34.310523 
L 147.238252 34.206029 
L 147.307968 34.101535 
L 147.633313 33.997041 
L 147.649912 33.927379 
L 147.869021 33.822885 
L 147.968617 33.718391 
L 148.154528 33.613897 
L 148.171127 33.544234 
L 148.549588 33.43974 
L 148.629265 33.300415 
L 149.011046 33.195921 
L 149.094042 33.021765 
L 149.120601 33.021765 
L 149.870885 32.917271 
L 149.943921 32.847608 
L 150.325703 32.743114 
L 150.38878 32.673451 
L 150.823679 32.568957 
L 150.833638 32.499295 
L 151.162302 32.394801 
L 151.268537 32.290307 
L 151.779792 32.185813 
L 151.779792 32.150982 
L 152.231291 32.046488 
L 152.297687 31.976825 
L 152.632991 31.872331 
L 152.739226 31.767837 
L 153.187404 31.663343 
L 153.287 31.558849 
L 153.449672 31.454355 
L 153.542627 31.280199 
L 153.788295 31.175705 
L 153.788295 31.140873 
L 154.209915 31.036379 
L 154.219874 30.931885 
L 154.704571 30.827392 
L 154.797527 30.722898 
L 155.092992 30.618404 
L 155.102952 30.548741 
L 155.610887 30.444247 
L 155.610887 30.409416 
L 156.161981 30.304922 
L 156.248296 30.200428 
L 156.424248 30.095934 
L 156.424248 30.061103 
L 156.922224 29.956609 
L 157.025139 29.886946 
L 157.390321 29.782452 
L 157.390321 29.747621 
L 157.798662 29.643127 
L 157.798662 29.608295 
L 158.213642 29.503801 
L 158.313237 29.399308 
L 158.532346 29.294814 
L 158.615342 29.155488 
L 159.036962 29.050994 
L 159.053561 28.981332 
L 159.395504 28.876838 
L 159.395504 28.842006 
L 159.843683 28.772344 
L 159.843683 28.702681 
L 160.129189 28.598187 
L 160.185626 28.528525 
L 160.703521 28.424031 
L 160.773238 28.319537 
L 161.091942 28.215043 
L 161.201497 28.040886 
L 161.729352 27.936392 
L 161.77251 27.86673 
L 162.267166 27.762236 
L 162.267166 27.727404 
L 162.698745 27.62291 
L 162.698745 27.588079 
L 163.289676 27.483585 
L 163.292996 27.413922 
L 163.737855 27.309428 
L 163.82417 27.239766 
L 164.879879 27.135272 
L 164.976155 27.065609 
L 165.510649 26.961115 
L 165.540528 26.891453 
L 166.071702 26.786959 
L 166.071702 26.752127 
L 166.616156 26.647633 
L 166.675913 26.577971 
L 167.190488 26.473477 
L 167.300042 26.403814 
L 168.076885 26.29932 
L 168.076885 26.264489 
L 168.342472 26.159995 
L 168.342472 26.125164 
L 169.099396 26.02067 
L 169.175752 25.846513 
L 169.989113 25.742019 
L 170.088708 25.637525 
L 170.586684 25.533031 
L 170.586684 25.4982 
L 172.133729 25.393706 
L 172.133729 25.358875 
L 172.644984 25.254381 
L 172.651624 25.184718 
L 173.199397 25.080224 
L 173.249195 25.010562 
L 173.372029 24.906068 
L 173.372029 24.871236 
L 173.780369 24.766742 
L 173.796969 24.69708 
L 174.490815 24.592586 
L 174.524013 24.488092 
L 175.114945 24.383598 
L 175.197941 24.279104 
L 175.868548 24.17461 
L 175.868548 24.139779 
L 177.252922 24.035285 
L 177.269521 23.965622 
L 177.943448 23.861128 
L 177.943448 23.826297 
L 178.813246 23.721803 
L 178.813246 23.686971 
L 180.300534 23.582478 
L 180.39681 23.512815 
L 181.455839 23.408321 
L 181.455839 23.37349 
L 182.172924 23.268996 
L 182.172924 23.234164 
L 183.162236 23.12967 
L 183.162236 23.094839 
L 183.859402 22.990345 
L 183.949038 22.920683 
L 184.865314 22.816189 
L 184.865314 22.781357 
L 185.379889 22.676863 
L 185.379889 22.642032 
L 186.166691 22.537538 
L 186.239727 22.467875 
L 187.949445 22.363381 
L 187.949445 22.32855 
L 188.626692 22.224056 
L 188.729607 22.154394 
L 189.380296 22.0499 
L 189.380296 22.015068 
L 190.894142 21.910574 
L 191.000377 21.80608 
L 191.415357 21.701586 
L 191.415357 21.666755 
L 192.39139 21.562261 
L 192.39139 21.52743 
L 193.327585 21.422936 
L 193.327585 21.388105 
L 193.901917 21.283611 
L 193.931796 21.213948 
L 194.622322 21.109454 
L 194.622322 21.074623 
L 195.787586 20.970129 
L 195.787586 20.935297 
L 197.042485 20.830803 
L 197.14872 20.761141 
L 197.298113 20.656647 
L 197.298113 20.621816 
L 198.503215 20.517322 
L 198.503215 20.48249 
L 199.42281 20.377996 
L 199.43609 20.308334 
L 200.003782 20.20384 
L 200.003782 20.169008 
L 202.251314 20.064514 
L 202.251314 20.029683 
L 202.911962 19.925189 
L 202.911962 19.890358 
L 204.010829 19.785864 
L 204.010829 19.751033 
L 204.82087 19.646539 
L 204.864027 19.542045 
L 205.086457 19.437551 
L 205.086457 19.402719 
L 207.480061 19.298226 
L 207.480061 19.263394 
L 208.177227 19.1589 
L 208.177227 19.124069 
L 209.671155 19.019575 
L 209.747512 18.949912 
L 211.507027 18.845418 
L 211.507027 18.810587 
L 212.217472 18.706093 
L 212.217472 18.671262 
L 213.571967 18.566768 
L 213.571967 18.531937 
L 214.644275 18.427443 
L 214.75383 18.35778 
L 216.134883 18.253286 
L 216.134883 18.218455 
L 218.096908 18.113961 
L 218.096908 18.079129 
L 220.719581 17.974635 
L 220.719581 17.939804 
L 221.924683 17.83531 
L 221.924683 17.800479 
L 223.269218 17.695985 
L 223.348894 17.591491 
L 225.749138 17.486997 
L 225.855373 17.417334 
L 226.247114 17.31284 
L 226.280313 17.173515 
L 228.219099 17.069021 
L 228.219099 17.03419 
L 230.035051 16.929696 
L 230.035051 16.894865 
L 232.445255 16.790371 
L 232.445255 16.755539 
L 235.03473 16.651045 
L 235.087847 16.581383 
L 236.369305 16.476889 
L 236.369305 16.442057 
L 238.178618 16.337564 
L 238.178618 16.302732 
L 240.216999 16.198238 
L 240.323234 16.128576 
L 242.560806 16.024082 
L 242.587365 15.954419 
L 244.834896 15.849925 
L 244.927852 15.780262 
L 249.286801 15.675769 
L 249.286801 15.640937 
L 251.517733 15.536443 
L 251.560891 15.466781 
L 253.778544 15.362287 
L 253.778544 15.327455 
L 257.410449 15.222961 
L 257.410449 15.18813 
L 262.184378 15.083636 
L 262.184378 15.048805 
L 266.775716 14.944311 
L 266.775716 14.90948 
L 270.191831 14.874648 
L 270.191831 14.874648 
" clip-path="url(#pe8abf9ba4c)" style="fill: none; stroke: #cb997e; stroke-width: 2; stroke-linecap: square"/>
   </g>
   <g id="line2d_16">
    <path d="M 48.051404 243.751234 
L 48.160959 224.489516 
L 48.164279 224.489516 
L 48.270514 217.941228 
L 48.280473 217.836734 
L 48.390028 214.144614 
L 48.396668 214.04012 
L 48.506222 209.546881 
L 48.509542 209.546881 
L 48.619097 206.725544 
L 48.625737 206.690713 
L 48.728652 203.730051 
L 48.741931 203.730051 
L 48.844846 201.117702 
L 48.861445 201.117702 
L 48.971 198.087377 
L 48.980959 198.087377 
L 49.090514 194.778402 
L 49.097154 194.743571 
L 49.206708 193.245824 
L 49.226627 193.14133 
L 49.329543 191.051451 
L 49.352781 190.946957 
L 49.462336 187.742476 
L 49.492215 187.637982 
L 49.601769 185.757091 
L 49.605089 185.757091 
L 49.711324 183.562718 
L 49.724603 183.458224 
L 49.830838 182.099803 
L 49.844118 182.03014 
L 49.953672 179.522285 
L 49.970272 179.417791 
L 50.066547 177.745888 
L 50.106385 177.641394 
L 50.21594 175.795334 
L 50.222579 175.69084 
L 50.332134 174.506575 
L 50.352053 174.402081 
L 50.458288 172.381865 
L 50.468247 172.277371 
L 50.577802 170.291986 
L 50.584442 170.291986 
L 50.693997 168.794239 
L 50.697316 168.794239 
L 50.800231 167.331324 
L 50.83011 167.22683 
L 50.933025 166.042565 
L 50.952944 165.938071 
L 51.062499 164.335831 
L 51.065819 164.335831 
L 51.162094 163.221229 
L 51.182013 163.151566 
L 51.291568 162.071795 
L 51.311487 162.036964 
L 51.421041 160.678542 
L 51.427681 160.678542 
L 51.537236 158.797651 
L 51.540556 158.797651 
L 51.640151 157.090917 
L 51.676669 156.986423 
L 51.786224 156.185302 
L 51.809463 156.080809 
L 51.912378 154.931375 
L 51.922337 154.931375 
L 52.031892 153.572954 
L 52.045171 153.46846 
L 52.154726 151.796556 
L 52.174645 151.692063 
L 52.27756 150.82128 
L 52.294159 150.751617 
L 52.403714 149.567352 
L 52.426953 149.462858 
L 52.536508 148.696569 
L 52.546467 148.626907 
L 52.656022 147.198823 
L 52.675941 147.094329 
L 52.785496 145.596582 
L 52.788815 145.596582 
L 52.89505 144.029173 
L 52.931568 143.924679 
L 53.041123 142.322438 
L 53.067682 142.217944 
L 53.177237 141.173005 
L 53.203795 141.138173 
L 53.31335 139.292114 
L 53.32331 139.257282 
L 53.416265 137.86403 
L 53.456103 137.759536 
L 53.565658 136.610102 
L 53.582257 136.505608 
L 53.681852 135.530331 
L 53.73165 135.425837 
L 53.841205 134.346067 
L 53.881043 134.241573 
L 53.973998 133.335958 
L 54.007196 133.231464 
L 54.116751 132.430344 
L 54.14995 132.32585 
L 54.259504 131.00226 
L 54.272784 130.967429 
L 54.372379 129.852827 
L 54.392298 129.748333 
L 54.501853 128.807887 
L 54.515132 128.703393 
L 54.624687 127.762948 
L 54.637966 127.658454 
L 54.740881 126.787671 
L 54.750841 126.787671 
L 54.850436 126.091044 
L 54.876994 125.98655 
L 54.96663 125.046105 
L 55.013108 124.941611 
L 55.122663 124.453972 
L 55.145901 124.419141 
L 55.252136 123.513527 
L 55.265416 123.443864 
L 55.37497 122.433756 
L 55.431408 122.364093 
L 55.534323 120.970841 
L 55.544282 120.970841 
L 55.653837 119.960732 
L 55.667116 119.856239 
L 55.776671 119.194444 
L 55.79659 119.08995 
L 55.906145 117.696697 
L 55.926064 117.592203 
L 56.035618 116.756251 
L 56.068817 116.651757 
L 56.178372 115.885468 
L 56.188331 115.780974 
L 56.297886 114.910191 
L 56.314485 114.805698 
L 56.4174 114.004577 
L 56.437319 113.900083 
L 56.540234 113.098963 
L 56.566793 113.0293 
L 56.673028 112.332674 
L 56.742744 112.263011 
L 56.852299 111.566385 
L 56.862259 111.461891 
L 57.254 108.361904 
L 57.307117 108.25741 
L 57.406712 107.525952 
L 57.436591 107.421458 
L 57.546146 106.515844 
L 57.566065 106.446181 
L 57.672299 105.958543 
L 57.712137 105.923712 
L 57.818372 104.913603 
L 57.87149 104.809109 
L 57.974405 104.182146 
L 58.000964 104.077652 
L 58.107198 103.381025 
L 58.130437 103.276532 
L 58.236672 102.649568 
L 58.269871 102.545074 
L 58.379425 101.91811 
L 58.402664 101.813616 
L 58.49562 100.803508 
L 58.565336 100.699014 
L 58.645012 100.141713 
L 58.68485 100.07205 
L 58.787766 99.410255 
L 58.811004 99.305761 
L 58.90064 98.74846 
L 58.933838 98.643966 
L 59.016834 97.877677 
L 59.053353 97.808015 
L 59.159588 96.972063 
L 59.176187 96.867569 
L 59.358778 96.066449 
L 59.372057 95.996786 
L 59.474972 95.195666 
L 59.508171 95.126003 
L 59.617725 94.464208 
L 59.667523 94.359714 
L 59.777078 93.663088 
L 59.813596 93.558594 
L 59.909871 92.687811 
L 59.92979 92.687811 
L 60.032705 91.991185 
L 60.072543 91.886691 
L 60.182098 91.399052 
L 60.215297 91.294558 
L 60.318212 90.563101 
L 60.34809 90.458607 
L 60.457645 89.936137 
L 60.484204 89.866474 
L 60.583799 89.100185 
L 60.650196 88.995691 
L 60.75975 88.612547 
L 60.792949 88.508053 
L 60.902503 88.229402 
L 60.952301 88.124908 
L 61.038617 87.602439 
L 61.101694 87.497945 
L 61.207929 86.696824 
L 61.274325 86.592331 
L 61.38388 85.895704 
L 61.407119 85.79121 
L 61.516674 85.094584 
L 61.536593 84.99009 
L 61.642828 84.293464 
L 61.679346 84.18897 
L 61.778941 83.701331 
L 61.832058 83.596837 
L 61.911735 83.248524 
L 61.981451 83.14403 
L 62.084366 82.691223 
L 62.127524 82.586729 
L 62.230439 81.750777 
L 62.253678 81.646283 
L 62.359913 81.01932 
L 62.383152 80.949657 
L 62.479427 80.183368 
L 62.509306 80.183368 
L 62.61886 79.521573 
L 62.62882 79.45191 
L 62.735055 79.033935 
L 62.778213 78.929441 
L 62.881128 78.441802 
L 62.911006 78.337308 
L 63.013921 77.814839 
L 63.086958 77.710345 
L 63.179913 77.118212 
L 63.262909 77.013718 
L 63.345905 76.595742 
L 63.382424 76.491249 
L 63.482019 75.968779 
L 63.525177 75.864285 
L 63.634731 75.446309 
L 63.684529 75.341815 
L 63.784124 74.993502 
L 63.847201 74.889008 
L 63.956756 74.540695 
L 63.970035 74.436201 
L 64.07959 73.809237 
L 64.142667 73.704743 
L 64.245582 72.973285 
L 64.295379 72.868792 
L 64.375056 72.485647 
L 64.431493 72.381153 
L 64.531088 71.998009 
L 64.547687 71.963177 
L 64.643963 71.336214 
L 64.710359 71.23172 
L 64.813274 70.848575 
L 64.863072 70.744081 
L 64.949388 70.465431 
L 65.048983 70.360937 
L 65.141938 69.90813 
L 65.271412 69.803636 
L 65.371007 69.594648 
L 65.417485 69.490154 
L 65.52704 68.967684 
L 65.550279 68.932853 
L 65.649874 68.375552 
L 65.706311 68.271058 
L 65.812546 67.853082 
L 65.835785 67.748588 
L 65.93206 67.365443 
L 66.011736 67.295781 
L 66.117971 66.668817 
L 66.14453 66.564323 
L 66.240805 66.146347 
L 66.277324 66.076685 
L 66.363639 65.728371 
L 66.453275 65.623878 
L 66.55287 65.310396 
L 66.622587 65.205902 
L 66.732142 64.683432 
L 66.76202 64.648601 
L 66.841696 64.230625 
L 66.908093 64.126131 
L 67.017648 63.673324 
L 67.077405 63.56883 
L 67.18364 63.081191 
L 67.236757 62.976697 
L 67.329713 62.663216 
L 67.37951 62.558722 
L 67.489065 62.24524 
L 67.502344 62.140746 
L 67.5953 62.001421 
L 67.684936 61.896927 
L 67.784531 61.409288 
L 67.827689 61.339625 
L 67.827689 61.304794 
L 67.937243 60.747493 
L 68.00032 60.642999 
L 68.096596 60.329517 
L 68.139754 60.225023 
L 68.22275 59.946373 
L 68.295786 59.841879 
L 68.405341 59.423903 
L 68.435219 59.319409 
L 68.534815 59.110421 
L 68.574653 59.005927 
L 68.677568 58.483457 
L 68.734005 58.378964 
L 68.83692 58.169976 
L 68.873438 58.065482 
L 68.969714 57.543012 
L 69.082588 57.438518 
L 69.188823 57.090205 
L 69.228661 56.985711 
L 69.328256 56.567735 
L 69.371414 56.463241 
L 69.480969 56.114928 
L 69.487609 56.114928 
L 69.597163 55.731783 
L 69.646961 55.627289 
L 69.749876 55.10482 
L 69.779754 55.069988 
L 69.882669 54.686844 
L 69.922508 54.58235 
L 70.025423 54.234037 
L 70.174815 54.129543 
L 70.264451 53.746398 
L 70.327528 53.641904 
L 70.433763 53.223929 
L 70.49352 53.119435 
L 70.599755 52.805953 
L 70.676111 52.701459 
L 70.735868 52.492471 
L 70.871982 52.387977 
L 70.948338 52.039664 
L 71.071172 51.93517 
L 71.180727 51.656519 
L 71.283642 51.552025 
L 71.346719 51.273375 
L 71.396516 51.273375 
L 71.479512 50.820568 
L 71.635545 50.716074 
L 71.745099 50.576748 
L 71.838055 50.472254 
L 71.94429 50.123941 
L 71.994087 50.019447 
L 72.097002 49.636303 
L 72.199917 49.531809 
L 72.299513 49.183496 
L 72.36259 49.079002 
L 72.468824 48.835183 
L 72.531901 48.730689 
L 72.621537 48.382375 
L 72.691254 48.277881 
L 72.787529 48.068894 
L 72.850606 47.9644 
L 72.923643 47.755412 
L 72.990039 47.650918 
L 73.056436 47.511593 
L 73.156031 47.407099 
L 73.255626 47.267773 
L 73.39838 47.163279 
L 73.478056 46.849797 
L 73.571011 46.745304 
L 73.663967 46.64081 
L 73.707125 46.536316 
L 73.81004 46.222834 
L 73.889716 46.222834 
L 73.999271 45.839689 
L 74.065667 45.735195 
L 74.175222 45.630701 
L 74.308016 45.526207 
L 74.41425 45.177894 
L 74.530445 45.0734 
L 74.620081 44.934075 
L 74.656599 44.864412 
L 74.766153 44.620593 
L 74.855789 44.516099 
L 74.958704 44.063292 
L 75.058299 43.958798 
L 75.141295 43.645316 
L 75.280729 43.540822 
L 75.330526 43.262172 
L 75.503158 43.157678 
L 75.592794 42.774533 
L 75.712308 42.670039 
L 75.752146 42.495883 
L 75.86502 42.391389 
L 75.964616 42.077907 
L 76.040972 41.973413 
L 76.130608 41.764425 
L 76.220243 41.659931 
L 76.303239 41.555437 
L 76.406154 41.450943 
L 76.50243 41.172293 
L 76.625264 41.067799 
L 76.718219 40.789148 
L 76.791256 40.684654 
L 76.894171 40.440835 
L 77.036924 40.336341 
L 77.12324 40.162185 
L 77.199596 40.092522 
L 77.305831 39.744209 
L 77.445264 39.639715 
L 77.511661 39.50039 
L 77.700892 39.395896 
L 77.783888 39.012751 
L 77.893442 38.908257 
L 78.002997 38.629607 
L 78.192228 38.525113 
L 78.285183 38.176799 
L 78.388098 38.072306 
L 78.474414 37.898149 
L 78.650366 37.793655 
L 78.759921 37.515004 
L 78.859516 37.410511 
L 78.952471 37.271185 
L 79.118463 37.166691 
L 79.204779 37.062197 
L 79.307694 36.957703 
L 79.413929 36.679053 
L 79.649638 36.574559 
L 79.719354 36.504896 
L 79.862107 36.400402 
L 79.955063 36.191414 
L 80.084537 36.08692 
L 80.187452 35.80827 
L 80.346804 35.703776 
L 80.366723 35.529619 
L 80.549314 35.425125 
L 80.63895 35.2858 
L 80.731905 35.216138 
L 80.83482 34.972318 
L 80.911177 34.902656 
L 81.020731 34.658836 
L 81.070529 34.554342 
L 81.156845 34.415017 
L 81.289638 34.310523 
L 81.395873 34.240861 
L 81.714578 34.136367 
L 81.804213 33.96221 
L 81.863971 33.857716 
L 81.970205 33.788054 
L 82.023323 33.718391 
L 82.119598 33.579066 
L 82.239112 33.474572 
L 82.318789 33.126258 
L 82.454902 33.021765 
L 82.561137 32.847608 
L 82.674011 32.777945 
L 82.776926 32.63862 
L 82.929639 32.534126 
L 83.029234 32.464463 
L 83.274902 32.359969 
L 83.351259 32.255476 
L 83.603566 32.150982 
L 83.709801 32.011656 
L 83.899032 31.907162 
L 83.962109 31.802668 
L 84.068344 31.698174 
L 84.14138 31.593681 
L 84.300733 31.489187 
L 84.410288 31.245367 
L 84.509883 31.140873 
L 84.599518 31.001548 
L 84.811988 30.897054 
L 84.901624 30.757729 
L 85.134013 30.653235 
L 85.233608 30.304922 
L 85.369721 30.200428 
L 85.459357 29.99144 
L 85.701705 29.921777 
L 85.778061 29.712789 
L 85.924134 29.608295 
L 85.970612 29.538633 
L 86.315875 29.434139 
L 86.402191 29.294814 
L 86.481867 29.19032 
L 86.588102 29.085826 
L 86.647859 28.981332 
L 86.727536 28.807175 
L 86.936685 28.702681 
L 87.016362 28.633019 
L 87.142515 28.528525 
L 87.142515 28.493693 
L 87.45458 28.389199 
L 87.550856 28.215043 
L 87.706888 28.110549 
L 87.773285 27.971224 
L 87.88284 27.86673 
L 87.88284 27.831898 
L 88.248022 27.727404 
L 88.327698 27.518416 
L 88.453852 27.413922 
L 88.483731 27.309428 
L 88.676281 27.239766 
L 88.769237 27.065609 
L 88.988346 26.961115 
L 89.087941 26.82179 
L 89.247294 26.717296 
L 89.310371 26.54314 
L 89.715391 26.438646 
L 89.728671 26.368983 
L 89.967699 26.264489 
L 90.050695 26.159995 
L 90.306323 26.055501 
L 90.405918 25.951007 
L 90.870695 25.881344 
L 90.870695 25.811682 
L 91.292315 25.707188 
L 91.375311 25.602694 
L 91.627619 25.4982 
L 91.700655 25.428537 
L 91.876607 25.324043 
L 91.976202 25.184718 
L 92.258388 25.080224 
L 92.328105 24.97573 
L 92.865919 24.871236 
L 92.962194 24.662248 
L 93.231101 24.557754 
L 93.297498 24.45326 
L 93.626162 24.348767 
L 93.732397 24.139779 
L 94.183895 24.035285 
L 94.227053 23.965622 
L 94.539118 23.861128 
L 94.562357 23.791465 
L 94.851183 23.686971 
L 94.861143 23.617309 
L 95.359118 23.512815 
L 95.445434 23.303827 
L 95.604787 23.199333 
L 95.701062 23.094839 
L 96.218957 22.990345 
L 96.315232 22.85102 
L 96.5609 22.746526 
L 96.610698 22.676863 
L 96.77669 22.572369 
L 96.863006 22.363381 
L 97.035637 22.258887 
L 97.035637 22.224056 
L 97.284625 22.119562 
L 97.287945 22.0499 
L 97.629889 21.945406 
L 97.732804 21.875743 
L 98.187622 21.771249 
L 98.254019 21.701586 
L 98.62916 21.597092 
L 98.712156 21.52743 
L 99.150375 21.422936 
L 99.206813 21.353273 
L 100.189485 21.248779 
L 100.189485 21.213948 
L 100.674182 21.109454 
L 100.733939 21.00496 
L 101.059283 20.900466 
L 101.165518 20.830803 
L 101.444384 20.72631 
L 101.444384 20.691478 
L 102.241146 20.586984 
L 102.241146 20.552153 
L 102.609648 20.447659 
L 102.709243 20.343165 
L 103.409729 20.238671 
L 103.486086 20.169008 
L 103.987382 20.064514 
L 104.000661 19.994852 
L 104.681228 19.890358 
L 104.747625 19.820695 
L 105.398313 19.716201 
L 105.46803 19.646539 
L 106.50382 19.542045 
L 106.50382 19.507213 
L 106.928759 19.402719 
L 106.935399 19.333057 
L 107.413456 19.228563 
L 107.413456 19.193732 
L 107.845035 19.089238 
L 107.848355 19.019575 
L 108.967141 18.915081 
L 108.967141 18.88025 
L 109.295805 18.775756 
L 109.385441 18.706093 
L 109.793781 18.601599 
L 109.880097 18.531937 
L 110.142364 18.427443 
L 110.165603 18.35778 
L 110.497587 18.253286 
L 110.527466 18.183623 
L 111.184794 18.079129 
L 111.291029 17.939804 
L 112.330138 17.83531 
L 112.369977 17.765648 
L 112.818155 17.661154 
L 112.897831 17.591491 
L 113.415726 17.486997 
L 113.458884 17.417334 
L 114.544471 17.31284 
L 114.57767 17.243178 
L 114.919613 17.138684 
L 114.919613 17.103853 
L 115.520504 16.999359 
L 115.540423 16.929696 
L 116.632651 16.825202 
L 116.632651 16.790371 
L 118.262692 16.685877 
L 118.355647 16.581383 
L 119.298482 16.476889 
L 119.34496 16.407226 
L 121.386661 16.302732 
L 121.419859 16.198238 
L 122.923747 16.093744 
L 123.016702 16.024082 
L 124.752978 15.919588 
L 124.752978 15.884756 
L 126.193789 15.780262 
L 126.193789 15.745431 
L 127.687716 15.640937 
L 127.687716 15.606106 
L 129.07209 15.501612 
L 129.07209 15.466781 
L 132.196059 15.362287 
L 132.269095 15.292624 
L 134.417031 15.18813 
L 134.417031 15.153299 
L 136.92683 15.048805 
L 136.92683 15.013973 
L 140.356224 14.90948 
L 140.356224 14.874648 
L 270.191831 14.874648 
L 270.191831 14.874648 
" clip-path="url(#pe8abf9ba4c)" style="fill: none; stroke: #d44c3c; stroke-width: 2; stroke-linecap: square"/>
   </g>
   <g id="patch_3">
    <path d="M 45.83 246.04 
L 45.83 12.585882 
" style="fill: none; stroke: #000000; stroke-width: 0.8; stroke-linejoin: miter; stroke-linecap: square"/>
   </g>
   <g id="patch_4">
    <path d="M 45.83 246.04 
L 272.413235 246.04 
" style="fill: none; stroke: #000000; stroke-width: 0.8; stroke-linejoin: miter; stroke-linecap: square"/>
   </g>
   <g id="legend_1">
    <g id="line2d_17">
     <path d="M 97.833548 188.497812 
L 107.833548 188.497812 
L 117.833548 188.497812 
" style="fill: none; stroke: #44757a; stroke-width: 2; stroke-linecap: square"/>
    </g>
    <g id="text_15">
     <text style="font: 10px 'Arial'; text-anchor: start" x="125.833548" y="191.997812" transform="rotate(-0 125.833548 191.997812)">SRAMP AUROC=0.793</text>
    </g>
    <g id="line2d_18">
     <path d="M 97.833548 202.77125 
L 107.833548 202.77125 
L 117.833548 202.77125 
" style="fill: none; stroke: #a5a58d; stroke-width: 2; stroke-linecap: square"/>
    </g>
    <g id="text_16">
     <text style="font: 10px 'Arial'; text-anchor: start" x="125.833548" y="206.27125" transform="rotate(-0 125.833548 206.27125)">Genome Only AUROC=0.910</text>
    </g>
    <g id="line2d_19">
     <path d="M 97.833548 217.161875 
L 107.833548 217.161875 
L 117.833548 217.161875 
" style="fill: none; stroke: #cb997e; stroke-width: 2; stroke-linecap: square"/>
    </g>
    <g id="text_17">
     <text style="font: 10px 'Arial'; text-anchor: start" x="125.833548" y="220.661875" transform="rotate(-0 125.833548 220.661875)">Sequence Only AUROC=0.838</text>
    </g>
    <g id="line2d_20">
     <path d="M 97.833548 231.5525 
L 107.833548 231.5525 
L 117.833548 231.5525 
" style="fill: none; stroke: #d44c3c; stroke-width: 2; stroke-linecap: square"/>
    </g>
    <g id="text_18">
     <text style="font: 10px 'Arial'; text-anchor: start" x="125.833548" y="235.0525" transform="rotate(-0 125.833548 235.0525)">deepSRAMP AUROC=0.947</text>
    </g>
   </g>
  </g>
 </g>
 <defs>
  <clipPath id="pe8abf9ba4c">
   <rect x="45.83" y="12.585882" width="226.583235" height="233.454118"/>
  </clipPath>
 </defs>
</svg>
