<?xml version="1.0" encoding="utf-8" standalone="no"?>
<!DOCTYPE svg PUBLIC "-//W3C//DTD SVG 1.1//EN"
  "http://www.w3.org/Graphics/SVG/1.1/DTD/svg11.dtd">
<svg xmlns:xlink="http://www.w3.org/1999/xlink" width="288pt" height="288pt" viewBox="0 0 288 288" xmlns="http://www.w3.org/2000/svg" version="1.1">
 <metadata>
  <rdf:RDF xmlns:dc="http://purl.org/dc/elements/1.1/" xmlns:cc="http://creativecommons.org/ns#" xmlns:rdf="http://www.w3.org/1999/02/22-rdf-syntax-ns#">
   <cc:Work>
    <dc:type rdf:resource="http://purl.org/dc/dcmitype/StillImage"/>
    <dc:date>2024-09-14T23:14:18.785831</dc:date>
    <dc:format>image/svg+xml</dc:format>
    <dc:creator>
     <cc:Agent>
      <dc:title>Matplotlib v3.9.2, https://matplotlib.org/</dc:title>
     </cc:Agent>
    </dc:creator>
   </cc:Work>
  </rdf:RDF>
 </metadata>
 <defs>
  <style type="text/css">*{stroke-linejoin: round; stroke-linecap: butt}</style>
 </defs>
 <g id="figure_1">
  <g id="patch_1">
   <path d="M 0 288 
L 288 288 
L 288 0 
L 0 0 
L 0 288 
z
" style="fill: none"/>
  </g>
  <g id="axes_1">
   <g id="patch_2">
    <path d="M 45.83 246.04 
L 272.413235 246.04 
L 272.413235 12.585882 
L 45.83 12.585882 
L 45.83 246.04 
z
" style="fill: none"/>
   </g>
   <g id="matplotlib.axis_1">
    <g id="xtick_1">
     <g id="line2d_1">
      <defs>
       <path id="mec27a87be2" d="M 0 0 
L 0 3.5 
" style="stroke: #000000; stroke-width: 0.8"/>
      </defs>
      <g>
       <use xlink:href="#mec27a87be2" x="48.051404" y="246.04" style="stroke: #000000; stroke-width: 0.8"/>
      </g>
     </g>
     <g id="text_1">
      <text style="font: 10px 'Arial'; text-anchor: middle" x="48.051404" y="260.197812" transform="rotate(-0 48.051404 260.197812)">0.0</text>
     </g>
    </g>
    <g id="xtick_2">
     <g id="line2d_2">
      <g>
       <use xlink:href="#mec27a87be2" x="92.47949" y="246.04" style="stroke: #000000; stroke-width: 0.8"/>
      </g>
     </g>
     <g id="text_2">
      <text style="font: 10px 'Arial'; text-anchor: middle" x="92.47949" y="260.197812" transform="rotate(-0 92.47949 260.197812)">0.2</text>
     </g>
    </g>
    <g id="xtick_3">
     <g id="line2d_3">
      <g>
       <use xlink:href="#mec27a87be2" x="136.907575" y="246.04" style="stroke: #000000; stroke-width: 0.8"/>
      </g>
     </g>
     <g id="text_3">
      <text style="font: 10px 'Arial'; text-anchor: middle" x="136.907575" y="260.197812" transform="rotate(-0 136.907575 260.197812)">0.4</text>
     </g>
    </g>
    <g id="xtick_4">
     <g id="line2d_4">
      <g>
       <use xlink:href="#mec27a87be2" x="181.33566" y="246.04" style="stroke: #000000; stroke-width: 0.8"/>
      </g>
     </g>
     <g id="text_4">
      <text style="font: 10px 'Arial'; text-anchor: middle" x="181.33566" y="260.197812" transform="rotate(-0 181.33566 260.197812)">0.6</text>
     </g>
    </g>
    <g id="xtick_5">
     <g id="line2d_5">
      <g>
       <use xlink:href="#mec27a87be2" x="225.763746" y="246.04" style="stroke: #000000; stroke-width: 0.8"/>
      </g>
     </g>
     <g id="text_5">
      <text style="font: 10px 'Arial'; text-anchor: middle" x="225.763746" y="260.197812" transform="rotate(-0 225.763746 260.197812)">0.8</text>
     </g>
    </g>
    <g id="xtick_6">
     <g id="line2d_6">
      <g>
       <use xlink:href="#mec27a87be2" x="270.191831" y="246.04" style="stroke: #000000; stroke-width: 0.8"/>
      </g>
     </g>
     <g id="text_6">
      <text style="font: 10px 'Arial'; text-anchor: middle" x="270.191831" y="260.197812" transform="rotate(-0 270.191831 260.197812)">1.0</text>
     </g>
    </g>
    <g id="text_7">
     <text style="font: 10px 'Arial'; text-anchor: middle" x="159.121618" y="273.343125" transform="rotate(-0 159.121618 273.343125)">False Postive Rate</text>
    </g>
   </g>
   <g id="matplotlib.axis_2">
    <g id="ytick_1">
     <g id="line2d_7">
      <defs>
       <path id="mb156d870ab" d="M 0 0 
L -3.5 0 
" style="stroke: #000000; stroke-width: 0.8"/>
      </defs>
      <g>
       <use xlink:href="#mb156d870ab" x="45.83" y="243.751234" style="stroke: #000000; stroke-width: 0.8"/>
      </g>
     </g>
     <g id="text_8">
      <text style="font: 10px 'Arial'; text-anchor: end" x="38.83" y="247.33014" transform="rotate(-0 38.83 247.33014)">0.0</text>
     </g>
    </g>
    <g id="ytick_2">
     <g id="line2d_8">
      <g>
       <use xlink:href="#mb156d870ab" x="45.83" y="197.975917" style="stroke: #000000; stroke-width: 0.8"/>
      </g>
     </g>
     <g id="text_9">
      <text style="font: 10px 'Arial'; text-anchor: end" x="38.83" y="201.554823" transform="rotate(-0 38.83 201.554823)">0.2</text>
     </g>
    </g>
    <g id="ytick_3">
     <g id="line2d_9">
      <g>
       <use xlink:href="#mb156d870ab" x="45.83" y="152.2006" style="stroke: #000000; stroke-width: 0.8"/>
      </g>
     </g>
     <g id="text_10">
      <text style="font: 10px 'Arial'; text-anchor: end" x="38.83" y="155.779506" transform="rotate(-0 38.83 155.779506)">0.4</text>
     </g>
    </g>
    <g id="ytick_4">
     <g id="line2d_10">
      <g>
       <use xlink:href="#mb156d870ab" x="45.83" y="106.425283" style="stroke: #000000; stroke-width: 0.8"/>
      </g>
     </g>
     <g id="text_11">
      <text style="font: 10px 'Arial'; text-anchor: end" x="38.83" y="110.004189" transform="rotate(-0 38.83 110.004189)">0.6</text>
     </g>
    </g>
    <g id="ytick_5">
     <g id="line2d_11">
      <g>
       <use xlink:href="#mb156d870ab" x="45.83" y="60.649965" style="stroke: #000000; stroke-width: 0.8"/>
      </g>
     </g>
     <g id="text_12">
      <text style="font: 10px 'Arial'; text-anchor: end" x="38.83" y="64.228872" transform="rotate(-0 38.83 64.228872)">0.8</text>
     </g>
    </g>
    <g id="ytick_6">
     <g id="line2d_12">
      <g>
       <use xlink:href="#mb156d870ab" x="45.83" y="14.874648" style="stroke: #000000; stroke-width: 0.8"/>
      </g>
     </g>
     <g id="text_13">
      <text style="font: 10px 'Arial'; text-anchor: end" x="38.83" y="18.453554" transform="rotate(-0 38.83 18.453554)">1.0</text>
     </g>
    </g>
    <g id="text_14">
     <text style="font: 10px 'Arial'; text-anchor: middle" x="18.9425" y="129.312941" transform="rotate(-90 18.9425 129.312941)">True Postive Rate</text>
    </g>
   </g>
   <g id="line2d_13">
    <path d="M 48.051404 243.751234 
L 48.162342 229.608374 
L 48.311231 225.12777 
L 48.591494 218.848828 
L 49.222086 209.247533 
L 49.411847 207.083431 
L 51.303621 191.020312 
L 51.528415 189.709659 
L 52.065586 184.74137 
L 52.357526 183.217355 
L 52.690338 180.596049 
L 52.973521 178.767231 
L 53.434787 175.932563 
L 53.866859 173.158855 
L 54.193832 171.57388 
L 55.03462 166.422709 
L 57.151189 154.992595 
L 58.067882 151.609282 
L 58.286837 150.268149 
L 58.751023 148.896535 
L 59.186014 147.159158 
L 59.863316 143.836805 
L 60.330421 142.190869 
L 62.63967 134.692714 
L 62.922852 133.869746 
L 63.500894 131.766605 
L 64.283295 128.901457 
L 64.802949 126.920237 
L 71.885425 109.0283 
L 72.577324 107.931009 
L 74.139205 104.852499 
L 74.933283 103.358964 
L 75.342 102.414075 
L 75.771152 101.89591 
L 76.591505 99.94517 
L 77.000222 99.487966 
L 77.826413 97.87251 
L 81.17789 91.563087 
L 82.424476 89.703789 
L 83.294458 87.966412 
L 91.100947 76.871582 
L 91.664392 76.597259 
L 92.718297 75.225646 
L 93.19416 74.341717 
L 93.705056 73.793072 
L 94.204274 73.427308 
L 94.767719 72.848182 
L 95.223146 72.147135 
L 99.593495 67.361728 
L 100.831323 66.020595 
L 101.955294 65.228107 
L 103.222315 64.008895 
L 103.791599 63.033525 
L 104.448465 62.637281 
L 105.607469 61.174227 
L 108.25245 59.101566 
L 110.126707 57.547071 
L 111.510505 56.541221 
L 112.132339 56.053536 
L 112.803802 55.139127 
L 114.187599 54.041836 
L 116.850097 52.152057 
L 121.465675 48.463941 
L 122.116703 48.189618 
L 122.794005 47.640973 
L 123.515098 47.244729 
L 125.619988 45.812155 
L 126.34984 45.598792 
L 127.815381 44.989186 
L 128.565668 44.714864 
L 129.222534 44.31862 
L 129.961143 43.739494 
L 134.430752 41.36203 
L 135.1752 41.087708 
L 137.38227 39.868496 
L 138.097524 39.31985 
L 141.098672 37.887276 
L 141.825604 37.369111 
L 147.14184 35.448852 
L 147.845417 35.022128 
L 148.668689 34.382041 
L 149.436492 34.077238 
L 151.021729 33.162829 
L 152.633241 32.583704 
L 154.215558 32.035058 
L 154.901618 31.699775 
L 155.698616 31.516893 
L 156.393434 30.998728 
L 157.187512 30.815846 
L 157.978671 30.297681 
L 159.540552 29.718555 
L 160.390099 29.413752 
L 161.210452 29.261351 
L 162.775253 28.621264 
L 163.545976 28.255501 
L 164.281666 28.042139 
L 165.011517 27.615414 
L 166.655142 27.280131 
L 168.284169 26.914367 
L 169.799341 26.365722 
L 171.428368 25.908517 
L 180.569025 23.317692 
L 181.295956 23.226251 
L 182.878274 22.738566 
L 183.58477 22.677605 
L 185.05615 22.311842 
L 186.492497 21.915598 
L 190.217657 21.214551 
L 192.229127 20.726866 
L 195.055111 20.11726 
L 196.593637 19.934378 
L 204.046878 18.440844 
L 206.808635 18.136041 
L 208.00559 18.07508 
L 209.82438 17.861718 
L 210.965867 17.617875 
L 219.540159 16.825388 
L 220.12404 16.825388 
L 221.671324 16.551065 
L 223.317868 16.520585 
L 224.275433 16.429144 
L 227.775799 16.154821 
L 228.762558 16.06338 
L 230.190147 15.971939 
L 231.559348 15.850018 
L 233.693433 15.758577 
L 243.642764 15.270892 
L 246.316939 15.209932 
L 247.230713 15.118491 
L 252.698758 15.02705 
L 253.519111 14.996569 
L 268.831388 14.905129 
L 269.190475 14.874648 
L 270.191831 14.874648 
L 270.191831 14.874648 
" clip-path="url(#p03384eab71)" style="fill: none; stroke: #44757a; stroke-width: 2; stroke-linecap: square"/>
   </g>
   <g id="line2d_14">
    <path d="M 48.051404 243.751234 
L 48.159977 227.520841 
L 48.165846 227.458536 
L 48.26855 224.561364 
L 48.280288 224.530211 
L 48.388861 223.128354 
L 48.391795 223.128354 
L 48.500368 221.134601 
L 48.509172 221.041144 
L 48.611876 219.670439 
L 48.632417 219.576982 
L 48.74099 218.486648 
L 48.770334 218.393191 
L 48.875972 216.866724 
L 48.896513 216.773267 
L 48.999218 215.402562 
L 49.031496 215.309105 
L 49.137135 213.907248 
L 49.148872 213.876095 
L 49.254511 211.757733 
L 49.266248 211.757733 
L 49.371887 209.826285 
L 49.383625 209.732828 
L 49.492198 208.175208 
L 49.50687 208.081751 
L 49.615443 206.150303 
L 49.630115 206.087998 
L 49.735753 205.340341 
L 49.744557 205.340341 
L 49.850195 203.595808 
L 49.861933 203.564655 
L 49.958768 202.19395 
L 49.99985 202.100493 
L 50.108423 200.792093 
L 50.123095 200.698636 
L 50.228734 199.296778 
L 50.237537 199.296778 
L 50.343176 197.801464 
L 50.366651 197.739159 
L 50.475224 196.119235 
L 50.489896 196.05693 
L 50.598469 195.091206 
L 50.621944 194.997749 
L 50.724648 194.032025 
L 50.742255 194.000872 
L 50.850828 192.567863 
L 50.862566 192.505558 
L 50.971139 191.508681 
L 50.977007 191.446377 
L 51.082646 190.137976 
L 51.100252 190.044519 
L 51.202957 189.016491 
L 51.241104 188.954186 
L 51.340874 187.926157 
L 51.364349 187.8327 
L 51.469988 187.022738 
L 51.493463 186.960433 
L 51.596167 185.683185 
L 51.613774 185.589728 
L 51.722347 184.624004 
L 51.742887 184.530547 
L 51.85146 183.159842 
L 51.860264 183.066385 
L 51.965902 182.038356 
L 51.995246 181.944899 
L 52.103819 181.010327 
L 52.127295 180.91687 
L 52.232933 179.982298 
L 52.262277 179.919994 
L 52.367916 178.798508 
L 52.385522 178.70505 
L 52.491161 177.677022 
L 52.514636 177.614717 
L 52.614406 176.773602 
L 52.637881 176.711298 
L 52.746454 174.904459 
L 52.761126 174.842155 
L 52.860896 173.782973 
L 52.878503 173.751821 
L 52.878503 173.689516 
L 53.838054 164.593019 
L 53.876201 164.499562 
L 53.984774 163.6896 
L 53.999446 163.596143 
L 54.099216 162.599266 
L 54.134429 162.505809 
L 54.243002 161.727 
L 54.266477 161.633542 
L 54.37505 160.885885 
L 54.395591 160.854733 
L 54.504164 159.608637 
L 54.530573 159.51518 
L 54.62154 158.674066 
L 54.650884 158.580609 
L 54.756523 157.55258 
L 54.762392 157.55258 
L 54.870965 156.867227 
L 54.900309 156.804923 
L 55.008882 156.275332 
L 55.044095 156.181875 
L 55.146799 155.46537 
L 55.179077 155.371913 
L 55.278847 154.68656 
L 55.296453 154.593103 
L 55.405026 153.720836 
L 55.422633 153.689684 
L 55.531206 152.630503 
L 55.545878 152.537046 
L 55.651517 152.038607 
L 55.672057 151.94515 
L 55.78063 151.135188 
L 55.798237 151.072883 
L 55.903876 150.294074 
L 55.924416 150.200617 
L 56.032989 149.297197 
L 56.05353 149.20374 
L 56.159169 148.487235 
L 56.203185 148.393778 
L 56.308824 147.801883 
L 56.32643 147.708426 
L 56.429134 147.054225 
L 56.45261 146.960768 
L 56.546511 146.368873 
L 56.596395 146.275416 
L 56.678559 145.870435 
L 56.740181 145.776978 
L 56.84582 144.904711 
L 56.878098 144.811254 
L 56.983737 144.157053 
L 57.004278 144.094749 
L 57.109917 143.534006 
L 57.133392 143.440549 
L 57.236096 142.724044 
L 57.256637 142.692891 
L 57.362276 142.069844 
L 57.379882 142.038691 
L 57.488455 141.353339 
L 57.491389 141.353339 
L 57.599962 140.636834 
L 57.614634 140.574529 
L 57.714404 139.826872 
L 57.761355 139.733415 
L 57.869928 138.954605 
L 57.8846 138.861148 
L 57.987304 138.36271 
L 58.022517 138.269252 
L 58.113484 137.272376 
L 58.166303 137.178919 
L 58.274876 136.462414 
L 58.301286 136.400109 
L 58.406924 135.870519 
L 58.430399 135.870519 
L 58.430399 135.808214 
L 58.50376 135.247471 
L 58.562448 135.185166 
L 58.662217 134.624423 
L 58.706234 134.530966 
L 58.814807 134.219442 
L 58.85002 134.125985 
L 58.955658 133.440632 
L 58.999674 133.347175 
L 59.099444 132.879889 
L 59.134657 132.786432 
L 59.234427 132.194537 
L 59.252033 132.163385 
L 59.337131 131.633794 
L 59.392885 131.571489 
L 59.501458 130.79268 
L 59.574818 130.699222 
L 59.674588 130.356546 
L 59.730341 130.294241 
L 59.830111 129.795803 
L 59.868258 129.702346 
L 59.970963 129.079298 
L 59.997372 129.048146 
L 60.105945 128.113574 
L 60.135289 128.020117 
L 60.22919 127.365917 
L 60.267338 127.303612 
L 60.370042 126.742869 
L 60.446337 126.649412 
L 60.537303 126.026364 
L 60.563713 125.932907 
L 60.663483 125.434469 
L 60.710433 125.341012 
L 60.813137 124.562202 
L 60.836613 124.499897 
L 60.945186 124.032612 
L 60.951054 123.939154 
L 61.059627 123.347259 
L 61.083103 123.253802 
L 61.182873 122.630754 
L 61.212217 122.568449 
L 61.317855 122.038859 
L 61.361871 121.945402 
L 61.470444 121.197744 
L 61.499788 121.104287 
L 61.605427 120.637001 
L 61.699328 120.543544 
L 61.807901 119.827039 
L 61.822573 119.795887 
L 61.925277 119.203992 
L 61.969293 119.141687 
L 62.077866 118.362877 
L 62.107211 118.26942 
L 62.215784 117.926744 
L 62.277406 117.833287 
L 62.383045 117.210239 
L 62.424126 117.116782 
L 62.523896 116.711801 
L 62.576716 116.618344 
L 62.685289 115.932991 
L 62.702895 115.839534 
L 62.796796 115.52801 
L 62.878959 115.434553 
L 62.978729 114.967267 
L 63.005139 114.87381 
L 63.107843 114.095 
L 63.140122 114.032695 
L 63.248695 113.378495 
L 63.266301 113.316191 
L 63.360202 112.942362 
L 63.433562 112.848905 
L 63.542135 112.350467 
L 63.594955 112.319314 
L 63.697659 111.758571 
L 63.756347 111.665114 
L 63.850248 111.073219 
L 63.894264 111.010914 
L 63.985231 110.637085 
L 64.046853 110.543628 
L 64.149557 109.951733 
L 64.205311 109.92058 
L 64.308015 109.297533 
L 64.340294 109.204075 
L 64.448867 108.61218 
L 64.466473 108.518723 
L 64.566243 108.269504 
L 64.627866 108.176047 
L 64.736439 107.615304 
L 64.745242 107.552999 
L 64.853815 106.929951 
L 64.883159 106.836494 
L 64.985863 106.338056 
L 65.038682 106.244599 
L 65.147255 105.496941 
L 65.161927 105.434637 
L 65.247025 104.998503 
L 65.32332 104.905046 
L 65.417221 104.500065 
L 65.455368 104.406608 
L 65.558072 103.78356 
L 65.605023 103.690103 
L 65.707727 103.191665 
L 65.819234 103.098208 
L 65.913135 102.506312 
L 65.96302 102.412855 
L 66.071593 101.883265 
L 66.112675 101.789807 
L 66.221248 101.260217 
L 66.253527 101.16676 
L 66.353296 100.792931 
L 66.403181 100.699474 
L 66.497082 100.325645 
L 66.517623 100.294493 
L 66.620327 99.858359 
L 66.667278 99.764902 
L 66.772917 99.328769 
L 66.811064 99.235312 
L 66.887358 98.830331 
L 66.937243 98.736874 
L 67.037013 98.363045 
L 67.086898 98.269588 
L 67.177865 97.677692 
L 67.221881 97.64654 
L 67.306978 97.335016 
L 67.359798 97.303864 
L 67.456633 96.774273 
L 67.500649 96.680816 
L 67.609222 96.431597 
L 67.632698 96.33814 
L 67.732467 95.808549 
L 67.846909 95.715092 
L 67.949613 95.434721 
L 67.990695 95.372416 
L 68.090465 94.998587 
L 68.163825 94.90513 
L 68.272398 94.468997 
L 68.301742 94.375539 
L 68.395643 94.032863 
L 68.422053 93.970558 
L 68.530626 93.59673 
L 68.545298 93.503273 
L 68.642133 93.191749 
L 68.70669 93.098292 
L 68.812329 92.786768 
L 68.856345 92.69331 
L 68.950246 92.350634 
L 69.014803 92.257177 
L 69.111638 91.914501 
L 69.173261 91.821044 
L 69.2789 91.447215 
L 69.32585 91.353758 
L 69.416817 91.104539 
L 69.484308 91.011082 
L 69.551799 90.73071 
L 69.622225 90.73071 
L 69.71906 90.294577 
L 69.766011 90.232272 
L 69.833502 90.107662 
L 69.9186 90.014205 
L 70.01837 89.671529 
L 70.106402 89.578072 
L 70.214975 89.266548 
L 70.303007 89.173091 
L 70.41158 88.923872 
L 70.484941 88.830415 
L 70.593514 88.487738 
L 70.619923 88.394281 
L 70.728496 87.926995 
L 70.781316 87.833538 
L 70.875217 87.615471 
L 70.933905 87.522014 
L 71.021937 87.241643 
L 71.1041 87.179338 
L 71.198001 86.774357 
L 71.247886 86.712052 
L 71.353525 86.431681 
L 71.412213 86.338224 
L 71.520786 85.995547 
L 71.535458 85.90209 
L 71.629359 85.621719 
L 71.755538 85.528262 
L 71.858243 85.216738 
L 71.887587 85.12328 
L 71.99616 84.718299 
L 72.016701 84.624842 
L 72.122339 84.064099 
L 72.157552 83.970642 
L 72.266125 83.690271 
L 72.280797 83.627966 
L 72.383501 83.222985 
L 72.427518 83.129528 
L 72.518484 82.724547 
L 72.580107 82.63109 
L 72.679876 82.50648 
L 72.732696 82.413023 
L 72.806056 82.070347 
L 72.885285 81.976889 
L 72.979186 81.72767 
L 73.029071 81.634213 
L 73.125906 81.384994 
L 73.184594 81.291537 
L 73.278495 80.886556 
L 73.319577 80.793099 
L 73.413478 80.41927 
L 73.475101 80.325813 
L 73.583674 79.983137 
L 73.618886 79.920832 
L 73.715722 79.547003 
L 73.780279 79.453546 
L 73.865377 79.173175 
L 74.003294 79.079717 
L 74.082523 78.674736 
L 74.141211 78.581279 
L 74.246849 78.487822 
L 74.270325 78.425517 
L 74.355422 78.082841 
L 74.414111 77.989384 
L 74.505077 77.771317 
L 74.569634 77.67786 
L 74.675273 77.55325 
L 74.766239 77.459793 
L 74.868944 77.148269 
L 74.898288 77.054812 
L 75.003926 76.805593 
L 75.094893 76.712136 
L 75.200531 76.182545 
L 75.235744 76.089088 
L 75.335514 75.621803 
L 75.411809 75.559498 
L 75.496907 75.372583 
L 75.608414 75.279126 
L 75.705249 75.092212 
L 75.763937 74.998755 
L 75.863707 74.656079 
L 75.948805 74.562621 
L 76.048575 74.219945 
L 76.110197 74.126488 
L 76.212902 73.846116 
L 76.274524 73.752659 
L 76.34495 73.441135 
L 76.468195 73.347678 
L 76.576768 73.036154 
L 76.688275 72.942697 
L 76.752832 72.755783 
L 76.826193 72.662326 
L 76.934766 72.350802 
L 77.013995 72.257345 
L 77.122568 71.758907 
L 77.192993 71.696602 
L 77.28396 71.353926 
L 77.360255 71.260468 
L 77.468828 71.011249 
L 77.512844 70.917792 
L 77.60381 70.637421 
L 77.665433 70.543963 
L 77.759334 70.170135 
L 77.812153 70.10783 
L 77.914857 69.515935 
L 77.991152 69.422478 
L 78.099725 69.142106 
L 78.14961 69.048649 
L 78.225904 68.768277 
L 78.343281 68.67482 
L 78.448919 68.519058 
L 78.516411 68.456754 
L 78.610312 68.207534 
L 78.666065 68.14523 
L 78.757032 67.771401 
L 78.847999 67.709096 
L 78.956572 67.428725 
L 79.006456 67.36642 
L 79.112095 66.867982 
L 79.179586 66.774525 
L 79.276422 66.463001 
L 79.338044 66.369544 
L 79.423142 66.151477 
L 79.587469 66.05802 
L 79.687239 65.808801 
L 79.836893 65.715343 
L 79.936663 65.372667 
L 80.00122 65.27921 
L 80.092187 65.123448 
L 80.191957 65.029991 
L 80.294661 64.780772 
L 80.34748 64.687315 
L 80.432578 64.469248 
L 80.500069 64.375791 
L 80.596905 64.157724 
L 80.652658 64.064267 
L 80.740691 63.721591 
L 80.787641 63.628134 
L 80.896214 63.192 
L 80.981312 63.098543 
L 81.060541 62.787019 
L 81.177917 62.693562 
L 81.283556 62.257429 
L 81.351047 62.163971 
L 81.450817 61.821295 
L 81.509505 61.75899 
L 81.60634 61.447467 
L 81.711979 61.354009 
L 81.755995 61.198247 
L 81.864568 61.10479 
L 81.943797 60.793266 
L 82.093452 60.699809 
L 82.190287 60.5752 
L 82.237238 60.481743 
L 82.345811 60.170219 
L 82.404499 60.076761 
L 82.513072 59.827542 
L 82.574695 59.79639 
L 82.67153 59.516019 
L 82.715546 59.422561 
L 82.815316 58.986428 
L 82.859332 58.892971 
L 82.964971 58.581447 
L 83.020724 58.48799 
L 83.06474 58.425685 
L 83.211461 58.332228 
L 83.29069 58.176466 
L 83.331771 58.176466 
L 83.434476 57.83379 
L 83.519573 57.740332 
L 83.619343 57.428809 
L 83.701507 57.335351 
L 83.81008 57.05498 
L 83.851161 56.992675 
L 83.895177 56.743456 
L 84.012554 56.649999 
L 84.106455 56.431932 
L 84.185684 56.338475 
L 84.294257 56.089256 
L 84.364682 55.995799 
L 84.452715 55.808884 
L 84.52314 55.715427 
L 84.619976 55.403903 
L 84.678664 55.310446 
L 84.76963 54.905465 
L 84.848859 54.84316 
L 84.951564 54.656246 
L 85.030793 54.593941 
L 85.130562 54.282418 
L 85.156972 54.18896 
L 85.262611 53.970894 
L 85.412265 53.908589 
L 85.517904 53.65937 
L 85.629412 53.565913 
L 85.664624 53.441303 
L 85.767329 53.378998 
L 85.855361 53.067474 
L 85.943393 52.974017 
L 86.046097 52.693646 
L 86.110654 52.600189 
L 86.20749 52.195208 
L 86.318997 52.10175 
L 86.407029 51.883684 
L 86.497996 51.790227 
L 86.606569 51.57216 
L 86.644716 51.509855 
L 86.732748 51.291788 
L 86.826649 51.198331 
L 86.92055 50.91796 
L 87.040861 50.824503 
L 87.114221 50.544131 
L 87.172909 50.450674 
L 87.258007 50.326064 
L 87.331367 50.232607 
L 87.434071 49.921083 
L 87.46635 49.827626 
L 87.554382 49.640712 
L 87.657086 49.547255 
L 87.748053 49.266883 
L 87.827282 49.173426 
L 87.903576 48.955359 
L 88.038559 48.861902 
L 88.141263 48.612683 
L 88.185279 48.519226 
L 88.285049 48.17655 
L 88.340803 48.114245 
L 88.40536 47.833873 
L 88.557949 47.771569 
L 88.657719 47.584654 
L 88.736948 47.491197 
L 88.827914 47.241978 
L 88.901275 47.148521 
L 89.003979 46.992759 
L 89.147765 46.899302 
L 89.226994 46.774692 
L 89.350239 46.681235 
L 89.44414 46.432016 
L 89.605532 46.338559 
L 89.714105 46.213949 
L 89.831481 46.120492 
L 89.940054 45.715511 
L 90.039824 45.622054 
L 90.148397 45.403987 
L 90.339134 45.31053 
L 90.433035 45.092463 
L 90.506395 44.999006 
L 90.597361 44.749787 
L 90.644312 44.65633 
L 90.744082 44.251349 
L 90.770491 44.157892 
L 90.861458 43.908673 
L 90.937753 43.846368 
L 91.043391 43.565996 
L 91.093276 43.472539 
L 91.157833 43.379082 
L 91.275209 43.285625 
L 91.374979 42.974101 
L 91.427798 42.880644 
L 91.483552 42.69373 
L 91.559847 42.600272 
L 91.59506 42.506815 
L 91.665485 42.506815 
L 91.782862 42.413358 
L 91.785796 42.351053 
L 91.96186 42.257596 
L 92.055761 42.132987 
L 92.214219 42.03953 
L 92.313989 41.883768 
L 92.416693 41.79031 
L 92.525266 41.572244 
L 92.604495 41.478787 
L 92.713068 41.323025 
L 92.812838 41.229567 
L 92.918477 40.949196 
L 92.974231 40.855739 
L 93.082804 40.60652 
L 93.182573 40.513063 
L 93.264737 40.419605 
L 93.370375 40.326148 
L 93.478948 40.108082 
L 93.622734 40.014624 
L 93.728373 39.547339 
L 93.842815 39.453881 
L 93.924978 39.298119 
L 94.071698 39.204662 
L 94.177337 38.893138 
L 94.297648 38.799681 
L 94.397418 38.550462 
L 94.467843 38.457005 
L 94.561744 38.301243 
L 94.614564 38.207786 
L 94.699661 38.020872 
L 94.8053 37.927414 
L 94.893332 37.678195 
L 95.054725 37.584738 
L 95.160363 37.242062 
L 95.204379 37.148605 
L 95.286543 36.930538 
L 95.433263 36.837081 
L 95.491951 36.556709 
L 95.688556 36.463252 
L 95.776589 36.30749 
L 95.826473 36.214033 
L 95.932112 35.995966 
L 96.031882 35.902509 
L 96.134586 35.715595 
L 96.184471 35.622138 
L 96.275438 35.372919 
L 96.489649 35.279462 
L 96.595288 35.1237 
L 96.633435 35.030242 
L 96.718533 34.843328 
L 96.777221 34.749871 
L 96.841778 34.594109 
L 96.973826 34.500652 
L 97.05599 34.438347 
L 97.108809 34.407195 
L 97.217382 34.189128 
L 97.264333 34.095671 
L 97.34943 33.971061 
L 97.478544 33.877604 
L 97.551904 33.752995 
L 97.669281 33.659537 
L 97.745575 33.534928 
L 97.883492 33.441471 
L 97.983262 33.161099 
L 98.050753 33.098794 
L 98.159326 32.91188 
L 98.220949 32.818423 
L 98.297244 32.631509 
L 98.470374 32.538052 
L 98.570143 32.288832 
L 98.70806 32.195375 
L 98.816633 32.070766 
L 98.901731 31.977309 
L 98.963354 31.883851 
L 98.995632 31.883851 
L 99.121812 31.790394 
L 99.215713 31.572328 
L 99.333089 31.47887 
L 99.397646 31.323108 
L 99.52676 31.229651 
L 99.605989 31.073889 
L 99.743906 31.011585 
L 99.834872 30.793518 
L 99.931708 30.700061 
L 100.025609 30.606604 
L 100.178198 30.513146 
L 100.242755 30.232775 
L 100.412951 30.139318 
L 100.415885 30.077013 
L 100.621293 29.983556 
L 100.700522 29.858946 
L 100.791489 29.765489 
L 100.894193 29.609727 
L 100.941144 29.547422 
L 101.020373 29.235899 
L 101.214043 29.142441 
L 101.310879 29.080137 
L 101.425321 28.986679 
L 101.519222 28.799765 
L 101.607254 28.706308 
L 101.715827 28.457089 
L 101.765712 28.363632 
L 101.85081 28.239022 
L 101.976989 28.145565 
L 102.041546 27.927498 
L 102.153053 27.834041 
L 102.200004 27.678279 
L 102.320315 27.615974 
L 102.340855 27.460212 
L 102.546264 27.366755 
L 102.596149 27.273298 
L 102.830901 27.179841 
L 102.883721 27.117536 
L 103.089129 27.024079 
L 103.185964 26.930622 
L 103.285734 26.837165 
L 103.385504 26.681403 
L 103.485274 26.587946 
L 103.582109 26.369879 
L 103.646666 26.307574 
L 103.755239 26.151812 
L 103.928369 26.058355 
L 103.995861 25.933746 
L 104.189531 25.840288 
L 104.29517 25.684526 
L 104.450694 25.591069 
L 104.559267 25.46646 
L 104.600348 25.373003 
L 104.676643 25.279545 
L 104.799888 25.186088 
L 104.899658 25.030326 
L 105.005296 24.936869 
L 105.066919 24.843412 
L 105.210705 24.749955 
L 105.210705 24.718802 
L 105.501211 24.625345 
L 105.598046 24.376126 
L 105.876815 24.282669 
L 105.876815 24.251517 
L 106.041142 24.158059 
L 106.143846 24.064602 
L 106.255353 23.971145 
L 106.316976 23.90884 
L 106.710186 23.815383 
L 106.809956 23.721926 
L 107.194364 23.628469 
L 107.229576 23.566164 
L 107.417378 23.472707 
L 107.508345 23.410402 
L 107.942637 23.348097 
L 107.992522 23.192335 
L 108.174455 23.098878 
L 108.25075 22.943116 
L 108.403339 22.849659 
L 108.491371 22.72505 
L 108.799484 22.631593 
L 108.89045 22.569288 
L 109.066515 22.475831 
L 109.142809 22.351221 
L 109.301267 22.257764 
L 109.374627 22.195459 
L 109.500807 22.102002 
L 109.606446 21.852783 
L 109.685674 21.759326 
L 109.706215 21.665869 
L 110.011394 21.572411 
L 110.046606 21.416649 
L 110.199196 21.354345 
L 110.307769 21.198583 
L 110.636422 21.105126 
L 110.706848 21.011668 
L 111.108862 20.918211 
L 111.170484 20.824754 
L 111.698677 20.731297 
L 111.730956 20.575535 
L 112.229805 20.482078 
L 112.303165 20.388621 
L 112.496836 20.295164 
L 112.549655 20.232859 
L 112.822555 20.139402 
L 112.822555 20.108249 
L 113.042635 20.014792 
L 113.124799 19.921335 
L 113.532681 19.827878 
L 113.532681 19.796725 
L 114.207595 19.703268 
L 114.242807 19.640963 
L 114.547986 19.547506 
L 114.633084 19.360592 
L 114.991081 19.267135 
L 115.084982 19.20483 
L 115.237571 19.111373 
L 115.313866 18.986763 
L 115.498733 18.893306 
L 115.560356 18.799849 
L 115.768699 18.706392 
L 115.771633 18.644087 
L 116.073877 18.55063 
L 116.173647 18.488325 
L 116.343842 18.394868 
L 116.431875 18.270258 
L 116.778135 18.176801 
L 116.883773 18.052192 
L 117.235902 17.958735 
L 117.312196 17.89643 
L 117.438376 17.802973 
L 117.511736 17.740668 
L 117.902012 17.647211 
L 117.998848 17.522601 
L 118.215994 17.429144 
L 118.215994 17.397992 
L 118.755924 17.304534 
L 118.85276 17.179925 
L 119.642115 17.086468 
L 119.703738 16.993011 
L 119.994244 16.899553 
L 120.096948 16.806096 
L 120.2378 16.712639 
L 120.2378 16.681487 
L 120.569387 16.588029 
L 120.569387 16.556877 
L 120.962598 16.46342 
L 121.041827 16.369963 
L 121.34994 16.276506 
L 121.399824 16.183048 
L 122.479686 16.089591 
L 122.550112 16.027287 
L 122.837684 15.933829 
L 122.937453 15.778067 
L 123.679858 15.68461 
L 123.679858 15.653458 
L 124.120019 15.560001 
L 124.18751 15.497696 
L 125.056095 15.404239 
L 125.056095 15.373086 
L 125.522665 15.279629 
L 125.522665 15.248477 
L 127.664782 15.15502 
L 127.664782 15.123867 
L 130.24706 15.03041 
L 130.24706 14.999258 
L 135.546597 14.905801 
L 135.546597 14.874648 
L 270.191831 14.874648 
L 270.191831 14.874648 
" clip-path="url(#p03384eab71)" style="fill: none; stroke: #a5a58d; stroke-width: 2; stroke-linecap: square"/>
   </g>
   <g id="line2d_15">
    <path d="M 48.051404 243.751234 
L 48.159977 238.548786 
L 48.162912 238.548786 
L 48.26855 234.872804 
L 48.280288 234.779347 
L 48.388861 230.636079 
L 48.39473 230.542622 
L 48.503303 227.365079 
L 48.506237 227.365079 
L 48.61481 223.844859 
L 48.626548 223.813707 
L 48.735121 219.981963 
L 48.74099 219.888506 
L 48.849563 216.960181 
L 48.852497 216.960181 
L 48.958136 214.71721 
L 48.964005 214.71721 
L 49.069643 212.411933 
L 49.078446 212.411933 
L 49.18702 210.231266 
L 49.204626 210.137809 
L 49.313199 207.427551 
L 49.322002 207.365246 
L 49.430575 205.527256 
L 49.436444 205.496103 
L 49.545017 203.938484 
L 49.547951 203.938484 
L 49.647721 201.944731 
L 49.662393 201.851274 
L 49.770966 200.324807 
L 49.773901 200.324807 
L 49.876605 198.01953 
L 49.908883 197.926073 
L 50.014522 196.399606 
L 50.017456 196.399606 
L 50.287422 192.412101 
L 50.395995 191.166005 
L 50.407733 191.072548 
L 50.513371 189.670691 
L 50.539781 189.577233 
L 50.648354 187.8327 
L 50.671829 187.770395 
L 50.777468 186.5243 
L 50.786271 186.461995 
L 50.894844 185.060137 
L 50.906582 184.96668 
L 51.015155 183.284451 
L 51.029827 183.190994 
L 51.1384 182.069508 
L 51.144269 182.038356 
L 51.252842 180.574194 
L 51.25871 180.480737 
L 51.364349 179.047727 
L 51.390759 178.95427 
L 51.499332 178.206612 
L 51.508135 178.144308 
L 51.613774 176.306317 
L 51.63138 176.244012 
L 51.739953 174.811002 
L 51.748756 174.77985 
L 51.854395 173.097621 
L 51.886673 173.004164 
L 51.995246 172.100744 
L 52.006984 172.007287 
L 52.109688 170.761192 
L 52.130229 170.667735 
L 52.22413 169.577401 
L 52.268146 169.483944 
L 52.37085 168.860896 
L 52.408998 168.767439 
L 52.517571 167.708258 
L 52.523439 167.645953 
L 52.632013 166.898296 
L 52.64375 166.867143 
L 52.752323 165.870267 
L 52.758192 165.839115 
L 52.866765 164.281495 
L 52.881437 164.188038 
L 52.99001 163.0354 
L 53.01642 162.973095 
L 53.122058 161.913914 
L 53.13673 161.913914 
L 53.242369 160.480904 
L 53.265844 160.387447 
L 53.368549 159.297113 
L 53.394958 159.234809 
L 53.503531 157.832951 
L 53.512334 157.770647 
L 53.620907 156.836075 
L 53.635579 156.742618 
L 53.741218 155.776894 
L 53.752956 155.745741 
L 53.852726 154.904627 
L 53.88207 154.81117 
L 53.990643 153.970055 
L 54.008249 153.970055 
L 54.113888 153.284703 
L 54.140297 153.191246 
L 54.24887 152.443588 
L 54.295821 152.350131 
L 54.404394 151.322102 
L 54.422 151.29095 
L 54.527639 150.356378 
L 54.54818 150.325226 
L 54.650884 149.515264 
L 54.674359 149.452959 
L 54.782932 148.456083 
L 54.797604 148.393778 
L 54.906177 147.396902 
L 54.917915 147.303445 
L 55.026488 146.46233 
L 55.061701 146.368873 
L 55.170274 145.309692 
L 55.208421 145.247387 
L 55.311125 144.468577 
L 55.325798 144.37512 
L 55.434371 143.565158 
L 55.463715 143.502853 
L 55.572288 142.256758 
L 55.598697 142.163301 
L 55.70727 141.072967 
L 55.716074 141.010662 
L 55.821712 140.107243 
L 55.839319 140.044938 
L 55.947892 139.390738 
L 55.98017 139.297281 
L 56.085809 138.300405 
L 56.10635 138.206948 
L 56.214923 137.396986 
L 56.220791 137.365833 
L 56.32643 136.555871 
L 56.349905 136.462414 
L 56.455544 135.777061 
L 56.479019 135.683604 
L 56.587592 134.873642 
L 56.634543 134.780185 
L 56.743116 133.907918 
L 56.801804 133.845613 
L 56.910377 132.973347 
L 56.922115 132.879889 
L 57.021884 132.412604 
L 57.048294 132.319147 
L 57.148064 131.664946 
L 57.189146 131.602642 
L 57.297719 130.886137 
L 57.318259 130.79268 
L 57.423898 130.045022 
L 57.485521 129.982717 
L 57.594094 128.830079 
L 57.6117 128.736622 
L 57.720273 128.175879 
L 57.761355 128.113574 
L 57.866993 127.459374 
L 57.881665 127.428222 
L 57.981435 126.649412 
L 58.007845 126.649412 
L 58.116418 125.652536 
L 58.134024 125.559079 
L 58.23086 125.122945 
L 58.251401 125.029488 
L 58.359974 124.40644 
L 58.436268 124.312983 
L 58.541907 123.845697 
L 58.588857 123.75224 
L 58.679824 122.97343 
L 58.747315 122.879973 
L 58.852954 122.381535 
L 58.879364 122.288078 
L 58.985002 121.602725 
L 59.029018 121.602725 
L 59.134657 120.761611 
L 59.137591 120.761611 
L 59.166935 120.668154 
L 59.254968 120.200868 
L 59.310721 120.107411 
L 59.413426 119.57782 
L 59.439835 119.484363 
L 59.542539 118.92362 
L 59.560146 118.892468 
L 59.66285 117.957896 
L 59.683391 117.864439 
L 59.786095 117.334848 
L 59.833046 117.241391 
L 59.93575 116.774105 
L 59.956291 116.680648 
L 60.064864 115.870686 
L 60.097142 115.777229 
L 60.205715 115.4034 
L 60.220387 115.4034 
L 60.32896 114.562286 
L 60.343632 114.468829 
L 60.446337 113.783476 
L 60.487418 113.690019 
L 60.566647 113.285038 
L 60.610663 113.222733 
L 60.719236 112.194705 
L 60.777924 112.101247 
L 60.877694 111.758571 
L 60.915842 111.696266 
L 61.024415 111.010914 
L 61.059627 110.917457 
L 61.153528 110.356714 
L 61.185807 110.263257 
L 61.288511 109.484447 
L 61.300249 109.422142 
L 61.408822 108.986009 
L 61.420559 108.892552 
L 61.511526 108.394113 
L 61.546739 108.300656 
L 61.655312 107.895675 
L 61.681722 107.83337 
L 61.784426 107.334932 
L 61.804967 107.272628 
L 61.901802 106.64958 
L 61.951687 106.587275 
L 62.057326 106.119989 
L 62.116014 106.026532 
L 62.221652 105.496941 
L 62.283275 105.403484 
L 62.388914 105.060808 
L 62.456405 104.967351 
L 62.564978 104.593522 
L 62.597256 104.500065 
L 62.697026 103.90817 
L 62.746911 103.877017 
L 62.849615 103.316274 
L 62.940582 103.25397 
L 63.049155 102.755531 
L 63.101974 102.662074 
L 63.187072 102.101331 
L 63.216416 102.007874 
L 63.316186 101.229064 
L 63.348464 101.135607 
L 63.451169 100.855236 
L 63.49225 100.761779 
L 63.59202 100.325645 
L 63.609627 100.232188 
L 63.700593 99.858359 
L 63.73874 99.764902 
L 63.83851 99.297616 
L 63.885461 99.204159 
L 63.988165 98.768026 
L 64.014575 98.674569 
L 64.093804 98.207283 
L 64.146623 98.113826 
L 64.255196 97.77115 
L 64.278671 97.677692 
L 64.387244 96.99234 
L 64.413654 96.898883 
L 64.501686 96.649664 
L 64.519293 96.649664 
L 64.55744 96.556206 
L 64.666013 96.244683 
L 64.701226 96.151225 
L 64.809799 95.777397 
L 64.833274 95.68394 
L 64.900765 95.372416 
L 64.994666 95.310111 
L 65.103239 95.029739 
L 65.161927 94.936282 
L 65.258763 94.375539 
L 65.291041 94.282082 
L 65.387877 93.970558 
L 65.446565 93.877101 
L 65.540466 93.59673 
L 65.590351 93.534425 
L 65.693055 93.160596 
L 65.719465 93.067139 
L 65.828038 92.599853 
L 65.901398 92.506396 
L 66.009971 91.945653 
L 66.021709 91.914501 
L 66.121478 91.50952 
L 66.227117 91.416063 
L 66.332756 90.793015 
L 66.370903 90.699558 
L 66.453066 90.325729 
L 66.53523 90.232272 
L 66.637934 89.9519 
L 66.70836 89.858443 
L 66.811064 89.42231 
L 66.843342 89.328853 
L 66.951915 88.705805 
L 67.010603 88.612348 
L 67.10157 88.269672 
L 67.169061 88.176214 
L 67.271766 87.740081 
L 67.309913 87.646624 
L 67.412617 87.3351 
L 67.441961 87.3351 
L 67.550534 86.743205 
L 67.576944 86.649747 
L 67.679648 86.244766 
L 67.708992 86.151309 
L 67.811696 85.777481 
L 67.873319 85.684023 
L 67.976023 85.310195 
L 68.011236 85.216738 
L 68.11394 84.936366 
L 68.137415 84.874061 
L 68.216644 84.251014 
L 68.254792 84.157556 
L 68.345758 83.970642 
L 68.430856 83.877185 
L 68.53356 83.596814 
L 68.598117 83.503356 
L 68.703756 83.067223 
L 68.777116 82.973766 
L 68.882755 82.662242 
L 68.90623 82.599937 
L 69.014803 82.226109 
L 69.032409 82.132651 
L 69.140982 81.540756 
L 69.164458 81.447299 
L 69.273031 81.07347 
L 69.32585 81.042318 
L 69.384538 80.886556 
L 69.47257 80.793099 
L 69.569406 80.232356 
L 69.631028 80.138899 
L 69.727864 79.889679 
L 69.812961 79.796222 
L 69.912731 79.547003 
L 69.968485 79.484698 
L 70.050648 79.297784 
L 70.097599 79.204327 
L 70.197369 78.892803 
L 70.247254 78.799346 
L 70.33822 78.394365 
L 70.490809 78.300908 
L 70.590579 77.895927 
L 70.643398 77.80247 
L 70.751972 77.397489 
L 70.790119 77.335184 
L 70.892823 76.805593 
L 70.939774 76.712136 
L 71.036609 76.400612 
L 71.092363 76.307155 
L 71.195067 76.057936 
L 71.212673 75.964479 
L 71.297771 75.621803 
L 71.391672 75.528345 
L 71.494376 75.154517 
L 71.541327 75.06106 
L 71.6499 74.656079 
L 71.717391 74.562621 
L 71.825964 74.033031 
L 71.855308 73.939574 
L 71.960947 73.659202 
L 72.016701 73.565745 
L 72.107667 73.316526 
L 72.21624 73.223069 
L 72.286666 73.005002 
L 72.386436 72.911545 
L 72.486206 72.288497 
L 72.565435 72.19504 
L 72.668139 71.976973 
L 72.823662 71.883516 
L 72.923432 71.665449 
L 73.011464 71.571992 
L 73.120037 71.229316 
L 73.184594 71.135859 
L 73.266758 70.88664 
L 73.363593 70.793183 
L 73.463363 70.512811 
L 73.498576 70.450506 
L 73.586608 70.294744 
L 73.648231 70.201287 
L 73.750935 69.858611 
L 73.824295 69.765154 
L 73.924065 69.547087 
L 73.962212 69.484782 
L 74.044375 69.32902 
L 74.105998 69.235563 
L 74.214571 68.986344 
L 74.2938 68.892887 
L 74.399439 68.643668 
L 74.478668 68.550211 
L 74.578437 68.363296 
L 74.663535 68.269839 
L 74.760371 68.051773 
L 74.889484 67.958315 
L 74.992189 67.615639 
L 75.006861 67.553334 
L 75.103696 67.24181 
L 75.197597 67.148353 
L 75.294432 66.836829 
L 75.350186 66.743372 
L 75.458759 66.494153 
L 75.493972 66.431848 
L 75.590808 66.182629 
L 75.65243 66.089172 
L 75.7522 65.839953 
L 75.837298 65.746496 
L 75.940002 65.466124 
L 75.963477 65.372667 
L 76.022165 65.216905 
L 76.116066 65.123448 
L 76.192361 64.967686 
L 76.289196 64.905381 
L 76.388966 64.406943 
L 76.562096 64.313486 
L 76.667735 64.126572 
L 76.700013 64.033115 
L 76.793914 63.783896 
L 76.846733 63.690438 
L 76.943569 63.31661 
L 77.016929 63.223153 
L 77.119633 62.973933 
L 77.242878 62.880476 
L 77.333845 62.475495 
L 77.424811 62.382038 
L 77.527516 62.195124 
L 77.595007 62.101667 
L 77.685974 61.852448 
L 77.771071 61.75899 
L 77.867907 61.540924 
L 77.979414 61.447467 
L 78.041037 61.2294 
L 78.214167 61.135943 
L 78.299265 61.042485 
L 78.407838 60.980181 
L 78.516411 60.699809 
L 78.545755 60.637504 
L 78.648459 60.294828 
L 78.686606 60.232523 
L 78.783442 60.107914 
L 78.912555 60.014457 
L 78.994719 59.858695 
L 79.138505 59.765238 
L 79.247078 59.422561 
L 79.437814 59.329104 
L 79.540518 59.01758 
L 79.640288 58.924123 
L 79.742992 58.643752 
L 79.801681 58.550295 
L 79.877975 58.301075 
L 80.033499 58.238771 
L 80.136203 57.864942 
L 80.191957 57.771485 
L 80.30053 57.615723 
L 80.350415 57.522266 
L 80.435512 57.366504 
L 80.488332 57.273047 
L 80.59397 57.023828 
L 80.62038 56.93037 
L 80.661462 56.805761 
L 80.805248 56.712304 
L 80.86687 56.618847 
L 81.019459 56.525389 
L 81.104557 56.338475 
L 81.227802 56.245018 
L 81.3129 56.182713 
L 81.406801 56.089256 
L 81.436145 55.933494 
L 81.63275 55.840037 
L 81.738389 55.777732 
L 81.785339 55.684275 
L 81.888043 55.497361 
L 81.9526 55.403903 
L 82.023026 55.248142 
L 82.158009 55.154684 
L 82.199091 54.998922 
L 82.378089 54.905465 
L 82.47199 54.687399 
L 82.636317 54.593941 
L 82.730218 54.375875 
L 82.89161 54.282418 
L 83.000183 54.033198 
L 83.020724 53.939741 
L 83.105822 53.877437 
L 83.16451 53.783979 
L 83.240805 53.65937 
L 83.293624 53.597065 
L 83.402197 53.316694 
L 83.499033 53.223236 
L 83.563589 52.942865 
L 83.736719 52.849408 
L 83.842358 52.631341 
L 83.974406 52.537884 
L 84.036029 52.413274 
L 84.168077 52.319817 
L 84.267847 52.039446 
L 84.326535 51.977141 
L 84.423371 51.821379 
L 84.505534 51.727922 
L 84.514337 51.603312 
L 84.690402 51.509855 
L 84.793106 51.136026 
L 84.881138 51.042569 
L 84.966236 50.91796 
L 85.136431 50.824503 
L 85.203923 50.668741 
L 85.324233 50.575284 
L 85.400528 50.388369 
L 85.482691 50.294912 
L 85.579527 50.13915 
L 85.699837 50.045693 
L 85.805476 49.703017 
L 85.870033 49.60956 
L 85.937524 49.453798 
L 86.057835 49.453798 
L 86.151736 49.266883 
L 86.363013 49.173426 
L 86.471586 48.955359 
L 86.559618 48.861902 
L 86.559618 48.83075 
L 86.706339 48.737293 
L 86.735683 48.581531 
L 86.908813 48.488074 
L 87.005648 48.301159 
L 87.061402 48.207702 
L 87.152368 47.771569 
L 87.29322 47.678112 
L 87.387121 47.52235 
L 87.495694 47.428892 
L 87.592529 47.148521 
L 87.771528 47.055064 
L 87.871298 46.868149 
L 88.000412 46.774692 
L 88.094313 46.61893 
L 88.25864 46.525473 
L 88.285049 46.432016 
L 88.47872 46.338559 
L 88.572621 46.120492 
L 88.689997 46.027035 
L 88.783898 45.933578 
L 88.945291 45.840121 
L 89.039192 45.590902 
L 89.165371 45.497444 
L 89.226994 45.341683 
L 89.420664 45.248225 
L 89.529238 44.999006 
L 89.860825 44.905549 
L 89.945923 44.718635 
L 90.004611 44.687482 
L 90.107316 44.469416 
L 90.168938 44.375959 
L 90.277511 44.189044 
L 90.35674 44.095587 
L 90.462379 43.846368 
L 90.550411 43.752911 
L 90.591493 43.690606 
L 90.758754 43.597149 
L 90.861458 43.472539 
L 90.964162 43.379082 
L 91.072735 43.22332 
L 91.216521 43.129863 
L 91.325094 43.005254 
L 91.498224 42.911796 
L 91.606797 42.787187 
L 91.724173 42.69373 
L 91.809271 42.537968 
L 92.026417 42.444511 
L 92.026417 42.382206 
L 92.340399 42.288749 
L 92.384415 42.226444 
L 92.60743 42.132987 
L 92.683724 41.91492 
L 92.859789 41.821463 
L 92.859789 41.79031 
L 93.059328 41.696853 
L 93.144426 41.447634 
L 93.267671 41.354177 
L 93.294081 41.291872 
L 93.514161 41.198415 
L 93.616866 40.980348 
L 93.763586 40.886891 
L 93.845749 40.668824 
L 93.974863 40.575367 
L 94.083436 40.357301 
L 94.250697 40.263843 
L 94.353401 40.108082 
L 94.438499 40.045777 
L 94.511859 39.890015 
L 94.579351 39.796558 
L 94.640973 39.547339 
L 94.825841 39.453881 
L 94.934414 39.329272 
L 95.010709 39.235815 
L 95.075265 39.080053 
L 95.248395 38.986596 
L 95.342296 38.799681 
L 95.374575 38.706224 
L 95.433263 38.612767 
L 95.679753 38.51931 
L 95.767785 38.363548 
L 96.093504 38.270091 
L 96.152193 38.176634 
L 96.357601 38.083176 
L 96.41042 37.927414 
L 96.565944 37.833957 
L 96.674517 37.678195 
L 96.903401 37.615891 
L 96.92981 37.460129 
L 97.058924 37.366671 
L 97.144022 37.179757 
L 97.296611 37.0863 
L 97.399315 36.930538 
L 97.493216 36.837081 
L 97.590052 36.712471 
L 97.892296 36.619014 
L 97.977393 36.556709 
L 98.153458 36.463252 
L 98.262031 36.245186 
L 98.338325 36.151728 
L 98.426357 36.027119 
L 98.570143 35.933662 
L 98.646438 35.7779 
L 98.889994 35.684443 
L 98.919338 35.622138 
L 99.245057 35.528681 
L 99.245057 35.497528 
L 99.779119 35.404071 
L 99.870085 35.217157 
L 100.04615 35.1237 
L 100.04615 35.092547 
L 100.272099 34.99909 
L 100.377738 34.749871 
L 100.462835 34.656414 
L 100.489245 34.531804 
L 100.853111 34.438347 
L 100.941144 34.313738 
L 101.052651 34.251433 
L 101.052651 34.189128 
L 101.343157 34.095671 
L 101.343157 34.064518 
L 101.932973 33.971061 
L 101.994596 33.815299 
L 102.129578 33.721842 
L 102.205873 33.56608 
L 102.296839 33.472623 
L 102.352593 33.348014 
L 102.537461 33.254556 
L 102.628427 33.129947 
L 102.866114 33.03649 
L 102.901327 32.974185 
L 103.097932 32.880728 
L 103.159555 32.756118 
L 103.505815 32.662661 
L 103.573306 32.600356 
L 103.866747 32.506899 
L 103.951845 32.38229 
L 104.14845 32.288832 
L 104.168991 32.195375 
L 104.380268 32.101918 
L 104.380268 32.070766 
L 104.629692 31.977309 
L 104.711856 31.821547 
L 105.122673 31.728089 
L 105.213639 31.634632 
L 105.331016 31.541175 
L 105.439589 31.447718 
L 105.642063 31.354261 
L 105.738898 31.229651 
L 105.844537 31.136194 
L 105.923766 31.011585 
L 106.117436 30.918127 
L 106.152649 30.82467 
L 106.463696 30.731213 
L 106.528253 30.637756 
L 106.677908 30.544299 
L 106.736596 30.419689 
L 107.1122 30.326232 
L 107.209036 30.17047 
L 107.699081 30.077013 
L 107.772442 30.014708 
L 108.262487 29.921251 
L 108.309438 29.796641 
L 108.37106 29.796641 
L 108.462027 29.64088 
L 108.761336 29.547422 
L 108.86991 29.422813 
L 109.031302 29.329356 
L 109.107596 29.267051 
L 109.274858 29.173594 
L 109.377562 29.048984 
L 109.85587 28.955527 
L 109.85587 28.924375 
L 110.099426 28.830918 
L 110.152245 28.73746 
L 110.27549 28.644003 
L 110.345916 28.581698 
L 110.923994 28.488241 
L 110.973879 28.363632 
L 111.135271 28.270175 
L 111.155812 28.20787 
L 111.364155 28.114413 
L 111.378827 28.020955 
L 111.754431 27.927498 
L 111.754431 27.896346 
L 112.165248 27.802889 
L 112.267952 27.678279 
L 112.423476 27.584822 
L 112.532049 27.522517 
L 112.643556 27.42906 
L 112.643556 27.397908 
L 112.983947 27.304451 
L 113.089586 27.148689 
L 113.603107 27.055231 
L 113.603107 26.992927 
L 113.776237 26.89947 
L 113.78504 26.837165 
L 114.571461 26.743708 
L 114.665362 26.556793 
L 114.905983 26.463336 
L 115.014556 26.369879 
L 115.575028 26.276422 
L 115.671863 26.151812 
L 116.352646 26.058355 
L 116.434809 25.964898 
L 116.684234 25.871441 
L 116.786938 25.777984 
L 117.218295 25.684526 
L 117.29459 25.622222 
L 117.746489 25.528765 
L 117.746489 25.497612 
L 118.154371 25.404155 
L 118.154371 25.373003 
L 118.485959 25.279545 
L 118.55345 25.154936 
L 118.667892 25.061479 
L 118.714843 24.968022 
L 118.920251 24.874564 
L 118.97307 24.81226 
L 119.495395 24.718802 
L 119.603968 24.625345 
L 119.894474 24.531888 
L 119.959031 24.469583 
L 120.196718 24.376126 
L 120.196718 24.344974 
L 120.689698 24.251517 
L 120.689698 24.220364 
L 121.159203 24.126907 
L 121.19735 24.064602 
L 121.490791 23.971145 
L 121.561217 23.90884 
L 121.892805 23.815383 
L 121.974968 23.753078 
L 122.347638 23.659621 
L 122.347638 23.628469 
L 122.70857 23.535012 
L 122.70857 23.503859 
L 123.902873 23.410402 
L 124.011446 23.285793 
L 124.334231 23.192335 
L 124.366509 23.130031 
L 124.75972 23.036574 
L 124.75972 23.005421 
L 124.765589 23.005421 
L 125.393551 22.943116 
L 125.475715 22.849659 
L 126.179972 22.756202 
L 126.241595 22.631593 
L 126.529167 22.569288 
L 126.634805 22.444678 
L 127.180605 22.351221 
L 127.180605 22.320069 
L 127.705864 22.226612 
L 127.74988 22.07085 
L 128.102009 21.977392 
L 128.125484 21.915088 
L 128.900167 21.82163 
L 128.917773 21.759326 
L 129.120247 21.665869 
L 129.131985 21.572411 
L 129.478245 21.478954 
L 129.478245 21.447802 
L 130.349764 21.354345 
L 130.349764 21.323192 
L 131.042284 21.229735 
L 131.042284 21.198583 
L 132.119211 21.105126 
L 132.227784 21.011668 
L 132.753043 20.918211 
L 132.855747 20.824754 
L 133.269498 20.731297 
L 133.351661 20.668992 
L 134.085263 20.575535 
L 134.173295 20.51323 
L 134.636931 20.419773 
L 134.636931 20.388621 
L 135.170993 20.295164 
L 135.170993 20.264011 
L 135.50845 20.170554 
L 135.605285 20.045944 
L 135.995561 19.952487 
L 135.995561 19.921335 
L 137.034341 19.827878 
L 137.034341 19.796725 
L 137.515584 19.703268 
L 137.615354 19.640963 
L 138.57197 19.547506 
L 138.57197 19.516354 
L 139.158851 19.422897 
L 139.158851 19.391744 
L 139.731061 19.298287 
L 139.780946 19.235982 
L 140.297401 19.142525 
L 140.382499 19.08022 
L 141.048609 18.986763 
L 141.048609 18.955611 
L 141.785145 18.862154 
L 141.785145 18.831001 
L 142.372026 18.737544 
L 142.389633 18.675239 
L 144.226571 18.581782 
L 144.226571 18.55063 
L 144.878009 18.457173 
L 144.878009 18.42602 
L 145.919724 18.332563 
L 145.919724 18.301411 
L 145.998953 18.301411 
L 147.070011 18.207954 
L 147.070011 18.176801 
L 149.118227 18.083344 
L 149.118227 18.052192 
L 149.725649 17.958735 
L 149.825418 17.89643 
L 150.579561 17.802973 
L 150.688134 17.740668 
L 151.703438 17.647211 
L 151.735717 17.584906 
L 153.490492 17.491449 
L 153.581459 17.429144 
L 155.617937 17.335687 
L 155.7001 17.273382 
L 157.695496 17.179925 
L 157.695496 17.148772 
L 158.605162 17.055315 
L 158.605162 17.024163 
L 159.391583 16.930706 
L 159.391583 16.899553 
L 162.114712 16.806096 
L 162.114712 16.774944 
L 162.951018 16.681487 
L 162.951018 16.650334 
L 164.559073 16.556877 
L 164.579613 16.494572 
L 165.674147 16.401115 
L 165.674147 16.369963 
L 168.288703 16.276506 
L 168.288703 16.245353 
L 171.519484 16.151896 
L 171.519484 16.120744 
L 173.5677 16.027287 
L 173.5677 15.996134 
L 176.067814 15.902677 
L 176.132371 15.840372 
L 179.753428 15.746915 
L 179.753428 15.715763 
L 180.839159 15.622305 
L 180.868503 15.560001 
L 185.317063 15.466544 
L 185.317063 15.435391 
L 192.611997 15.341934 
L 192.611997 15.310782 
L 196.388578 15.217324 
L 196.414987 15.15502 
L 207.292832 15.061563 
L 207.292832 15.03041 
L 207.330979 15.03041 
L 257.066232 14.936953 
L 257.066232 14.905801 
L 270.191831 14.874648 
L 270.191831 14.874648 
" clip-path="url(#p03384eab71)" style="fill: none; stroke: #cb997e; stroke-width: 2; stroke-linecap: square"/>
   </g>
   <g id="line2d_16">
    <path d="M 48.051404 243.751234 
L 48.159977 222.723373 
L 48.174649 222.629916 
L 48.280288 217.45862 
L 48.286157 217.45862 
L 48.391795 211.041228 
L 48.39473 211.041228 
L 48.459287 209.172085 
L 48.56786 205.153427 
L 48.576663 205.05997 
L 48.685236 201.352836 
L 48.691105 201.352836 
L 48.799678 197.988378 
L 48.802612 197.988378 
L 48.911185 195.589644 
L 48.917054 195.589644 
L 49.025627 192.817082 
L 49.031496 192.754777 
L 49.140069 190.480653 
L 49.143003 190.480653 
L 49.251576 186.742366 
L 49.257445 186.680061 
L 49.360149 183.720585 
L 49.374822 183.689432 
L 49.483395 180.480737 
L 49.498067 180.418432 
L 49.60664 178.611593 
L 49.624246 178.518136 
L 49.732819 176.119402 
L 49.735753 176.119402 
L 49.838458 174.063345 
L 49.858999 174.00104 
L 49.967572 171.508849 
L 49.976375 171.446544 
L 50.07321 169.452792 
L 50.090817 169.359334 
L 50.19939 167.521344 
L 50.211127 167.427886 
L 50.3197 164.281495 
L 50.334372 164.188038 
L 50.437077 162.443505 
L 50.454683 162.350047 
L 50.560322 160.792428 
L 50.56619 160.792428 
L 50.671829 159.421723 
L 50.686501 159.421723 
L 50.795074 157.365666 
L 50.806812 157.334513 
L 50.897778 155.621132 
L 50.921254 155.621132 
L 51.023958 153.907751 
L 51.044499 153.814293 
L 51.28512 150.200617 
L 51.393693 148.705302 
L 51.411299 148.611845 
L 51.511069 147.459206 
L 51.53161 147.396902 
L 51.640183 146.493483 
L 51.646052 146.400025 
L 51.742887 145.122777 
L 51.769297 145.060473 
L 51.872001 143.658615 
L 51.892542 143.596311 
L 51.998181 141.945234 
L 52.006984 141.914082 
L 52.115557 140.886053 
L 52.130229 140.792596 
L 52.235868 139.328434 
L 52.247605 139.234976 
L 52.356178 137.116614 
L 52.37085 137.054309 
L 52.479423 135.403233 
L 52.491161 135.309776 
L 52.587996 134.125985 
L 52.614406 134.06368 
L 52.720045 133.378328 
L 52.752323 133.28487 
L 52.860896 132.069927 
L 52.875568 131.97647 
L 52.981207 130.66807 
L 53.004682 130.574613 
L 53.110321 129.640041 
L 53.142599 129.577736 
L 53.248238 128.518555 
L 53.271713 128.425098 
L 53.380286 127.428222 
L 53.40963 127.365917 
L 53.518203 125.932907 
L 53.53581 125.83945 
L 53.644383 124.437593 
L 53.661989 124.344135 
L 53.767628 122.879973 
L 53.785234 122.817669 
L 53.893807 121.540421 
L 53.917282 121.478116 
L 54.011183 120.574697 
L 54.031724 120.512392 
L 54.140297 119.328601 
L 54.149101 119.266296 
L 54.24887 118.175963 
L 54.269411 118.082506 
L 54.377984 117.303696 
L 54.395591 117.241391 
L 54.504164 116.400277 
L 54.52177 116.30682 
L 54.624474 115.372248 
L 54.633278 115.372248 
L 54.735982 114.250762 
L 54.777064 114.157305 
L 54.882702 113.285038 
L 54.900309 113.222733 
L 55.003013 112.00779 
L 55.04116 111.914333 
L 55.149733 111.291285 
L 55.164405 111.197828 
L 55.267109 110.04519 
L 55.293519 110.014038 
L 55.399158 109.079466 
L 55.422633 108.986009 
L 55.531206 107.677609 
L 55.548812 107.584151 
L 55.657385 106.52497 
L 55.677926 106.431513 
L 55.771827 105.559246 
L 55.804106 105.465789 
L 55.912679 104.500065 
L 55.918548 104.500065 
L 56.024186 103.78356 
L 56.05353 103.690103 
L 56.162103 102.693227 
L 56.203185 102.599769 
L 56.311758 101.945569 
L 56.335233 101.852112 
L 56.420331 101.322522 
L 56.476085 101.260217 
L 56.57292 100.325645 
L 56.62574 100.26334 
L 56.725509 99.422226 
L 56.760722 99.328769 
L 56.866361 98.549959 
L 56.883967 98.456502 
L 56.99254 97.428473 
L 57.024819 97.335016 
L 57.106982 96.961187 
L 57.115785 96.961187 
L 57.171539 96.86773 
L 57.280112 96.088921 
L 57.300653 95.995463 
L 57.403357 94.936282 
L 57.441504 94.842825 
L 57.544209 94.157473 
L 57.58529 94.064015 
L 57.690929 93.503273 
L 57.705601 93.47212 
L 57.805371 92.662158 
L 57.831781 92.568701 
L 57.940354 91.914501 
L 57.952091 91.821044 
L 58.054795 91.197996 
L 58.084139 91.104539 
L 58.192712 90.294577 
L 58.207385 90.232272 
L 58.313023 89.360005 
L 58.35117 89.266548 
L 58.456809 88.674653 
L 58.494956 88.581195 
L 58.591792 87.926995 
L 58.621136 87.895843 
L 58.726774 87.054728 
L 58.756118 87.023576 
L 58.861757 86.400528 
L 58.894036 86.338224 
L 58.973265 85.777481 
L 59.031953 85.684023 
L 59.111182 85.092128 
L 59.178673 84.998671 
L 59.284312 84.531385 
L 59.319525 84.437928 
L 59.410491 84.064099 
L 59.445704 83.970642 
L 59.554277 83.316442 
L 59.583621 83.222985 
L 59.671653 82.599937 
L 59.706866 82.50648 
L 59.812505 81.914585 
L 59.821308 81.85228 
L 59.929881 81.260385 
L 59.962159 81.166927 
L 60.053126 80.575032 
L 60.08247 80.481575 
L 60.179306 79.360089 
L 60.223322 79.266632 
L 60.32896 78.581279 
L 60.346567 78.518974 
L 60.452205 78.176298 
L 60.475681 78.113993 
L 60.569582 77.709012 
L 60.622401 77.615555 
L 60.72804 77.272879 
L 60.751515 77.179422 
L 60.860088 76.494069 
L 60.886497 76.400612 
L 60.992136 75.964479 
L 61.009743 75.871022 
L 61.118316 75.310279 
L 61.177004 75.216821 
L 61.279708 74.28225 
L 61.329593 74.188793 
L 61.429363 73.846116 
L 61.470444 73.752659 
L 61.558477 73.191916 
L 61.605427 73.129612 
L 61.714 72.537716 
L 61.746279 72.475411 
L 61.848983 71.727754 
L 61.884196 71.634297 
L 61.972228 71.073554 
L 62.01331 70.980097 
L 62.095473 70.575116 
L 62.151227 70.481659 
L 62.236324 69.858611 
L 62.318488 69.796306 
L 62.427061 69.048649 
L 62.444667 68.955192 
L 62.55324 68.643668 
L 62.585519 68.550211 
L 62.691157 68.207534 
L 62.708764 68.114077 
L 62.817337 67.397572 
L 62.829074 67.304115 
L 62.937647 66.899134 
L 62.955254 66.836829 
L 63.052089 66.369544 
L 63.113712 66.276086 
L 63.222285 65.839953 
L 63.266301 65.746496 
L 63.351399 65.372667 
L 63.483447 65.27921 
L 63.589086 64.811924 
L 63.606692 64.780772 
L 63.697659 64.375791 
L 63.747544 64.282334 
L 63.856117 63.939657 
L 63.867854 63.8462 
L 63.973493 63.378914 
L 64.008706 63.285457 
L 64.117279 62.693562 
L 64.123148 62.631257 
L 64.231721 62.132819 
L 64.305081 62.039362 
L 64.404851 61.665533 
L 64.472342 61.572076 
L 64.575046 61.167095 
L 64.654275 61.073638 
L 64.762848 60.606352 
L 64.789258 60.544047 
L 64.883159 60.045609 
L 64.924241 59.952152 
L 65.009338 59.578323 
L 65.044551 59.484866 
L 65.147255 59.048733 
L 65.235288 58.986428 
L 65.335057 58.550295 
L 65.373205 58.48799 
L 65.461237 58.176466 
L 65.519925 58.083009 
L 65.625564 57.584571 
L 65.675449 57.491113 
L 65.784022 57.148437 
L 65.828038 57.05498 
L 65.930742 56.494237 
L 65.995299 56.40078 
L 66.095069 55.933494 
L 66.186035 55.871189 
L 66.268199 55.435056 
L 66.365034 55.341599 
L 66.467738 54.936618 
L 66.502951 54.874313 
L 66.611524 54.344722 
L 66.7289 54.251265 
L 66.82867 53.877437 
L 66.893227 53.783979 
L 66.998866 53.410151 
L 67.019407 53.347846 
L 67.122111 52.911713 
L 67.142652 52.849408 
L 67.24829 52.382122 
L 67.298175 52.288665 
L 67.406748 51.945989 
L 67.465436 51.852531 
L 67.571075 51.57216 
L 67.635632 51.478703 
L 67.726599 51.136026 
L 67.797024 51.042569 
L 67.896794 50.79335 
L 67.952548 50.699893 
L 68.058187 50.170302 
L 68.11394 50.076845 
L 68.216644 49.796474 
L 68.248923 49.734169 
L 68.331086 49.516102 
L 68.398578 49.422645 
L 68.483675 49.048817 
L 68.574642 48.955359 
L 68.680281 48.70614 
L 68.721362 48.612683 
L 68.815263 48.519226 
L 68.868083 48.425769 
L 68.959049 48.020788 
L 69.011869 47.958483 
L 69.108704 47.740416 
L 69.143917 47.678112 
L 69.234883 47.366588 
L 69.281834 47.335435 
L 69.387473 46.899302 
L 69.45203 46.805845 
L 69.554734 46.525473 
L 69.628094 46.432016 
L 69.733733 46.08934 
L 69.833502 46.027035 
L 69.927403 45.590902 
L 69.956747 45.497444 
L 70.06532 44.967854 
L 70.085861 44.905549 
L 70.1915 44.594025 
L 70.23845 44.500568 
L 70.332351 44.095587 
L 70.408646 44.033282 
L 70.499613 43.659454 
L 70.58471 43.565996 
L 70.669808 43.285625 
L 70.763709 43.192168 
L 70.872282 42.974101 
L 70.928036 42.880644 
L 71.024871 42.56912 
L 71.092363 42.506815 
L 71.189198 42.195291 
L 71.297771 42.101834 
L 71.406344 41.821463 
L 71.447426 41.728006 
L 71.553064 41.478787 
L 71.620556 41.385329 
L 71.702719 41.167263 
L 71.773145 41.073806 
L 71.878784 40.731129 
L 71.972685 40.637672 
L 72.081258 40.388453 
L 72.154618 40.294996 
L 72.254388 40.014624 
L 72.392305 39.921167 
L 72.486206 39.796558 
L 72.556631 39.703101 
L 72.650532 39.453881 
L 72.723893 39.360424 
L 72.832466 39.017748 
L 72.86181 38.924291 
L 72.943973 38.799681 
L 72.996792 38.737377 
L 73.084825 38.550462 
L 73.149381 38.457005 
L 73.199266 38.301243 
L 73.301971 38.207786 
L 73.404675 38.052024 
L 73.439888 37.958567 
L 73.542592 37.709348 
L 73.633559 37.615891 
L 73.724525 37.304367 
L 73.815492 37.21091 
L 73.909393 36.96169 
L 74.0209 36.899386 
L 74.126539 36.619014 
L 74.243915 36.525557 
L 74.352488 36.369795 
L 74.44052 36.276338 
L 74.546159 36.027119 
L 74.596044 35.933662 
L 74.68701 35.809052 
L 74.81319 35.715595 
L 74.915894 35.497528 
L 74.95991 35.435224 
L 75.036205 35.217157 
L 75.08609 35.154852 
L 75.162384 34.905633 
L 75.265088 34.812176 
L 75.350186 34.656414 
L 75.485169 34.562957 
L 75.590808 34.313738 
L 75.687643 34.22028 
L 75.793282 33.971061 
L 75.948805 33.877604 
L 76.048575 33.628385 
L 76.104329 33.534928 
L 76.209967 33.285709 
L 76.268655 33.192252 
L 76.37136 32.974185 
L 76.462326 32.943033 
L 76.541555 32.724966 
L 76.673603 32.631509 
L 76.776308 32.506899 
L 76.896618 32.413442 
L 76.984651 32.226528 
L 77.058011 32.133071 
L 77.119633 31.977309 
L 77.242878 31.883851 
L 77.307435 31.696937 
L 77.436549 31.60348 
L 77.545122 31.416566 
L 77.571532 31.323108 
L 77.650761 31.260804 
L 77.759334 31.167347 
L 77.862038 31.042737 
L 78.041037 30.94928 
L 78.143741 30.82467 
L 78.246445 30.731213 
L 78.246445 30.700061 
L 78.36969 30.606604 
L 78.454788 30.388537 
L 78.604443 30.326232 
L 78.683672 30.077013 
L 78.783442 30.014708 
L 78.845064 29.827794 
L 79.032866 29.734337 
L 79.123833 29.485118 
L 79.203062 29.39166 
L 79.288159 29.235899 
L 79.387929 29.142441 
L 79.487699 28.986679 
L 79.616813 28.893222 
L 79.70778 28.675156 
L 79.784074 28.581698 
L 79.877975 28.457089 
L 79.968942 28.363632 
L 80.077515 28.114413 
L 80.218366 28.020955 
L 80.32107 27.927498 
L 80.482463 27.834041 
L 80.561692 27.709432 
L 80.658527 27.615974 
L 80.728953 27.491365 
L 80.896214 27.397908 
L 80.925558 27.242146 
L 81.057606 27.148689 
L 81.148573 27.024079 
L 81.304097 26.930622 
L 81.400932 26.743708 
L 81.491899 26.65025 
L 81.600472 26.432184 
L 81.738389 26.338727 
L 81.841093 26.058355 
L 81.990748 25.964898 
L 82.07878 25.777984 
L 82.219631 25.684526 
L 82.292992 25.46646 
L 82.457318 25.373003 
L 82.52481 25.279545 
L 82.69794 25.186088 
L 82.783037 25.030326 
L 83.138101 24.936869 
L 83.229067 24.718802 
L 83.349378 24.625345 
L 83.411 24.500736 
L 83.557721 24.407279 
L 83.557721 24.376126 
L 83.845292 24.282669 
L 83.953866 24.095755 
L 84.03016 24.002298 
L 84.044832 23.877688 
L 84.215028 23.784231 
L 84.267847 23.690774 
L 84.467387 23.597317 
L 84.54955 23.503859 
L 84.687467 23.410402 
L 84.784303 23.25464 
L 85.136431 23.161183 
L 85.224463 23.005421 
L 85.532576 22.911964 
L 85.632346 22.787354 
L 85.714509 22.693897 
L 85.814279 22.569288 
L 85.963934 22.475831 
L 86.066638 22.351221 
L 86.210424 22.257764 
L 86.260309 22.164307 
L 86.486258 22.07085 
L 86.588962 21.94624 
L 86.829584 21.852783 
L 86.897075 21.728173 
L 87.026189 21.634716 
L 87.125959 21.510107 
L 87.190516 21.416649 
L 87.213991 21.323192 
L 87.745118 21.229735 
L 87.850757 21.011668 
L 88.100182 20.918211 
L 88.202886 20.700145 
L 88.493392 20.606687 
L 88.519802 20.544383 
L 88.707604 20.450925 
L 88.79857 20.357468 
L 89.235797 20.264011 
L 89.303288 19.98364 
L 89.435337 19.890182 
L 89.49109 19.827878 
L 89.640745 19.734421 
L 89.640745 19.703268 
L 89.948858 19.609811 
L 89.995808 19.547506 
L 90.462379 19.454049 
L 90.462379 19.422897 
L 91.078604 19.32944 
L 91.078604 19.298287 
L 91.404323 19.20483 
L 91.501159 19.049068 
L 91.747649 18.955611 
L 91.747649 18.924458 
L 92.120318 18.831001 
L 92.225957 18.706392 
L 92.636774 18.612935 
L 92.716003 18.457173 
L 93.211917 18.394868 
L 93.211917 18.332563 
L 93.502424 18.239106 
L 93.502424 18.207954 
L 93.83988 18.114496 
L 93.875093 18.052192 
L 94.221353 17.958735 
L 94.315254 17.865277 
L 94.661514 17.77182 
L 94.661514 17.740668 
L 95.045921 17.647211 
L 95.142757 17.553753 
L 95.527164 17.460296 
L 95.527164 17.429144 
L 96.630501 17.335687 
L 96.70973 17.273382 
L 97.079465 17.179925 
L 97.079465 17.148772 
L 97.587117 17.055315 
L 97.592986 16.993011 
L 98.537865 16.899553 
L 98.537865 16.868401 
L 99.341892 16.774944 
L 99.441662 16.681487 
L 100.29264 16.588029 
L 100.29264 16.556877 
L 101.416517 16.46342 
L 101.416517 16.432268 
L 101.944711 16.33881 
L 101.944711 16.307658 
L 103.494077 16.214201 
L 103.494077 16.183048 
L 104.524054 16.089591 
L 104.524054 16.058439 
L 105.958978 15.964982 
L 105.958978 15.933829 
L 106.252419 15.840372 
L 106.325779 15.746915 
L 107.925031 15.653458 
L 108.00426 15.591153 
L 108.332913 15.497696 
L 108.37106 15.435391 
L 109.315939 15.341934 
L 109.315939 15.310782 
L 112.35305 15.217324 
L 112.35305 15.186172 
L 114.360184 15.092715 
L 114.360184 15.061563 
L 119.700803 14.968105 
L 119.700803 14.936953 
L 270.191831 14.874648 
L 270.191831 14.874648 
" clip-path="url(#p03384eab71)" style="fill: none; stroke: #d44c3c; stroke-width: 2; stroke-linecap: square"/>
   </g>
   <g id="patch_3">
    <path d="M 45.83 246.04 
L 45.83 12.585882 
" style="fill: none; stroke: #000000; stroke-width: 0.8; stroke-linejoin: miter; stroke-linecap: square"/>
   </g>
   <g id="patch_4">
    <path d="M 45.83 246.04 
L 272.413235 246.04 
" style="fill: none; stroke: #000000; stroke-width: 0.8; stroke-linejoin: miter; stroke-linecap: square"/>
   </g>
   <g id="legend_1">
    <g id="line2d_17">
     <path d="M 97.833548 188.497812 
L 107.833548 188.497812 
L 117.833548 188.497812 
" style="fill: none; stroke: #44757a; stroke-width: 2; stroke-linecap: square"/>
    </g>
    <g id="text_15">
     <text style="font: 10px 'Arial'; text-anchor: start" x="125.833548" y="191.997812" transform="rotate(-0 125.833548 191.997812)">SRAMP AUROC=0.853</text>
    </g>
    <g id="line2d_18">
     <path d="M 97.833548 202.77125 
L 107.833548 202.77125 
L 117.833548 202.77125 
" style="fill: none; stroke: #a5a58d; stroke-width: 2; stroke-linecap: square"/>
    </g>
    <g id="text_16">
     <text style="font: 10px 'Arial'; text-anchor: start" x="125.833548" y="206.27125" transform="rotate(-0 125.833548 206.27125)">Genome Only AUROC=0.918</text>
    </g>
    <g id="line2d_19">
     <path d="M 97.833548 217.161875 
L 107.833548 217.161875 
L 117.833548 217.161875 
" style="fill: none; stroke: #cb997e; stroke-width: 2; stroke-linecap: square"/>
    </g>
    <g id="text_17">
     <text style="font: 10px 'Arial'; text-anchor: start" x="125.833548" y="220.661875" transform="rotate(-0 125.833548 220.661875)">Sequence Only AUROC=0.917</text>
    </g>
    <g id="line2d_20">
     <path d="M 97.833548 231.5525 
L 107.833548 231.5525 
L 117.833548 231.5525 
" style="fill: none; stroke: #d44c3c; stroke-width: 2; stroke-linecap: square"/>
    </g>
    <g id="text_18">
     <text style="font: 10px 'Arial'; text-anchor: start" x="125.833548" y="235.0525" transform="rotate(-0 125.833548 235.0525)">deepSRAMP AUROC=0.957</text>
    </g>
   </g>
  </g>
 </g>
 <defs>
  <clipPath id="p03384eab71">
   <rect x="45.83" y="12.585882" width="226.583235" height="233.454118"/>
  </clipPath>
 </defs>
</svg>
