<?xml version="1.0" encoding="utf-8" standalone="no"?>
<!DOCTYPE svg PUBLIC "-//W3C//DTD SVG 1.1//EN"
  "http://www.w3.org/Graphics/SVG/1.1/DTD/svg11.dtd">
<svg xmlns:xlink="http://www.w3.org/1999/xlink" width="288pt" height="288pt" viewBox="0 0 288 288" xmlns="http://www.w3.org/2000/svg" version="1.1">
 <metadata>
  <rdf:RDF xmlns:dc="http://purl.org/dc/elements/1.1/" xmlns:cc="http://creativecommons.org/ns#" xmlns:rdf="http://www.w3.org/1999/02/22-rdf-syntax-ns#">
   <cc:Work>
    <dc:type rdf:resource="http://purl.org/dc/dcmitype/StillImage"/>
    <dc:date>2024-09-17T12:04:13.435401</dc:date>
    <dc:format>image/svg+xml</dc:format>
    <dc:creator>
     <cc:Agent>
      <dc:title>Matplotlib v3.9.2, https://matplotlib.org/</dc:title>
     </cc:Agent>
    </dc:creator>
   </cc:Work>
  </rdf:RDF>
 </metadata>
 <defs>
  <style type="text/css">*{stroke-linejoin: round; stroke-linecap: butt}</style>
 </defs>
 <g id="figure_1">
  <g id="patch_1">
   <path d="M 0 288 
L 288 288 
L 288 0 
L 0 0 
L 0 288 
z
" style="fill: none"/>
  </g>
  <g id="axes_1">
   <g id="patch_2">
    <path d="M 45.83 246.04 
L 272.413235 246.04 
L 272.413235 12.585882 
L 45.83 12.585882 
L 45.83 246.04 
z
" style="fill: none"/>
   </g>
   <g id="matplotlib.axis_1">
    <g id="xtick_1">
     <g id="line2d_1">
      <defs>
       <path id="m84728f7f32" d="M 0 0 
L 0 3.5 
" style="stroke: #000000; stroke-width: 0.8"/>
      </defs>
      <g>
       <use xlink:href="#m84728f7f32" x="48.051404" y="246.04" style="stroke: #000000; stroke-width: 0.8"/>
      </g>
     </g>
     <g id="text_1">
      <text style="font: 10px 'Arial'; text-anchor: middle" x="48.051404" y="260.197812" transform="rotate(-0 48.051404 260.197812)">0.0</text>
     </g>
    </g>
    <g id="xtick_2">
     <g id="line2d_2">
      <g>
       <use xlink:href="#m84728f7f32" x="92.47949" y="246.04" style="stroke: #000000; stroke-width: 0.8"/>
      </g>
     </g>
     <g id="text_2">
      <text style="font: 10px 'Arial'; text-anchor: middle" x="92.47949" y="260.197812" transform="rotate(-0 92.47949 260.197812)">0.2</text>
     </g>
    </g>
    <g id="xtick_3">
     <g id="line2d_3">
      <g>
       <use xlink:href="#m84728f7f32" x="136.907575" y="246.04" style="stroke: #000000; stroke-width: 0.8"/>
      </g>
     </g>
     <g id="text_3">
      <text style="font: 10px 'Arial'; text-anchor: middle" x="136.907575" y="260.197812" transform="rotate(-0 136.907575 260.197812)">0.4</text>
     </g>
    </g>
    <g id="xtick_4">
     <g id="line2d_4">
      <g>
       <use xlink:href="#m84728f7f32" x="181.33566" y="246.04" style="stroke: #000000; stroke-width: 0.8"/>
      </g>
     </g>
     <g id="text_4">
      <text style="font: 10px 'Arial'; text-anchor: middle" x="181.33566" y="260.197812" transform="rotate(-0 181.33566 260.197812)">0.6</text>
     </g>
    </g>
    <g id="xtick_5">
     <g id="line2d_5">
      <g>
       <use xlink:href="#m84728f7f32" x="225.763746" y="246.04" style="stroke: #000000; stroke-width: 0.8"/>
      </g>
     </g>
     <g id="text_5">
      <text style="font: 10px 'Arial'; text-anchor: middle" x="225.763746" y="260.197812" transform="rotate(-0 225.763746 260.197812)">0.8</text>
     </g>
    </g>
    <g id="xtick_6">
     <g id="line2d_6">
      <g>
       <use xlink:href="#m84728f7f32" x="270.191831" y="246.04" style="stroke: #000000; stroke-width: 0.8"/>
      </g>
     </g>
     <g id="text_6">
      <text style="font: 10px 'Arial'; text-anchor: middle" x="270.191831" y="260.197812" transform="rotate(-0 270.191831 260.197812)">1.0</text>
     </g>
    </g>
    <g id="text_7">
     <text style="font: 10px 'Arial'; text-anchor: middle" x="159.121618" y="273.343125" transform="rotate(-0 159.121618 273.343125)">False Postive Rate</text>
    </g>
   </g>
   <g id="matplotlib.axis_2">
    <g id="ytick_1">
     <g id="line2d_7">
      <defs>
       <path id="m2a79b894ec" d="M 0 0 
L -3.5 0 
" style="stroke: #000000; stroke-width: 0.8"/>
      </defs>
      <g>
       <use xlink:href="#m2a79b894ec" x="45.83" y="243.751234" style="stroke: #000000; stroke-width: 0.8"/>
      </g>
     </g>
     <g id="text_8">
      <text style="font: 10px 'Arial'; text-anchor: end" x="38.83" y="247.33014" transform="rotate(-0 38.83 247.33014)">0.0</text>
     </g>
    </g>
    <g id="ytick_2">
     <g id="line2d_8">
      <g>
       <use xlink:href="#m2a79b894ec" x="45.83" y="197.975917" style="stroke: #000000; stroke-width: 0.8"/>
      </g>
     </g>
     <g id="text_9">
      <text style="font: 10px 'Arial'; text-anchor: end" x="38.83" y="201.554823" transform="rotate(-0 38.83 201.554823)">0.2</text>
     </g>
    </g>
    <g id="ytick_3">
     <g id="line2d_9">
      <g>
       <use xlink:href="#m2a79b894ec" x="45.83" y="152.2006" style="stroke: #000000; stroke-width: 0.8"/>
      </g>
     </g>
     <g id="text_10">
      <text style="font: 10px 'Arial'; text-anchor: end" x="38.83" y="155.779506" transform="rotate(-0 38.83 155.779506)">0.4</text>
     </g>
    </g>
    <g id="ytick_4">
     <g id="line2d_10">
      <g>
       <use xlink:href="#m2a79b894ec" x="45.83" y="106.425283" style="stroke: #000000; stroke-width: 0.8"/>
      </g>
     </g>
     <g id="text_11">
      <text style="font: 10px 'Arial'; text-anchor: end" x="38.83" y="110.004189" transform="rotate(-0 38.83 110.004189)">0.6</text>
     </g>
    </g>
    <g id="ytick_5">
     <g id="line2d_11">
      <g>
       <use xlink:href="#m2a79b894ec" x="45.83" y="60.649965" style="stroke: #000000; stroke-width: 0.8"/>
      </g>
     </g>
     <g id="text_12">
      <text style="font: 10px 'Arial'; text-anchor: end" x="38.83" y="64.228872" transform="rotate(-0 38.83 64.228872)">0.8</text>
     </g>
    </g>
    <g id="ytick_6">
     <g id="line2d_12">
      <g>
       <use xlink:href="#m2a79b894ec" x="45.83" y="14.874648" style="stroke: #000000; stroke-width: 0.8"/>
      </g>
     </g>
     <g id="text_13">
      <text style="font: 10px 'Arial'; text-anchor: end" x="38.83" y="18.453554" transform="rotate(-0 38.83 18.453554)">1.0</text>
     </g>
    </g>
    <g id="text_14">
     <text style="font: 10px 'Arial'; text-anchor: middle" x="18.9425" y="129.312941" transform="rotate(-90 18.9425 129.312941)">True Postive Rate</text>
    </g>
   </g>
   <g id="line2d_13">
    <path d="M 48.051404 243.751234 
L 48.055507 242.563477 
L 48.160132 238.682056 
L 48.982768 229.137578 
L 49.109958 228.543699 
L 52.180996 207.439797 
L 53.902172 198.467988 
L 54.486838 196.007633 
L 55.420253 191.617174 
L 55.799773 189.962797 
L 56.169036 188.244791 
L 60.657633 170.173913 
L 61.779783 166.610641 
L 62.602419 163.132209 
L 63.831244 159.823456 
L 64.735938 157.151002 
L 65.049812 156.408654 
L 66.018102 153.269581 
L 66.992546 150.448658 
L 67.7003 148.624602 
L 68.685001 145.888518 
L 70.584654 141.498058 
L 73.17565 135.304752 
L 74.660908 131.88995 
L 75.440463 130.490093 
L 75.879476 129.387176 
L 76.318488 128.920557 
L 77.155485 127.351021 
L 78.076591 125.420915 
L 78.486883 124.869456 
L 81.539457 118.90946 
L 81.998985 118.188322 
L 82.858547 116.321846 
L 83.338589 115.176509 
L 83.837094 114.37053 
L 84.333547 113.797862 
L 87.144049 109.004413 
L 88.079516 107.540926 
L 88.584175 106.947047 
L 89.064217 106.035019 
L 89.999683 104.804842 
L 97.5347 94.390756 
L 98.074235 93.860507 
L 99.662066 91.569833 
L 100.737031 90.085136 
L 102.854139 87.476312 
L 104.519926 85.440157 
L 105.598994 84.252399 
L 107.262729 82.258664 
L 107.843293 81.770835 
L 110.723545 78.101513 
L 114.334116 74.262512 
L 116.159917 72.565716 
L 116.744583 71.738528 
L 119.177616 69.511483 
L 119.764334 68.769135 
L 120.950079 67.751057 
L 122.246602 66.860239 
L 128.257384 61.96074 
L 129.638017 60.348784 
L 131.591008 58.694408 
L 132.329534 58.291419 
L 134.419973 56.615833 
L 136.541184 55.428075 
L 137.27971 54.876617 
L 140.289204 53.158611 
L 141.893446 52.246583 
L 145.791223 50.083168 
L 147.356488 49.10751 
L 150.747553 47.241034 
L 151.545571 46.731995 
L 152.466677 46.307796 
L 153.311879 45.713918 
L 154.16939 45.395768 
L 155.822868 44.441321 
L 156.707048 43.995912 
L 158.417966 43.317193 
L 161.889039 41.768867 
L 164.484137 40.22054 
L 168.939911 37.866236 
L 169.873326 37.484456 
L 170.769814 36.975418 
L 172.64485 36.254279 
L 173.588522 35.78766 
L 174.548606 35.172572 
L 180.231154 32.945527 
L 181.164568 32.754637 
L 184.108415 31.842609 
L 185.121837 31.6093 
L 186.959946 30.973001 
L 192.786096 29.148946 
L 193.754386 28.979266 
L 196.70849 27.791509 
L 197.637802 27.621829 
L 200.643193 26.561331 
L 209.874768 23.867668 
L 210.810235 23.697988 
L 214.470041 22.595071 
L 218.911455 21.343683 
L 226.727522 19.922617 
L 228.309199 19.477208 
L 231.44178 19.031799 
L 237.272033 18.056141 
L 241.278537 17.398632 
L 241.854997 17.250163 
L 242.46223 17.228953 
L 245.459415 16.635074 
L 248.249402 16.232085 
L 251.972804 15.829096 
L 252.428228 15.744256 
L 254.834592 15.553367 
L 255.607993 15.468527 
L 262.642454 15.129168 
L 264.320549 15.023118 
L 265.446801 14.938278 
L 270.191831 14.874648 
L 270.191831 14.874648 
" clip-path="url(#pf60b6fe7fb)" style="fill: none; stroke: #44757a; stroke-width: 2; stroke-linecap: square"/>
   </g>
   <g id="line2d_14">
    <path d="M 48.051404 243.751234 
L 48.162136 219.759533 
L 48.164187 219.759533 
L 48.274919 216.787109 
L 48.283121 216.744646 
L 48.391802 213.496212 
L 48.408207 213.390054 
L 48.518939 212.179854 
L 48.547647 212.094927 
L 48.658379 210.7998 
L 48.687087 210.714874 
L 48.791667 209.716989 
L 48.806021 209.674525 
L 48.912652 208.591714 
L 48.933158 208.506788 
L 49.037738 207.551366 
L 49.050042 207.445208 
L 49.158723 206.511018 
L 49.189482 206.40486 
L 49.294062 205.385743 
L 49.306365 205.322049 
L 49.412996 204.111848 
L 49.42735 204.00569 
L 49.538082 202.731794 
L 49.556537 202.689331 
L 49.667269 201.755141 
L 49.677522 201.670214 
L 49.788254 200.205234 
L 49.806709 200.099076 
L 49.915391 199.207349 
L 49.931795 199.122423 
L 50.038426 198.167001 
L 50.075337 198.060843 
L 50.186069 197.08419 
L 50.204524 197.041727 
L 50.313205 196.02261 
L 50.323458 195.937684 
L 50.43419 194.812409 
L 50.456746 194.706251 
L 50.565428 193.920682 
L 50.57363 193.814524 
L 50.682311 192.774176 
L 50.702817 192.668018 
L 50.813549 191.839986 
L 50.832004 191.776291 
L 50.934534 191.033186 
L 50.952989 190.948259 
L 51.063721 189.738058 
L 51.082176 189.695595 
L 51.192908 188.676479 
L 51.194959 188.676479 
L 51.30159 187.529973 
L 51.334399 187.423815 
L 51.438979 186.574551 
L 51.47794 186.468393 
L 51.588672 185.36435 
L 51.613279 185.258192 
L 51.71991 184.345233 
L 51.750669 184.239075 
L 51.855249 183.559664 
L 51.873704 183.453506 
L 51.978284 182.752864 
L 51.988537 182.710401 
L 52.093117 181.967295 
L 52.132079 181.861137 
L 52.24281 180.629704 
L 52.257165 180.544778 
L 52.365846 179.589356 
L 52.382251 179.525662 
L 52.492982 178.506545 
L 52.527842 178.421619 
L 52.638574 177.805902 
L 52.65703 177.699744 
L 52.767762 176.850481 
L 52.778014 176.829249 
L 52.884645 175.64028 
L 52.913353 175.555353 
L 53.019984 174.663626 
L 53.038439 174.557469 
L 53.147121 173.878057 
L 53.17993 173.7719 
L 53.288611 173.028794 
L 53.335775 172.943867 
L 53.436254 172.030909 
L 53.464962 171.924751 
L 53.575694 171.309035 
L 53.594149 171.24534 
L 53.698729 170.438539 
L 53.713084 170.332381 
L 53.817664 169.695433 
L 53.852524 169.589275 
L 53.963256 169.058486 
L 53.985812 168.952328 
L 54.088342 168.357843 
L 54.125252 168.272917 
L 54.227782 167.720895 
L 54.268793 167.635969 
L 54.373374 166.999021 
L 54.422588 166.892863 
L 54.527168 166.404536 
L 54.551775 166.298378 
L 54.662507 165.703894 
L 54.680962 165.597736 
L 54.791694 165.088177 
L 54.8122 164.98202 
L 54.920881 164.557388 
L 54.949589 164.45123 
L 55.060321 163.432113 
L 55.070574 163.325955 
L 55.171053 162.604081 
L 55.203863 162.497923 
L 55.312544 161.754817 
L 55.343303 161.648659 
L 55.454035 161.075406 
L 55.462237 160.99048 
L 55.570918 160.226142 
L 55.624234 160.119984 
L 55.71446 159.759047 
L 55.753421 159.652889 
L 55.864153 159.100868 
L 55.884658 158.99471 
L 55.99334 157.996825 
L 56.009744 157.911899 
L 56.118426 157.508498 
L 56.140982 157.423572 
L 56.249664 156.701698 
L 56.266068 156.616771 
L 56.358345 156.043518 
L 56.421913 155.93736 
L 56.532645 155.491497 
L 56.559303 155.385339 
L 56.665933 154.875781 
L 56.7254 154.769623 
L 56.832031 154.302528 
L 56.901751 154.19637 
L 57.010432 153.66558 
L 57.055545 153.559422 
L 57.160126 152.858779 
L 57.207289 152.752621 
L 57.309819 152.158137 
L 57.352881 152.051979 
L 57.463613 151.478726 
L 57.498473 151.393799 
L 57.603053 150.714388 
L 57.639964 150.60823 
L 57.748645 149.950051 
L 57.783505 149.843893 
L 57.886034 149.419261 
L 57.961906 149.313103 
L 58.060335 148.930934 
L 58.103397 148.846008 
L 58.207977 148.378913 
L 58.226432 148.272755 
L 58.333063 147.720733 
L 58.349468 147.699502 
L 58.4602 147.168712 
L 58.511464 147.062554 
L 58.618095 146.446838 
L 58.638601 146.34068 
L 58.747282 145.788658 
L 58.780092 145.6825 
L 58.890824 145.109247 
L 58.915431 145.003089 
L 59.024112 144.472299 
L 59.048719 144.387373 
L 59.1574 143.835352 
L 59.19021 143.771657 
L 59.300942 143.134709 
L 59.389117 143.049783 
L 59.491646 142.625151 
L 59.532658 142.561456 
L 59.64339 141.924508 
L 59.672098 141.860813 
L 59.78283 141.245097 
L 59.801286 141.138939 
L 59.907916 140.565686 
L 59.969434 140.459528 
L 60.080166 139.801349 
L 60.106824 139.716422 
L 60.215505 138.973317 
L 60.279073 138.867159 
L 60.369299 138.421295 
L 60.445171 138.315137 
L 60.553852 137.614495 
L 60.598965 137.508337 
L 60.695343 137.168631 
L 60.717899 137.062473 
L 60.816328 136.574146 
L 60.840935 136.531683 
L 60.941414 136.043357 
L 60.974223 135.937199 
L 61.078803 135.215324 
L 61.107512 135.109166 
L 61.218243 134.769461 
L 61.251053 134.663303 
L 61.359734 134.217439 
L 61.410999 134.153745 
L 61.51968 133.68665 
L 61.591451 133.601723 
L 61.702183 132.773691 
L 61.737043 132.667533 
L 61.847775 132.370291 
L 61.878533 132.264133 
L 61.979012 131.839501 
L 62.00567 131.754575 
L 62.114351 131.245016 
L 62.171768 131.138858 
L 62.280449 130.6293 
L 62.323511 130.523142 
L 62.430142 130.183437 
L 62.465002 130.09851 
L 62.569582 129.716341 
L 62.606493 129.610183 
L 62.717225 129.079394 
L 62.739781 128.973236 
L 62.850513 128.569835 
L 62.883323 128.463677 
L 62.971498 128.208898 
L 63.026864 128.10274 
L 63.137596 127.614414 
L 63.178608 127.508256 
L 63.289339 127.211013 
L 63.338554 127.104855 
L 63.447235 126.76515 
L 63.46364 126.658992 
L 63.57027 126.319286 
L 63.611282 126.213128 
L 63.719963 125.682339 
L 63.77738 125.576181 
L 63.927073 125.151549 
L 63.945528 125.087854 
L 64.052159 124.429675 
L 64.095221 124.323517 
L 64.203903 123.750263 
L 64.226459 123.644106 
L 64.331039 123.283168 
L 64.376152 123.17701 
L 64.47458 122.794842 
L 64.523795 122.688684 
L 64.634526 122.285283 
L 64.693994 122.179126 
L 64.794473 121.860652 
L 64.833434 121.775725 
L 64.944166 121.011388 
L 64.99338 120.90523 
L 65.102061 120.416903 
L 65.223046 120.310745 
L 65.331727 119.84365 
L 65.403498 119.737492 
L 65.510128 119.376555 
L 65.542938 119.270397 
L 65.639316 118.888228 
L 65.706985 118.803302 
L 65.815666 118.421133 
L 65.844375 118.314975 
L 65.944854 117.826649 
L 65.994068 117.741722 
L 66.098648 117.44448 
L 66.137609 117.338322 
L 66.24424 116.956153 
L 66.277049 116.892459 
L 66.381629 116.552753 
L 66.432894 116.446595 
L 66.535424 116.000732 
L 66.621548 115.894574 
L 66.728179 115.385015 
L 66.773292 115.278857 
L 66.865569 114.939152 
L 66.902479 114.832994 
L 67.005009 114.365899 
L 67.031666 114.280972 
L 67.138297 113.898804 
L 67.169056 113.792646 
L 67.275687 113.368014 
L 67.314648 113.261856 
L 67.42538 113.007077 
L 67.439734 112.900919 
L 67.540213 112.497519 
L 67.575073 112.391361 
L 67.683754 112.094118 
L 67.749373 112.009192 
L 67.853953 111.58456 
L 67.929825 111.478402 
L 68.040557 111.244854 
L 68.071316 111.159928 
L 68.179997 110.862686 
L 68.210756 110.756528 
L 68.319437 110.268201 
L 68.366601 110.162043 
L 68.465029 109.694948 
L 68.579862 109.58879 
L 68.684442 109.291548 
L 68.704948 109.18539 
L 68.813629 108.760758 
L 68.858742 108.6546 
L 68.969474 108.336126 
L 69.030992 108.229968 
L 69.141724 107.72041 
L 69.174533 107.614252 
L 69.285265 107.31701 
L 69.313973 107.210852 
L 69.410351 106.956072 
L 69.471869 106.849914 
L 69.5826 106.573904 
L 69.640017 106.467746 
L 69.748698 106.106809 
L 69.78971 106.000651 
L 69.89224 105.682177 
L 69.933251 105.576019 
L 70.037831 105.172619 
L 70.10345 105.066461 
L 70.210081 104.854145 
L 70.249042 104.769218 
L 70.353622 104.429513 
L 70.388482 104.323355 
L 70.497164 103.983649 
L 70.532024 103.877491 
L 70.640705 103.516554 
L 70.69197 103.431628 
L 70.792449 103.028228 
L 70.870371 102.92207 
L 70.97085 102.412511 
L 71.032368 102.306353 
L 71.134897 102.072806 
L 71.171808 101.966648 
L 71.257933 101.626942 
L 71.323551 101.520784 
L 71.42198 101.3297 
L 71.45684 101.223542 
L 71.567572 100.841373 
L 71.598331 100.756447 
L 71.709062 100.459205 
L 71.762378 100.374278 
L 71.87311 100.140731 
L 71.893615 100.055804 
L 71.985892 99.801025 
L 72.04741 99.694867 
L 72.137636 99.355162 
L 72.203255 99.249004 
L 72.313986 98.972993 
L 72.344745 98.866835 
L 72.449325 98.463435 
L 72.521096 98.357277 
L 72.590816 98.081266 
L 72.615423 98.081266 
L 72.70975 97.975108 
L 72.785622 97.762792 
L 72.820482 97.762792 
L 72.886101 97.656634 
L 72.990681 97.316929 
L 73.027592 97.232002 
L 73.138324 96.871065 
L 73.150627 96.764907 
L 73.261359 96.552591 
L 73.310573 96.467665 
L 73.417204 96.255349 
L 73.495126 96.149191 
L 73.601757 95.894412 
L 73.659174 95.788254 
L 73.767855 95.512243 
L 73.812968 95.406085 
L 73.911396 95.151306 
L 73.96061 95.045148 
L 74.046735 94.620516 
L 74.116455 94.514358 
L 74.227187 94.217116 
L 74.270249 94.110958 
L 74.380981 93.813716 
L 74.413791 93.707558 
L 74.520421 93.452779 
L 74.569636 93.346621 
L 74.659862 93.07061 
L 74.733683 92.964452 
L 74.838263 92.815831 
L 74.879275 92.752136 
L 74.987956 92.327504 
L 75.026917 92.221346 
L 75.133548 91.987798 
L 75.178661 91.881641 
L 75.289393 91.541935 
L 75.320152 91.435777 
L 75.430883 91.096072 
L 75.490351 91.011145 
L 75.584678 90.735134 
L 75.699511 90.628976 
L 75.748725 90.480355 
L 75.830749 90.374197 
L 75.935329 90.034492 
L 76.050162 89.928334 
L 76.158843 89.631092 
L 76.220361 89.524934 
L 76.324941 89.163996 
L 76.370054 89.07907 
L 76.480786 88.696901 
L 76.534101 88.590743 
L 76.63663 88.357196 
L 76.714553 88.27227 
L 76.823234 87.932564 
L 76.886802 87.826406 
L 76.997534 87.401774 
L 77.063153 87.295616 
L 77.163632 86.913447 
L 77.229251 86.80729 
L 77.335882 86.594974 
L 77.458917 86.488816 
L 77.569649 86.2765 
L 77.596307 86.170342 
L 77.704988 85.788173 
L 77.752151 85.682015 
L 77.821872 85.469699 
L 77.92235 85.363541 
L 78.028981 85.151225 
L 78.102802 85.045067 
L 78.207382 84.726593 
L 78.242242 84.641667 
L 78.342721 84.195803 
L 78.400138 84.089645 
L 78.502667 83.834866 
L 78.605197 83.728708 
L 78.709777 83.473929 
L 78.777446 83.367771 
L 78.855369 83.155455 
L 78.925089 83.049297 
L 79.035821 82.794518 
L 79.111693 82.68836 
L 79.216273 82.369886 
L 79.331106 82.263728 
L 79.441838 82.008949 
L 79.542317 81.902791 
L 79.650998 81.520623 
L 79.710465 81.414465 
L 79.821197 81.159685 
L 79.90117 81.053527 
L 80.011902 80.883675 
L 80.057015 80.777517 
L 80.161595 80.607664 
L 80.21491 80.543969 
L 80.307187 80.246727 
L 80.339996 80.140569 
L 80.444576 79.88579 
L 80.508145 79.779632 
L 80.604522 79.524853 
L 80.698849 79.418695 
L 80.809581 79.142684 
L 80.830087 79.036526 
L 80.922364 78.866673 
L 80.998236 78.760515 
L 81.094613 78.505736 
L 81.143827 78.42081 
L 81.248408 78.208494 
L 81.363241 78.102336 
L 81.46577 77.677704 
L 81.517035 77.571546 
L 81.617514 77.210609 
L 81.681082 77.104451 
L 81.787713 76.807209 
L 81.81437 76.701051 
L 81.925102 76.340114 
L 81.959962 76.233956 
L 82.064542 76.085334 
L 82.12606 75.979176 
L 82.22859 75.76686 
L 82.314714 75.660703 
L 82.423396 75.427155 
L 82.433649 75.342229 
L 82.540279 75.023755 
L 82.616151 74.917597 
L 82.702276 74.726512 
L 82.771996 74.620354 
L 82.872475 74.408038 
L 82.999612 74.30188 
L 83.052927 74.195723 
L 83.145203 74.089565 
L 83.243632 73.771091 
L 83.325655 73.664933 
L 83.434337 73.36769 
L 83.504057 73.261532 
L 83.608637 73.049216 
L 83.672205 72.943058 
L 83.782937 72.730743 
L 83.856758 72.624585 
L 83.963389 72.369805 
L 84.022856 72.263647 
L 84.131537 71.945174 
L 84.219713 71.839016 
L 84.311989 71.6267 
L 84.400165 71.520542 
L 84.508846 71.286994 
L 84.578566 71.180836 
L 84.658539 71.032215 
L 84.754917 70.926057 
L 84.851294 70.798667 
L 84.949723 70.692509 
L 85.04405 70.501425 
L 85.11377 70.395267 
L 85.228603 70.204183 
L 85.302424 70.098025 
L 85.413156 69.864477 
L 85.499281 69.758319 
L 85.589507 69.50354 
L 85.702289 69.397382 
L 85.802768 69.291224 
L 85.890944 69.185066 
L 85.966815 69.036445 
L 86.110357 68.930287 
L 86.180077 68.760434 
L 86.292859 68.654276 
L 86.378984 68.548118 
L 86.514323 68.463192 
L 86.623004 68.250876 
L 86.661965 68.144718 
L 86.760394 67.974865 
L 86.772697 67.974865 
L 86.826013 67.868707 
L 86.932643 67.50777 
L 87.022869 67.401612 
L 87.1295 67.125602 
L 87.207422 67.019444 
L 87.318154 66.849591 
L 87.361217 66.743433 
L 87.467847 66.361264 
L 87.515011 66.255106 
L 87.625743 65.979096 
L 87.750829 65.872938 
L 87.849257 65.703085 
L 87.947685 65.596927 
L 88.052266 65.469537 
L 88.105581 65.363379 
L 88.177352 65.214758 
L 88.261426 65.1086 
L 88.361905 64.938747 
L 88.448029 64.832589 
L 88.55261 64.7052 
L 88.605925 64.599042 
L 88.702303 64.259336 
L 88.759719 64.17441 
L 88.858147 63.792241 
L 88.927868 63.686083 
L 89.028346 63.388841 
L 89.132927 63.282683 
L 89.223153 63.11283 
L 89.296974 63.027904 
L 89.405655 62.773125 
L 89.471274 62.666967 
L 89.582006 62.497114 
L 89.639422 62.390956 
L 89.729648 62.093714 
L 89.823975 61.987556 
L 89.916252 61.77524 
L 90.01263 61.690314 
L 90.111058 61.541692 
L 90.260751 61.435534 
L 90.367382 61.265682 
L 90.441203 61.159524 
L 90.521176 60.883513 
L 90.527328 60.883513 
L 90.631908 60.777355 
L 90.740589 60.501344 
L 90.804157 60.395186 
L 90.890282 60.18287 
L 90.996913 60.076712 
L 91.105594 59.885628 
L 91.175314 59.77947 
L 91.267591 59.609617 
L 91.363969 59.524691 
L 91.468549 59.24868 
L 91.540319 59.142522 
L 91.64695 58.972669 
L 91.862262 58.866511 
L 91.940184 58.760354 
L 92.057068 58.654196 
L 92.1678 58.505574 
L 92.23752 58.399416 
L 92.333898 58.272027 
L 92.405668 58.1871 
L 92.506147 58.059711 
L 92.600474 57.953553 
L 92.698903 57.741237 
L 92.789129 57.635079 
L 92.869102 57.507689 
L 92.959328 57.401531 
L 93.031098 57.167984 
L 93.045452 57.167984 
L 93.172589 57.061826 
L 93.277169 56.84951 
L 93.416609 56.743352 
L 93.525291 56.552268 
L 93.617567 56.44611 
L 93.722147 56.276257 
L 93.779564 56.170099 
L 93.888245 55.894088 
L 93.966167 55.78793 
L 94.070748 55.533151 
L 94.208137 55.426993 
L 94.300414 55.278372 
L 94.394741 55.172214 
L 94.503422 54.768814 
L 94.589547 54.662656 
L 94.700279 54.492803 
L 94.794606 54.386645 
L 94.903287 54.068171 
L 94.954552 53.962013 
L 95.061183 53.834624 
L 95.141156 53.728466 
L 95.251887 53.494918 
L 95.321608 53.38876 
L 95.428238 53.197676 
L 95.590235 53.091518 
L 95.694815 52.836739 
L 95.787091 52.730581 
L 95.897823 52.645654 
L 95.994201 52.539496 
L 96.09468 52.32718 
L 96.162349 52.221022 
L 96.264879 52.136096 
L 96.348953 52.029938 
L 96.457634 51.881317 
L 96.529405 51.775159 
L 96.621682 51.584075 
L 96.750869 51.477917 
L 96.85955 51.329296 
L 96.949776 51.244369 
L 97.03385 51.095748 
L 97.165088 50.98959 
L 97.271719 50.883432 
L 97.353742 50.777274 
L 97.456272 50.628653 
L 97.548548 50.522495 
L 97.653128 50.331411 
L 97.708494 50.246484 
L 97.708494 50.225253 
L 97.837682 49.864316 
L 97.9033 49.758158 
L 97.954565 49.694463 
L 98.065297 49.588305 
L 98.171928 49.354757 
L 98.233445 49.248599 
L 98.340076 49.099978 
L 98.401594 48.99382 
L 98.508225 48.802736 
L 98.555388 48.717809 
L 98.637412 48.611651 
L 98.73584 48.505493 
L 98.84042 48.271946 
L 98.885533 48.18702 
L 98.983961 47.953472 
L 99.041378 47.847314 
L 99.111098 47.65623 
L 99.121351 47.65623 
L 99.227982 47.550072 
L 99.320258 47.337756 
L 99.420737 47.231598 
L 99.525317 47.104208 
L 99.609391 46.99805 
L 99.687314 46.806966 
L 99.77959 46.700808 
L 99.896474 46.573418 
L 99.957992 46.488492 
L 100.060521 46.361102 
L 100.167152 46.254945 
L 100.257378 46.148787 
L 100.423476 46.042629 
L 100.530106 45.830313 
L 100.610079 45.724155 
L 100.71466 45.53307 
L 100.81924 45.426912 
L 100.876656 45.278291 
L 101.003793 45.172133 
L 101.091968 44.981049 
L 101.190396 44.874891 
L 101.282673 44.768733 
L 101.299078 44.768733 
L 101.368798 44.683807 
L 101.456973 44.471491 
L 101.47953 44.471491 
L 101.616919 44.365333 
L 101.717398 44.216711 
L 101.72355 44.216711 
L 101.809675 44.110553 
L 101.918356 43.919469 
L 101.981924 43.813311 
L 102.055745 43.707153 
L 102.166477 43.600995 
L 102.269007 43.431142 
L 102.45356 43.324984 
L 102.562241 43.240058 
L 102.73039 43.1339 
L 102.83497 43.027742 
L 102.90469 42.942816 
L 103.005169 42.815426 
L 103.117951 42.709268 
L 103.226632 42.539416 
L 103.318909 42.433258 
L 103.42759 42.242173 
L 103.505513 42.136015 
L 103.612143 41.838773 
L 103.718774 41.753847 
L 103.792595 41.541531 
L 103.907428 41.435373 
L 104.012008 41.307983 
L 104.112487 41.201825 
L 104.210916 40.947046 
L 104.319597 40.840888 
L 104.424177 40.671035 
L 104.520555 40.564877 
L 104.631287 40.416256 
L 104.799435 40.310098 
L 104.910167 40.119014 
L 105.018848 40.012856 
L 105.125479 39.80054 
L 105.172642 39.694382 
L 105.281324 39.482066 
L 105.379752 39.375908 
L 105.469978 39.14236 
L 105.556103 39.036202 
L 105.660683 38.908813 
L 105.744757 38.802655 
L 105.855489 38.611571 
L 105.939563 38.505413 
L 106.021587 38.399255 
L 106.126167 38.293097 
L 106.228696 38.165707 
L 106.263556 38.059549 
L 106.343529 37.93216 
L 106.357883 37.93216 
L 106.507577 37.826002 
L 106.616258 37.634917 
L 106.663421 37.528759 
L 106.772103 37.443833 
L 106.850025 37.337675 
L 106.93615 37.231517 
L 107.020224 37.125359 
L 107.128905 36.891811 
L 107.206828 36.785653 
L 107.301155 36.637032 
L 107.420089 36.530874 
L 107.518517 36.318558 
L 107.600541 36.2124 
L 107.709222 36.106242 
L 107.938888 36.000084 
L 108.039367 35.957621 
L 108.172656 35.851463 
L 108.260831 35.660379 
L 108.469991 35.554221 
L 108.578673 35.4056 
L 108.720163 35.320673 
L 108.77963 35.256979 
L 108.933425 35.150821 
L 109.033904 35.0022 
L 109.12413 34.896042 
L 109.234861 34.768652 
L 109.40301 34.662494 
L 109.505539 34.556336 
L 109.620372 34.450178 
L 109.722902 34.322789 
L 109.882848 34.216631 
L 109.977175 33.961851 
L 110.075603 33.855693 
L 110.178133 33.707072 
L 110.282713 33.600914 
L 110.393445 33.40983 
L 110.498025 33.303672 
L 110.606706 33.133819 
L 110.676426 33.048893 
L 110.766652 32.921503 
L 110.940952 32.815345 
L 111.006571 32.687956 
L 111.195226 32.581798 
L 111.299806 32.454408 
L 111.441296 32.34825 
L 111.543826 32.199629 
L 111.607394 32.093471 
L 111.677114 31.923618 
L 111.908831 31.81746 
L 112.017512 31.626376 
L 112.103637 31.520218 
L 112.210268 31.350365 
L 112.384568 31.244207 
L 112.433782 31.180513 
L 112.616285 31.095586 
L 112.720865 30.968197 
L 112.796736 30.862039 
L 112.886962 30.798344 
L 112.923873 30.692186 
L 113.020251 30.522333 
L 113.133033 30.416175 
L 113.239664 30.246322 
L 113.422166 30.140164 
L 113.532898 29.991543 
L 113.623124 29.906617 
L 113.690794 29.736764 
L 113.828183 29.630606 
L 113.938915 29.439522 
L 114.010686 29.333364 
L 114.072203 29.248438 
L 114.213694 29.14228 
L 114.316224 28.972427 
L 114.480271 28.866269 
L 114.586902 28.653953 
L 114.634065 28.547795 
L 114.668925 28.441637 
L 114.882187 28.335479 
L 114.984716 28.123163 
L 115.159016 28.017005 
L 115.261546 27.762226 
L 115.431745 27.656068 
L 115.507617 27.507447 
L 115.636804 27.401289 
L 115.747536 27.252668 
L 115.800851 27.14651 
L 115.860318 26.976657 
L 116.055124 26.891731 
L 116.159704 26.594488 
L 116.202767 26.48833 
L 116.305296 26.382172 
L 116.366814 26.276014 
L 116.473445 26.191088 
L 116.545215 26.08493 
L 116.627239 25.915077 
L 116.813842 25.808919 
L 116.877411 25.702761 
L 117.0148 25.596603 
L 117.098874 25.490445 
L 117.301883 25.384287 
L 117.392109 25.171971 
L 117.515144 25.065813 
L 117.609471 24.938424 
L 117.835036 24.832266 
L 117.945768 24.768571 
L 118.003185 24.662413 
L 118.103664 24.450097 
L 118.165181 24.343939 
L 118.26361 24.237781 
L 118.388696 24.152855 
L 118.466618 24.025465 
L 118.579401 23.919307 
L 118.673728 23.749455 
L 118.9239 23.643297 
L 119.034632 23.473444 
L 119.196628 23.367286 
L 119.305309 23.133738 
L 119.422193 23.02758 
L 119.524723 22.921422 
L 119.600594 22.815264 
L 119.705175 22.666643 
L 119.912284 22.560485 
L 120.008662 22.369401 
L 120.135798 22.263243 
L 120.228075 22.050927 
L 120.467994 21.966001 
L 120.564372 21.81738 
L 120.650497 21.711222 
L 120.744824 21.647527 
L 121.025755 21.541369 
L 121.134436 21.435211 
L 121.230814 21.329053 
L 121.339495 21.180432 
L 121.528149 21.074274 
L 121.616325 20.989347 
L 121.792675 20.904421 
L 121.8788 20.840726 
L 122.081808 20.734568 
L 122.149478 20.649642 
L 122.29507 20.564715 
L 122.370942 20.458557 
L 122.576001 20.3524 
L 122.674429 20.203778 
L 122.973815 20.09762 
L 123.057889 20.012694 
L 123.16452 19.906536 
L 123.205532 19.800378 
L 123.37368 19.69422 
L 123.47621 19.651757 
L 123.750989 19.545599 
L 123.85762 19.481904 
L 124.134449 19.375746 
L 124.234928 19.248357 
L 124.419481 19.142199 
L 124.509707 19.057272 
L 124.614287 18.951114 
L 124.690159 18.88742 
L 124.835751 18.781262 
L 124.928028 18.717567 
L 125.256122 18.611409 
L 125.336095 18.547714 
L 125.584216 18.441556 
L 125.604722 18.377861 
L 126.070206 18.271703 
L 126.070206 18.250472 
L 126.449565 18.144314 
L 126.527488 18.016924 
L 126.804317 17.910766 
L 126.857633 17.847071 
L 127.345673 17.740913 
L 127.425646 17.677219 
L 127.852169 17.571061 
L 127.938294 17.464903 
L 128.20282 17.358745 
L 128.20282 17.337513 
L 128.537066 17.231355 
L 128.563724 17.188892 
L 128.955387 17.103966 
L 129.053815 16.955344 
L 129.818685 16.849186 
L 129.833039 16.785492 
L 130.306725 16.679334 
L 130.306725 16.658102 
L 130.7394 16.551944 
L 130.7394 16.530713 
L 131.088 16.424555 
L 131.196682 16.339628 
L 131.537079 16.23347 
L 131.547332 16.191007 
L 132.05998 16.084849 
L 132.158408 16.042386 
L 132.956088 15.936228 
L 132.956088 15.914996 
L 133.532304 15.808838 
L 133.567164 15.766375 
L 134.313578 15.660217 
L 134.42431 15.617754 
L 135.150219 15.511596 
L 135.228142 15.447901 
L 136.450293 15.341743 
L 136.450293 15.320512 
L 137.301288 15.235585 
L 137.301288 15.193122 
L 139.339575 15.086964 
L 139.339575 15.065733 
L 142.899399 14.959575 
L 142.946563 14.917111 
L 270.191831 14.874648 
L 270.191831 14.874648 
" clip-path="url(#pf60b6fe7fb)" style="fill: none; stroke: #a5a58d; stroke-width: 2; stroke-linecap: square"/>
   </g>
   <g id="line2d_15">
    <path d="M 48.051404 243.751234 
L 48.162136 241.203443 
L 48.172389 241.097285 
L 48.283121 239.717231 
L 48.293374 239.611073 
L 48.404106 238.082398 
L 48.414359 238.018704 
L 48.52304 236.574955 
L 48.535344 236.468797 
L 48.646075 235.279828 
L 48.652227 235.216133 
L 48.762959 233.623764 
L 48.771161 233.560069 
L 48.879843 232.456026 
L 48.885994 232.413563 
L 48.994676 230.948583 
L 49.019283 230.842425 
L 49.130015 229.653456 
L 49.134116 229.632224 
L 49.244848 228.464486 
L 49.261252 228.358328 
L 49.369934 226.957043 
L 49.384288 226.893348 
L 49.49502 225.683147 
L 49.509374 225.576989 
L 49.620106 224.855115 
L 49.652915 224.748957 
L 49.763647 223.942157 
L 49.769799 223.899694 
L 49.872328 222.901809 
L 49.892834 222.816882 
L 49.997414 221.712839 
L 50.028173 221.627913 
L 50.136854 220.354017 
L 50.149158 220.247859 
L 50.257839 218.846574 
L 50.270143 218.761648 
L 50.372672 217.976079 
L 50.401381 217.869921 
L 50.510062 217.148047 
L 50.536719 217.06312 
L 50.647451 216.086467 
L 50.670008 215.980309 
L 50.776639 215.19474 
L 50.811499 215.088582 
L 50.92223 213.899613 
L 50.944787 213.835918 
L 51.047316 213.19897 
L 51.073974 213.092812 
L 51.184706 212.498327 
L 51.207262 212.392169 
L 51.317994 211.6066 
L 51.33645 211.500442 
L 51.447181 210.842263 
L 51.457434 210.736105 
L 51.566116 210.056694 
L 51.578419 209.992999 
L 51.689151 209.419746 
L 51.728112 209.313588 
L 51.834743 208.761567 
L 51.863451 208.655409 
L 51.968031 207.912303 
L 51.990588 207.806145 
L 52.099269 207.020576 
L 52.119775 206.93565 
L 52.230507 206.426091 
L 52.24281 206.319933 
L 52.341239 205.47067 
L 52.371998 205.364512 
L 52.480679 204.600174 
L 52.503235 204.494016 
L 52.611917 203.708447 
L 52.640625 203.602289 
L 52.751357 202.710562 
L 52.76161 202.604404 
L 52.86824 201.924993 
L 52.898999 201.818836 
L 53.001529 201.224351 
L 53.054844 201.118193 
L 53.163525 200.311392 
L 53.175829 200.226466 
L 53.270156 199.61075 
L 53.327573 199.525823 
L 53.436254 198.506707 
L 53.45881 198.400549 
L 53.569542 197.742369 
L 53.5962 197.721138 
L 53.704881 196.638327 
L 53.723337 196.532169 
L 53.834068 195.789063 
L 53.858675 195.682905 
L 53.967357 194.812409 
L 54.008369 194.706251 
L 54.112949 193.941914 
L 54.164213 193.835756 
L 54.274945 193.304966 
L 54.301603 193.22004 
L 54.406183 192.774176 
L 54.424638 192.668018 
L 54.529218 192.115997 
L 54.576382 192.009839 
L 54.680962 191.394123 
L 54.695316 191.35166 
L 54.801947 190.544859 
L 54.842959 190.438701 
L 54.95164 189.695595 
L 54.961893 189.610669 
L 55.050068 189.143574 
L 55.099282 189.037416 
L 55.207964 188.549089 
L 55.253077 188.442931 
L 55.363809 187.721057 
L 55.392517 187.614899 
L 55.495046 187.041646 
L 55.54221 186.935488 
L 55.650891 186.404698 
L 55.675498 186.29854 
L 55.78418 185.555434 
L 55.794433 185.49174 
L 55.896962 184.876023 
L 55.940024 184.769865 
L 56.048706 184.345233 
L 56.075363 184.260307 
L 56.184045 183.580896 
L 56.204551 183.49597 
L 56.315282 183.156264 
L 56.352193 183.050106 
L 56.462925 182.56178 
L 56.51419 182.476853 
L 56.612618 182.073453 
L 56.637225 181.988526 
L 56.747957 181.415273 
L 56.770513 181.309115 
L 56.873043 180.820789 
L 56.905852 180.714631 
L 57.012483 179.971525 
L 57.047343 179.865367 
L 57.153974 179.185956 
L 57.178581 179.079798 
L 57.283161 178.44285 
L 57.31597 178.357924 
L 57.426702 177.763439 
L 57.471815 177.657281 
L 57.582547 177.147723 
L 57.5928 177.041565 
L 57.703532 176.489544 
L 57.736341 176.383386 
L 57.842972 175.895059 
L 57.881933 175.788901 
L 57.961906 175.51289 
L 58.013171 175.406732 
L 58.123903 174.748553 
L 58.150561 174.70609 
L 58.257191 174.154068 
L 58.310507 174.04791 
L 58.415087 173.347268 
L 58.466351 173.24111 
L 58.572982 172.816478 
L 58.60169 172.752783 
L 58.70627 172.264456 
L 58.763687 172.17953 
L 58.864166 171.839824 
L 58.905178 171.754898 
L 59.011808 171.309035 
L 59.048719 171.202877 
L 59.159451 170.565929 
L 59.175856 170.459771 
L 59.278385 169.928981 
L 59.307093 169.822823 
L 59.413724 169.292033 
L 59.446534 169.228338 
L 59.551114 168.655085 
L 59.579822 168.548927 
L 59.682351 167.975674 
L 59.727464 167.869516 
L 59.836146 167.38119 
L 59.875107 167.275032 
L 59.985839 166.786705 
L 60.022749 166.680547 
L 60.123228 166.149757 
L 60.184746 166.064831 
L 60.295478 165.555273 
L 60.305731 165.449115 
L 60.412361 165.194335 
L 60.439019 165.088177 
L 60.539498 164.706009 
L 60.58051 164.599851 
L 60.691242 163.941671 
L 60.758911 163.835513 
L 60.869643 163.432113 
L 60.910655 163.347187 
L 61.011134 163.071176 
L 61.039842 162.965018 
L 61.142372 162.582849 
L 61.183383 162.476691 
L 61.283862 162.179449 
L 61.339228 162.073291 
L 61.429454 161.754817 
L 61.462264 161.648659 
L 61.572995 161.245259 
L 61.599653 161.139101 
L 61.710385 160.820627 
L 61.739093 160.714469 
L 61.823167 160.268606 
L 61.911343 160.162448 
L 62.020024 159.652889 
L 62.073339 159.567963 
L 62.184071 159.100868 
L 62.237387 158.99471 
L 62.339916 158.633773 
L 62.348119 158.633773 
L 62.378877 158.548846 
L 62.487559 158.166678 
L 62.569582 158.06052 
L 62.680314 157.614656 
L 62.688516 157.508498 
L 62.793097 157.020172 
L 62.827957 156.914014 
L 62.936638 156.361992 
L 62.955093 156.277066 
L 63.065825 155.873666 
L 63.086331 155.788739 
L 63.174506 155.470265 
L 63.231923 155.385339 
L 63.342655 155.00317 
L 63.373414 154.897012 
L 63.484145 154.493612 
L 63.523107 154.387454 
L 63.633839 153.835433 
L 63.656395 153.729275 
L 63.767127 153.368337 
L 63.775329 153.283411 
L 63.88196 153.0074 
L 63.927073 152.901242 
L 64.035754 152.497842 
L 64.119828 152.391684 
L 64.226459 151.903357 
L 64.279774 151.797199 
L 64.388456 151.372568 
L 64.435619 151.26641 
L 64.50739 150.820546 
L 64.564806 150.714388 
L 64.673488 150.162367 
L 64.696044 150.098672 
L 64.773967 149.716503 
L 64.827282 149.610345 
L 64.935963 149.27064 
L 64.970823 149.185713 
L 65.081555 148.803545 
L 65.110263 148.697387 
L 65.208692 148.357681 
L 65.303019 148.251523 
L 65.4117 147.741965 
L 65.460914 147.635807 
L 65.569596 147.338565 
L 65.631113 147.232407 
L 65.741845 146.807775 
L 65.805413 146.701617 
L 65.912044 146.107132 
L 65.93255 146.000974 
L 66.010472 145.640037 
L 66.094547 145.533879 
L 66.195026 145.194174 
L 66.231936 145.130479 
L 66.338567 144.642152 
L 66.400085 144.535994 
L 66.510816 144.068899 
L 66.541575 143.983973 
L 66.646155 143.729194 
L 66.687167 143.623036 
L 66.789697 142.901161 
L 66.795848 142.901161 
L 66.83686 142.795004 
L 66.947592 142.518993 
L 67.017312 142.412835 
L 67.128044 141.903277 
L 67.167005 141.797119 
L 67.273636 141.606034 
L 67.277737 141.606034 
L 67.302344 141.499876 
L 67.404874 141.160171 
L 67.474594 141.054013 
L 67.583275 140.650613 
L 67.614034 140.544455 
L 67.724766 140.162286 
L 67.751423 140.056128 
L 67.853953 139.695191 
L 67.882661 139.589033 
L 67.993393 139.143169 
L 68.046708 139.037011 
L 68.145137 138.633611 
L 68.204604 138.527453 
L 68.313285 137.848042 
L 68.374803 137.741884 
L 68.485535 137.317252 
L 68.581912 137.211094 
L 68.688543 136.871389 
L 68.725454 136.765231 
L 68.832084 136.149515 
L 68.854641 136.08582 
L 68.963322 135.788577 
L 69.041245 135.682419 
L 69.145825 135.215324 
L 69.190938 135.109166 
L 69.283214 134.811924 
L 69.359086 134.705766 
L 69.467767 134.366061 
L 69.519032 134.281134 
L 69.611309 133.856502 
L 69.662573 133.792808 
L 69.769204 133.474334 
L 69.826621 133.368176 
L 69.937353 133.070933 
L 69.994769 132.964775 
L 70.10345 132.62507 
L 70.123956 132.540144 
L 70.232638 132.030585 
L 70.271599 131.924427 
L 70.374128 131.542259 
L 70.402836 131.436101 
L 70.505366 131.0327 
L 70.577137 130.926542 
L 70.65711 130.608068 
L 70.737083 130.50191 
L 70.845764 130.013584 
L 70.888826 129.907426 
L 70.997508 129.419099 
L 71.030317 129.312941 
L 71.126695 128.994467 
L 71.198465 128.888309 
L 71.309197 128.315056 
L 71.374816 128.208898 
L 71.471194 127.57195 
L 71.514256 127.465792 
L 71.624988 126.913771 
L 71.672152 126.807613 
L 71.776732 126.382981 
L 71.813642 126.276823 
L 71.912071 125.894655 
L 71.953083 125.788497 
L 72.059713 125.385096 
L 72.127383 125.278938 
L 72.238115 124.981696 
L 72.293481 124.875538 
L 72.402162 124.620759 
L 72.46573 124.514601 
L 72.57031 124.281053 
L 72.607221 124.174895 
L 72.70975 123.856421 
L 72.74256 123.750263 
L 72.84919 123.410558 
L 72.871747 123.3044 
L 72.982479 122.964694 
L 73.013238 122.879768 
L 73.119868 122.624989 
L 73.185487 122.518831 
L 73.294169 122.221589 
L 73.353636 122.115431 
L 73.456165 121.860652 
L 73.517683 121.754494 
L 73.616111 121.499714 
L 73.673528 121.393557 
L 73.782209 120.862767 
L 73.808867 120.77784 
L 73.907295 120.523061 
L 73.974964 120.416903 
L 74.081595 120.119661 
L 74.13286 120.013503 
L 74.239491 119.716261 
L 74.303059 119.610103 
L 74.407639 119.270397 
L 74.48146 119.185471 
L 74.590141 118.866997 
L 74.666013 118.78207 
L 74.770593 118.463597 
L 74.79315 118.357439 
L 74.889528 117.996501 
L 74.948995 117.890343 
L 75.053575 117.550638 
L 75.110991 117.44448 
L 75.21147 117.104774 
L 75.270937 116.998617 
L 75.330405 116.871227 
L 75.414479 116.765069 
L 75.52316 116.531521 
L 75.568273 116.425363 
L 75.674904 115.873342 
L 75.73232 115.767184 
L 75.832799 115.469942 
L 75.875861 115.385015 
L 75.980442 115.151468 
L 76.023504 115.04531 
L 76.134236 114.705604 
L 76.158843 114.599446 
L 76.261372 114.302204 
L 76.339295 114.196046 
L 76.450027 113.813877 
L 76.519747 113.707719 
L 76.628428 113.45294 
L 76.675592 113.346782 
L 76.786323 112.985845 
L 76.84374 112.879687 
L 76.944219 112.370129 
L 77.030344 112.263971 
L 77.136974 111.98796 
L 77.19029 111.881802 
L 77.29487 111.775644 
L 77.350236 111.690718 
L 77.454816 111.45717 
L 77.520435 111.351012 
L 77.622964 111.032539 
L 77.659875 110.926381 
L 77.735747 110.65037 
L 77.811619 110.544212 
L 77.912097 110.289433 
L 77.983868 110.183275 
L 78.0946 109.864801 
L 78.127409 109.758643 
L 78.23404 109.525095 
L 78.289406 109.440169 
L 78.393986 109.079232 
L 78.424745 108.973074 
L 78.527275 108.739526 
L 78.58059 108.633368 
L 78.691322 108.357358 
L 78.781548 108.2512 
L 78.879976 108.017652 
L 78.935342 107.953957 
L 79.044023 107.571789 
L 79.105541 107.465631 
L 79.199868 107.274546 
L 79.247032 107.18962 
L 79.351612 106.849914 
L 79.398775 106.743756 
L 79.503355 106.404051 
L 79.579227 106.297893 
L 79.65715 106.106809 
L 79.739173 106.000651 
L 79.835551 105.745872 
L 79.923726 105.639714 
L 80.028306 105.300008 
L 80.069318 105.19385 
L 80.151342 105.002766 
L 80.233365 104.896608 
L 80.325642 104.705523 
L 80.38921 104.620597 
L 80.497892 104.25966 
L 80.705001 104.153502 
L 80.793177 103.898723 
L 80.846492 103.792565 
L 80.949021 103.665175 
L 81.028994 103.559017 
L 81.123322 103.134385 
L 81.190991 103.028228 
L 81.299672 102.582364 
L 81.36119 102.476206 
L 81.471922 102.285122 
L 81.514984 102.178964 
L 81.609311 102.030343 
L 81.67493 101.924185 
L 81.767207 101.669405 
L 81.820522 101.563248 
L 81.929203 101.393395 
L 82.076846 101.287237 
L 82.181426 101.011226 
L 82.277804 100.905068 
L 82.388536 100.713984 
L 82.452104 100.607826 
L 82.556684 100.416741 
L 82.603848 100.310583 
L 82.71458 100.013341 
L 82.743288 99.907183 
L 82.849918 99.631172 
L 82.899133 99.525014 
L 83.009864 99.164077 
L 83.048826 99.079151 
L 83.153406 98.739445 
L 83.227227 98.633287 
L 83.329757 98.251119 
L 83.442539 98.144961 
L 83.55122 97.911413 
L 83.553271 97.911413 
L 83.588131 97.805255 
L 83.69066 97.614171 
L 83.821898 97.508013 
L 83.930579 97.168307 
L 83.963389 97.104613 
L 84.07002 96.871065 
L 84.07207 96.871065 
L 84.147942 96.764907 
L 84.254573 96.40397 
L 84.311989 96.297812 
L 84.416569 96.149191 
L 84.437075 96.043033 
L 84.514998 95.851949 
L 84.588819 95.745791 
L 84.699551 95.448548 
L 84.826687 95.34239 
L 84.912812 95.023916 
L 85.101466 94.917759 
L 85.193743 94.747906 
L 85.32088 94.641748 
L 85.429561 94.386969 
L 85.484927 94.280811 
L 85.593608 93.962337 
L 85.655126 93.856179 
L 85.757655 93.558936 
L 85.798667 93.452779 
L 85.907348 93.197999 
L 85.94631 93.091841 
L 86.05089 92.688441 
L 86.165723 92.582283 
L 86.264151 92.327504 
L 86.352326 92.221346 
L 86.454856 92.00903 
L 86.549183 91.902872 
L 86.659915 91.60563 
L 86.758343 91.499472 
L 86.867024 91.244693 
L 86.930593 91.138535 
L 87.037223 90.94745 
L 87.098741 90.841292 
L 87.203321 90.54405 
L 87.26689 90.437892 
L 87.33661 90.246808 
L 87.422734 90.161881 
L 87.533466 89.992029 
L 87.572427 89.907102 
L 87.668805 89.631092 
L 87.777486 89.524934 
L 87.871814 89.227691 
L 87.96409 89.121533 
L 88.06867 88.887986 
L 88.152744 88.803059 
L 88.224515 88.67567 
L 88.273729 88.633207 
L 88.370107 88.335964 
L 88.489041 88.229806 
L 88.593621 87.953796 
L 88.628481 87.868869 
L 88.72896 87.571627 
L 88.845844 87.465469 
L 88.954525 87.21069 
L 89.034498 87.104532 
L 89.14523 86.913447 
L 89.294923 86.80729 
L 89.378997 86.6799 
L 89.471274 86.573742 
L 89.571753 86.297731 
L 89.577905 86.297731 
L 89.66608 86.191573 
L 89.774761 86.021721 
L 89.826026 85.936794 
L 89.918303 85.682015 
L 90.006478 85.575857 
L 90.106957 85.384773 
L 90.160272 85.278615 
L 90.260751 85.002604 
L 90.324319 84.917678 
L 90.435051 84.620435 
L 90.504771 84.514277 
L 90.60525 84.365656 
L 90.703679 84.28073 
L 90.798006 84.047182 
L 90.896434 83.941024 
L 91.005115 83.792403 
L 91.171213 83.686245 
L 91.26349 83.452698 
L 91.355766 83.34654 
L 91.466498 83.21915 
L 91.585432 83.112992 
L 91.683861 82.879445 
L 91.769985 82.773287 
L 91.872515 82.518507 
L 91.989399 82.412349 
L 92.10013 82.242497 
L 92.186255 82.136339 
L 92.274431 81.88156 
L 92.413871 81.775402 
L 92.510248 81.541854 
L 92.604576 81.435696 
L 92.696852 81.180917 
L 92.770673 81.074759 
L 92.879355 80.904906 
L 92.990087 80.798748 
L 93.100818 80.522738 
L 93.203348 80.41658 
L 93.307928 80.140569 
L 93.367395 80.034411 
L 93.478127 79.843327 
L 93.564252 79.737169 
L 93.670882 79.567316 
L 93.736501 79.461158 
L 93.839031 79.312537 
L 93.94156 79.206379 
L 94.04614 79.036526 
L 94.081 78.930368 
L 94.191732 78.654357 
L 94.25325 78.548199 
L 94.35783 78.42081 
L 94.417297 78.314652 
L 94.517776 78.017409 
L 94.583395 77.953715 
L 94.687975 77.826325 
L 94.757695 77.720167 
L 94.84382 77.571546 
L 94.938147 77.48662 
L 95.046828 77.295535 
L 95.137054 77.189377 
L 95.231382 77.019525 
L 95.405682 76.913367 
L 95.514363 76.764745 
L 95.657904 76.658587 
L 95.768636 76.467503 
L 95.967543 76.361345 
L 96.057769 76.191492 
L 96.182855 76.085334 
L 96.285385 76.000408 
L 96.404319 75.915482 
L 96.469938 75.660703 
L 96.644238 75.554545 
L 96.750869 75.299765 
L 96.890309 75.193607 
L 96.976434 75.023755 
L 97.13843 74.917597 
L 97.234808 74.620354 
L 97.374248 74.514196 
L 97.474727 74.344344 
L 97.597763 74.238186 
L 97.65928 74.110796 
L 97.780265 74.004638 
L 97.890997 73.749859 
L 97.966869 73.643701 
L 98.044791 73.473848 
L 98.169877 73.36769 
L 98.280609 73.282764 
L 98.340076 73.176606 
L 98.446707 72.96429 
L 98.49182 72.858132 
L 98.598451 72.730743 
L 98.772751 72.624585 
L 98.881432 72.391037 
L 98.971658 72.284879 
L 99.08239 72.0301 
L 99.1193 71.923942 
L 99.215678 71.754089 
L 99.367422 71.647931 
L 99.472002 71.435615 
L 99.547874 71.329457 
L 99.633999 71.202068 
L 99.748832 71.09591 
L 99.855462 70.96852 
L 99.923132 70.862362 
L 100.027712 70.756204 
L 100.122039 70.650046 
L 100.220467 70.501425 
L 100.331199 70.395267 
L 100.433729 70.225414 
L 100.560865 70.140488 
L 100.638788 69.928172 
L 100.757722 69.822014 
L 100.85615 69.63093 
L 100.96073 69.524772 
L 101.06531 69.461077 
L 101.139132 69.376151 
L 101.229358 69.206298 
L 101.315482 69.10014 
L 101.418012 68.97275 
L 101.532845 68.866592 
L 101.612818 68.760434 
L 101.817877 68.654276 
L 101.928609 68.526887 
L 101.983975 68.420729 
L 102.084454 68.250876 
L 102.156224 68.144718 
L 102.258754 67.889939 
L 102.324373 67.783781 
L 102.408447 67.613928 
L 102.517128 67.50777 
L 102.611455 67.422844 
L 102.62786 67.422844 
L 102.754997 67.316686 
L 102.855476 67.23176 
L 102.966207 67.125602 
L 103.060535 66.97698 
L 103.261492 66.870823 
L 103.337364 66.743433 
L 103.443995 66.637275 
L 103.540373 66.531117 
L 103.718774 66.424959 
L 103.825405 66.318801 
L 103.987401 66.233875 
L 104.065324 66.127717 
L 104.198612 66.04279 
L 104.26013 65.872938 
L 104.397519 65.76678 
L 104.489796 65.660622 
L 104.631287 65.554464 
L 104.719462 65.342148 
L 104.739968 65.342148 
L 104.821991 65.23599 
L 104.926572 65.066137 
L 104.949128 64.959979 
L 105.049607 64.811358 
L 105.186997 64.7052 
L 105.258767 64.57781 
L 105.392056 64.471652 
L 105.492534 64.259336 
L 105.646329 64.153178 
L 105.740656 64.025789 
L 105.849337 63.919631 
L 105.937513 63.813473 
L 106.013384 63.707315 
L 106.111813 63.64362 
L 106.325074 63.537462 
L 106.376339 63.473767 
L 106.564993 63.367609 
L 106.653168 63.218988 
L 106.712636 63.11283 
L 106.79876 63.027904 
L 107.048932 62.921746 
L 107.104298 62.751893 
L 107.210929 62.666967 
L 107.309357 62.497114 
L 107.481607 62.390956 
L 107.516467 62.30603 
L 107.750234 62.199872 
L 107.854814 62.051251 
L 107.959394 61.945093 
L 108.057823 61.796471 
L 108.225971 61.690314 
L 108.32645 61.605387 
L 108.336703 61.605387 
L 108.451536 61.499229 
L 108.552015 61.350608 
L 108.793985 61.24445 
L 108.898565 61.074597 
L 109.009297 60.968439 
L 109.117978 60.819818 
L 109.255367 60.71366 
L 109.33534 60.543807 
L 109.464528 60.437649 
L 109.565006 60.31026 
L 109.790571 60.204102 
L 109.866443 60.119176 
L 110.081755 60.013018 
L 110.178133 59.90686 
L 110.292966 59.800702 
L 110.37704 59.673312 
L 110.539037 59.567154 
L 110.608757 59.397301 
L 110.756399 59.291143 
L 110.856878 59.142522 
L 111.03733 59.036364 
L 111.117303 58.930206 
L 111.223934 58.824048 
L 111.334666 58.696659 
L 111.461802 58.590501 
L 111.554079 58.463111 
L 111.677114 58.356953 
L 111.787846 58.229564 
L 111.900629 58.123406 
L 112.00931 57.953553 
L 112.103637 57.847395 
L 112.146699 57.720005 
L 112.284089 57.613847 
L 112.368163 57.507689 
L 112.485047 57.401531 
L 112.595779 57.189216 
L 112.724966 57.083058 
L 112.833647 56.913205 
L 113.009998 56.807047 
L 113.118679 56.743352 
L 113.276575 56.637194 
L 113.360649 56.488573 
L 113.565708 56.382415 
L 113.674389 56.255025 
L 113.81588 56.148867 
L 113.869195 56.085173 
L 114.020939 55.979015 
L 114.125519 55.78793 
L 114.275212 55.681772 
L 114.377741 55.448225 
L 114.531536 55.342067 
L 114.627913 55.193446 
L 114.837074 55.087288 
L 114.910895 55.002361 
L 115.058537 54.896203 
L 115.058537 54.874972 
L 115.357923 54.768814 
L 115.407138 54.641424 
L 115.515819 54.556498 
L 115.608095 54.365414 
L 115.827509 54.259256 
L 115.927988 54.153098 
L 116.07563 54.04694 
L 116.194564 53.898318 
L 116.381168 53.79216 
L 116.487799 53.686002 
L 116.606733 53.579845 
L 116.694908 53.431223 
L 116.877411 53.325065 
L 116.988143 53.218907 
L 117.078369 53.112749 
L 117.168595 52.964128 
L 117.316237 52.85797 
L 117.340844 52.794276 
L 117.57051 52.688118 
L 117.67304 52.58196 
L 117.738659 52.475802 
L 117.820682 52.433338 
L 118.017539 52.32718 
L 118.107765 52.178559 
L 118.115967 52.178559 
L 118.351785 52.072401 
L 118.456365 51.92378 
L 118.595805 51.817622 
L 118.677829 51.732696 
L 118.800864 51.626538 
L 118.862382 51.541611 
L 119.303259 51.435453 
L 119.405788 51.350527 
L 119.508318 51.244369 
L 119.604696 51.11698 
L 119.731832 51.032053 
L 119.813856 50.925895 
L 119.945094 50.819737 
L 120.043522 50.756042 
L 120.205519 50.649885 
L 120.31625 50.501263 
L 120.482348 50.395105 
L 120.578726 50.310179 
L 120.681255 50.225253 
L 120.769431 50.076631 
L 120.992945 49.970473 
L 121.101626 49.885547 
L 121.249269 49.779389 
L 121.3559 49.545842 
L 121.487137 49.439684 
L 121.587616 49.312294 
L 121.702449 49.206136 
L 121.749613 49.12121 
L 121.956722 49.015052 
L 122.061303 48.908894 
L 122.15768 48.802736 
L 122.26226 48.717809 
L 122.489876 48.611651 
L 122.534989 48.46303 
L 122.742098 48.356872 
L 122.832324 48.229483 
L 123.002523 48.123325 
L 123.068142 48.05963 
L 123.330618 47.953472 
L 123.379832 47.889777 
L 123.554132 47.783619 
L 123.662813 47.698693 
L 123.779697 47.592535 
L 123.890429 47.422682 
L 123.976554 47.316524 
L 124.072931 47.231598 
L 124.216473 47.12544 
L 124.284142 47.040513 
L 124.452291 46.934356 
L 124.556871 46.828198 
L 124.667603 46.72204 
L 124.751677 46.573418 
L 124.993646 46.46726 
L 125.104378 46.297408 
L 125.159744 46.19125 
L 125.198705 46.085092 
L 125.614975 45.978934 
L 125.723657 45.787849 
L 125.879501 45.681691 
L 125.967677 45.575533 
L 126.193242 45.469376 
L 126.271164 45.384449 
L 126.539791 45.278291 
L 126.630017 45.214596 
L 126.751002 45.108438 
L 126.828925 45.00228 
L 126.925302 44.896122 
L 127.005275 44.789964 
L 127.171373 44.683807 
L 127.2657 44.59888 
L 127.450253 44.492722 
L 127.519973 44.407796 
L 127.843967 44.301638 
L 127.92599 44.259175 
L 128.153606 44.153017 
L 128.262287 44.004396 
L 128.606786 43.898238 
L 128.69086 43.813311 
L 129.100978 43.707153 
L 129.154294 43.622227 
L 129.431123 43.516069 
L 129.527501 43.388679 
L 129.646435 43.282521 
L 129.646435 43.26129 
L 129.90686 43.155132 
L 130.007339 43.027742 
L 130.146779 42.921584 
L 130.25341 42.794195 
L 130.388749 42.688037 
L 130.472823 42.581879 
L 130.593808 42.475721 
L 130.593808 42.454489 
L 130.921902 42.348331 
L 131.003926 42.220942 
L 131.012128 42.220942 
L 131.229491 42.114784 
L 131.307413 42.051089 
L 131.444803 41.944931 
L 131.549383 41.838773 
L 131.74624 41.732615 
L 131.848769 41.66892 
L 132.098941 41.562762 
L 132.195319 41.435373 
L 132.322455 41.350446 
L 132.383973 41.244288 
L 132.673106 41.159362 
L 132.673106 41.116899 
L 133.007353 41.031972 
L 133.044263 40.947046 
L 133.403116 40.86212 
L 133.476938 40.755962 
L 133.913713 40.649804 
L 134.024445 40.564877 
L 134.131076 40.458719 
L 134.229504 40.352561 
L 134.455069 40.246403 
L 134.512486 40.140245 
L 134.56375 40.140245 
L 134.785214 40.034087 
L 134.887744 39.927929 
L 135.275305 39.843003 
L 135.375784 39.694382 
L 135.720283 39.588224 
L 135.828965 39.482066 
L 136.113997 39.375908 
L 136.171413 39.227287 
L 136.415433 39.121129 
L 136.520013 39.057434 
L 136.880917 38.951276 
L 136.989599 38.760192 
L 137.268479 38.654034 
L 137.379211 38.547876 
L 137.518651 38.462949 
L 137.596573 38.378023 
L 138.098968 38.271865 
L 138.098968 38.250633 
L 138.400405 38.144476 
L 138.416809 38.080781 
L 138.625969 37.974623 
L 138.73055 37.868465 
L 138.988924 37.762307 
L 138.988924 37.741075 
L 139.333423 37.634917 
L 139.382637 37.486296 
L 139.876829 37.380138 
L 139.965005 37.252749 
L 140.276695 37.146591 
L 140.33001 37.019201 
L 140.602738 36.913043 
L 140.672458 36.828117 
L 140.838556 36.721959 
L 140.895973 36.658264 
L 140.902125 36.658264 
L 141.074374 36.552106 
L 141.172802 36.361022 
L 141.355305 36.254864 
L 141.461936 36.169937 
L 141.54806 36.063779 
L 141.634185 35.957621 
L 142.029949 35.851463 
L 142.048404 35.809 
L 142.273969 35.702842 
L 142.366246 35.575453 
L 142.442118 35.469295 
L 142.546698 35.384368 
L 142.747656 35.27821 
L 142.776364 35.193284 
L 143.174178 35.087126 
L 143.266455 35.023431 
L 143.426401 34.917273 
L 143.537133 34.87481 
L 143.869328 34.768652 
L 143.926745 34.683726 
L 144.353268 34.577568 
L 144.412735 34.492641 
L 144.806448 34.386483 
L 144.884371 34.280325 
L 145.292438 34.174167 
L 145.292438 34.152936 
L 145.790731 34.046778 
L 145.89121 33.94062 
L 146.124978 33.834462 
L 146.170091 33.749535 
L 146.430515 33.643378 
L 146.526893 33.431062 
L 146.752458 33.324904 
L 146.852937 33.218746 
L 147.379939 33.112588 
L 147.48862 33.027661 
L 147.722387 32.921503 
L 147.829018 32.836577 
L 148.032026 32.730419 
L 148.128404 32.645493 
L 148.435993 32.539335 
L 148.538522 32.454408 
L 148.907628 32.34825 
L 149.01836 32.199629 
L 149.248026 32.093471 
L 149.303392 32.008545 
L 149.756573 31.902387 
L 149.8509 31.859924 
L 150.271271 31.753766 
L 150.382003 31.583913 
L 150.535797 31.477755 
L 150.636276 31.350365 
L 150.909004 31.244207 
L 150.909004 31.201744 
L 151.317072 31.095586 
L 151.335527 31.053123 
L 151.583648 30.946965 
L 151.671824 30.88327 
L 152.211129 30.777112 
L 152.31776 30.692186 
L 152.598691 30.60726 
L 152.697119 30.522333 
L 153.1544 30.416175 
L 153.258981 30.310017 
L 153.423028 30.203859 
L 153.529658 30.097701 
L 153.747021 29.991543 
L 153.857753 29.94908 
L 154.036154 29.842922 
L 154.068964 29.800459 
L 154.374502 29.694301 
L 154.479082 29.651838 
L 154.922009 29.54568 
L 154.938414 29.503217 
L 155.373139 29.397059 
L 155.471567 29.312132 
L 155.623311 29.205974 
L 155.633564 29.163511 
L 156.117503 29.078585 
L 156.224134 28.972427 
L 156.468154 28.866269 
L 156.525571 28.823806 
L 156.736781 28.717648 
L 156.785996 28.653953 
L 157.099736 28.547795 
L 157.204316 28.4841 
L 157.661597 28.377942 
L 157.661597 28.356711 
L 158.012248 28.250553 
L 158.106576 28.165626 
L 158.385456 28.059468 
L 158.451075 28.017005 
L 158.754562 27.910847 
L 158.861193 27.825921 
L 159.322575 27.719763 
L 159.4087 27.634836 
L 159.677328 27.528678 
L 159.767554 27.464984 
L 160.41554 27.358826 
L 160.487311 27.316362 
L 160.825658 27.210204 
L 160.825658 27.188973 
L 161.219371 27.082815 
L 161.241928 27.040352 
L 161.565921 26.934194 
L 161.600781 26.870499 
L 161.879661 26.764341 
L 161.902218 26.721878 
L 162.384107 26.61572 
L 162.418967 26.552025 
L 162.769617 26.445867 
L 162.810629 26.339709 
L 163.399149 26.233551 
L 163.464768 26.191088 
L 163.563196 26.106162 
L 163.649321 26.021235 
L 163.895391 25.915077 
L 163.950757 25.872614 
L 164.541327 25.766456 
L 164.58644 25.702761 
L 165.131897 25.596603 
L 165.197516 25.55414 
L 165.548167 25.447982 
L 165.640444 25.320593 
L 166.354049 25.214435 
L 166.388909 25.171971 
L 166.940518 25.065813 
L 167.002035 25.02335 
L 167.529037 24.917192 
L 167.631567 24.832266 
L 167.969914 24.726108 
L 168.021179 24.662413 
L 168.37183 24.556255 
L 168.455904 24.49256 
L 169.179762 24.386402 
L 169.179762 24.365171 
L 169.930278 24.259013 
L 169.993846 24.152855 
L 170.184551 24.08916 
L 170.256322 24.004234 
L 170.935067 23.898076 
L 170.98018 23.855613 
L 171.794265 23.749455 
L 171.886541 23.68576 
L 172.536578 23.579602 
L 172.536578 23.537139 
L 172.959 23.430981 
L 172.959 23.409749 
L 173.75873 23.303591 
L 173.822298 23.261128 
L 174.55846 23.15497 
L 174.607674 23.112507 
L 175.165435 23.006349 
L 175.243357 22.942654 
L 175.509934 22.836496 
L 175.620666 22.772801 
L 176.186629 22.666643 
L 176.186629 22.645412 
L 176.900234 22.539254 
L 176.902285 22.496791 
L 177.343161 22.390633 
L 177.359566 22.348169 
L 177.92758 22.242011 
L 178.03216 22.157085 
L 178.610426 22.050927 
L 178.690399 22.008464 
L 179.3876 21.902306 
L 179.3876 21.881074 
L 180.240645 21.774916 
L 180.337023 21.732453 
L 181.114197 21.626295 
L 181.183917 21.583832 
L 181.565326 21.477674 
L 181.565326 21.456442 
L 182.049266 21.350284 
L 182.084126 21.28659 
L 182.781326 21.180432 
L 182.859249 21.074274 
L 183.486729 20.968116 
L 183.486729 20.946884 
L 184.11421 20.840726 
L 184.208537 20.777031 
L 184.80936 20.670873 
L 184.817562 20.607179 
L 185.668557 20.501021 
L 185.777239 20.458557 
L 186.890709 20.3524 
L 186.890709 20.331168 
L 187.317232 20.22501 
L 187.339788 20.182547 
L 188.363033 20.076389 
L 188.363033 20.055157 
L 189.242736 19.948999 
L 189.335012 19.906536 
L 189.808699 19.800378 
L 189.896874 19.757915 
L 191.23796 19.651757 
L 191.322034 19.609294 
L 192.576995 19.503136 
L 192.576995 19.481904 
L 193.231134 19.375746 
L 193.231134 19.354515 
L 194.404071 19.248357 
L 194.494297 19.205893 
L 195.158688 19.142199 
L 195.179194 19.057272 
L 195.630324 18.951114 
L 195.644678 18.908651 
L 196.505926 18.802493 
L 196.505926 18.781262 
L 198.579073 18.675104 
L 198.579073 18.653872 
L 199.637177 18.547714 
L 199.637177 18.526482 
L 200.383592 18.420324 
L 200.467666 18.335398 
L 201.665211 18.22924 
L 201.689818 18.186777 
L 202.231174 18.080619 
L 202.294742 18.038156 
L 202.971437 17.931998 
L 203.039106 17.868303 
L 203.867544 17.762145 
L 203.877797 17.719682 
L 204.640617 17.613524 
L 204.640617 17.592292 
L 206.695308 17.507366 
L 206.769129 17.42244 
L 208.850478 17.316282 
L 208.887389 17.273818 
L 210.892866 17.16766 
L 210.978991 17.125197 
L 212.127321 17.019039 
L 212.127321 16.997808 
L 212.836826 16.89165 
L 212.836826 16.870418 
L 213.739085 16.76426 
L 213.847767 16.721797 
L 215.974228 16.615639 
L 215.974228 16.594407 
L 217.743888 16.488249 
L 217.743888 16.467018 
L 219.408967 16.36086 
L 219.408967 16.339628 
L 222.251085 16.23347 
L 222.251085 16.212239 
L 224.516987 16.106081 
L 224.516987 16.084849 
L 226.690612 15.978691 
L 226.690612 15.95746 
L 226.741877 15.95746 
L 229.727536 15.851302 
L 229.727536 15.83007 
L 232.372798 15.723912 
L 232.372798 15.70268 
L 236.287374 15.596522 
L 236.287374 15.575291 
L 242.160264 15.469133 
L 242.160264 15.447901 
L 247.826045 15.341743 
L 247.826045 15.320512 
L 251.375616 15.214354 
L 251.377667 15.193122 
L 257.236203 15.086964 
L 257.342833 15.044501 
L 264.80083 14.938343 
L 264.80083 14.917111 
L 270.191831 14.874648 
L 270.191831 14.874648 
" clip-path="url(#pf60b6fe7fb)" style="fill: none; stroke: #cb997e; stroke-width: 2; stroke-linecap: square"/>
   </g>
   <g id="line2d_16">
    <path d="M 48.051404 243.751234 
L 48.158035 222.604566 
L 48.166237 222.51964 
L 48.276969 216.341246 
L 48.28107 216.25632 
L 48.389752 212.79557 
L 48.402055 212.710643 
L 48.512787 209.695757 
L 48.527141 209.653294 
L 48.637873 207.46644 
L 48.652227 207.360282 
L 48.760908 205.003575 
L 48.76706 204.93988 
L 48.875741 203.092731 
L 48.885994 203.050268 
L 48.994676 200.820951 
L 49.004929 200.757256 
L 49.11361 199.058728 
L 49.127964 199.037497 
L 49.238696 196.702021 
L 49.248949 196.617095 
L 49.35763 194.451472 
L 49.369934 194.387778 
L 49.476564 192.68925 
L 49.482716 192.68925 
L 49.591397 190.481164 
L 49.60165 190.417469 
L 49.710332 188.442931 
L 49.714433 188.442931 
L 49.816962 186.447161 
L 49.833367 186.404698 
L 49.944099 184.472623 
L 49.962554 184.408928 
L 50.073286 182.625474 
L 50.083539 182.540548 
L 50.194271 181.054336 
L 50.198372 180.990642 
L 50.309104 179.334577 
L 50.341913 179.228419 
L 50.450595 177.784671 
L 50.458797 177.720976 
L 50.569529 175.852596 
L 50.579782 175.746438 
L 50.690514 174.557469 
L 50.696666 174.493774 
L 50.803296 172.965099 
L 50.8156 172.858941 
L 50.926332 170.990561 
L 50.938635 170.884403 
L 51.049367 169.270802 
L 52.382251 154.366222 
L 52.490932 153.262179 
L 52.513488 153.156022 
L 52.62217 152.349221 
L 52.640625 152.243063 
L 52.747256 151.287641 
L 52.771863 151.181483 
L 52.882595 149.822661 
L 52.892848 149.758966 
L 52.993326 148.73985 
L 53.013832 148.676155 
L 53.124564 147.614575 
L 53.151222 147.508417 
L 53.259903 146.21329 
L 53.278358 146.149595 
L 53.38909 144.918163 
L 53.405495 144.812005 
L 53.516227 143.559341 
L 53.522379 143.453183 
L 53.633111 142.412835 
L 53.645414 142.34914 
L 53.749994 141.160171 
L 53.764348 141.117708 
L 53.870979 140.077359 
L 53.897637 139.971201 
L 54.006318 138.697306 
L 54.041178 138.612379 
L 54.149859 138.017895 
L 54.176517 137.932968 
L 54.281097 136.595378 
L 54.322109 136.48922 
L 54.432841 135.172861 
L 54.455397 135.087935 
L 54.555876 134.217439 
L 54.582534 134.111281 
L 54.689164 133.43187 
L 54.715822 133.368176 
L 54.826554 132.476449 
L 54.851161 132.370291 
L 54.957792 131.414869 
L 54.965994 131.372406 
L 55.076726 130.077279 
L 55.103384 129.971121 
L 55.205913 128.973236 
L 55.22847 128.867078 
L 55.3351 127.996582 
L 55.351505 127.911656 
L 55.460186 126.998697 
L 55.47249 126.935003 
L 55.583222 126.191897 
L 55.601677 126.10697 
L 55.712409 125.491254 
L 55.726763 125.385096 
L 55.833394 124.429675 
L 55.864153 124.323517 
L 55.974884 123.580411 
L 56.001542 123.474253 
L 56.108173 122.455136 
L 56.138932 122.37021 
L 56.249664 121.499714 
L 56.270169 121.393557 
L 56.380901 120.820303 
L 56.401407 120.714146 
L 56.505987 120.013503 
L 56.528544 119.907345 
L 56.637225 119.121776 
L 56.65568 119.015618 
L 56.766412 118.187586 
L 56.778716 118.081428 
L 56.889448 117.04108 
L 56.907903 116.956153 
L 57.018635 116.149353 
L 57.03709 116.043195 
L 57.143721 115.321321 
L 57.194986 115.257626 
L 57.301616 114.493288 
L 57.320072 114.38713 
L 57.426702 113.686488 
L 57.443107 113.622793 
L 57.545636 112.731066 
L 57.568193 112.624908 
L 57.678925 111.775644 
L 57.705583 111.690718 
L 57.814264 111.075002 
L 57.824517 110.968844 
L 57.894237 110.607907 
L 57.951653 110.501749 
L 58.052132 109.801106 
L 58.084942 109.694948 
L 58.195674 109.036769 
L 58.21823 108.930611 
L 58.328962 108.229968 
L 58.347417 108.12381 
L 58.454048 107.359473 
L 58.482756 107.253315 
L 58.591437 106.552672 
L 58.611943 106.446514 
L 58.718574 105.745872 
L 58.734979 105.660945 
L 58.837508 104.981534 
L 58.870318 104.875376 
L 58.978999 104.174734 
L 58.999505 104.068576 
L 59.104085 103.559017 
L 59.128692 103.474091 
L 59.239424 102.900838 
L 59.25993 102.79468 
L 59.370662 102.051574 
L 59.385016 101.945416 
L 59.493697 101.350932 
L 59.512152 101.244774 
L 59.616732 100.968763 
L 59.649542 100.905068 
L 59.754122 100.246889 
L 59.791033 100.140731 
L 59.901765 99.525014 
L 59.934574 99.418856 
L 60.041205 98.654519 
L 60.05966 98.612056 
L 60.166291 97.826487 
L 60.192948 97.720329 
L 60.295478 97.295697 
L 60.328287 97.210771 
L 60.439019 96.658749 
L 60.447221 96.552591 
L 60.557953 96.212886 
L 60.605117 96.106728 
L 60.715849 95.384854 
L 60.742506 95.278696 
L 60.853238 94.811601 
L 60.873744 94.726674 
L 60.980375 94.323274 
L 61.025488 94.217116 
L 61.128017 93.537705 
L 61.146473 93.431547 
L 61.328975 92.603515 
L 61.374088 92.497357 
L 61.482769 91.902872 
L 61.509427 91.796714 
L 61.620159 91.096072 
L 61.669373 90.989914 
L 61.769852 90.204345 
L 61.827269 90.098187 
L 61.921596 89.694786 
L 61.987215 89.588628 
L 62.093845 89.227691 
L 62.112301 89.121533 
L 62.223033 88.293501 
L 62.290702 88.187343 
L 62.401434 87.720248 
L 62.450648 87.61409 
L 62.555228 87.019605 
L 62.592139 86.913447 
L 62.702871 86.14911 
L 62.731579 86.064184 
L 62.83821 85.384773 
L 62.889474 85.278615 
L 62.987903 84.853983 
L 63.033016 84.747825 
L 63.143747 84.408119 
L 63.180658 84.301961 
L 63.281137 83.941024 
L 63.320098 83.834866 
L 63.398021 83.34654 
L 63.457488 83.304076 
L 63.553866 82.81575 
L 63.619484 82.709592 
L 63.728166 82.348655 
L 63.758925 82.242497 
L 63.869656 81.839096 
L 63.912719 81.732938 
L 64.019349 81.308307 
L 64.070614 81.22338 
L 64.181346 80.374116 
L 64.201852 80.267958 
L 64.304381 79.694705 
L 64.328989 79.588547 
L 64.433569 78.9516 
L 64.495086 78.845442 
L 64.589414 78.590663 
L 64.659134 78.484505 
L 64.759612 78.166031 
L 64.81908 78.059873 
L 64.921609 77.635241 
L 64.968773 77.529083 
L 65.079505 76.892135 
L 65.112314 76.807209 
L 65.216894 76.276419 
L 65.245602 76.170261 
L 65.356334 75.830555 
L 65.397346 75.724397 
L 65.506027 75.066218 
L 65.555241 74.96006 
L 65.661872 74.599123 
L 65.696732 74.492965 
L 65.807464 74.216954 
L 65.844375 74.132028 
L 65.955107 73.664933 
L 66.030978 73.558775 
L 66.14171 72.985522 
L 66.184773 72.879364 
L 66.283201 72.539658 
L 66.322162 72.4335 
L 66.432894 72.051332 
L 66.486209 71.945174 
L 66.596941 71.456847 
L 66.611295 71.414384 
L 66.719977 71.053447 
L 66.750735 70.947289 
L 66.851214 70.501425 
L 66.896327 70.395267 
L 67.007059 69.843246 
L 67.054223 69.737088 
L 67.156752 69.269993 
L 67.203916 69.163835 
L 67.314648 68.739203 
L 67.353609 68.633045 
L 67.449987 68.229645 
L 67.486897 68.123487 
L 67.595579 67.911171 
L 67.628388 67.826244 
L 67.73912 67.550234 
L 67.761676 67.444076 
L 67.868307 67.168065 
L 67.91342 67.061907 
L 68.022101 66.57358 
L 68.063113 66.467422 
L 68.167693 66.085254 
L 68.216907 66.000327 
L 68.327639 65.618158 
L 68.366601 65.512 
L 68.465029 65.129832 
L 68.536799 65.023674 
L 68.64138 64.514116 
L 68.680341 64.407958 
L 68.786971 64.04702 
L 68.830034 63.962094 
L 68.940766 63.516231 
L 68.951019 63.494999 
L 69.061751 63.049136 
L 69.143774 62.942978 
L 69.234 62.70943 
L 69.279113 62.645735 
L 69.389845 62.199872 
L 69.410351 62.093714 
L 69.498526 61.923861 
L 69.551842 61.817703 
L 69.654371 61.393071 
L 69.687181 61.286913 
L 69.793811 60.968439 
L 69.853278 60.862281 
L 69.951707 60.480113 
L 70.002971 60.395186 
L 70.111653 60.097944 
L 70.179322 60.013018 
L 70.288003 59.65208 
L 70.290054 59.65208 
L 70.326965 59.545922 
L 70.425393 59.142522 
L 70.482809 59.036364 
L 70.591491 58.632964 
L 70.620199 58.548038 
L 70.72683 58.229564 
L 70.784246 58.123406 
L 70.890877 57.7837 
L 70.925737 57.677542 
L 71.020064 57.337837 
L 71.089784 57.231679 
L 71.198465 56.828278 
L 71.235376 56.764584 
L 71.335855 56.467341 
L 71.368664 56.403647 
L 71.477346 56.106404 
L 71.501953 56.042709 
L 71.608583 55.681772 
L 71.635241 55.575614 
L 71.739821 55.299604 
L 71.793137 55.193446 
L 71.899767 54.874972 
L 72.065865 54.768814 
L 72.168395 54.45034 
L 72.285278 54.344182 
L 72.39601 53.962013 
L 72.439072 53.855855 
L 72.549804 53.537381 
L 72.566209 53.431223 
L 72.67489 53.070286 
L 72.740509 53.006591 
L 72.84919 52.624423 
L 72.886101 52.518265 
L 72.980428 52.284717 
L 73.099362 52.178559 
L 73.208044 51.966243 
L 73.232651 51.860085 
L 73.320826 51.605306 
L 73.355686 51.52038 
L 73.462317 51.265601 
L 73.513582 51.159443 
L 73.620212 50.8622 
L 73.687882 50.756042 
L 73.794513 50.501263 
L 73.909346 50.395105 
L 74.003673 50.140326 
L 74.056988 50.034168 
L 74.16772 49.800621 
L 74.223086 49.694463 
L 74.333818 49.39722 
L 74.362526 49.291062 
L 74.463005 49.142441 
L 74.510168 49.036283 
L 74.600394 48.908894 
L 74.672165 48.802736 
L 74.772644 48.505493 
L 74.821858 48.399336 
L 74.926438 48.165788 
L 75.00231 48.05963 
L 75.110991 47.762388 
L 75.133548 47.65623 
L 75.240179 47.465145 
L 75.400125 47.358987 
L 75.498553 47.231598 
L 75.580577 47.12544 
L 75.681055 46.849429 
L 75.80204 46.743271 
L 75.90457 46.637113 
L 75.961986 46.530955 
L 76.050162 46.382334 
L 76.109629 46.297408 
L 76.208057 45.957702 
L 76.326991 45.851544 
L 76.435673 45.53307 
L 76.519747 45.426912 
L 76.628428 45.12967 
L 76.694047 45.023512 
L 76.788374 44.874891 
L 76.884752 44.768733 
L 76.987281 44.513954 
L 77.057001 44.407796 
L 77.167733 44.19548 
L 77.26206 44.089322 
L 77.370742 43.898238 
L 77.428158 43.79208 
L 77.530688 43.5373 
L 77.657824 43.431142 
L 77.768556 43.1339 
L 77.823922 43.027742 
L 77.934654 42.666805 
L 77.983868 42.581879 
L 78.074094 42.242173 
L 78.182775 42.136015 
L 78.291457 41.902468 
L 78.416543 41.79631 
L 78.480111 41.66892 
L 78.65236 41.562762 
L 78.756941 41.371678 
L 78.814357 41.26552 
L 78.85947 41.13813 
L 79.03172 41.031972 
L 79.121946 40.947046 
L 79.218323 40.840888 
L 79.300347 40.60734 
L 79.329055 40.60734 
L 79.370067 40.501182 
L 79.452091 40.225172 
L 79.620239 40.119014 
L 79.724819 39.991624 
L 79.79659 39.885466 
L 79.90117 39.630687 
L 79.997548 39.524529 
L 80.079571 39.333445 
L 80.186202 39.248518 
L 80.278478 39.014971 
L 80.413817 38.908813 
L 80.518398 38.802655 
L 80.598371 38.696497 
L 80.705001 38.441718 
L 80.850593 38.33556 
L 80.961325 38.102012 
L 81.104866 37.995854 
L 81.209446 37.847233 
L 81.32633 37.741075 
L 81.42886 37.465064 
L 81.545743 37.380138 
L 81.656475 37.040433 
L 81.750802 36.934275 
L 81.857433 36.721959 
L 81.984569 36.615801 
L 82.0912 36.424716 
L 82.19373 36.318558 
L 82.29831 36.106242 
L 82.351625 36.021316 
L 82.458256 35.872695 
L 82.589494 35.766537 
L 82.700225 35.660379 
L 82.843767 35.554221 
L 82.942195 35.341905 
L 83.067281 35.235747 
L 83.159558 35.065894 
L 83.40973 34.959736 
L 83.518411 34.768652 
L 83.72347 34.662494 
L 83.832151 34.513873 
L 83.936731 34.407715 
L 84.041311 34.237862 
L 84.207409 34.131704 
L 84.318141 33.94062 
L 84.45348 33.834462 
L 84.55806 33.685841 
L 84.720057 33.579683 
L 84.828738 33.388598 
L 84.933318 33.28244 
L 85.00919 33.197514 
L 85.095315 33.091356 
L 85.203996 32.87904 
L 85.351638 32.772882 
L 85.454168 32.687956 
L 85.626417 32.581798 
L 85.737149 32.411945 
L 85.854033 32.305787 
L 85.950411 32.178398 
L 86.040637 32.07224 
L 86.132913 31.94485 
L 86.284657 31.838692 
L 86.393338 31.753766 
L 86.547132 31.647608 
L 86.639409 31.54145 
L 86.795254 31.456523 
L 86.889581 31.350365 
L 87.039274 31.244207 
L 87.137702 31.201744 
L 87.250485 31.095586 
L 87.332508 30.946965 
L 87.418633 30.862039 
L 87.521163 30.586028 
L 87.705716 30.47987 
L 87.816448 30.373712 
L 87.972293 30.267554 
L 88.058417 30.140164 
L 88.388562 30.034007 
L 88.493142 29.970312 
L 88.630532 29.864154 
L 88.737163 29.694301 
L 88.815085 29.588143 
L 88.923766 29.41829 
L 88.960677 29.312132 
L 89.065257 29.14228 
L 89.235456 29.036122 
L 89.290822 28.908732 
L 89.475375 28.823806 
L 89.577905 28.632721 
L 89.77066 28.526563 
L 89.819874 28.420405 
L 90.022883 28.314247 
L 90.123362 28.186858 
L 90.273055 28.0807 
L 90.328421 27.995773 
L 90.580643 27.889615 
L 90.681122 27.719763 
L 90.824663 27.613605 
L 90.88208 27.54991 
L 91.242984 27.443752 
L 91.331159 27.380057 
L 91.620292 27.273899 
L 91.71667 27.188973 
L 91.817149 27.082815 
L 91.872515 27.01912 
L 92.071422 26.912962 
L 92.163699 26.828036 
L 92.290835 26.721878 
L 92.381061 26.679415 
L 92.600474 26.573257 
L 92.694802 26.360941 
L 92.887557 26.254783 
L 92.975732 26.21232 
L 93.170538 26.106162 
L 93.221803 26.000004 
L 93.504785 25.893846 
L 93.584758 25.808919 
L 93.715995 25.702761 
L 93.818525 25.617835 
L 93.921054 25.511677 
L 94.019483 25.405519 
L 94.269655 25.299361 
L 94.345527 25.235666 
L 94.646963 25.129508 
L 94.747442 25.065813 
L 94.993513 24.959655 
L 95.069385 24.917192 
L 95.268292 24.811034 
L 95.368771 24.683645 
L 95.475402 24.577487 
L 95.561527 24.471329 
L 95.797344 24.365171 
L 95.891672 24.301476 
L 96.152097 24.195318 
L 96.197209 24.131623 
L 96.420724 24.025465 
L 96.527354 23.940539 
L 96.957978 23.834381 
L 97.052306 23.749455 
L 97.185594 23.643297 
L 97.296326 23.537139 
L 97.495233 23.430981 
L 97.558801 23.324823 
L 97.960717 23.218665 
L 98.022235 23.070044 
L 98.192434 22.963886 
L 98.245749 22.857728 
L 98.52668 22.75157 
L 98.637412 22.645412 
L 99.016771 22.539254 
L 99.065985 22.433096 
L 99.379725 22.326938 
L 99.451496 22.22078 
L 99.820602 22.114622 
L 99.88212 22.050927 
L 100.243024 21.944769 
L 100.281985 21.859843 
L 100.710558 21.753685 
L 100.813088 21.711222 
L 100.970983 21.605064 
L 101.067361 21.5626 
L 101.354444 21.477674 
L 101.450821 21.28659 
L 101.670234 21.180432 
L 101.700993 21.095505 
L 101.850686 20.989347 
L 101.922457 20.861958 
L 102.162376 20.7558 
L 102.271057 20.62841 
L 102.486369 20.522252 
L 102.486369 20.501021 
L 102.990815 20.394863 
L 103.068737 20.288705 
L 103.224582 20.182547 
L 103.314808 20.09762 
L 103.587536 19.991462 
L 103.694167 19.906536 
L 104.046868 19.800378 
L 104.128892 19.736683 
L 104.413924 19.630525 
L 104.524656 19.588062 
L 105.053708 19.481904 
L 105.053708 19.460673 
L 105.92726 19.354515 
L 106.013384 19.312051 
L 106.058497 19.227125 
L 106.058497 19.184662 
L 106.444008 19.078504 
L 106.538335 18.993577 
L 107.094045 18.88742 
L 107.196575 18.802493 
L 107.588238 18.696335 
L 107.647705 18.611409 
L 108.275185 18.505251 
L 108.303894 18.441556 
L 108.839098 18.335398 
L 108.839098 18.314166 
L 109.076966 18.208009 
L 109.175394 18.165545 
L 110.165829 18.059387 
L 110.165829 18.038156 
L 111.043482 17.931998 
L 111.078342 17.847071 
L 112.181559 17.740913 
L 112.181559 17.719682 
L 113.221209 17.613524 
L 113.221209 17.592292 
L 113.979927 17.486134 
L 113.979927 17.464903 
L 114.496676 17.358745 
L 114.605357 17.316282 
L 115.140561 17.210124 
L 115.140561 17.188892 
L 116.102288 17.082734 
L 116.18021 16.997808 
L 117.574611 16.89165 
L 117.574611 16.870418 
L 118.710638 16.76426 
L 118.755751 16.700565 
L 119.65596 16.594407 
L 119.65596 16.573176 
L 120.586928 16.467018 
L 120.586928 16.445786 
L 121.351798 16.339628 
L 121.351798 16.318397 
L 121.374355 16.318397 
L 122.206894 16.212239 
L 122.206894 16.191007 
L 122.908196 16.084849 
L 122.908196 16.063617 
L 123.937593 15.95746 
L 123.937593 15.936228 
L 125.202807 15.83007 
L 125.202807 15.808838 
L 126.451616 15.70268 
L 126.529538 15.638986 
L 128.811845 15.532828 
L 128.885666 15.490364 
L 131.463258 15.384206 
L 131.463258 15.362975 
L 134.348439 15.256817 
L 134.348439 15.235585 
L 137.003953 15.129427 
L 137.003953 15.108196 
L 140.467399 15.002038 
L 140.467399 14.980806 
L 270.191831 14.874648 
L 270.191831 14.874648 
" clip-path="url(#pf60b6fe7fb)" style="fill: none; stroke: #d44c3c; stroke-width: 2; stroke-linecap: square"/>
   </g>
   <g id="patch_3">
    <path d="M 45.83 246.04 
L 45.83 12.585882 
" style="fill: none; stroke: #000000; stroke-width: 0.8; stroke-linejoin: miter; stroke-linecap: square"/>
   </g>
   <g id="patch_4">
    <path d="M 45.83 246.04 
L 272.413235 246.04 
" style="fill: none; stroke: #000000; stroke-width: 0.8; stroke-linejoin: miter; stroke-linecap: square"/>
   </g>
   <g id="legend_1">
    <g id="line2d_17">
     <path d="M 97.833548 188.497812 
L 107.833548 188.497812 
L 117.833548 188.497812 
" style="fill: none; stroke: #44757a; stroke-width: 2; stroke-linecap: square"/>
    </g>
    <g id="text_15">
     <text style="font: 10px 'Arial'; text-anchor: start" x="125.833548" y="191.997812" transform="rotate(-0 125.833548 191.997812)">SRAMP AUROC=0.793</text>
    </g>
    <g id="line2d_18">
     <path d="M 97.833548 202.77125 
L 107.833548 202.77125 
L 117.833548 202.77125 
" style="fill: none; stroke: #a5a58d; stroke-width: 2; stroke-linecap: square"/>
    </g>
    <g id="text_16">
     <text style="font: 10px 'Arial'; text-anchor: start" x="125.833548" y="206.27125" transform="rotate(-0 125.833548 206.27125)">Genome Only AUROC=0.899</text>
    </g>
    <g id="line2d_19">
     <path d="M 97.833548 217.161875 
L 107.833548 217.161875 
L 117.833548 217.161875 
" style="fill: none; stroke: #cb997e; stroke-width: 2; stroke-linecap: square"/>
    </g>
    <g id="text_17">
     <text style="font: 10px 'Arial'; text-anchor: start" x="125.833548" y="220.661875" transform="rotate(-0 125.833548 220.661875)">Sequence Only AUROC=0.839</text>
    </g>
    <g id="line2d_20">
     <path d="M 97.833548 231.5525 
L 107.833548 231.5525 
L 117.833548 231.5525 
" style="fill: none; stroke: #d44c3c; stroke-width: 2; stroke-linecap: square"/>
    </g>
    <g id="text_18">
     <text style="font: 10px 'Arial'; text-anchor: start" x="125.833548" y="235.0525" transform="rotate(-0 125.833548 235.0525)">deepSRAMP AUROC=0.943</text>
    </g>
   </g>
  </g>
 </g>
 <defs>
  <clipPath id="pf60b6fe7fb">
   <rect x="45.83" y="12.585882" width="226.583235" height="233.454118"/>
  </clipPath>
 </defs>
</svg>
