<?xml version="1.0" encoding="utf-8" standalone="no"?>
<!DOCTYPE svg PUBLIC "-//W3C//DTD SVG 1.1//EN"
  "http://www.w3.org/Graphics/SVG/1.1/DTD/svg11.dtd">
<svg xmlns:xlink="http://www.w3.org/1999/xlink" width="288pt" height="288pt" viewBox="0 0 288 288" xmlns="http://www.w3.org/2000/svg" version="1.1">
 <metadata>
  <rdf:RDF xmlns:dc="http://purl.org/dc/elements/1.1/" xmlns:cc="http://creativecommons.org/ns#" xmlns:rdf="http://www.w3.org/1999/02/22-rdf-syntax-ns#">
   <cc:Work>
    <dc:type rdf:resource="http://purl.org/dc/dcmitype/StillImage"/>
    <dc:date>2024-09-17T12:04:14.317048</dc:date>
    <dc:format>image/svg+xml</dc:format>
    <dc:creator>
     <cc:Agent>
      <dc:title>Matplotlib v3.9.2, https://matplotlib.org/</dc:title>
     </cc:Agent>
    </dc:creator>
   </cc:Work>
  </rdf:RDF>
 </metadata>
 <defs>
  <style type="text/css">*{stroke-linejoin: round; stroke-linecap: butt}</style>
 </defs>
 <g id="figure_1">
  <g id="patch_1">
   <path d="M 0 288 
L 288 288 
L 288 0 
L 0 0 
L 0 288 
z
" style="fill: none"/>
  </g>
  <g id="axes_1">
   <g id="patch_2">
    <path d="M 45.83 246.04 
L 272.413235 246.04 
L 272.413235 12.585882 
L 45.83 12.585882 
L 45.83 246.04 
z
" style="fill: none"/>
   </g>
   <g id="matplotlib.axis_1">
    <g id="xtick_1">
     <g id="line2d_1">
      <defs>
       <path id="m9d27886282" d="M 0 0 
L 0 3.5 
" style="stroke: #000000; stroke-width: 0.8"/>
      </defs>
      <g>
       <use xlink:href="#m9d27886282" x="48.051404" y="246.04" style="stroke: #000000; stroke-width: 0.8"/>
      </g>
     </g>
     <g id="text_1">
      <text style="font: 10px 'Arial'; text-anchor: middle" x="48.051404" y="260.197812" transform="rotate(-0 48.051404 260.197812)">0.0</text>
     </g>
    </g>
    <g id="xtick_2">
     <g id="line2d_2">
      <g>
       <use xlink:href="#m9d27886282" x="92.47949" y="246.04" style="stroke: #000000; stroke-width: 0.8"/>
      </g>
     </g>
     <g id="text_2">
      <text style="font: 10px 'Arial'; text-anchor: middle" x="92.47949" y="260.197812" transform="rotate(-0 92.47949 260.197812)">0.2</text>
     </g>
    </g>
    <g id="xtick_3">
     <g id="line2d_3">
      <g>
       <use xlink:href="#m9d27886282" x="136.907575" y="246.04" style="stroke: #000000; stroke-width: 0.8"/>
      </g>
     </g>
     <g id="text_3">
      <text style="font: 10px 'Arial'; text-anchor: middle" x="136.907575" y="260.197812" transform="rotate(-0 136.907575 260.197812)">0.4</text>
     </g>
    </g>
    <g id="xtick_4">
     <g id="line2d_4">
      <g>
       <use xlink:href="#m9d27886282" x="181.33566" y="246.04" style="stroke: #000000; stroke-width: 0.8"/>
      </g>
     </g>
     <g id="text_4">
      <text style="font: 10px 'Arial'; text-anchor: middle" x="181.33566" y="260.197812" transform="rotate(-0 181.33566 260.197812)">0.6</text>
     </g>
    </g>
    <g id="xtick_5">
     <g id="line2d_5">
      <g>
       <use xlink:href="#m9d27886282" x="225.763746" y="246.04" style="stroke: #000000; stroke-width: 0.8"/>
      </g>
     </g>
     <g id="text_5">
      <text style="font: 10px 'Arial'; text-anchor: middle" x="225.763746" y="260.197812" transform="rotate(-0 225.763746 260.197812)">0.8</text>
     </g>
    </g>
    <g id="xtick_6">
     <g id="line2d_6">
      <g>
       <use xlink:href="#m9d27886282" x="270.191831" y="246.04" style="stroke: #000000; stroke-width: 0.8"/>
      </g>
     </g>
     <g id="text_6">
      <text style="font: 10px 'Arial'; text-anchor: middle" x="270.191831" y="260.197812" transform="rotate(-0 270.191831 260.197812)">1.0</text>
     </g>
    </g>
    <g id="text_7">
     <text style="font: 10px 'Arial'; text-anchor: middle" x="159.121618" y="273.343125" transform="rotate(-0 159.121618 273.343125)">False Postive Rate</text>
    </g>
   </g>
   <g id="matplotlib.axis_2">
    <g id="ytick_1">
     <g id="line2d_7">
      <defs>
       <path id="m3f3177c01a" d="M 0 0 
L -3.5 0 
" style="stroke: #000000; stroke-width: 0.8"/>
      </defs>
      <g>
       <use xlink:href="#m3f3177c01a" x="45.83" y="243.751234" style="stroke: #000000; stroke-width: 0.8"/>
      </g>
     </g>
     <g id="text_8">
      <text style="font: 10px 'Arial'; text-anchor: end" x="38.83" y="247.33014" transform="rotate(-0 38.83 247.33014)">0.0</text>
     </g>
    </g>
    <g id="ytick_2">
     <g id="line2d_8">
      <g>
       <use xlink:href="#m3f3177c01a" x="45.83" y="197.975917" style="stroke: #000000; stroke-width: 0.8"/>
      </g>
     </g>
     <g id="text_9">
      <text style="font: 10px 'Arial'; text-anchor: end" x="38.83" y="201.554823" transform="rotate(-0 38.83 201.554823)">0.2</text>
     </g>
    </g>
    <g id="ytick_3">
     <g id="line2d_9">
      <g>
       <use xlink:href="#m3f3177c01a" x="45.83" y="152.2006" style="stroke: #000000; stroke-width: 0.8"/>
      </g>
     </g>
     <g id="text_10">
      <text style="font: 10px 'Arial'; text-anchor: end" x="38.83" y="155.779506" transform="rotate(-0 38.83 155.779506)">0.4</text>
     </g>
    </g>
    <g id="ytick_4">
     <g id="line2d_10">
      <g>
       <use xlink:href="#m3f3177c01a" x="45.83" y="106.425283" style="stroke: #000000; stroke-width: 0.8"/>
      </g>
     </g>
     <g id="text_11">
      <text style="font: 10px 'Arial'; text-anchor: end" x="38.83" y="110.004189" transform="rotate(-0 38.83 110.004189)">0.6</text>
     </g>
    </g>
    <g id="ytick_5">
     <g id="line2d_11">
      <g>
       <use xlink:href="#m3f3177c01a" x="45.83" y="60.649965" style="stroke: #000000; stroke-width: 0.8"/>
      </g>
     </g>
     <g id="text_12">
      <text style="font: 10px 'Arial'; text-anchor: end" x="38.83" y="64.228872" transform="rotate(-0 38.83 64.228872)">0.8</text>
     </g>
    </g>
    <g id="ytick_6">
     <g id="line2d_12">
      <g>
       <use xlink:href="#m3f3177c01a" x="45.83" y="14.874648" style="stroke: #000000; stroke-width: 0.8"/>
      </g>
     </g>
     <g id="text_13">
      <text style="font: 10px 'Arial'; text-anchor: end" x="38.83" y="18.453554" transform="rotate(-0 38.83 18.453554)">1.0</text>
     </g>
    </g>
    <g id="text_14">
     <text style="font: 10px 'Arial'; text-anchor: middle" x="18.9425" y="129.312941" transform="rotate(-90 18.9425 129.312941)">True Postive Rate</text>
    </g>
   </g>
   <g id="line2d_13">
    <path d="M 48.051404 243.751234 
L 48.162342 229.608374 
L 48.311231 225.12777 
L 48.591494 218.848828 
L 49.222086 209.247533 
L 49.411847 207.083431 
L 51.303621 191.020312 
L 51.528415 189.709659 
L 52.065586 184.74137 
L 52.357526 183.217355 
L 52.690338 180.596049 
L 52.973521 178.767231 
L 53.434787 175.932563 
L 53.866859 173.158855 
L 54.193832 171.57388 
L 55.03462 166.422709 
L 57.151189 154.992595 
L 58.067882 151.609282 
L 58.286837 150.268149 
L 58.751023 148.896535 
L 59.186014 147.159158 
L 59.863316 143.836805 
L 60.330421 142.190869 
L 62.63967 134.692714 
L 62.922852 133.869746 
L 63.500894 131.766605 
L 64.283295 128.901457 
L 64.802949 126.920237 
L 71.885425 109.0283 
L 72.577324 107.931009 
L 74.139205 104.852499 
L 74.933283 103.358964 
L 75.342 102.414075 
L 75.771152 101.89591 
L 76.591505 99.94517 
L 77.000222 99.487966 
L 77.826413 97.87251 
L 81.17789 91.563087 
L 82.424476 89.703789 
L 83.294458 87.966412 
L 91.100947 76.871582 
L 91.664392 76.597259 
L 92.718297 75.225646 
L 93.19416 74.341717 
L 93.705056 73.793072 
L 94.204274 73.427308 
L 94.767719 72.848182 
L 95.223146 72.147135 
L 99.593495 67.361728 
L 100.831323 66.020595 
L 101.955294 65.228107 
L 103.222315 64.008895 
L 103.791599 63.033525 
L 104.448465 62.637281 
L 105.607469 61.174227 
L 108.25245 59.101566 
L 110.126707 57.547071 
L 111.510505 56.541221 
L 112.132339 56.053536 
L 112.803802 55.139127 
L 114.187599 54.041836 
L 116.850097 52.152057 
L 121.465675 48.463941 
L 122.116703 48.189618 
L 122.794005 47.640973 
L 123.515098 47.244729 
L 125.619988 45.812155 
L 126.34984 45.598792 
L 127.815381 44.989186 
L 128.565668 44.714864 
L 129.222534 44.31862 
L 129.961143 43.739494 
L 134.430752 41.36203 
L 135.1752 41.087708 
L 137.38227 39.868496 
L 138.097524 39.31985 
L 141.098672 37.887276 
L 141.825604 37.369111 
L 147.14184 35.448852 
L 147.845417 35.022128 
L 148.668689 34.382041 
L 149.436492 34.077238 
L 151.021729 33.162829 
L 152.633241 32.583704 
L 154.215558 32.035058 
L 154.901618 31.699775 
L 155.698616 31.516893 
L 156.393434 30.998728 
L 157.187512 30.815846 
L 157.978671 30.297681 
L 159.540552 29.718555 
L 160.390099 29.413752 
L 161.210452 29.261351 
L 162.775253 28.621264 
L 163.545976 28.255501 
L 164.281666 28.042139 
L 165.011517 27.615414 
L 166.655142 27.280131 
L 168.284169 26.914367 
L 169.799341 26.365722 
L 171.428368 25.908517 
L 180.569025 23.317692 
L 181.295956 23.226251 
L 182.878274 22.738566 
L 183.58477 22.677605 
L 185.05615 22.311842 
L 186.492497 21.915598 
L 190.217657 21.214551 
L 192.229127 20.726866 
L 195.055111 20.11726 
L 196.593637 19.934378 
L 204.046878 18.440844 
L 206.808635 18.136041 
L 208.00559 18.07508 
L 209.82438 17.861718 
L 210.965867 17.617875 
L 219.540159 16.825388 
L 220.12404 16.825388 
L 221.671324 16.551065 
L 223.317868 16.520585 
L 224.275433 16.429144 
L 227.775799 16.154821 
L 228.762558 16.06338 
L 230.190147 15.971939 
L 231.559348 15.850018 
L 233.693433 15.758577 
L 243.642764 15.270892 
L 246.316939 15.209932 
L 247.230713 15.118491 
L 252.698758 15.02705 
L 253.519111 14.996569 
L 268.831388 14.905129 
L 269.190475 14.874648 
L 270.191831 14.874648 
L 270.191831 14.874648 
" clip-path="url(#p3c8a70c31e)" style="fill: none; stroke: #44757a; stroke-width: 2; stroke-linecap: square"/>
   </g>
   <g id="line2d_14">
    <path d="M 48.051404 243.751234 
L 48.158837 225.639811 
L 48.16995 225.562494 
L 48.279235 222.89507 
L 48.282939 222.856412 
L 48.392224 220.459596 
L 48.394076 220.459596 
L 48.503361 218.256072 
L 48.518179 218.159426 
L 48.625612 216.419802 
L 48.64043 216.323156 
L 48.749714 214.85414 
L 48.755271 214.757494 
L 48.857147 213.617073 
L 48.87567 213.578415 
L 48.983102 211.877449 
L 48.99792 211.800132 
L 49.105352 210.079837 
L 49.112762 210.041179 
L 49.222046 208.069604 
L 49.227603 208.050275 
L 49.336888 206.156018 
L 49.359115 206.059372 
L 49.466547 204.571026 
L 49.472104 204.532368 
L 49.575832 203.217985 
L 49.594355 203.121339 
L 49.699935 201.768298 
L 49.714753 201.690982 
L 49.824038 200.453915 
L 49.835151 200.376599 
L 49.942584 199.120203 
L 49.95555 199.023557 
L 50.064834 197.631858 
L 50.079653 197.535212 
L 50.188937 196.356133 
L 50.205608 196.259488 
L 50.314892 194.945105 
L 50.322301 194.848459 
L 50.431586 193.785355 
L 50.450109 193.708038 
L 50.557541 192.258351 
L 50.570507 192.161706 
L 50.679792 190.499398 
L 50.703872 190.402752 
L 50.807599 189.185015 
L 50.811304 189.185015 
L 50.818713 189.165686 
L 50.927998 187.870632 
L 50.94652 187.793315 
L 51.053953 186.478932 
L 51.065066 186.382287 
L 51.174351 185.512474 
L 51.189169 185.473816 
L 51.292897 184.430041 
L 51.31142 184.333396 
L 51.420704 183.289621 
L 51.435523 183.192975 
L 51.533694 182.265176 
L 51.552216 182.207188 
L 51.661501 181.202072 
L 51.678172 181.105426 
L 51.780047 180.622197 
L 51.807831 180.525551 
L 51.913411 179.481776 
L 51.926377 179.423789 
L 52.031957 178.399344 
L 52.044923 178.341356 
L 52.148651 177.374898 
L 52.167174 177.278252 
L 52.274606 176.331123 
L 52.3098 176.234478 
L 52.41538 175.229361 
L 52.430198 175.152045 
L 52.539483 174.10827 
L 52.556153 174.030953 
L 52.650619 173.238458 
L 52.693222 173.141812 
L 52.802507 172.136696 
L 52.821029 172.098037 
L 52.930314 170.996275 
L 52.937723 170.918959 
L 53.045155 169.991159 
L 53.065531 169.894513 
L 53.174815 169.063359 
L 53.198895 168.966713 
L 53.30077 168.174218 
L 53.308179 168.174218 
L 53.32485 168.077572 
L 53.434135 167.420381 
L 53.452657 167.343064 
L 53.561942 166.569897 
L 53.586022 166.473252 
L 53.695306 165.700085 
L 53.736056 165.603439 
L 53.837932 165.13954 
L 53.880534 165.042894 
L 53.989819 164.308386 
L 54.021308 164.231069 
L 54.12874 163.477232 
L 54.143558 163.438574 
L 54.252843 162.568761 
L 54.273218 162.472115 
L 54.371389 161.853582 
L 54.406582 161.756937 
L 54.512162 160.771149 
L 54.526981 160.693833 
L 54.634413 159.901337 
L 54.645527 159.824021 
L 54.754811 159.302133 
L 54.773334 159.224817 
L 54.87521 158.644942 
L 54.897437 158.548296 
L 54.991903 157.98775 
L 55.027097 157.910434 
L 55.128972 157.098609 
L 55.154904 157.001963 
L 55.264189 156.170809 
L 55.282712 156.093493 
L 55.391996 155.127035 
L 55.410519 155.030389 
L 55.517951 154.179906 
L 55.540179 154.08326 
L 55.645759 153.368081 
L 55.673543 153.271435 
L 55.782828 152.826865 
L 55.812464 152.730219 
L 55.921749 152.169673 
L 55.968056 152.073027 
L 56.06067 151.821748 
L 56.119943 151.725102 
L 56.203296 151.415836 
L 56.210705 151.415836 
L 56.292205 151.31919 
L 56.362592 151.106569 
L 56.444092 151.009924 
L 56.540411 150.584682 
L 56.640434 150.488036 
L 56.746014 150.15944 
L 56.78306 150.062795 
L 56.877526 149.772857 
L 56.890492 149.772857 
L 56.960879 149.676211 
L 57.070163 149.212312 
L 57.079425 149.134995 
L 57.185005 148.458474 
L 57.20538 148.381158 
L 57.312812 147.936587 
L 57.359119 147.839941 
L 57.468404 147.298725 
L 57.501745 147.202079 
L 57.61103 146.602875 
L 57.633257 146.525558 
L 57.742542 145.887696 
L 57.781439 145.79105 
L 57.890724 145.249834 
L 57.924065 145.153188 
L 58.03335 144.534655 
L 58.062986 144.457338 
L 58.172271 143.72283 
L 58.201907 143.645513 
L 58.30934 142.988322 
L 58.368613 142.891676 
L 58.476045 142.099181 
L 58.5205 142.002535 
L 58.624228 141.577293 
L 58.664978 141.480648 
L 58.763149 140.939431 
L 58.809456 140.842785 
L 58.91874 140.456202 
L 58.928002 140.436873 
L 59.02432 139.856998 
L 59.070627 139.799011 
L 59.174355 139.470415 
L 59.213253 139.393098 
L 59.318833 138.774565 
L 59.337356 138.677919 
L 59.446641 138.136703 
L 59.472573 138.059386 
L 59.572596 137.711461 
L 59.60038 137.614815 
L 59.702255 137.28622 
L 59.735597 137.189574 
L 59.844881 136.783662 
L 59.861552 136.725674 
L 59.967132 136.300433 
L 60.026405 136.223116 
L 60.135689 135.817204 
L 60.183849 135.720558 
L 60.287576 135.469279 
L 60.354259 135.391962 
L 60.45243 135.082695 
L 60.461691 135.082695 
L 60.476509 134.98605 
L 60.585794 134.52215 
L 60.646919 134.425504 
L 60.754351 133.980933 
L 60.76917 133.922946 
L 60.854375 133.729654 
L 60.904386 133.633008 
L 61.013671 133.285084 
L 61.078501 133.188438 
L 61.152592 133.033805 
L 61.211865 132.937159 
L 61.315593 132.647221 
L 61.341525 132.569905 
L 61.450809 132.163992 
L 61.471184 132.067347 
L 61.580469 131.622776 
L 61.617515 131.52613 
L 61.726799 131.120218 
L 61.774959 131.023572 
L 61.87313 130.733634 
L 61.932403 130.636989 
L 62.039835 130.250405 
L 62.082437 130.173089 
L 62.182461 129.651201 
L 62.225063 129.554556 
L 62.328791 129.206631 
L 62.386212 129.167972 
L 62.495496 128.723402 
L 62.519576 128.626756 
L 62.62886 128.201514 
L 62.675167 128.104869 
L 62.75852 127.660298 
L 62.802975 127.563652 
L 62.910407 126.964448 
L 62.940044 126.867802 
L 63.047476 126.423232 
L 63.05859 126.345915 
L 63.16417 126.017319 
L 63.186397 125.920674 
L 63.293829 125.437445 
L 63.316057 125.340799 
L 63.425341 124.954216 
L 63.471649 124.85757 
L 63.580933 124.470987 
L 63.603161 124.374341 
L 63.710593 124.007087 
L 63.734673 123.910441 
L 63.843957 123.678491 
L 63.871741 123.639833 
L 63.956946 123.214591 
L 64.010662 123.117945 
L 64.119947 122.518741 
L 64.144027 122.460754 
L 64.253311 122.074171 
L 64.264425 122.016183 
L 64.371857 121.320333 
L 64.405198 121.223688 
L 64.510778 120.411863 
L 64.549676 120.315217 
L 64.658961 119.774001 
L 64.673779 119.677355 
L 64.777507 119.213455 
L 64.797882 119.136138 
L 64.903462 118.575593 
L 64.94236 118.478947 
L 65.049792 118.131022 
L 65.083134 118.034376 
L 65.188714 117.647793 
L 65.249839 117.551147 
L 65.34801 117.145235 
L 65.407283 117.067918 
L 65.514715 116.604018 
L 65.527681 116.526702 
L 65.636966 116.159448 
L 65.670307 116.082131 
L 65.772182 115.695548 
L 65.79441 115.598902 
L 65.89999 115.057686 
L 65.927774 114.96104 
L 66.037059 114.593786 
L 66.122263 114.516469 
L 66.222287 114.013911 
L 66.270446 113.917265 
L 66.376026 113.356719 
L 66.398253 113.260074 
L 66.503833 112.834832 
L 66.540879 112.738186 
L 66.633493 112.19697 
L 66.650164 112.19697 
L 66.681653 112.100324 
L 66.787233 111.462462 
L 66.816869 111.365816 
L 66.907631 110.843929 
L 66.952086 110.747283 
L 67.059518 110.322041 
L 67.100268 110.225395 
L 67.202144 109.780825 
L 67.216962 109.684179 
L 67.315133 109.142963 
L 67.350326 109.046317 
L 67.431827 108.73705 
L 67.494804 108.659734 
L 67.604089 108.195834 
L 67.633725 108.137846 
L 67.741158 107.712605 
L 67.768942 107.615959 
L 67.87267 107.113401 
L 67.926386 107.016755 
L 68.031966 106.533526 
L 68.057898 106.494868 
L 68.157921 106.166272 
L 68.193114 106.088955 
L 68.296842 105.721701 
L 68.352411 105.625055 
L 68.461695 105.161156 
L 68.491332 105.06451 
L 68.600616 104.755243 
L 68.6284 104.677927 
L 68.737685 104.349331 
L 68.771026 104.252685 
L 68.880311 103.827443 
L 68.908095 103.730798 
L 69.01738 103.421531 
L 69.047016 103.324885 
L 69.154448 103.015619 
L 69.208165 102.918973 
L 69.315597 102.358427 
L 69.356347 102.261781 
L 69.461927 101.701236 
L 69.489711 101.643248 
L 69.597144 101.179349 
L 69.624928 101.102032 
L 69.730508 100.657461 
L 69.806452 100.560815 
L 69.906475 100.21289 
L 69.956486 100.116245 
L 70.062066 99.76832 
L 70.132453 99.671674 
L 70.239885 99.420395 
L 70.280636 99.323749 
L 70.384363 99.033812 
L 70.462159 98.937166 
L 70.571444 98.569912 
L 70.595524 98.473266 
L 70.695547 98.164 
L 70.738149 98.067354 
L 70.845582 97.835404 
L 70.897445 97.738758 
L 70.993764 97.313516 
L 71.038219 97.216871 
L 71.141947 96.926933 
L 71.173435 96.830287 
L 71.279015 96.54035 
L 71.303095 96.463033 
L 71.403118 96.095779 
L 71.47721 95.999134 
L 71.580937 95.709196 
L 71.603165 95.63188 
L 71.710597 95.264625 
L 71.738381 95.16798 
L 71.845814 94.742738 
L 71.893973 94.646092 
L 72.003258 94.220851 
L 72.042155 94.143534 
L 72.147735 93.718293 
L 72.197747 93.621647 
L 72.299623 93.331709 
L 72.332964 93.235064 
L 72.438544 92.751835 
L 72.471885 92.655189 
L 72.55709 92.345922 
L 72.61451 92.249276 
L 72.721943 91.727389 
L 72.751579 91.669402 
L 72.853455 91.379464 
L 72.907171 91.282818 
L 73.009046 91.089527 
L 73.064615 90.992881 
L 73.170195 90.625627 
L 73.203536 90.528981 
L 73.312821 90.161727 
L 73.379503 90.065081 
L 73.462855 89.794473 
L 73.529538 89.697827 
L 73.627708 89.427219 
L 73.651788 89.349902 
L 73.761073 89.001978 
L 73.827755 88.905332 
L 73.924074 88.538078 
L 73.974085 88.460761 
L 74.079665 87.996861 
L 74.138938 87.900215 
L 74.235257 87.687595 
L 74.298234 87.590949 
L 74.403814 87.185037 
L 74.427894 87.088391 
L 74.535326 86.663149 
L 74.574224 86.566503 
L 74.674248 86.257237 
L 74.705736 86.160591 
L 74.815021 85.851324 
L 74.881703 85.754679 
L 74.990988 85.368095 
L 75.028033 85.27145 
L 75.137318 84.846208 
L 75.170659 84.749562 
L 75.276239 84.459625 
L 75.363296 84.362979 
L 75.454058 84.073042 
L 75.522593 83.976396 
L 75.631877 83.551154 
L 75.642991 83.512496 
L 75.735605 83.20323 
L 75.802287 83.106584 
L 75.894901 82.932621 
L 75.983811 82.835975 
L 76.089391 82.642684 
L 76.144959 82.546038 
L 76.252392 82.198113 
L 76.32463 82.101467 
L 76.38946 81.850188 
L 76.480222 81.753543 
L 76.585802 81.540922 
L 76.671007 81.444276 
L 76.780292 81.038364 
L 76.837712 80.941718 
L 76.930327 80.729097 
L 77.000713 80.632451 
L 77.078509 80.342514 
L 77.182237 80.245868 
L 77.289669 80.013918 
L 77.334124 79.917272 
L 77.439704 79.723981 
L 77.456375 79.627335 
L 77.554545 79.337397 
L 77.641603 79.240752 
L 77.749035 78.892827 
L 77.797194 78.796181 
L 77.906479 78.486914 
L 77.943525 78.390269 
L 78.047252 78.11966 
L 78.106525 78.023015 
L 78.21581 77.810394 
L 78.293606 77.713748 
L 78.393629 77.462469 
L 78.480686 77.365823 
L 78.584414 77.075886 
L 78.632573 76.998569 
L 78.728892 76.689303 
L 78.78446 76.611986 
L 78.893745 76.264061 
L 78.936348 76.167415 
L 79.017848 75.761503 
L 79.112314 75.664857 
L 79.217894 75.471565 
L 79.301247 75.37492 
L 79.408679 75.084982 
L 79.447577 74.988336 
L 79.556862 74.640412 
L 79.580942 74.543766 
L 79.684669 74.350474 
L 79.714306 74.253828 
L 79.799511 74.079866 
L 79.851375 73.98322 
L 79.958807 73.770599 
L 80.040307 73.693283 
L 80.142183 73.442004 
L 80.184785 73.345358 
L 80.273695 73.05542 
L 80.31815 72.958775 
L 80.420025 72.494875 
L 80.486707 72.398229 
L 80.588583 72.185608 
L 80.636742 72.088962 
L 80.746027 71.760367 
L 80.820118 71.663721 
L 80.914584 71.354454 
L 81.034983 71.257809 
L 81.140563 70.871225 
L 81.18687 70.813238 
L 81.29245 70.5233 
L 81.34987 70.426655 
L 81.457303 70.040071 
L 81.518428 69.943426 
L 81.624008 69.750134 
L 81.683281 69.653488 
L 81.790713 69.402209 
L 81.824055 69.324892 
L 81.924078 68.976968 
L 81.996317 68.880322 
L 82.064851 68.706359 
L 82.179693 68.609714 
L 82.238966 68.551726 
L 82.337137 68.45508 
L 82.427898 68.22313 
L 82.474205 68.126485 
L 82.566819 67.894535 
L 82.637206 67.797889 
L 82.744638 67.411306 
L 82.765014 67.31466 
L 82.857628 67.102039 
L 82.946537 67.005393 
L 83.033594 66.812102 
L 83.092867 66.734785 
L 83.2003 66.483506 
L 83.226232 66.38686 
L 83.335516 66.096923 
L 83.368857 66.000277 
L 83.472585 65.633023 
L 83.559642 65.536377 
L 83.667075 65.149794 
L 83.711529 65.072477 
L 83.811553 64.801869 
L 83.896758 64.724552 
L 84.002338 64.395957 
L 84.078281 64.31864 
L 84.172748 64.067361 
L 84.259805 63.970715 
L 84.367237 63.642119 
L 84.417249 63.545474 
L 84.520977 63.236207 
L 84.593216 63.15889 
L 84.691386 62.888282 
L 84.733989 62.810966 
L 84.839569 62.463041 
L 84.941444 62.385724 
L 85.050729 62.173103 
L 85.141491 62.076457 
L 85.248923 61.767191 
L 85.339685 61.670545 
L 85.44897 61.206645 
L 85.536027 61.109999 
L 85.617527 60.936037 
L 85.682357 60.85872 
L 85.78238 60.530125 
L 85.852767 60.452808 
L 85.945381 60.259516 
L 86.034291 60.162871 
L 86.139871 59.988908 
L 86.225076 59.892262 
L 86.326951 59.698971 
L 86.388076 59.602325 
L 86.497361 59.370375 
L 86.556634 59.273729 
L 86.652953 58.964463 
L 86.69926 58.867817 
L 86.802987 58.732513 
L 86.891897 58.635867 
L 86.995625 58.423246 
L 87.025261 58.3266 
L 87.125284 58.11398 
L 87.193819 58.017334 
L 87.293842 57.88203 
L 87.366081 57.785384 
L 87.471661 57.572763 
L 87.545752 57.476117 
L 87.640219 57.224838 
L 87.723571 57.128192 
L 87.832856 56.95423 
L 87.912504 56.876913 
L 88.005118 56.625634 
L 88.082914 56.528988 
L 88.138482 56.374355 
L 88.264438 56.277709 
L 88.349643 56.084418 
L 88.420029 56.007101 
L 88.525609 55.775151 
L 88.597848 55.678505 
L 88.703428 55.504543 
L 88.779372 55.407897 
L 88.879395 55.098631 
L 88.962748 55.001985 
L 89.042396 54.866681 
L 89.151681 54.770035 
L 89.24059 54.65406 
L 89.294306 54.557414 
L 89.398034 54.383452 
L 89.45175 54.286806 
L 89.551773 53.977539 
L 89.611046 53.880893 
L 89.68699 53.803577 
L 89.777752 53.706931 
L 89.885184 53.416994 
L 89.903707 53.320348 
L 90.007435 53.04974 
L 90.061151 52.953094 
L 90.166731 52.721144 
L 90.270459 52.624498 
L 90.377891 52.431206 
L 90.492732 52.334561 
L 90.600165 52.257244 
L 90.63721 52.179927 
L 90.744643 51.928648 
L 90.770575 51.832003 
L 90.835404 51.619382 
L 91.015076 51.522736 
L 91.113247 51.252128 
L 91.165111 51.155482 
L 91.248463 50.904203 
L 91.333668 50.807557 
L 91.439248 50.652924 
L 91.478146 50.556278 
L 91.572613 50.382315 
L 91.702272 50.28567 
L 91.798591 49.918416 
L 91.898614 49.82177 
L 91.996785 49.58982 
L 92.013456 49.551162 
L 92.120888 49.319212 
L 92.246843 49.222566 
L 92.350571 48.990616 
L 92.402435 48.89397 
L 92.508015 48.739337 
L 92.583958 48.642691 
L 92.626561 48.546045 
L 92.750664 48.449399 
L 92.854391 48.372083 
L 92.945153 48.275437 
L 93.035915 48.082145 
L 93.135938 47.9855 
L 93.230405 47.695562 
L 93.348951 47.598916 
L 93.439712 47.424954 
L 93.524917 47.328308 
L 93.634202 47.212333 
L 93.728668 47.115687 
L 93.826839 46.922396 
L 93.937976 46.82575 
L 94.034295 46.632458 
L 94.206557 46.535813 
L 94.315842 46.265204 
L 94.393637 46.168559 
L 94.502922 45.936609 
L 94.569604 45.839963 
L 94.627025 45.666 
L 94.773355 45.569355 
L 94.878935 45.395392 
L 94.980811 45.298746 
L 95.088243 45.066796 
L 95.136402 44.970151 
L 95.241982 44.873505 
L 95.297551 44.776859 
L 95.384608 44.583567 
L 95.467961 44.486922 
L 95.562427 44.332288 
L 95.625405 44.235643 
L 95.725428 44.158326 
L 95.784701 44.06168 
L 95.890281 43.771743 
L 95.975486 43.675097 
L 96.066248 43.481805 
L 96.177385 43.404489 
L 96.271851 43.269185 
L 96.323715 43.172539 
L 96.432999 42.843943 
L 96.466341 42.747297 
L 96.557102 42.611993 
L 96.681205 42.515347 
L 96.788638 42.283397 
L 96.842354 42.186752 
L 96.884956 42.070777 
L 96.988684 41.974131 
L 97.092412 41.742181 
L 97.183173 41.645535 
L 97.18873 41.606877 
L 97.398038 41.510231 
L 97.485095 41.336269 
L 97.577709 41.239623 
L 97.68329 41.046331 
L 97.744415 40.949685 
L 97.851847 40.717735 
L 97.916677 40.62109 
L 98.025962 40.331152 
L 98.138951 40.234506 
L 98.235269 40.137861 
L 98.285281 40.041215 
L 98.377895 39.828594 
L 98.444577 39.731948 
L 98.548305 39.596644 
L 98.639067 39.499998 
L 98.720567 39.422682 
L 98.82059 39.326036 
L 98.911352 39.113415 
L 99.018785 39.016769 
L 99.128069 38.881465 
L 99.166967 38.784819 
L 99.252172 38.591528 
L 99.324411 38.494882 
L 99.391093 38.378907 
L 99.544833 38.282261 
L 99.654117 38.011653 
L 99.73747 37.915007 
L 99.830084 37.721716 
L 99.891209 37.644399 
L 99.970857 37.489766 
L 100.063471 37.39312 
L 100.172756 37.257816 
L 100.270927 37.16117 
L 100.367246 36.909891 
L 100.491348 36.832574 
L 100.598781 36.639283 
L 100.648792 36.542637 
L 100.741406 36.291358 
L 100.843282 36.214041 
L 100.926635 36.020749 
L 101.000726 35.962762 
L 101.104454 35.7888 
L 101.145204 35.692154 
L 101.250784 35.440875 
L 101.308205 35.344229 
L 101.397114 35.054291 
L 101.454535 34.957646 
L 101.554558 34.803012 
L 101.602717 34.706367 
L 101.699036 34.532404 
L 101.797207 34.435758 
L 101.854628 34.358442 
L 101.997253 34.261796 
L 102.09172 34.068504 
L 102.212118 33.971858 
L 102.306584 33.778567 
L 102.412164 33.681921 
L 102.51404 33.430642 
L 102.614063 33.333996 
L 102.717791 33.140705 
L 102.778916 33.063388 
L 102.888201 32.889426 
L 102.954883 32.812109 
L 103.060463 32.522171 
L 103.164191 32.425526 
L 103.267919 32.270892 
L 103.414249 32.174247 
L 103.521681 32.09693 
L 103.597625 32.000284 
L 103.695796 31.826322 
L 103.843978 31.729676 
L 103.949558 31.594372 
L 104.031059 31.497726 
L 104.136639 31.285105 
L 104.225548 31.188459 
L 104.325571 30.975839 
L 104.48672 30.879193 
L 104.581186 30.72456 
L 104.703437 30.627914 
L 104.810869 30.415293 
L 104.894222 30.337976 
L 104.964608 30.164014 
L 105.066484 30.067368 
L 105.168359 29.893406 
L 105.244303 29.79676 
L 105.344326 29.622797 
L 105.464724 29.526152 
L 105.570305 29.294202 
L 105.644396 29.197556 
L 105.751828 29.081581 
L 105.84259 29.004264 
L 105.951875 28.810973 
L 106.003738 28.714327 
L 106.107466 28.521035 
L 106.209342 28.42439 
L 106.274172 28.231098 
L 106.344558 28.153781 
L 106.414945 28.018477 
L 106.566832 27.921831 
L 106.663151 27.825186 
L 106.726128 27.72854 
L 106.80022 27.515919 
L 106.9058 27.419273 
L 107.015084 27.187323 
L 107.170676 27.090677 
L 107.265142 26.974702 
L 107.387393 26.878057 
L 107.494825 26.80074 
L 107.522609 26.704094 
L 107.611519 26.549461 
L 107.672644 26.472144 
L 107.780076 26.278853 
L 107.902327 26.182207 
L 107.9616 26.008244 
L 108.076442 25.911599 
L 108.170908 25.737636 
L 108.465421 25.64099 
L 108.543216 25.544345 
L 108.667319 25.447699 
L 108.771047 25.235078 
L 109.019253 25.138432 
L 109.108162 25.022457 
L 109.261902 24.945141 
L 109.332288 24.771178 
L 109.571233 24.674532 
L 109.660142 24.616545 
L 109.878712 24.519899 
L 109.963916 24.365266 
L 110.149145 24.26862 
L 110.258429 24.171974 
L 110.360305 24.075328 
L 110.412169 24.03667 
L 110.447362 24.03667 
L 110.643704 23.978683 
L 110.671488 23.901366 
L 111.010456 23.80472 
L 111.112331 23.708074 
L 111.373503 23.611429 
L 111.438333 23.553441 
L 111.699504 23.456795 
L 111.756925 23.418137 
L 111.982903 23.321491 
L 112.049586 23.282833 
L 112.255189 23.186187 
L 112.360769 23.012225 
L 112.468201 22.915579 
L 112.571929 22.838262 
L 112.673804 22.741616 
L 112.779384 22.6643 
L 113.064636 22.567654 
L 113.164659 22.393692 
L 113.435092 22.297046 
L 113.544377 22.2004 
L 113.701821 22.103754 
L 113.701821 22.084425 
L 113.957436 21.987779 
L 114.05005 21.910463 
L 114.311221 21.813817 
L 114.333449 21.775158 
L 114.74836 21.678513 
L 114.790962 21.620525 
L 114.978043 21.523879 
L 115.042873 21.485221 
L 115.402215 21.388575 
L 115.418886 21.349917 
L 115.637455 21.253271 
L 115.730069 21.156625 
L 115.967161 21.059979 
L 116.076446 20.982663 
L 116.306129 20.886017 
L 116.359845 20.750713 
L 116.406152 20.750713 
L 116.663619 20.654067 
L 116.745119 20.59608 
L 116.995177 20.499434 
L 117.080382 20.402788 
L 117.430464 20.306142 
L 117.474918 20.267484 
L 117.636067 20.170838 
L 117.636067 20.151509 
L 118.176933 20.054863 
L 118.252877 19.977547 
L 118.552946 19.880901 
L 118.643708 19.803584 
L 118.967857 19.706938 
L 119.053062 19.648951 
L 119.334609 19.552305 
L 119.34387 19.513647 
L 119.714327 19.417001 
L 119.769895 19.339684 
L 120.06626 19.243038 
L 120.157022 19.185051 
L 120.562672 19.088405 
L 120.664547 18.991759 
L 120.975731 18.895114 
L 121.031299 18.817797 
L 121.279505 18.721151 
L 121.361005 18.643834 
L 121.711086 18.547189 
L 121.777768 18.469872 
L 122.14452 18.373226 
L 122.226021 18.257251 
L 122.661307 18.160605 
L 122.739103 18.102618 
L 122.989161 18.005972 
L 123.089184 17.947985 
L 123.368878 17.851339 
L 123.45964 17.793351 
L 123.5893 17.696706 
L 123.683766 17.638718 
L 123.952347 17.542072 
L 124.026438 17.464756 
L 124.317247 17.36811 
L 124.341326 17.329452 
L 124.702521 17.232806 
L 124.782169 17.194147 
L 125.045193 17.097502 
L 125.137807 17.020185 
L 125.686083 16.923539 
L 125.734242 16.865552 
L 126.056539 16.768906 
L 126.084323 16.691589 
L 126.364018 16.594943 
L 126.364018 16.575614 
L 126.673349 16.478969 
L 126.673349 16.459639 
L 127.030839 16.362994 
L 127.114192 16.324335 
L 127.588376 16.227689 
L 127.658763 16.189031 
L 128.195924 16.092385 
L 128.195924 16.073056 
L 128.757166 15.97641 
L 128.836814 15.899094 
L 129.740727 15.802448 
L 129.740727 15.783119 
L 130.915074 15.686473 
L 130.915074 15.667144 
L 131.687475 15.570498 
L 131.687475 15.551169 
L 132.237603 15.454523 
L 132.322808 15.415865 
L 133.004447 15.319219 
L 133.10447 15.203244 
L 133.502711 15.106598 
L 133.606439 15.048611 
L 134.690023 14.951965 
L 134.690023 14.932636 
L 270.191831 14.874648 
L 270.191831 14.874648 
" clip-path="url(#p3c8a70c31e)" style="fill: none; stroke: #a5a58d; stroke-width: 2; stroke-linecap: square"/>
   </g>
   <g id="line2d_15">
    <path d="M 48.051404 243.751234 
L 48.160689 238.068461 
L 48.162541 238.068461 
L 48.271826 234.028667 
L 48.27553 233.932021 
L 48.384815 230.646064 
L 48.390372 230.568747 
L 48.499656 228.017298 
L 48.505213 227.920652 
L 48.614498 224.789328 
L 48.618202 224.75067 
L 48.725635 221.542029 
L 48.733044 221.445383 
L 48.842329 218.971251 
L 48.847885 218.893934 
L 48.95717 216.439131 
L 48.966431 216.361814 
L 49.072011 214.680177 
L 49.083125 214.583531 
L 49.19241 212.76659 
L 49.194262 212.76659 
L 49.301694 210.215141 
L 49.31466 210.137825 
L 49.42024 208.63015 
L 49.436911 208.533504 
L 49.546196 206.56193 
L 49.561014 206.484613 
L 49.670298 204.609685 
L 49.677708 204.513039 
L 49.786992 202.541465 
L 49.794401 202.444819 
L 49.899981 201.207753 
L 49.909243 201.130436 
L 50.018527 199.584103 
L 50.027789 199.487457 
L 50.137073 197.82515 
L 50.146335 197.767162 
L 50.146335 197.728504 
L 50.253767 196.008208 
L 50.266733 195.96955 
L 50.376018 194.113951 
L 50.383427 194.017305 
L 50.492711 192.316339 
L 50.509382 192.239022 
L 50.616814 191.040614 
L 50.622371 191.040614 
L 50.731656 189.455623 
L 50.740917 189.358977 
L 50.850202 188.025265 
L 50.866872 187.947949 
L 50.976157 186.440274 
L 50.981714 186.343628 
L 51.089146 185.183879 
L 51.105817 185.087233 
L 51.213249 183.985471 
L 51.22251 183.927483 
L 51.329943 182.245846 
L 51.331795 182.245846 
L 51.896741 177.413556 
L 51.920821 177.316911 
L 52.026401 176.195819 
L 52.046776 176.099173 
L 52.15606 174.707474 
L 52.167174 174.649486 
L 52.276459 173.64437 
L 52.287572 173.547724 
L 52.396857 172.349316 
L 52.400561 172.329987 
L 52.400561 172.252671 
L 52.506141 171.189567 
L 52.515403 171.11225 
L 52.624688 170.261767 
L 52.639506 170.18445 
L 52.74879 169.198663 
L 52.776575 169.102017 
L 52.885859 168.038914 
L 52.906234 167.961597 
L 53.015519 167.014468 
L 53.026633 166.917822 
L 53.135917 165.680756 
L 53.15444 165.603439 
L 53.263725 164.617652 
L 53.2841 164.521006 
L 53.391532 163.825157 
L 53.402646 163.728511 
L 53.51193 162.646078 
L 53.524896 162.568761 
L 53.630476 161.235049 
L 53.673079 161.157733 
L 53.782364 160.191275 
L 53.799034 160.094629 
L 53.908319 159.398779 
L 53.913876 159.37945 
L 54.02316 158.026409 
L 54.054649 157.929763 
L 54.162081 157.021292 
L 54.186161 156.924647 
L 54.293593 156.209468 
L 54.306559 156.132151 
L 54.410287 155.049718 
L 54.415844 155.049718 
L 54.862244 151.531811 
L 54.878914 151.435165 
L 54.984494 150.797303 
L 54.99746 150.719986 
L 55.106745 150.024136 
L 55.14379 149.927491 
L 55.249371 148.941703 
L 55.277155 148.845058 
L 55.384587 148.052562 
L 55.412371 147.994575 
L 55.521656 147.279396 
L 55.529065 147.221408 
L 55.636497 146.370925 
L 55.662429 146.274279 
L 55.768009 145.443125 
L 55.795794 145.34648 
L 55.888408 144.631301 
L 55.921749 144.534655 
L 56.031033 143.684172 
L 56.056965 143.587526 
L 56.158841 142.949664 
L 56.192182 142.853018 
L 56.297762 142.215156 
L 56.321842 142.157168 
L 56.429274 141.403331 
L 56.451501 141.306685 
L 56.542263 140.533519 
L 56.575604 140.436873 
L 56.681184 139.605719 
L 56.705264 139.509073 
L 56.812696 138.619932 
L 56.846037 138.561944 
L 56.951617 137.866095 
L 56.984958 137.769449 
L 57.094243 137.189574 
L 57.114618 137.092928 
L 57.223903 136.397078 
L 57.24613 136.319762 
L 57.349858 135.295316 
L 57.39246 135.19867 
L 57.492484 134.425504 
L 57.527677 134.328858 
L 57.636962 133.555692 
L 57.649927 133.459046 
L 57.755508 132.705209 
L 57.770326 132.627892 
L 57.87961 131.99003 
L 57.890724 131.893384 
L 57.994452 131.158876 
L 58.012975 131.06223 
L 58.122259 130.501685 
L 58.163009 130.405039 
L 58.26859 129.844493 
L 58.283408 129.767176 
L 58.385283 129.013339 
L 58.411215 128.916693 
L 58.5205 128.317489 
L 58.533466 128.259502 
L 58.64275 127.544323 
L 58.668682 127.447677 
L 58.774262 126.69384 
L 58.803899 126.616523 
L 58.911331 125.959332 
L 58.937263 125.862686 
L 59.040991 125.031532 
L 59.065071 124.954216 
L 59.166946 124.258366 
L 59.196583 124.16172 
L 59.305867 123.485199 
L 59.337356 123.388554 
L 59.446641 122.673375 
L 59.472573 122.596058 
L 59.581857 122.364108 
L 59.60038 122.267462 
L 59.709665 121.552283 
L 59.748563 121.455638 
L 59.85229 120.875763 
L 59.880075 120.779117 
L 59.989359 120.199242 
L 60.000473 120.179913 
L 60.107905 119.677355 
L 60.141246 119.580709 
L 60.250531 118.691568 
L 60.28202 118.614251 
L 60.391304 117.95706 
L 60.415384 117.899072 
L 60.519112 117.338526 
L 60.53393 117.241881 
L 60.643215 116.391398 
L 60.689522 116.294752 
L 60.793249 115.753535 
L 60.828443 115.656889 
L 60.93217 115.231648 
L 60.950693 115.135002 
L 61.056273 114.671102 
L 61.108137 114.574457 
L 61.21557 113.936594 
L 61.25632 113.839948 
L 61.347082 113.588669 
L 61.371161 113.511353 
L 61.474889 112.89282 
L 61.491559 112.815503 
L 61.593435 112.158311 
L 61.619367 112.061666 
L 61.728652 111.636424 
L 61.756436 111.539778 
L 61.86572 110.940574 
L 61.895357 110.843929 
L 61.986119 110.283383 
L 62.03613 110.206066 
L 62.145415 109.742166 
L 62.173199 109.645521 
L 62.282484 109.239608 
L 62.334348 109.142963 
L 62.426962 108.582417 
L 62.473269 108.485771 
L 62.582553 108.176504 
L 62.614042 108.099188 
L 62.721474 107.519313 
L 62.730736 107.499984 
L 62.84002 106.862122 
L 62.891884 106.765476 
L 62.999317 106.340234 
L 63.028953 106.262918 
L 63.138238 105.760359 
L 63.175283 105.663714 
L 63.280864 105.335118 
L 63.304943 105.238472 
L 63.410523 104.813231 
L 63.442012 104.735914 
L 63.547592 104.233356 
L 63.597604 104.156039 
L 63.705036 103.44086 
L 63.729116 103.344214 
L 63.8384 102.918973 
L 63.853219 102.860985 
L 63.956946 102.416415 
L 64.006958 102.319769 
L 64.116243 101.797882 
L 64.151436 101.701236 
L 64.258868 101.314653 
L 64.292209 101.237336 
L 64.399642 100.754107 
L 64.425574 100.657461 
L 64.527449 100.386853 
L 64.594131 100.290207 
L 64.688598 99.903624 
L 64.718234 99.845636 
L 64.827519 99.362407 
L 64.855303 99.265762 
L 64.964587 98.956495 
L 64.990519 98.898508 
L 65.086838 98.531254 
L 65.118327 98.434608 
L 65.227611 97.990037 
L 65.277623 97.893391 
L 65.385055 97.46815 
L 65.472113 97.371504 
L 65.581397 97.00425 
L 65.633261 96.907604 
L 65.740693 96.501692 
L 65.774035 96.405046 
L 65.87591 96.018463 
L 65.937035 95.921817 
L 66.044468 95.61255 
L 66.057434 95.515905 
L 66.164866 95.16798 
L 66.196355 95.071334 
L 66.29823 94.684751 
L 66.313048 94.607434 
L 66.422333 94.259509 
L 66.455674 94.162863 
L 66.555697 93.582989 
L 66.583482 93.486343 
L 66.677948 92.983785 
L 66.716846 92.887139 
L 66.818721 92.597201 
L 66.855767 92.500556 
L 66.959495 91.978668 
L 67.007654 91.882022 
L 67.10953 91.360135 
L 67.183621 91.263489 
L 67.291053 90.954223 
L 67.36144 90.857577 
L 67.446645 90.509652 
L 67.494804 90.413006 
L 67.604089 89.929777 
L 67.631873 89.833131 
L 67.735601 89.427219 
L 67.778203 89.330573 
L 67.878226 89.021307 
L 67.933795 88.924661 
L 68.041227 88.518749 
L 68.076421 88.422103 
L 68.183853 88.112836 
L 68.215342 88.01619 
L 68.324626 87.706924 
L 68.374638 87.610278 
L 68.483923 87.262353 
L 68.545048 87.165707 
L 68.643219 86.759795 
L 68.724719 86.663149 
L 68.834004 86.315224 
L 68.874754 86.218579 
L 68.982186 85.71602 
L 69.015527 85.619375 
L 69.124812 85.194133 
L 69.158153 85.097487 
L 69.263733 84.768891 
L 69.298926 84.672246 
L 69.397097 84.247004 
L 69.443404 84.150358 
L 69.534166 83.841092 
L 69.595291 83.744446 
L 69.687906 83.435179 
L 69.749031 83.338534 
L 69.845349 83.125913 
L 69.945373 83.029267 
L 70.050953 82.893963 
L 70.112078 82.797317 
L 70.215806 82.410734 
L 70.269522 82.314088 
L 70.375102 81.966163 
L 70.449193 81.869517 
L 70.554773 81.405618 
L 70.597376 81.308972 
L 70.693694 80.961047 
L 70.723331 80.88373 
L 70.828911 80.555135 
L 70.906707 80.458489 
L 70.984503 80.303855 
L 71.040071 80.20721 
L 71.145651 79.917272 
L 71.182697 79.820626 
L 71.288277 79.550018 
L 71.329027 79.453372 
L 71.421641 78.950814 
L 71.480914 78.854168 
L 71.57538 78.544902 
L 71.653176 78.448256 
L 71.74579 78.158319 
L 71.836552 78.061673 
L 71.942132 77.67509 
L 71.990292 77.578444 
L 72.099576 77.346494 
L 72.129213 77.249848 
L 72.236645 76.863265 
L 72.327407 76.766619 
L 72.431135 76.399365 
L 72.484851 76.302719 
L 72.581169 76.090099 
L 72.671931 75.993453 
L 72.779364 75.742174 
L 72.820114 75.645528 
L 72.912728 75.394249 
L 72.988671 75.297603 
L 73.096104 74.891691 
L 73.135002 74.795045 
L 73.238729 74.485778 
L 73.292446 74.389132 
L 73.396173 74.079866 
L 73.438776 73.98322 
L 73.54806 73.673954 
L 73.583254 73.615966 
L 73.692538 73.210054 
L 73.724027 73.132737 
L 73.818493 72.939445 
L 73.87221 72.8428 
L 73.974085 72.533533 
L 73.988903 72.456216 
L 74.088927 72.185608 
L 74.129677 72.108292 
L 74.238961 71.857012 
L 74.31861 71.760367 
L 74.422337 71.470429 
L 74.468644 71.373783 
L 74.577929 71.083846 
L 74.642759 70.9872 
L 74.739077 70.813238 
L 74.770566 70.75525 
L 74.872442 70.407325 
L 74.940976 70.31068 
L 75.048408 70.040071 
L 75.126204 69.943426 
L 75.22808 69.730805 
L 75.276239 69.634159 
L 75.372558 69.38288 
L 75.461467 69.286234 
L 75.570752 69.054284 
L 75.618911 68.957638 
L 75.71523 68.68703 
L 75.805992 68.590384 
L 75.904163 68.377764 
L 75.954174 68.281118 
L 76.061607 67.913864 
L 76.141255 67.817218 
L 76.235721 67.604597 
L 76.285733 67.507951 
L 76.370938 67.179356 
L 76.439472 67.08271 
L 76.548757 66.734785 
L 76.6247 66.638139 
L 76.733985 66.444848 
L 76.776587 66.348202 
L 76.882167 66.232227 
L 76.971077 66.135581 
L 77.061839 65.942289 
L 77.102589 65.845644 
L 77.20076 65.613694 
L 77.232248 65.517048 
L 77.337829 65.285098 
L 77.385988 65.188452 
L 77.460079 64.975831 
L 77.53417 64.879186 
L 77.632341 64.608577 
L 77.673091 64.511932 
L 77.780524 64.241323 
L 77.808308 64.144678 
L 77.880547 63.951386 
L 77.989832 63.85474 
L 78.093559 63.62279 
L 78.13431 63.526144 
L 78.225071 63.15889 
L 78.267674 63.062245 
L 78.376958 62.772307 
L 78.401038 62.675661 
L 78.510323 62.308407 
L 78.558482 62.211762 
L 78.665914 61.999141 
L 78.764085 61.902495 
L 78.841881 61.728533 
L 78.923382 61.631887 
L 79.00303 61.341949 
L 79.116019 61.245304 
L 79.216042 61.052012 
L 79.306804 60.955366 
L 79.399418 60.742745 
L 79.527225 60.665429 
L 79.634658 60.491466 
L 79.692078 60.39482 
L 79.799511 60.066225 
L 79.895829 59.969579 
L 79.997705 59.7183 
L 80.149592 59.621654 
L 80.257024 59.293058 
L 80.368161 59.196413 
L 80.455218 59.02245 
L 80.508935 58.925804 
L 80.601549 58.751842 
L 80.679345 58.655196 
L 80.786777 58.500563 
L 80.842345 58.403917 
L 80.940516 58.191296 
L 81.001642 58.11398 
L 81.083142 57.920688 
L 81.164642 57.824042 
L 81.262813 57.611421 
L 81.360984 57.553434 
L 81.470269 57.321484 
L 81.601781 57.224838 
L 81.709213 57.089534 
L 81.88518 56.992888 
L 81.981498 56.72228 
L 82.061147 56.625634 
L 82.170431 56.451672 
L 82.274159 56.355026 
L 82.381591 56.161734 
L 82.429751 56.065089 
L 82.511251 55.833139 
L 82.58349 55.755822 
L 82.681661 55.543201 
L 82.746491 55.446555 
L 82.8354 55.233935 
L 82.929867 55.137289 
L 83.026185 54.982656 
L 83.09472 54.88601 
L 83.202152 54.634731 
L 83.246607 54.557414 
L 83.352187 54.364123 
L 83.417017 54.267477 
L 83.500369 54.19016 
L 83.578165 54.093514 
L 83.683745 53.784248 
L 83.841189 53.687602 
L 83.948622 53.416994 
L 84.019008 53.320348 
L 84.126441 53.04974 
L 84.222759 52.953094 
L 84.283884 52.740473 
L 84.369089 52.663156 
L 84.42651 52.508523 
L 84.59692 52.411877 
L 84.676568 52.257244 
L 84.746955 52.160598 
L 84.834012 52.025294 
L 84.880319 51.928648 
L 84.987751 51.793344 
L 85.041468 51.696698 
L 85.137786 51.503407 
L 85.193355 51.406761 
L 85.243366 51.310115 
L 85.44897 51.213469 
L 85.536027 51.058836 
L 85.630493 50.96219 
L 85.728664 50.768899 
L 85.884256 50.672253 
L 85.987984 50.536949 
L 86.054666 50.440303 
L 86.121348 50.362986 
L 86.247303 50.266341 
L 86.343622 50.111707 
L 86.460315 50.015061 
L 86.552929 49.879757 
L 86.702964 49.783112 
L 86.790021 49.609149 
L 86.877079 49.512503 
L 86.986363 49.415857 
L 87.084534 49.319212 
L 87.188262 49.12592 
L 87.273467 49.029274 
L 87.382752 48.777995 
L 87.477218 48.681349 
L 87.580946 48.507387 
L 87.675412 48.410741 
L 87.762469 48.294766 
L 87.851379 48.19812 
L 87.942141 48.024158 
L 88.090323 47.927512 
L 88.149596 47.830866 
L 88.286665 47.734221 
L 88.382984 47.598916 
L 88.497825 47.502271 
L 88.588587 47.463612 
L 88.658974 47.366967 
L 88.755292 47.231662 
L 88.864577 47.135017 
L 88.968305 46.903067 
L 89.131305 46.806421 
L 89.236885 46.632458 
L 89.355431 46.535813 
L 89.462864 46.36185 
L 89.625865 46.265204 
L 89.70366 46.168559 
L 89.881479 46.071913 
L 89.988912 45.975267 
L 90.103753 45.878621 
L 90.19081 45.704659 
L 90.420493 45.627342 
L 90.520517 45.511367 
L 90.794654 45.414721 
L 90.874302 45.356734 
L 90.976178 45.260088 
L 91.031746 45.163442 
L 91.272543 45.066796 
L 91.381828 44.892834 
L 91.59484 44.796188 
L 91.680045 44.699542 
L 91.833784 44.602897 
L 91.931955 44.370947 
L 92.028274 44.274301 
L 92.133854 44.119668 
L 92.209797 44.023022 
L 92.272775 43.965034 
L 92.406139 43.868389 
L 92.489492 43.771743 
L 92.622856 43.675097 
L 92.728436 43.520464 
L 92.789562 43.423818 
L 92.84513 43.346501 
L 93.041472 43.249855 
L 93.085927 43.211197 
L 93.374883 43.114551 
L 93.471201 42.979247 
L 93.641611 42.882601 
L 93.741634 42.766626 
L 93.856476 42.669981 
L 93.913896 42.573335 
L 94.099125 42.476689 
L 94.186182 42.360714 
L 94.393637 42.264068 
L 94.488104 42.148093 
L 94.660366 42.051447 
L 94.745571 41.935472 
L 94.875231 41.838827 
L 94.984515 41.703523 
L 95.123436 41.606877 
L 95.22346 41.510231 
L 95.279028 41.413585 
L 95.38646 41.278281 
L 95.486484 41.181635 
L 95.564279 41.06566 
L 95.72728 40.969014 
L 95.814337 40.795052 
L 96.012532 40.698406 
L 96.121816 40.60176 
L 96.247771 40.505115 
L 96.355204 40.311823 
L 96.492272 40.215177 
L 96.573773 40.021886 
L 96.773819 39.92524 
L 96.881252 39.867252 
L 96.999798 39.770607 
L 97.068332 39.596644 
L 97.244299 39.499998 
L 97.249856 39.46134 
L 97.538812 39.364694 
L 97.562891 39.306707 
L 97.794426 39.22939 
L 97.903711 39.055428 
L 98.072269 38.958782 
L 98.101905 38.862136 
L 98.305656 38.76549 
L 98.400122 38.707503 
L 98.477918 38.610857 
L 98.583498 38.514211 
L 98.789102 38.417565 
L 98.892829 38.30159 
L 99.183638 38.204945 
L 99.287365 38.08897 
L 99.387389 37.992324 
L 99.491116 37.818361 
L 99.674492 37.721716 
L 99.768959 37.586411 
L 99.880095 37.489766 
L 99.985676 37.296474 
L 100.304268 37.199828 
L 100.398734 37.025866 
L 100.67102 36.92922 
L 100.748816 36.851903 
L 100.913669 36.755258 
L 101.009987 36.658612 
L 101.178545 36.561966 
L 101.285977 36.46532 
L 101.502694 36.368674 
L 101.591604 36.23337 
L 101.6694 36.194712 
L 101.765718 36.078737 
L 101.915753 35.982091 
L 101.999106 35.904775 
L 102.115799 35.808129 
L 102.21397 35.653495 
L 102.336221 35.55685 
L 102.336221 35.53752 
L 102.617768 35.440875 
L 102.721495 35.3249 
L 102.89561 35.228254 
L 103.003042 35.170266 
L 103.093804 35.073621 
L 103.180861 35.015633 
L 103.379055 34.918987 
L 103.473522 34.841671 
L 103.584659 34.764354 
L 103.647636 34.687037 
L 103.84583 34.590392 
L 103.916217 34.532404 
L 104.125525 34.435758 
L 104.216287 34.281125 
L 104.518209 34.184479 
L 104.614527 34.049175 
L 104.881256 33.952529 
L 104.981279 33.875213 
L 105.118348 33.778567 
L 105.123905 33.739909 
L 105.422122 33.643263 
L 105.490656 33.604604 
L 105.679589 33.507959 
L 105.77776 33.391984 
L 105.879636 33.295338 
L 105.918533 33.23735 
L 106.424206 33.140705 
L 106.507559 33.063388 
L 106.731685 32.966742 
L 106.837265 32.850767 
L 107.074357 32.754121 
L 107.163267 32.676805 
L 107.361461 32.580159 
L 107.467041 32.502842 
L 107.818974 32.406197 
L 107.89677 32.348209 
L 108.167203 32.251563 
L 108.215363 32.212905 
L 108.593228 32.116259 
L 108.672876 32.038942 
L 109.061855 31.942297 
L 109.145208 31.86498 
L 109.27672 31.768334 
L 109.306357 31.729676 
L 109.654585 31.63303 
L 109.745347 31.517055 
L 109.941689 31.420409 
L 110.017633 31.381751 
L 110.269543 31.285105 
L 110.288066 31.246447 
L 110.639999 31.149801 
L 110.639999 31.130472 
L 110.93266 31.033826 
L 111.040092 30.956509 
L 111.114183 30.859864 
L 111.221616 30.801876 
L 111.517981 30.70523 
L 111.601333 30.589255 
L 111.855096 30.49261 
L 111.908812 30.395964 
L 112.108859 30.299318 
L 112.214439 30.183343 
L 112.412633 30.086697 
L 112.510804 30.009381 
L 112.997954 29.912735 
L 113.049818 29.816089 
L 113.468433 29.719443 
L 113.488808 29.661456 
L 113.968549 29.56481 
L 114.051902 29.468164 
L 114.314926 29.371518 
L 114.400131 29.294202 
L 115.072509 29.197556 
L 115.139191 29.042923 
L 115.339238 28.946277 
L 115.444818 28.830302 
L 115.919002 28.733656 
L 115.961604 28.675669 
L 116.285754 28.579023 
L 116.317242 28.501706 
L 116.828472 28.40506 
L 116.897006 28.327744 
L 117.27302 28.231098 
L 117.350815 28.17311 
L 117.773136 28.076465 
L 117.854636 27.999148 
L 118.215831 27.902502 
L 118.31215 27.825186 
L 118.641856 27.72854 
L 118.68631 27.689881 
L 119.106778 27.612565 
L 119.162347 27.535248 
L 119.664315 27.438602 
L 119.747668 27.361286 
L 120.082931 27.26464 
L 120.082931 27.245311 
L 120.477467 27.148665 
L 120.579342 27.090677 
L 120.744195 26.994032 
L 120.773832 26.955373 
L 121.018333 26.858728 
L 121.077606 26.820069 
L 121.427687 26.723423 
L 121.531415 26.607448 
L 121.825928 26.510803 
L 121.825928 26.491473 
L 122.161191 26.394828 
L 122.200089 26.317511 
L 122.270475 26.317511 
L 122.552022 26.220865 
L 122.615 26.143549 
L 123.01324 26.046903 
L 123.089184 26.008244 
L 123.911597 25.911599 
L 123.965313 25.853611 
L 124.148689 25.756965 
L 124.213519 25.679649 
L 124.924795 25.583003 
L 124.924795 25.563674 
L 125.15633 25.467028 
L 125.263762 25.370382 
L 125.519377 25.273736 
L 125.615696 25.235078 
L 125.704605 25.138432 
L 125.780549 25.061116 
L 126.215835 24.96447 
L 126.319563 24.867824 
L 126.599257 24.771178 
L 126.610371 24.713191 
L 126.977123 24.616545 
L 126.98268 24.558557 
L 127.386477 24.461912 
L 127.423523 24.423253 
L 127.651353 24.326608 
L 127.673581 24.287949 
L 128.10331 24.191303 
L 128.10331 24.171974 
L 128.649733 24.075328 
L 128.658995 24.017341 
L 129.136883 23.920695 
L 129.235054 23.824049 
L 129.244316 23.824049 
L 130.07599 23.727404 
L 130.138968 23.669416 
L 130.592777 23.57277 
L 130.592777 23.553441 
L 130.974347 23.456795 
L 130.983608 23.418137 
L 131.396667 23.321491 
L 131.461497 23.263504 
L 131.811578 23.166858 
L 131.811578 23.147529 
L 132.408013 23.050883 
L 132.433944 22.992895 
L 132.467286 22.992895 
L 133.271176 22.89625 
L 133.291551 22.818933 
L 133.59162 22.722287 
L 133.667564 22.625641 
L 134.152862 22.528996 
L 134.24918 22.413021 
L 134.690023 22.316375 
L 134.690023 22.297046 
L 134.797456 22.297046 
L 135.319799 22.2004 
L 135.427232 22.161742 
L 135.766199 22.065096 
L 135.86437 21.987779 
L 136.60343 21.891133 
L 136.688635 21.852475 
L 137.149853 21.755829 
L 137.216536 21.717171 
L 137.703686 21.620525 
L 137.805561 21.562538 
L 138.489053 21.465892 
L 138.592781 21.388575 
L 139.200329 21.291929 
L 139.265159 21.253271 
L 139.687479 21.156625 
L 139.793059 21.098638 
L 140.36171 21.001992 
L 140.36171 20.982663 
L 141.284146 20.886017 
L 141.332305 20.82803 
L 141.567545 20.731384 
L 141.619409 20.692725 
L 142.213991 20.59608 
L 142.304753 20.538092 
L 142.525175 20.460776 
L 142.525175 20.422117 
L 143.132723 20.325471 
L 143.15495 20.286813 
L 143.236451 20.286813 
L 143.630987 20.190167 
L 143.697669 20.151509 
L 144.066273 20.054863 
L 144.086648 20.016205 
L 144.781254 19.919559 
L 144.868311 19.880901 
L 146.109339 19.784255 
L 146.188988 19.745597 
L 146.50758 19.648951 
L 146.50758 19.629622 
L 147.276277 19.532976 
L 147.276277 19.513647 
L 148.389498 19.417001 
L 148.411725 19.378343 
L 150.234371 19.281697 
L 150.291791 19.243038 
L 151.028999 19.146393 
L 151.028999 19.127063 
L 151.484661 19.030418 
L 151.553195 18.991759 
L 152.218164 18.895114 
L 152.244096 18.856455 
L 153.168385 18.759809 
L 153.203578 18.721151 
L 154.652062 18.624505 
L 154.71504 18.585847 
L 156.037569 18.489201 
L 156.091285 18.450543 
L 157.19154 18.353897 
L 157.241552 18.315239 
L 157.250813 18.315239 
L 157.915782 18.218593 
L 158.013953 18.179935 
L 158.591865 18.083289 
L 158.634468 18.04463 
L 159.597654 17.947985 
L 159.597654 17.928656 
L 159.671745 17.928656 
L 160.351533 17.851339 
L 160.351533 17.812681 
L 161.409185 17.716035 
L 161.457345 17.677376 
L 162.342735 17.580731 
L 162.342735 17.561401 
L 162.359406 17.561401 
L 163.867163 17.464756 
L 163.867163 17.445427 
L 164.337643 17.348781 
L 164.337643 17.329452 
L 165.039657 17.232806 
L 165.110044 17.174818 
L 167.425396 17.078172 
L 167.425396 17.058843 
L 168.525651 16.962198 
L 168.525651 16.942868 
L 169.846328 16.846223 
L 169.846328 16.826893 
L 170.950288 16.730248 
L 170.950288 16.710918 
L 171.589325 16.614273 
L 171.69861 16.575614 
L 174.315884 16.478969 
L 174.349225 16.44031 
L 176.170017 16.343664 
L 176.170017 16.324335 
L 178.064901 16.227689 
L 178.064901 16.20836 
L 180.728482 16.111714 
L 180.728482 16.092385 
L 182.619662 15.99574 
L 182.619662 15.97641 
L 186.900285 15.879765 
L 186.900285 15.860435 
L 189.980629 15.76379 
L 189.980629 15.74446 
L 191.912559 15.647815 
L 191.912559 15.628485 
L 191.975536 15.628485 
L 197.09339 15.53184 
L 197.09339 15.51251 
L 199.112377 15.415865 
L 199.112377 15.396536 
L 210.978093 15.29989 
L 210.978093 15.280561 
L 215.566195 15.183915 
L 215.566195 15.164586 
L 227.065159 15.06794 
L 227.065159 15.048611 
L 246.156625 14.951965 
L 246.156625 14.932636 
L 270.191831 14.874648 
L 270.191831 14.874648 
" clip-path="url(#p3c8a70c31e)" style="fill: none; stroke: #cb997e; stroke-width: 2; stroke-linecap: square"/>
   </g>
   <g id="line2d_16">
    <path d="M 48.051404 243.751234 
L 48.158837 221.638675 
L 48.166246 221.561358 
L 48.27553 216.651752 
L 48.321837 215.047431 
L 48.431122 209.847887 
L 48.436679 209.770571 
L 48.545963 205.63413 
L 48.549668 205.576143 
L 48.658953 202.618781 
L 48.662657 202.580123 
L 48.771942 199.487457 
L 48.773794 199.487457 
L 48.883079 196.143513 
L 48.897897 196.066196 
L 49.007182 193.244139 
L 49.012738 193.166822 
L 49.122023 190.808664 
L 49.123875 190.808664 
L 49.227603 188.527823 
L 49.244274 188.450507 
L 49.349854 185.821741 
L 49.36282 185.725095 
L 49.470252 183.019013 
L 49.475809 182.980354 
L 49.585093 180.912134 
L 49.598059 180.834818 
L 49.701787 178.418673 
L 49.722162 178.341356 
L 49.831447 175.867224 
L 49.837004 175.770578 
L 49.942584 174.030953 
L 49.953697 173.934307 
L 50.06113 171.962733 
L 50.070391 171.904746 
L 50.177824 169.797867 
L 50.198199 169.701221 
L 50.307483 167.90361 
L 50.314892 167.845622 
L 50.424177 166.163985 
L 50.433438 166.067339 
L 50.542723 164.231069 
L 50.563098 164.134423 
L 50.672383 162.510774 
L 50.683496 162.414128 
L 50.792781 160.809808 
L 50.807599 160.713162 
L 50.915032 158.896221 
L 50.924293 158.799575 
L 51.031725 157.07928 
L 51.042839 156.982634 
L 51.152124 155.146364 
L 51.161385 155.049718 
L 51.265113 153.716006 
L 51.279931 153.61936 
L 51.389216 151.937723 
L 51.398477 151.841077 
L 51.505909 150.15944 
L 51.507762 150.15944 
L 51.52258 150.062795 
L 51.631865 148.690424 
L 51.637421 148.593778 
L 51.746706 147.337383 
L 51.755967 147.240737 
L 51.865252 145.675075 
L 51.88007 145.578429 
L 51.989355 144.012768 
L 51.998616 143.916122 
L 52.107901 142.659726 
L 52.117162 142.621068 
L 52.226447 141.712597 
L 52.228299 141.712597 
L 52.337584 140.030961 
L 52.348698 139.953644 
L 52.348698 139.934315 
L 53.263725 129.341935 
L 53.373009 127.718285 
L 53.380418 127.640969 
L 53.489703 126.133294 
L 53.498964 126.036649 
L 53.606397 124.915557 
L 53.621215 124.838241 
L 53.728647 123.678491 
L 53.741613 123.639833 
L 53.849046 122.905325 
L 53.860159 122.808679 
L 53.95833 122.054842 
L 53.976853 121.996854 
L 54.084285 121.011067 
L 54.099104 120.914421 
L 54.208388 120.121926 
L 54.219502 120.02528 
L 54.325082 119.136138 
L 54.334343 119.058822 
L 54.443628 117.93773 
L 54.465855 117.841085 
L 54.571435 116.758652 
L 54.601072 116.681335 
L 54.708504 115.772864 
L 54.730732 115.695548 
L 54.832607 114.787077 
L 54.864096 114.709761 
L 54.971528 113.704644 
L 54.984494 113.607999 
L 55.093779 112.680199 
L 55.106745 112.583553 
L 55.204916 111.868374 
L 55.240109 111.771728 
L 55.334575 110.824599 
L 55.360507 110.824599 
L 55.466087 109.916129 
L 55.495724 109.819483 
L 55.605009 108.73705 
L 55.623531 108.659734 
L 55.730964 107.789921 
L 55.736521 107.712605 
L 55.845805 106.842792 
L 55.84951 106.784805 
L 55.95509 105.644385 
L 55.982874 105.547739 
L 56.086602 104.697256 
L 56.099568 104.60061 
L 56.208852 103.498848 
L 56.229227 103.402202 
L 56.338512 102.513061 
L 56.358887 102.435744 
L 56.468172 101.933186 
L 56.486695 101.855869 
L 56.595979 100.947399 
L 56.614502 100.850753 
L 56.721934 100.096916 
L 56.740457 100.00027 
L 56.849742 99.343078 
L 56.860856 99.285091 
L 56.964583 98.531254 
L 56.990515 98.434608 
L 57.088686 97.816075 
L 57.12388 97.719429 
L 57.223903 97.042908 
L 57.249835 96.946262 
L 57.355415 96.057121 
L 57.366528 95.979804 
L 57.464699 95.206638 
L 57.486927 95.148651 
L 57.592507 94.104876 
L 57.622143 94.00823 
L 57.729576 93.235064 
L 57.751803 93.215735 
L 57.859235 92.577872 
L 57.875906 92.519885 
L 57.975929 92.017327 
L 58.003713 91.959339 
L 58.107441 91.360135 
L 58.13893 91.263489 
L 58.238953 90.683615 
L 58.26118 90.586969 
L 58.36676 89.891119 
L 58.385283 89.794473 
L 58.492716 89.117953 
L 58.513091 89.021307 
L 58.620523 88.209482 
L 58.648307 88.112836 
L 58.757592 87.552291 
L 58.774262 87.455645 
L 58.883547 86.605162 
L 58.905774 86.508516 
L 59.015059 85.638704 
L 59.033582 85.542058 
L 59.141014 84.826879 
L 59.166946 84.749562 
L 59.274378 83.802433 
L 59.287344 83.705788 
L 59.379958 83.1839 
L 59.422561 83.087255 
L 59.528141 82.372076 
L 59.557778 82.294759 
L 59.66521 81.598909 
L 59.683733 81.502263 
L 59.781904 80.767755 
L 59.830063 80.67111 
L 59.933791 80.110564 
L 59.980098 80.013918 
L 60.074564 79.453372 
L 60.115314 79.356727 
L 60.21719 78.757523 
L 60.25794 78.660877 
L 60.365372 78.13899 
L 60.3876 78.061673 
L 60.496884 77.539786 
L 60.511703 77.462469 
L 60.619135 76.959911 
L 60.63951 76.863265 
L 60.746942 76.05144 
L 60.782136 75.954794 
L 60.885863 75.394249 
L 60.917352 75.316932 
L 61.026637 74.717728 
L 61.041455 74.621082 
L 61.148887 74.137853 
L 61.184081 74.060537 
L 61.291513 73.461333 
L 61.319297 73.364687 
L 61.421173 72.8428 
L 61.460071 72.765483 
L 61.565651 72.204937 
L 61.617515 72.108292 
L 61.726799 71.586404 
L 61.765697 71.509088 
L 61.87313 70.813238 
L 61.880539 70.75525 
L 61.936107 70.561959 
L 62.008346 70.503971 
L 62.113926 70.001413 
L 62.149119 69.904767 
L 62.2547 69.498855 
L 62.269518 69.421538 
L 62.373246 69.034955 
L 62.406587 68.938309 
L 62.515871 68.474409 
L 62.556621 68.377764 
L 62.660349 67.913864 
L 62.701099 67.817218 
L 62.810384 67.391976 
L 62.851134 67.295331 
L 62.958567 66.966735 
L 62.999317 66.870089 
L 63.104897 66.270885 
L 63.128976 66.174239 
L 63.234556 65.806985 
L 63.280864 65.71034 
L 63.379034 65.265769 
L 63.417932 65.169123 
L 63.52166 64.879186 
L 63.551297 64.78254 
L 63.653172 64.357298 
L 63.693922 64.260653 
L 63.795798 63.912728 
L 63.827287 63.835411 
L 63.931014 63.487486 
L 63.949537 63.39084 
L 64.053265 63.042915 
L 64.092163 62.94627 
L 64.199595 62.347066 
L 64.253311 62.25042 
L 64.362596 61.883166 
L 64.371857 61.78652 
L 64.477437 61.283962 
L 64.549676 61.187316 
L 64.653404 60.916708 
L 64.684893 60.839391 
L 64.792325 60.452808 
L 64.799734 60.39482 
L 64.892349 60.046896 
L 64.953474 59.95025 
L 65.053497 59.621654 
L 65.08869 59.525008 
L 65.197975 59.061108 
L 65.236873 58.964463 
L 65.346157 58.403917 
L 65.370237 58.307271 
L 65.473965 57.920688 
L 65.529533 57.824042 
L 65.636966 57.456788 
L 65.701796 57.379471 
L 65.792557 57.031547 
L 65.868501 56.934901 
L 65.966672 56.702951 
L 66.018536 56.606305 
L 66.125968 56.316368 
L 66.166718 56.219722 
L 66.276003 55.717164 
L 66.333424 55.620518 
L 66.440856 55.137289 
L 66.457526 55.079301 
L 66.553845 54.789364 
L 66.620527 54.712047 
L 66.707584 54.364123 
L 66.757596 54.267477 
L 66.865028 53.745589 
L 66.902074 53.648944 
L 66.994688 53.320348 
L 67.035438 53.223702 
L 67.141018 52.721144 
L 67.211405 52.624498 
L 67.313281 52.35389 
L 67.350326 52.257244 
L 67.457759 51.967307 
L 67.494804 51.870661 
L 67.592975 51.600053 
L 67.626316 51.503407 
L 67.731896 51.058836 
L 67.791169 50.96219 
L 67.900454 50.594936 
L 67.952318 50.51762 
L 68.052341 50.266341 
L 68.109762 50.169695 
L 68.219046 49.802441 
L 68.287581 49.705795 
L 68.395013 49.222566 
L 68.424649 49.12592 
L 68.53023 48.777995 
L 68.556161 48.700679 
L 68.661742 48.159462 
L 68.708049 48.062816 
L 68.804367 47.676233 
L 68.880311 47.579587 
L 68.989595 47.231662 
L 69.021084 47.135017 
L 69.121107 46.748433 
L 69.172971 46.671117 
L 69.265585 46.342521 
L 69.306336 46.245875 
L 69.410063 45.936609 
L 69.478598 45.839963 
L 69.580473 45.550025 
L 69.615667 45.45338 
L 69.717542 45.22143 
L 69.77311 45.124784 
L 69.865725 44.834847 
L 69.995384 44.738201 
L 70.100964 44.52558 
L 70.134305 44.428934 
L 70.230624 44.274301 
L 70.306568 44.177655 
L 70.414 44.042351 
L 70.47883 43.945705 
L 70.565887 43.752414 
L 70.66591 43.655768 
L 70.773343 43.36583 
L 70.802979 43.269185 
L 70.90115 43.037235 
L 70.938196 42.940589 
L 71.04748 42.611993 
L 71.090083 42.534676 
L 71.197515 42.128764 
L 71.273459 42.032118 
L 71.373482 41.722852 
L 71.417937 41.626206 
L 71.492028 41.336269 
L 71.562415 41.239623 
L 71.669847 40.969014 
L 71.697631 40.872369 
L 71.799507 40.640419 
L 71.881007 40.543773 
L 71.975473 40.369811 
L 72.014371 40.292494 
L 72.106985 40.002556 
L 72.218122 39.905911 
L 72.307032 39.673961 
L 72.381123 39.577315 
L 72.488555 39.287378 
L 72.525601 39.210061 
L 72.608954 39.036098 
L 72.696011 38.939453 
L 72.796034 38.630186 
L 72.909023 38.53354 
L 72.990524 38.32092 
L 73.059058 38.243603 
L 73.164638 37.992324 
L 73.19057 37.895678 
L 73.298002 37.62507 
L 73.346162 37.528424 
L 73.455446 37.315803 
L 73.525833 37.219157 
L 73.633265 36.967878 
L 73.731436 36.890562 
L 73.831459 36.619953 
L 73.868505 36.523308 
L 73.970381 36.272029 
L 74.066699 36.175383 
L 74.16487 35.846787 
L 74.250075 35.750141 
L 74.350098 35.53752 
L 74.42419 35.440875 
L 74.531622 35.247583 
L 74.627941 35.150937 
L 74.71685 34.976975 
L 74.839101 34.880329 
L 74.940976 34.609721 
L 75.015067 34.513075 
L 75.124352 34.281125 
L 75.17992 34.184479 
L 75.272535 34.049175 
L 75.341069 33.952529 
L 75.404047 33.778567 
L 75.526297 33.70125 
L 75.62632 33.488629 
L 75.700412 33.391984 
L 75.809696 33.25668 
L 75.876378 33.160034 
L 75.952322 33.044059 
L 76.070868 32.947413 
L 76.141255 32.889426 
L 76.215346 32.812109 
L 76.300551 32.618817 
L 76.439472 32.522171 
L 76.522825 32.386867 
L 76.658041 32.290222 
L 76.746951 32.077601 
L 76.945145 31.980955 
L 77.054429 31.787663 
L 77.117407 31.691018 
L 77.20076 31.497726 
L 77.308192 31.420409 
L 77.413772 31.130472 
L 77.510091 31.033826 
L 77.524909 30.995168 
L 77.715694 30.898522 
L 77.800899 30.647243 
L 77.941672 30.550597 
L 78.037991 30.395964 
L 78.080593 30.318647 
L 78.184321 30.144685 
L 78.325095 30.048039 
L 78.391777 29.854747 
L 78.536255 29.758102 
L 78.63813 29.584139 
L 78.691846 29.487493 
L 78.801131 29.255543 
L 78.980802 29.158898 
L 79.078973 28.984935 
L 79.216042 28.888289 
L 79.293838 28.772314 
L 79.44202 28.675669 
L 79.517964 28.540364 
L 79.693931 28.443719 
L 79.801363 28.19244 
L 79.88842 28.095794 
L 79.97733 27.863844 
L 80.08291 27.786527 
L 80.173672 27.631894 
L 80.336672 27.535248 
L 80.442252 27.399944 
L 80.48115 27.322627 
L 80.571912 27.110007 
L 80.736765 27.013361 
L 80.836788 26.839398 
L 80.988676 26.742753 
L 81.077585 26.56879 
L 81.190574 26.472144 
L 81.264665 26.33684 
L 81.431371 26.240194 
L 81.501758 26.124219 
L 81.672167 26.027574 
L 81.73144 25.969586 
L 81.998169 25.87294 
L 82.035215 25.795624 
L 82.326023 25.718307 
L 82.420489 25.602332 
L 82.568672 25.505686 
L 82.6724 25.389711 
L 82.887264 25.293066 
L 82.98914 25.138432 
L 83.194743 25.041786 
L 83.296618 24.867824 
L 83.357744 24.771178 
L 83.437392 24.693862 
L 83.630029 24.597216 
L 83.739314 24.384595 
L 83.804144 24.307278 
L 83.913428 24.133316 
L 84.035679 24.03667 
L 84.113475 23.940024 
L 84.319078 23.843379 
L 84.415396 23.746733 
L 84.719171 23.650087 
L 84.817342 23.456795 
L 84.824751 23.456795 
L 84.945149 23.36015 
L 85.034059 23.224845 
L 85.197059 23.1282 
L 85.285969 22.992895 
L 85.53047 22.89625 
L 85.630493 22.780275 
L 85.817574 22.683629 
L 85.923154 22.548325 
L 86.01762 22.451679 
L 86.108382 22.393692 
L 86.302871 22.297046 
L 86.347326 22.2004 
L 86.67518 22.103754 
L 86.732601 22.045767 
L 87.040079 21.949121 
L 87.12158 21.871804 
L 87.280876 21.775158 
L 87.367933 21.697842 
L 87.682821 21.601196 
L 87.721719 21.465892 
L 88.17738 21.369246 
L 88.212574 21.291929 
L 88.483007 21.195284 
L 88.573769 21.098638 
L 88.740474 21.001992 
L 88.842349 20.8087 
L 89.129453 20.712055 
L 89.227624 20.634738 
L 89.42767 20.557421 
L 89.529546 20.460776 
L 89.607342 20.36413 
L 89.690694 20.286813 
L 89.9389 20.190167 
L 90.005582 20.054863 
L 90.313061 19.958217 
L 90.333436 19.90023 
L 90.796507 19.803584 
L 90.889121 19.706938 
L 91.085462 19.610292 
L 91.161406 19.513647 
L 91.413316 19.417001 
L 91.474442 19.301026 
L 91.768954 19.20438 
L 91.876387 19.088405 
L 92.283889 18.991759 
L 92.283889 18.97243 
L 92.726584 18.875784 
L 92.750664 18.817797 
L 93.030358 18.721151 
L 93.128529 18.663164 
L 93.571224 18.566518 
L 93.628645 18.489201 
L 94.193591 18.392555 
L 94.299171 18.334568 
L 94.621468 18.237922 
L 94.677037 18.141276 
L 94.849299 18.04463 
L 94.94747 17.967314 
L 95.116027 17.870668 
L 95.153073 17.83201 
L 95.523529 17.735364 
L 95.616143 17.677376 
L 96.094032 17.580731 
L 96.182941 17.522743 
L 96.599705 17.426097 
L 96.692319 17.36811 
L 97.362845 17.271464 
L 97.362845 17.252135 
L 97.931495 17.155489 
L 97.988916 17.097502 
L 98.655737 17.000856 
L 98.740942 16.942868 
L 99.170672 16.846223 
L 99.211422 16.807564 
L 99.604106 16.710918 
L 99.68931 16.652931 
L 100.570997 16.556285 
L 100.570997 16.536956 
L 101.121124 16.44031 
L 101.121124 16.420981 
L 101.586047 16.343664 
L 101.674956 16.247019 
L 102.039856 16.150373 
L 102.106538 16.092385 
L 103.380908 15.99574 
L 103.380908 15.957081 
L 104.590448 15.860435 
L 104.679357 15.821777 
L 105.959284 15.725131 
L 106.011148 15.686473 
L 107.166971 15.589827 
L 107.276256 15.551169 
L 108.146828 15.454523 
L 108.211658 15.415865 
L 109.661995 15.319219 
L 109.750904 15.280561 
L 112.186654 15.183915 
L 112.186654 15.164586 
L 115.109555 15.06794 
L 115.109555 15.048611 
L 124.037552 14.951965 
L 124.037552 14.932636 
L 270.191831 14.874648 
L 270.191831 14.874648 
" clip-path="url(#p3c8a70c31e)" style="fill: none; stroke: #d44c3c; stroke-width: 2; stroke-linecap: square"/>
   </g>
   <g id="patch_3">
    <path d="M 45.83 246.04 
L 45.83 12.585882 
" style="fill: none; stroke: #000000; stroke-width: 0.8; stroke-linejoin: miter; stroke-linecap: square"/>
   </g>
   <g id="patch_4">
    <path d="M 45.83 246.04 
L 272.413235 246.04 
" style="fill: none; stroke: #000000; stroke-width: 0.8; stroke-linejoin: miter; stroke-linecap: square"/>
   </g>
   <g id="legend_1">
    <g id="line2d_17">
     <path d="M 98.571048 188.497812 
L 108.571048 188.497812 
L 118.571048 188.497812 
" style="fill: none; stroke: #44757a; stroke-width: 2; stroke-linecap: square"/>
    </g>
    <g id="text_15">
     <text style="font: 10px 'Arial'; text-anchor: start" x="126.571048" y="191.997812" transform="rotate(-0 126.571048 191.997812)">SRAMP AUROC=0.853</text>
    </g>
    <g id="line2d_18">
     <path d="M 98.571048 202.77125 
L 108.571048 202.77125 
L 118.571048 202.77125 
" style="fill: none; stroke: #a5a58d; stroke-width: 2; stroke-linecap: square"/>
    </g>
    <g id="text_16">
     <text style="font: 10px 'Arial'; text-anchor: start" x="126.571048" y="206.27125" transform="rotate(-0 126.571048 206.27125)">Genome Only AUROC=0.909</text>
    </g>
    <g id="line2d_19">
     <path d="M 98.571048 217.161875 
L 108.571048 217.161875 
L 118.571048 217.161875 
" style="fill: none; stroke: #cb997e; stroke-width: 2; stroke-linecap: square"/>
    </g>
    <g id="text_17">
     <text style="font: 10px 'Arial'; text-anchor: start" x="126.571048" y="220.661875" transform="rotate(-0 126.571048 220.661875)">Sequence Only AUROC=0.911</text>
    </g>
    <g id="line2d_20">
     <path d="M 98.571048 231.5525 
L 108.571048 231.5525 
L 118.571048 231.5525 
" style="fill: none; stroke: #d44c3c; stroke-width: 2; stroke-linecap: square"/>
    </g>
    <g id="text_18">
     <text style="font: 10px 'Arial'; text-anchor: start" x="126.571048" y="235.0525" transform="rotate(-0 126.571048 235.0525)">deepSRAMP AUROC=0.957</text>
    </g>
   </g>
  </g>
 </g>
 <defs>
  <clipPath id="p3c8a70c31e">
   <rect x="45.83" y="12.585882" width="226.583235" height="233.454118"/>
  </clipPath>
 </defs>
</svg>
