<?xml version="1.0" encoding="utf-8" standalone="no"?>
<!DOCTYPE svg PUBLIC "-//W3C//DTD SVG 1.1//EN"
  "http://www.w3.org/Graphics/SVG/1.1/DTD/svg11.dtd">
<svg xmlns:xlink="http://www.w3.org/1999/xlink" width="288pt" height="288pt" viewBox="0 0 288 288" xmlns="http://www.w3.org/2000/svg" version="1.1">
 <metadata>
  <rdf:RDF xmlns:dc="http://purl.org/dc/elements/1.1/" xmlns:cc="http://creativecommons.org/ns#" xmlns:rdf="http://www.w3.org/1999/02/22-rdf-syntax-ns#">
   <cc:Work>
    <dc:type rdf:resource="http://purl.org/dc/dcmitype/StillImage"/>
    <dc:date>2024-09-15T17:20:51.028490</dc:date>
    <dc:format>image/svg+xml</dc:format>
    <dc:creator>
     <cc:Agent>
      <dc:title>Matplotlib v3.9.2, https://matplotlib.org/</dc:title>
     </cc:Agent>
    </dc:creator>
   </cc:Work>
  </rdf:RDF>
 </metadata>
 <defs>
  <style type="text/css">*{stroke-linejoin: round; stroke-linecap: butt}</style>
 </defs>
 <g id="figure_1">
  <g id="patch_1">
   <path d="M 0 288 
L 288 288 
L 288 0 
L 0 0 
z
" style="fill: #ffffff"/>
  </g>
  <g id="axes_1">
   <g id="patch_2">
    <path d="M 45.83 246.04 
L 272.413235 246.04 
L 272.413235 25.49625 
L 45.83 25.49625 
z
" style="fill: #ffffff"/>
   </g>
   <g id="matplotlib.axis_1">
    <g id="xtick_1">
     <g id="line2d_1">
      <defs>
       <path id="mfc9e9371f8" d="M 0 0 
L 0 3.5 
" style="stroke: #000000; stroke-width: 0.8"/>
      </defs>
      <g>
       <use xlink:href="#mfc9e9371f8" x="48.051404" y="246.04" style="stroke: #000000; stroke-width: 0.8"/>
      </g>
     </g>
     <g id="text_1">
      <text style="font: 10px 'Arial'; text-anchor: middle" x="48.051404" y="260.197812" transform="rotate(-0 48.051404 260.197812)">0.0</text>
     </g>
    </g>
    <g id="xtick_2">
     <g id="line2d_2">
      <g>
       <use xlink:href="#mfc9e9371f8" x="92.47949" y="246.04" style="stroke: #000000; stroke-width: 0.8"/>
      </g>
     </g>
     <g id="text_2">
      <text style="font: 10px 'Arial'; text-anchor: middle" x="92.47949" y="260.197812" transform="rotate(-0 92.47949 260.197812)">0.2</text>
     </g>
    </g>
    <g id="xtick_3">
     <g id="line2d_3">
      <g>
       <use xlink:href="#mfc9e9371f8" x="136.907575" y="246.04" style="stroke: #000000; stroke-width: 0.8"/>
      </g>
     </g>
     <g id="text_3">
      <text style="font: 10px 'Arial'; text-anchor: middle" x="136.907575" y="260.197812" transform="rotate(-0 136.907575 260.197812)">0.4</text>
     </g>
    </g>
    <g id="xtick_4">
     <g id="line2d_4">
      <g>
       <use xlink:href="#mfc9e9371f8" x="181.33566" y="246.04" style="stroke: #000000; stroke-width: 0.8"/>
      </g>
     </g>
     <g id="text_4">
      <text style="font: 10px 'Arial'; text-anchor: middle" x="181.33566" y="260.197812" transform="rotate(-0 181.33566 260.197812)">0.6</text>
     </g>
    </g>
    <g id="xtick_5">
     <g id="line2d_5">
      <g>
       <use xlink:href="#mfc9e9371f8" x="225.763746" y="246.04" style="stroke: #000000; stroke-width: 0.8"/>
      </g>
     </g>
     <g id="text_5">
      <text style="font: 10px 'Arial'; text-anchor: middle" x="225.763746" y="260.197812" transform="rotate(-0 225.763746 260.197812)">0.8</text>
     </g>
    </g>
    <g id="xtick_6">
     <g id="line2d_6">
      <g>
       <use xlink:href="#mfc9e9371f8" x="270.191831" y="246.04" style="stroke: #000000; stroke-width: 0.8"/>
      </g>
     </g>
     <g id="text_6">
      <text style="font: 10px 'Arial'; text-anchor: middle" x="270.191831" y="260.197812" transform="rotate(-0 270.191831 260.197812)">1.0</text>
     </g>
    </g>
    <g id="text_7">
     <text style="font: 10px 'Arial'; text-anchor: middle" x="159.121618" y="273.343125" transform="rotate(-0 159.121618 273.343125)">False Postive Rate</text>
    </g>
   </g>
   <g id="matplotlib.axis_2">
    <g id="ytick_1">
     <g id="line2d_7">
      <defs>
       <path id="m88e0573877" d="M 0 0 
L -3.5 0 
" style="stroke: #000000; stroke-width: 0.8"/>
      </defs>
      <g>
       <use xlink:href="#m88e0573877" x="45.83" y="243.877806" style="stroke: #000000; stroke-width: 0.8"/>
      </g>
     </g>
     <g id="text_8">
      <text style="font: 10px 'Arial'; text-anchor: end" x="38.83" y="247.456713" transform="rotate(-0 38.83 247.456713)">0.0</text>
     </g>
    </g>
    <g id="ytick_2">
     <g id="line2d_8">
      <g>
       <use xlink:href="#m88e0573877" x="45.83" y="200.633934" style="stroke: #000000; stroke-width: 0.8"/>
      </g>
     </g>
     <g id="text_9">
      <text style="font: 10px 'Arial'; text-anchor: end" x="38.83" y="204.21284" transform="rotate(-0 38.83 204.21284)">0.2</text>
     </g>
    </g>
    <g id="ytick_3">
     <g id="line2d_9">
      <g>
       <use xlink:href="#m88e0573877" x="45.83" y="157.390061" style="stroke: #000000; stroke-width: 0.8"/>
      </g>
     </g>
     <g id="text_10">
      <text style="font: 10px 'Arial'; text-anchor: end" x="38.83" y="160.968968" transform="rotate(-0 38.83 160.968968)">0.4</text>
     </g>
    </g>
    <g id="ytick_4">
     <g id="line2d_10">
      <g>
       <use xlink:href="#m88e0573877" x="45.83" y="114.146189" style="stroke: #000000; stroke-width: 0.8"/>
      </g>
     </g>
     <g id="text_11">
      <text style="font: 10px 'Arial'; text-anchor: end" x="38.83" y="117.725095" transform="rotate(-0 38.83 117.725095)">0.6</text>
     </g>
    </g>
    <g id="ytick_5">
     <g id="line2d_11">
      <g>
       <use xlink:href="#m88e0573877" x="45.83" y="70.902316" style="stroke: #000000; stroke-width: 0.8"/>
      </g>
     </g>
     <g id="text_12">
      <text style="font: 10px 'Arial'; text-anchor: end" x="38.83" y="74.481222" transform="rotate(-0 38.83 74.481222)">0.8</text>
     </g>
    </g>
    <g id="ytick_6">
     <g id="line2d_12">
      <g>
       <use xlink:href="#m88e0573877" x="45.83" y="27.658444" style="stroke: #000000; stroke-width: 0.8"/>
      </g>
     </g>
     <g id="text_13">
      <text style="font: 10px 'Arial'; text-anchor: end" x="38.83" y="31.23735" transform="rotate(-0 38.83 31.23735)">1.0</text>
     </g>
    </g>
    <g id="text_14">
     <text style="font: 10px 'Arial'; text-anchor: middle" x="18.9425" y="135.768125" transform="rotate(-90 18.9425 135.768125)">True Postive Rate</text>
    </g>
   </g>
   <g id="line2d_13">
    <path d="M 48.051404 243.877806 
L 48.160186 203.130674 
L 48.16437 203.130674 
L 48.273151 193.778198 
L 48.277335 193.778198 
L 48.386117 187.021343 
L 48.390301 187.021343 
L 48.499082 180.800092 
L 48.503266 180.800092 
L 48.607864 176.350456 
L 48.616232 176.350456 
L 48.72083 173.919636 
L 48.737565 173.919636 
L 48.846347 171.653618 
L 48.850531 171.653618 
L 48.959312 169.593601 
L 48.96768 169.593601 
L 49.076462 167.615985 
L 49.08483 167.533584 
L 49.189427 165.76197 
L 49.201979 165.720769 
L 49.310761 163.825554 
L 49.323312 163.784353 
L 49.423726 162.383542 
L 49.436278 162.383542 
L 49.536692 160.85913 
L 49.557611 160.817929 
L 49.662209 159.293517 
L 49.674761 159.293517 
L 49.779358 157.357101 
L 49.79191 157.315901 
L 49.879772 156.079891 
L 49.90906 156.03869 
L 50.017841 154.843881 
L 50.042945 154.76148 
L 50.151726 153.237067 
L 50.168462 153.195867 
L 50.268876 152.28946 
L 50.302347 152.207059 
L 50.406945 151.13585 
L 50.432048 151.05345 
L 50.532462 150.105842 
L 50.545014 150.105842 
L 50.545014 150.023441 
L 50.653795 148.457828 
L 50.666347 148.416628 
L 50.775129 147.510221 
L 50.779312 147.510221 
L 50.879726 146.439012 
L 50.917381 146.439012 
L 51.026163 145.079401 
L 51.034531 145.079401 
L 51.134945 144.008192 
L 51.193519 143.925792 
L 51.298117 143.101785 
L 51.331588 143.019384 
L 51.427818 141.28897 
L 51.46129 141.206569 
L 51.565887 140.176561 
L 51.574255 140.176561 
L 51.678853 139.146553 
L 51.691404 139.146553 
L 51.796002 138.322546 
L 51.82529 138.240145 
L 51.934071 137.292537 
L 51.942439 137.292537 
L 52.042853 135.314921 
L 52.063772 135.314921 
L 52.172554 134.408514 
L 52.176738 134.408514 
L 52.281336 133.337305 
L 52.306439 133.296105 
L 52.411037 131.936494 
L 52.440324 131.895293 
L 52.549106 131.400889 
L 52.561657 131.359689 
L 52.649519 130.041278 
L 52.72483 129.958878 
L 52.829428 129.01127 
L 52.875451 128.928869 
L 52.980048 128.310864 
L 52.9926 128.269664 
L 53.093014 127.239655 
L 53.134853 127.198455 
L 53.235267 126.127246 
L 53.252002 126.044846 
L 53.360784 125.34444 
L 53.381703 125.262039 
L 53.482117 124.273231 
L 53.507221 124.190831 
L 53.616002 123.284423 
L 53.632738 123.202023 
L 53.733152 121.883612 
L 53.762439 121.801211 
L 53.867037 120.977204 
L 53.875405 120.977204 
L 53.980002 119.988396 
L 54.000922 119.905996 
L 54.101336 119.20559 
L 54.138991 119.16439 
L 54.235221 118.134381 
L 54.268692 118.051981 
L 54.377474 117.021972 
L 54.402577 116.939571 
L 54.507175 115.57996 
L 54.52391 115.53876 
L 54.628508 114.838354 
L 54.645244 114.797154 
L 54.754025 113.808346 
L 54.787497 113.725945 
L 54.896278 112.819538 
L 54.917198 112.819538 
L 55.021795 112.077932 
L 55.030163 112.077932 
L 55.118025 110.841922 
L 55.151497 110.800721 
L 55.247727 110.141516 
L 55.310485 110.059115 
L 55.419267 108.823105 
L 55.436002 108.781905 
L 55.528048 107.999099 
L 55.56152 107.957898 
L 55.666117 107.051491 
L 55.703773 106.96909 
L 55.812554 105.939082 
L 55.837658 105.856681 
L 55.946439 105.073875 
L 55.97991 105.032674 
L 56.07614 104.579471 
L 56.109612 104.49707 
L 56.19329 103.755464 
L 56.243497 103.673063 
L 56.34391 103.055058 
L 56.381566 103.013858 
L 56.486163 102.272252 
L 56.511267 102.189851 
L 56.615865 101.448245 
L 56.640968 101.365845 
L 56.74975 100.747839 
L 56.766485 100.665439 
L 56.871083 100.129834 
L 56.912922 100.047434 
L 57.021704 99.058626 
L 57.030071 99.058626 
L 57.138853 98.39942 
L 57.151405 98.31702 
L 57.260186 97.369412 
L 57.26437 97.369412 
L 57.373152 96.339404 
L 57.427543 96.257003 
L 57.53214 95.680198 
L 57.55306 95.680198 
L 57.661842 94.979792 
L 57.674393 94.938592 
L 57.766439 94.279387 
L 57.799911 94.196986 
L 57.900324 93.702582 
L 57.942163 93.620181 
L 58.050945 93.002176 
L 58.071865 92.919776 
L 58.134623 92.26057 
L 58.222485 92.17817 
L 58.318715 91.807367 
L 58.339635 91.807367 
L 58.448416 91.230562 
L 58.494439 91.189362 
L 58.599037 90.447756 
L 58.611589 90.365355 
L 58.703635 89.78855 
L 58.724554 89.78855 
L 58.824968 89.211745 
L 58.866807 89.129345 
L 58.954669 88.59374 
L 59.00906 88.51134 
L 59.096922 88.140537 
L 59.12621 88.140537 
L 59.230807 87.398931 
L 59.272646 87.31653 
L 59.377244 86.574924 
L 59.410715 86.492523 
L 59.502761 85.915719 
L 59.527865 85.915719 
L 59.628279 85.256513 
L 59.645014 85.256513 
L 59.745428 84.88571 
L 59.778899 84.80331 
L 59.883497 83.855702 
L 59.900233 83.773301 
L 59.996462 83.402498 
L 60.02575 83.320097 
L 60.134531 82.537291 
L 60.201474 82.45489 
L 60.310256 81.878086 
L 60.335359 81.795685 
L 60.427405 81.17768 
L 60.460876 81.13648 
L 60.548738 80.394874 
L 60.619865 80.312473 
L 60.724462 79.735668 
L 60.737014 79.735668 
L 60.837428 79.323665 
L 60.870899 79.241264 
L 60.967129 78.623259 
L 61.013152 78.540858 
L 61.121934 78.128855 
L 61.163773 78.046454 
L 61.272554 77.304848 
L 61.293474 77.222448 
L 61.402256 76.645643 
L 61.418991 76.563242 
L 61.523589 76.31604 
L 61.55706 76.23364 
L 61.661658 75.656835 
L 61.682577 75.574434 
L 61.791359 75.03883 
L 61.799727 75.03883 
L 61.895957 74.173623 
L 61.94198 74.132423 
L 62.050761 73.514417 
L 62.075865 73.432017 
L 62.176279 72.56681 
L 62.218118 72.484409 
L 62.322715 72.154806 
L 62.343635 72.113606 
L 62.448233 71.536801 
L 62.485888 71.454401 
L 62.590486 70.877596 
L 62.657428 70.836396 
L 62.76621 70.17719 
L 62.787129 70.09479 
L 62.895911 69.682786 
L 62.929382 69.600386 
L 63.025612 69.270783 
L 63.092555 69.188382 
L 63.188784 68.611578 
L 63.22644 68.529177 
L 63.335221 67.952372 
L 63.343589 67.869971 
L 63.439819 67.375567 
L 63.477474 67.293167 
L 63.548601 67.087165 
L 63.636463 67.004764 
L 63.74106 66.716362 
L 63.845658 66.633961 
L 63.946072 65.768754 
L 63.966991 65.727554 
L 64.059037 65.27435 
L 64.092509 65.19195 
L 64.180371 65.027148 
L 64.276601 64.944748 
L 64.381198 64.615145 
L 64.410486 64.532744 
L 64.510899 64.03834 
L 64.536003 63.99714 
L 64.644785 63.461536 
L 64.653152 63.420335 
L 64.761934 62.472727 
L 64.812141 62.390327 
L 64.883267 62.225525 
L 64.979497 62.143125 
L 65.088279 61.813522 
L 65.12175 61.731121 
L 65.230532 61.113116 
L 65.284923 61.030716 
L 65.38952 60.865914 
L 65.443911 60.783514 
L 65.540141 60.124308 
L 65.58198 60.041908 
L 65.682394 59.259101 
L 65.75352 59.176701 
L 65.858118 58.723497 
L 65.916693 58.641096 
L 65.996187 58.105492 
L 66.13844 58.023091 
L 66.243038 57.569887 
L 66.268141 57.487487 
L 66.368555 57.075483 
L 66.443865 56.993083 
L 66.540095 56.539879 
L 66.581934 56.457478 
L 66.665612 56.004275 
L 66.732555 55.921874 
L 66.795313 55.46867 
L 66.912463 55.42747 
L 66.996141 54.974266 
L 67.046348 54.891866 
L 67.13421 54.644664 
L 67.213704 54.562263 
L 67.314118 54.315061 
L 67.372693 54.23266 
L 67.460555 53.903058 
L 67.51913 53.820657 
L 67.602808 53.614655 
L 67.699038 53.532255 
L 67.803635 53.037851 
L 67.849658 52.95545 
L 67.95844 52.296244 
L 67.966808 52.296244 
L 68.075589 51.843041 
L 68.12998 51.76064 
L 68.196923 51.472238 
L 68.251313 51.389837 
L 68.360095 50.813032 
L 68.39775 50.730632 
L 68.489796 50.195027 
L 68.544187 50.112627 
L 68.636233 49.906625 
L 68.765934 49.824224 
L 68.85798 49.535822 
L 68.916555 49.453421 
L 69.012785 48.876617 
L 69.075543 48.835416 
L 69.171773 48.464613 
L 69.280555 48.382213 
L 69.368417 47.681807 
L 69.401888 47.599406 
L 69.460463 47.187403 
L 69.523222 47.105002 
L 69.632003 46.569398 
L 69.70313 46.486997 
L 69.790992 46.116194 
L 69.832831 46.074994 
L 69.933245 45.498189 
L 69.983452 45.415788 
L 70.088049 45.044985 
L 70.096417 45.044985 
L 70.205199 44.632982 
L 70.247038 44.591782 
L 70.351635 44.262179 
L 70.414394 44.179778 
L 70.514808 43.644174 
L 70.560831 43.561773 
L 70.598486 43.438172 
L 70.757475 43.355772 
L 70.857888 42.737767 
L 70.941567 42.655366 
L 71.025245 42.449364 
L 71.088003 42.366964 
L 71.175865 42.037361 
L 71.221888 41.996161 
L 71.313934 41.748959 
L 71.339038 41.707758 
L 71.439452 41.213354 
L 71.50221 41.172154 
L 71.594256 40.924952 
L 71.682118 40.842551 
L 71.686302 40.71895 
L 71.849475 40.636549 
L 71.958256 40.306947 
L 71.970808 40.224546 
L 72.029383 40.018544 
L 72.121429 39.936144 
L 72.226026 39.647741 
L 72.322256 39.565341 
L 72.405934 39.112137 
L 72.493796 39.029736 
L 72.59421 38.535332 
L 72.640233 38.452932 
L 72.749015 38.20573 
L 72.761567 38.164529 
L 72.799222 37.999728 
L 72.941475 37.917327 
L 73.025153 37.752526 
L 73.146486 37.670125 
L 73.242716 37.422923 
L 73.338946 37.340523 
L 73.447728 36.96972 
L 73.497934 36.887319 
L 73.581613 36.598917 
L 73.656923 36.516516 
L 73.702946 36.351715 
L 73.853567 36.269314 
L 73.916325 36.022112 
L 74.046026 35.939711 
L 74.154808 35.733709 
L 74.230118 35.651309 
L 74.3389 35.280506 
L 74.389107 35.198105 
L 74.489521 34.786102 
L 74.51044 34.744901 
L 74.585751 34.497699 
L 74.690348 34.415299 
L 74.790762 34.126896 
L 75.112923 34.044496 
L 75.200785 33.838494 
L 75.343038 33.756093 
L 75.443452 33.508891 
L 75.564785 33.426491 
L 75.652647 33.34409 
L 75.7949 33.261689 
L 75.882762 33.055688 
L 75.937153 32.973287 
L 75.937153 32.890886 
L 76.104509 32.849686 
L 76.213291 32.561284 
L 76.334624 32.478883 
L 76.409935 32.355282 
L 76.518716 32.272881 
L 76.614946 32.10808 
L 76.719544 32.06688 
L 76.807406 31.737277 
L 77.033337 31.654876 
L 77.137935 31.407674 
L 77.188142 31.325274 
L 77.292739 31.078072 
L 77.305291 31.078072 
L 77.397337 30.583667 
L 77.514486 30.501267 
L 77.593981 30.377666 
L 77.656739 30.295265 
L 77.757153 30.130464 
L 77.937061 30.048063 
L 78.024923 29.842061 
L 78.146257 29.759661 
L 78.162992 29.67726 
L 78.564647 29.594859 
L 78.669245 29.388858 
L 78.723636 29.306457 
L 78.752923 29.224056 
L 78.878441 29.141656 
L 78.987222 28.976854 
L 79.079268 28.894454 
L 79.162946 28.647252 
L 79.409797 28.564851 
L 79.501843 28.44125 
L 79.681751 28.358849 
L 79.731958 28.235248 
L 79.932785 28.152848 
L 80.037383 28.029247 
L 80.25913 27.946846 
L 80.317705 27.823245 
L 80.589659 27.740844 
L 80.589659 27.699644 
L 270.191831 27.658444 
L 270.191831 27.658444 
" clip-path="url(#p9fc0e62876)" style="fill: none; stroke: #d44c3c; stroke-width: 1.5; stroke-linecap: square"/>
   </g>
   <g id="line2d_14">
    <path d="M 48.051404 243.877806 
L 48.157494 217.520487 
L 48.162798 217.520487 
L 48.268887 209.727457 
L 48.284801 209.628183 
L 48.39089 205.508301 
L 48.401499 205.409026 
L 48.507588 203.175355 
L 48.528806 203.076081 
L 48.634896 200.49495 
L 48.650809 200.395676 
L 48.751594 198.608739 
L 48.762203 198.608739 
L 48.868292 197.36781 
L 48.873596 197.36781 
L 48.979686 193.942848 
L 49.006208 193.843574 
L 49.112297 191.014257 
L 49.154733 190.914983 
L 49.255518 189.475506 
L 49.276736 189.475506 
L 49.382825 186.44764 
L 49.38813 186.44764 
L 49.494219 184.164332 
L 49.499523 184.164332 
L 49.605613 182.079573 
L 49.616222 182.029935 
L 49.711702 180.838644 
L 49.73292 180.73937 
L 49.8284 179.34953 
L 49.865532 179.299893 
L 49.971621 177.860416 
L 49.992839 177.761142 
L 50.098928 176.420939 
L 50.109537 176.321665 
L 50.215626 174.683639 
L 50.236844 174.683639 
L 50.332325 173.393074 
L 50.364151 173.2938 
L 50.470241 172.25142 
L 50.48085 172.25142 
L 50.581635 170.712668 
L 50.597548 170.712668 
L 50.693028 169.670289 
L 50.714246 169.571014 
L 50.820336 168.330086 
L 50.846858 168.230812 
L 50.952947 166.69206 
L 50.968861 166.69206 
L 51.064341 165.649681 
L 51.085559 165.600044 
L 51.186344 164.408752 
L 51.228779 164.309478 
L 51.329564 163.366372 
L 51.345478 163.316735 
L 51.440958 161.827621 
L 51.46748 161.728347 
L 51.57357 160.388144 
L 51.594788 160.388144 
L 51.700877 158.948667 
L 51.711486 158.89903 
L 51.791053 158.253747 
L 51.854706 158.20411 
L 51.960796 156.764633 
L 51.971405 156.665359 
L 52.050972 155.325156 
L 52.098712 155.225882 
L 52.188888 153.984954 
L 52.220715 153.935317 
L 52.316195 152.942574 
L 52.353326 152.8433 
L 52.459416 152.297291 
L 52.480633 152.247654 
L 52.581418 151.304548 
L 52.639767 151.205274 
L 52.745857 149.319063 
L 52.751161 149.319063 
L 52.85725 147.97886 
L 52.873164 147.879586 
L 52.979253 146.787569 
L 53.026993 146.688295 
L 53.127778 145.596278 
L 53.164909 145.546641 
L 53.265694 144.504261 
L 53.286912 144.504261 
L 53.382393 143.064784 
L 53.408915 143.015147 
L 53.472569 142.568413 
L 53.530918 142.469138 
L 53.631702 141.724581 
L 53.658225 141.674944 
L 53.75901 140.285104 
L 53.774923 140.18583 
L 53.881012 139.391636 
L 53.907535 139.341999 
L 54.00832 138.349256 
L 54.040146 138.249982 
L 54.135627 137.009053 
L 54.15154 137.009053 
L 54.257629 136.463045 
L 54.273543 136.363771 
L 54.379632 135.321391 
L 54.40085 135.222117 
L 54.491026 134.279011 
L 54.528157 134.179737 
L 54.60242 133.683365 
L 54.644855 133.683365 
L 54.740336 132.789897 
L 54.761554 132.74026 
L 54.867643 131.896428 
L 54.883556 131.896428 
L 54.989646 131.00296 
L 55.005559 130.903686 
L 55.111649 129.96058 
L 55.207129 129.861306 
L 55.302609 128.868563 
L 55.350349 128.769289 
L 55.44583 127.677272 
L 55.488266 127.577998 
L 55.594355 126.932715 
L 55.610268 126.833441 
L 55.716358 126.039246 
L 55.795925 125.939972 
L 55.902014 125.195415 
L 55.928536 125.096141 
L 55.981581 124.649407 
L 56.061148 124.599769 
L 56.13541 123.855212 
L 56.183151 123.755938 
L 56.28924 123.011381 
L 56.305153 122.912107 
L 56.405938 122.018638 
L 56.432461 121.969001 
L 56.533245 120.827347 
L 56.559768 120.728073 
L 56.665857 120.033153 
L 56.708293 119.983516 
L 56.798469 119.437507 
L 56.840904 119.338233 
L 56.941689 118.643313 
L 57.000038 118.544039 
L 57.100823 117.650571 
L 57.127346 117.551296 
L 57.217521 116.757102 
L 57.249348 116.657828 
L 57.350133 115.516174 
L 57.408482 115.416899 
L 57.509267 114.721979 
L 57.530485 114.672342 
L 57.620661 113.878148 
L 57.663097 113.778874 
L 57.753273 113.381777 
L 57.785099 113.33214 
L 57.891189 112.63722 
L 57.933624 112.537946 
L 58.034409 112.041574 
L 58.071541 111.9423 
L 58.172325 111.396291 
L 58.204152 111.297017 
L 58.310241 110.602097 
L 58.336764 110.502823 
L 58.437549 109.758266 
L 58.469375 109.708629 
L 58.57016 109.212257 
L 58.628509 109.16262 
L 58.734599 108.616612 
L 58.808861 108.517338 
L 58.909646 107.921692 
L 58.92556 107.921692 
L 59.031649 106.879312 
L 59.063476 106.780038 
L 59.164261 106.482215 
L 59.217305 106.382941 
L 59.31809 105.886569 
L 59.344612 105.787295 
L 59.450702 105.340561 
L 59.47192 105.241287 
L 59.578009 104.596004 
L 59.609836 104.49673 
L 59.715925 103.901084 
L 59.758361 103.851447 
L 59.853841 103.255801 
L 59.890972 103.156527 
L 59.986453 102.560881 
L 60.01828 102.511244 
L 60.124369 101.865961 
L 60.166805 101.766687 
L 60.272894 101.36959 
L 60.331243 101.270316 
L 60.432028 100.922856 
L 60.479768 100.823582 
L 60.585857 100.227936 
L 60.622989 100.128662 
L 60.723774 99.135919 
L 60.744991 99.036645 
L 60.829863 98.639548 
L 60.914734 98.540273 
L 61.010215 98.24245 
L 61.073868 98.143176 
L 61.164044 97.497893 
L 61.201175 97.448256 
L 61.30196 96.455514 
L 61.349701 96.405876 
L 61.45579 95.710957 
L 61.498226 95.611682 
L 61.593706 95.214585 
L 61.630837 95.115311 
L 61.736927 94.519665 
L 61.816494 94.420391 
L 61.917278 93.526923 
L 61.938496 93.526923 
L 62.044586 92.980914 
L 62.09763 92.88164 
L 62.193111 92.285994 
L 62.219633 92.18672 
L 62.315113 91.640711 
L 62.341636 91.541437 
L 62.405289 91.14434 
L 62.490161 91.045066 
L 62.59625 90.647969 
L 62.617468 90.548694 
L 62.712948 90.10196 
L 62.734166 90.10196 
L 62.840255 89.605589 
L 62.877387 89.506315 
L 62.978172 89.009943 
L 63.04713 88.910669 
L 63.14261 88.166112 
L 63.216873 88.066838 
L 63.317657 87.620103 
L 63.354789 87.520829 
L 63.455574 87.024458 
L 63.519227 86.974821 
L 63.598794 86.428812 
L 63.662448 86.329538 
L 63.731406 85.982078 
L 63.922367 85.882804 
L 64.023151 85.485707 
L 64.086805 85.386432 
L 64.182285 85.138247 
L 64.219417 85.08861 
L 64.309593 84.890061 
L 64.352028 84.790787 
L 64.452813 84.095867 
L 64.542989 83.996593 
L 64.611947 83.450584 
L 64.691514 83.35131 
L 64.786994 82.904576 
L 64.834735 82.805301 
L 64.930215 82.110381 
L 65.025695 82.011107 
L 65.121176 81.713284 
L 65.168916 81.61401 
L 65.253787 81.018364 
L 65.32805 80.968727 
L 65.42353 80.670904 
L 65.465966 80.57163 
L 65.572055 79.975985 
L 65.603882 79.87671 
L 65.694058 79.52925 
L 65.752407 79.429976 
L 65.842583 78.883968 
L 65.953977 78.83433 
L 66.054762 78.089773 
L 66.102502 77.990499 
L 66.197982 77.345216 
L 66.235114 77.245942 
L 66.341203 76.650296 
L 66.367725 76.600659 
L 66.46851 76.203562 
L 66.510946 76.104288 
L 66.617035 75.21082 
L 66.648862 75.111545 
L 66.728429 74.813722 
L 66.792083 74.714448 
L 66.866345 74.466263 
L 66.956521 74.366988 
L 67.041393 74.019528 
L 67.078524 74.019528 
L 67.174004 73.622431 
L 67.242962 73.523157 
L 67.333138 73.12606 
L 67.391487 73.026786 
L 67.497577 72.828237 
L 67.555926 72.7786 
L 67.662015 71.984406 
L 67.730973 71.885131 
L 67.799931 71.239849 
L 67.890107 71.190212 
L 67.996196 70.644203 
L 68.022719 70.594566 
L 68.128808 69.99892 
L 68.150026 69.899646 
L 68.245506 69.452912 
L 68.287942 69.403275 
L 68.383422 68.906903 
L 68.447076 68.857266 
L 68.526643 68.559443 
L 68.579688 68.509806 
L 68.680473 68.013435 
L 68.728213 67.914161 
L 68.834302 67.119966 
L 68.887347 67.070329 
L 68.977523 66.573958 
L 69.115439 66.474684 
L 69.216224 66.325772 
L 69.24805 66.276135 
L 69.327617 65.829401 
L 69.370053 65.730127 
L 69.476142 65.33303 
L 69.561014 65.233755 
L 69.667103 64.98557 
L 69.730757 64.886295 
L 69.820933 64.340287 
L 69.858064 64.241013 
L 69.942935 64.092101 
L 69.99598 64.042464 
L 70.102069 63.695004 
L 70.139201 63.59573 
L 70.24529 63.148996 
L 70.29303 63.049721 
L 70.367293 62.55335 
L 70.521122 62.454076 
L 70.621907 61.659882 
L 70.664343 61.560607 
L 70.759823 61.362059 
L 70.818172 61.262784 
L 70.913653 60.617502 
L 70.982611 60.518227 
L 71.0887 60.220405 
L 71.13644 60.12113 
L 71.221312 59.823308 
L 71.348619 59.724033 
L 71.454708 59.07875 
L 71.486535 58.979476 
L 71.571406 58.483105 
L 71.714627 58.383831 
L 71.772976 57.937096 
L 71.847239 57.837822 
L 71.942719 57.490362 
L 72.016982 57.391088 
L 72.123071 56.993991 
L 72.197333 56.894717 
L 72.303423 56.447982 
L 72.345859 56.348708 
L 72.398903 55.852337 
L 72.499688 55.8027 
L 72.605777 55.504877 
L 72.637604 55.405602 
L 72.72778 55.207054 
L 72.796738 55.157417 
L 72.876305 54.859594 
L 72.939959 54.76032 
L 73.030135 54.462497 
L 73.088484 54.363223 
L 73.194573 54.0654 
L 73.2264 53.966126 
L 73.305967 53.519391 
L 73.385534 53.420117 
L 73.491623 53.171931 
L 73.549972 53.072657 
L 73.650757 52.824471 
L 73.793978 52.725197 
L 73.889458 52.3281 
L 73.958416 52.278463 
L 74.053897 52.030277 
L 74.191813 51.931003 
L 74.281989 51.782092 
L 74.4146 51.682817 
L 74.494167 51.533906 
L 74.579039 51.434632 
L 74.674519 51.186446 
L 74.823044 51.136809 
L 74.929133 50.789349 
L 74.982178 50.690075 
L 75.072354 50.292977 
L 75.173139 50.193703 
L 75.220879 50.094429 
L 75.50732 49.995155 
L 75.608105 49.647695 
L 75.730108 49.54842 
L 75.836197 49.002412 
L 75.868024 48.903138 
L 75.974113 48.555678 
L 76.106725 48.456403 
L 76.180987 48.307492 
L 76.356035 48.208218 
L 76.451515 47.811121 
L 76.467429 47.811121 
L 76.568213 47.414024 
L 76.775088 47.314749 
L 76.881177 47.165838 
L 76.976657 47.066564 
L 77.072138 46.719104 
L 77.178227 46.619829 
L 77.279012 46.371644 
L 77.342665 46.272369 
L 77.427537 46.123458 
L 77.501799 46.024184 
L 77.607889 45.676724 
L 77.660933 45.57745 
L 77.735196 45.378901 
L 77.835981 45.279627 
L 77.84659 45.130715 
L 78.032246 45.031441 
L 78.053464 44.832893 
L 78.175467 44.733618 
L 78.270947 44.485433 
L 78.318687 44.386158 
L 78.419472 44.237247 
L 78.541475 44.137973 
L 78.594519 43.889787 
L 78.838525 43.790513 
L 78.934005 43.393416 
L 79.050704 43.294141 
L 79.08253 43.194867 
L 79.23636 43.095593 
L 79.321231 42.897044 
L 79.443234 42.79777 
L 79.512192 42.648859 
L 79.570541 42.599221 
L 79.676631 42.202124 
L 79.862287 42.10285 
L 79.947158 41.656116 
L 80.03203 41.556842 
L 80.053248 41.308656 
L 80.244208 41.209382 
L 80.339689 40.812285 
L 80.451083 40.71301 
L 80.557172 40.36555 
L 80.615521 40.266276 
L 80.705697 39.918816 
L 80.811786 39.819542 
L 80.901962 39.67063 
L 81.01866 39.620993 
L 81.07701 39.32317 
L 81.241448 39.223896 
L 81.336928 39.074985 
L 81.432409 38.975711 
L 81.522585 38.727525 
L 81.628674 38.628251 
L 81.734763 38.429702 
L 81.915115 38.330428 
L 81.96816 38.231154 
L 82.159121 38.181516 
L 82.196252 37.883694 
L 82.381908 37.784419 
L 82.472084 37.635508 
L 82.636523 37.536234 
L 82.742612 37.288048 
L 83.039662 37.188774 
L 83.103316 37.039862 
L 83.50115 36.940588 
L 83.5595 36.841314 
L 83.861854 36.742039 
L 83.957335 36.146394 
L 84.015684 36.04712 
L 84.052815 35.848571 
L 84.227862 35.749297 
L 84.286211 35.550748 
L 84.445345 35.451474 
L 84.540826 35.104014 
L 84.710569 35.00474 
L 84.784831 34.706917 
L 84.986401 34.607643 
L 85.081881 34.409094 
L 85.405454 34.30982 
L 85.511543 34.111271 
L 85.617632 34.011997 
L 85.697199 33.763811 
L 85.808593 33.664537 
L 85.872247 33.465988 
L 86.095034 33.366714 
L 86.190515 33.118529 
L 86.2913 33.019254 
L 86.397389 32.771069 
L 86.545914 32.671794 
L 86.545914 32.622157 
L 86.811137 32.522883 
L 86.901313 32.175423 
L 87.076361 32.076149 
L 87.140014 31.827963 
L 87.394629 31.728689 
L 87.474196 31.579777 
L 87.723505 31.480503 
L 87.813681 31.331592 
L 88.110731 31.232317 
L 88.206212 31.083406 
L 88.460826 30.984132 
L 88.460826 30.934495 
L 88.810921 30.83522 
L 88.890488 30.686309 
L 89.049622 30.587035 
L 89.134493 30.438123 
L 89.505806 30.338849 
L 89.505806 30.289212 
L 90.00973 30.189938 
L 90.00973 30.1403 
L 90.619744 30.041026 
L 90.715224 29.941752 
L 91.10245 29.842478 
L 91.15019 29.693566 
L 91.532112 29.594292 
L 91.532112 29.544655 
L 91.807944 29.445381 
L 91.807944 29.395743 
L 92.269433 29.296469 
L 92.269433 29.246832 
L 92.831706 29.147558 
L 92.831706 29.097921 
L 94.041124 28.998646 
L 94.041124 28.949009 
L 95.160367 28.849735 
L 95.213411 28.750461 
L 96.093953 28.651186 
L 96.093953 28.601549 
L 96.985103 28.502275 
L 96.985103 28.452638 
L 98.486267 28.353364 
L 98.486267 28.303726 
L 99.79647 28.204452 
L 99.79647 28.154815 
L 101.785645 28.055541 
L 101.785645 28.005904 
L 103.742993 27.906629 
L 103.742993 27.856992 
L 114.023048 27.757718 
L 114.023048 27.708081 
L 270.191831 27.658444 
L 270.191831 27.658444 
" clip-path="url(#p9fc0e62876)" style="fill: none; stroke: #cb997e; stroke-width: 1.5; stroke-linecap: square"/>
   </g>
   <g id="line2d_15">
    <path d="M 48.051404 243.877806 
L 48.062377 243.773579 
L 48.166622 243.148216 
L 48.210515 243.096102 
L 48.320246 242.522853 
L 48.347679 242.418625 
L 48.435464 241.584808 
L 48.49033 241.48058 
L 48.594575 240.698876 
L 48.632981 240.594649 
L 48.742713 239.60449 
L 48.770146 239.500263 
L 48.868904 239.083354 
L 48.934743 238.979127 
L 49.044474 238.093196 
L 49.093853 237.988969 
L 49.181639 237.415719 
L 49.258451 237.363605 
L 49.351722 236.477674 
L 49.395615 236.373447 
L 49.505346 235.800197 
L 49.549239 235.69597 
L 49.658971 234.810038 
L 49.69189 234.810038 
L 49.796135 234.236789 
L 49.807108 234.236789 
L 49.889407 233.767766 
L 49.999138 233.715653 
L 50.10887 232.67338 
L 50.136303 232.569153 
L 50.246034 231.839563 
L 50.251521 231.839563 
L 50.350279 230.693063 
L 50.383198 230.588836 
L 50.487443 230.015586 
L 50.547796 229.911359 
L 50.657527 228.921201 
L 50.68496 228.869087 
L 50.794691 227.670474 
L 50.844071 227.566247 
L 50.942829 226.992997 
L 51.030614 226.88877 
L 51.10194 226.263407 
L 51.206185 226.159179 
L 51.315916 225.169021 
L 51.387242 225.064794 
L 51.496973 224.752112 
L 51.524406 224.699998 
L 51.617678 224.074635 
L 51.66157 223.970408 
L 51.771302 223.449272 
L 51.798735 223.345045 
L 51.881033 222.823908 
L 51.941386 222.719681 
L 52.040144 221.364727 
L 52.073063 221.312614 
L 52.149875 221.104159 
L 52.221201 220.999932 
L 52.314473 220.114001 
L 52.347392 220.009774 
L 52.457124 219.436524 
L 52.47907 219.332297 
L 52.583315 218.811161 
L 52.616234 218.706933 
L 52.714993 217.768888 
L 52.753399 217.664661 
L 52.852157 216.882957 
L 52.917996 216.77873 
L 53.027727 216.20548 
L 53.066133 216.101253 
L 53.126486 215.840685 
L 53.236217 215.736458 
L 53.340462 215.163208 
L 53.367895 215.058981 
L 53.477626 214.120936 
L 53.548952 214.016709 
L 53.642224 213.391345 
L 53.68063 213.287118 
L 53.790361 212.609641 
L 53.900093 212.505414 
L 54.009824 211.671596 
L 54.059203 211.619483 
L 54.168935 210.733551 
L 54.201854 210.629324 
L 54.311586 210.108188 
L 54.328045 210.108188 
L 54.437777 209.691279 
L 54.476183 209.587052 
L 54.585914 208.909575 
L 54.646267 208.857461 
L 54.755998 207.606735 
L 54.766971 207.606735 
L 54.860243 206.720803 
L 54.898649 206.616576 
L 55.002894 205.834872 
L 55.02484 205.834872 
L 55.118112 205.365849 
L 55.167491 205.261622 
L 55.271736 204.532032 
L 55.310142 204.479918 
L 55.408901 203.593987 
L 55.436333 203.593987 
L 55.546065 202.91651 
L 55.611904 202.812283 
L 55.705176 202.134806 
L 55.754555 202.030579 
L 55.853313 201.77001 
L 55.902692 201.665783 
L 56.006937 201.092534 
L 56.045343 200.988306 
L 56.122155 200.571397 
L 56.177021 200.519284 
L 56.264806 200.206602 
L 56.303212 200.102375 
L 56.401971 199.633353 
L 56.456836 199.529125 
L 56.555595 199.007989 
L 56.637893 198.903762 
L 56.742138 198.174171 
L 56.813464 198.069944 
L 56.906735 197.705149 
L 56.945141 197.705149 
L 56.945141 197.653035 
L 57.038413 197.079786 
L 57.153631 196.975558 
L 57.241416 196.506536 
L 57.301769 196.402309 
L 57.406014 195.620605 
L 57.455393 195.516377 
L 57.559638 194.943128 
L 57.576098 194.943128 
L 57.685829 194.421992 
L 57.729722 194.317764 
L 57.82848 193.900856 
L 57.855913 193.796628 
L 57.965644 193.483947 
L 58.009537 193.379719 
L 58.102809 193.275492 
L 58.185107 193.223379 
L 58.294839 192.702243 
L 58.338731 192.598015 
L 58.448463 192.024766 
L 58.552708 191.920538 
L 58.552708 191.868425 
L 58.865443 191.764198 
L 58.958714 191.399402 
L 58.991634 191.399402 
L 59.090392 190.826153 
L 59.178177 190.721925 
L 59.265962 190.461357 
L 59.408613 190.35713 
L 59.512858 189.888108 
L 59.578697 189.78388 
L 59.63905 189.575426 
L 59.715862 189.471199 
L 59.809133 189.106404 
L 59.842053 189.106404 
L 59.853026 188.897949 
L 60.001163 188.845836 
L 60.110895 188.064131 
L 60.160274 188.012018 
L 60.270006 187.282427 
L 60.357791 187.1782 
L 60.467522 186.709178 
L 60.500442 186.709178 
L 60.610173 185.719019 
L 60.681499 185.614792 
L 60.752824 185.30211 
L 60.889989 185.197883 
L 60.99972 184.833088 
L 61.049099 184.72886 
L 61.158831 184.155611 
L 61.180777 184.051384 
L 61.279535 183.269679 
L 61.323428 183.165452 
L 61.427673 182.69643 
L 61.449619 182.592202 
L 61.548377 182.175294 
L 61.597757 182.12318 
L 61.680055 181.810498 
L 61.7843 181.706271 
L 61.861112 181.289362 
L 61.97633 181.185135 
L 62.047656 181.028794 
L 62.108008 180.976681 
L 62.21774 180.611885 
L 62.283578 180.507658 
L 62.354904 180.24709 
L 62.448176 180.142863 
L 62.552421 179.67384 
L 62.579853 179.569613 
L 62.689585 178.892136 
L 62.744451 178.840023 
L 62.826749 178.475227 
L 62.974887 178.371 
L 63.062672 178.058319 
L 63.128511 177.954091 
L 63.238242 177.328728 
L 63.347974 177.224501 
L 63.435759 176.859706 
L 63.490625 176.755478 
L 63.59487 176.234342 
L 63.627789 176.130115 
L 63.737521 175.76532 
L 63.825306 175.661093 
L 63.924064 175.139956 
L 64.017336 175.035729 
L 64.105121 174.670934 
L 64.236799 174.566707 
L 64.330071 174.149798 
L 64.456262 174.045571 
L 64.544047 173.680775 
L 64.615373 173.576548 
L 64.648292 173.368094 
L 64.77997 173.263867 
L 64.878728 173.159639 
L 64.972 173.055412 
L 65.043325 172.534276 
L 65.142084 172.430049 
L 65.224382 172.065254 
L 65.416412 171.961026 
L 65.498711 171.179322 
L 65.553577 171.075095 
L 65.641362 170.397618 
L 65.701714 170.293391 
L 65.77304 169.928596 
L 65.882771 169.824368 
L 65.976043 169.511687 
L 66.030909 169.407459 
L 66.135154 168.938437 
L 66.200993 168.83421 
L 66.305237 168.469414 
L 66.343644 168.365187 
L 66.447888 167.791938 
L 66.513727 167.68771 
L 66.623459 166.749665 
L 66.639919 166.645438 
L 66.727704 166.38487 
L 66.963626 166.280643 
L 67.062385 165.81162 
L 67.078844 165.81162 
L 67.183089 165.238371 
L 67.210522 165.186257 
L 67.298307 164.769348 
L 67.347687 164.665121 
L 67.402552 164.50878 
L 67.51777 164.404553 
L 67.600069 163.987644 
L 67.770153 163.883417 
L 67.868911 163.466508 
L 67.912804 163.362281 
L 68.011562 162.580577 
L 68.12678 162.476349 
L 68.231025 161.955213 
L 68.324297 161.850986 
L 68.406596 161.486191 
L 68.521814 161.381964 
L 68.609599 160.860828 
L 68.642518 160.808714 
L 68.741277 160.287578 
L 68.796142 160.183351 
L 68.889414 159.870669 
L 69.064984 159.766442 
L 69.174716 159.141079 
L 69.180203 159.141079 
L 69.267988 158.776283 
L 69.31188 158.72417 
L 69.421612 157.942466 
L 69.476478 157.838238 
L 69.564263 157.525557 
L 69.7124 157.421329 
L 69.816645 157.108648 
L 69.866024 157.004421 
L 69.964783 156.691739 
L 70.003189 156.587512 
L 70.11292 156.170603 
L 70.211679 156.066376 
L 70.32141 155.597353 
L 70.381762 155.493126 
L 70.480521 155.024103 
L 70.551846 154.919876 
L 70.661578 154.346627 
L 70.743876 154.346627 
L 70.743876 154.294513 
L 70.826175 153.66915 
L 70.924933 153.564922 
L 71.023692 153.148014 
L 71.078557 153.043786 
L 71.177316 152.783218 
L 71.292534 152.678991 
L 71.402265 152.262082 
L 71.424211 152.209969 
L 71.52297 152.001514 
L 71.561376 151.897287 
L 71.643674 151.532492 
L 71.715 151.480378 
L 71.824731 151.271924 
L 71.885084 151.167696 
L 71.934463 150.64656 
L 72.0826 150.594447 
L 72.186845 150.073311 
L 72.30755 149.969083 
L 72.356929 149.656402 
L 72.461174 149.604288 
L 72.559932 149.291606 
L 72.603825 149.187379 
L 72.669664 148.822584 
L 72.823288 148.718357 
L 72.927533 148.353562 
L 72.954966 148.249334 
L 73.064697 147.676085 
L 73.10859 147.571857 
L 73.207348 147.102835 
L 73.311593 146.998608 
L 73.415838 146.529585 
L 73.47619 146.425358 
L 73.569462 146.216904 
L 73.596895 146.216904 
L 73.679194 145.695767 
L 73.750519 145.59154 
L 73.854764 145.330972 
L 73.937063 145.226745 
L 74.046794 145.018291 
L 74.10166 144.966177 
L 74.205905 144.184473 
L 74.288203 144.080246 
L 74.381475 143.871791 
L 74.557045 143.767564 
L 74.639344 143.454882 
L 74.705183 143.350655 
L 74.792968 143.090087 
L 74.875267 142.98586 
L 74.930133 142.829519 
L 74.963052 142.829519 
L 74.995971 142.829519 
L 75.100216 142.152042 
L 75.308706 142.047815 
L 75.374545 141.474565 
L 75.445871 141.422452 
L 75.533656 140.953429 
L 75.566575 140.901315 
L 75.659847 140.640747 
L 75.725686 140.53652 
L 75.824444 140.067498 
L 76.060367 139.963271 
L 76.153639 139.650589 
L 76.24691 139.546362 
L 76.329209 139.285794 
L 76.477347 139.181566 
L 76.477347 139.129453 
L 76.609024 139.025226 
L 76.718756 138.816771 
L 76.828487 138.712544 
L 76.938219 138.139294 
L 76.993085 138.087181 
L 77.097329 137.722385 
L 77.190601 137.618158 
L 77.283873 137.409704 
L 77.322279 137.305476 
L 77.432011 137.149136 
L 77.442984 137.097022 
L 77.552715 136.628 
L 77.580148 136.575886 
L 77.684393 136.211091 
L 77.739259 136.106863 
L 77.843504 135.794182 
L 78.183671 135.689955 
L 78.26597 135.429387 
L 78.397648 135.325159 
L 78.447027 135.116705 
L 78.584191 135.012478 
L 78.693923 134.647682 
L 78.704896 134.647682 
L 78.814627 134.230774 
L 78.853033 134.126546 
L 78.935332 133.918092 
L 79.110902 133.865978 
L 79.209661 133.240615 
L 79.270013 133.188501 
L 79.346825 132.980047 
L 79.407177 132.87582 
L 79.500449 132.511024 
L 79.604694 132.406797 
L 79.708939 132.094116 
L 79.741858 131.989888 
L 79.83513 131.781434 
L 79.922915 131.72932 
L 79.988754 131.416639 
L 80.054593 131.312411 
L 80.164325 130.947616 
L 80.25211 130.843389 
L 80.268569 130.739162 
L 80.383788 130.634935 
L 80.488032 130.374366 
L 80.625197 130.270139 
L 80.691036 130.061685 
L 80.784307 129.957458 
L 80.872093 129.540549 
L 80.937932 129.436322 
L 81.00377 129.279981 
L 81.135448 129.175753 
L 81.21226 128.915185 
L 81.415264 128.810958 
L 81.497562 128.341936 
L 81.618267 128.237709 
L 81.706052 127.97714 
L 81.777377 127.872913 
L 81.832243 127.716572 
L 81.898082 127.664459 
L 82.002327 127.351777 
L 82.22179 127.24755 
L 82.276656 127.143323 
L 82.364441 127.039096 
L 82.468686 126.778527 
L 82.572931 126.6743 
L 82.62231 126.413732 
L 82.710095 126.309505 
L 82.803367 126.101051 
L 82.967964 125.996823 
L 83.072209 125.684142 
L 83.181941 125.579914 
L 83.291672 125.267233 
L 83.368484 125.163006 
L 83.456269 124.746097 
L 83.637326 124.64187 
L 83.747058 124.381301 
L 83.856789 124.277074 
L 83.856789 124.224961 
L 84.125631 124.120733 
L 84.19147 123.964393 
L 84.306688 123.860165 
L 84.394473 123.599597 
L 84.723668 123.49537 
L 84.81694 123.130575 
L 85.014456 123.026348 
L 85.107728 122.661552 
L 85.179054 122.609439 
L 85.233919 122.400984 
L 85.365597 122.400984 
L 85.453382 122.140416 
L 85.607006 122.036189 
L 85.661872 121.723507 
L 85.859389 121.61928 
L 85.958147 121.410826 
L 86.078852 121.306599 
L 86.166637 121.098144 
L 86.281855 120.993917 
L 86.347694 120.837576 
L 86.539724 120.733349 
L 86.627509 120.472781 
L 86.78662 120.368554 
L 86.868919 120.003758 
L 87.104841 119.899531 
L 87.148734 119.795304 
L 87.329791 119.691077 
L 87.412089 119.586849 
L 87.472442 119.482622 
L 87.549254 119.222054 
L 87.76323 119.117827 
L 87.845529 118.596691 
L 87.97172 118.492464 
L 87.999153 118.388236 
L 88.207643 118.336123 
L 88.267995 118.075555 
L 88.410646 117.971328 
L 88.443565 117.71076 
L 88.630109 117.606532 
L 88.668515 117.502305 
L 88.816653 117.398078 
L 88.904438 117.293851 
L 88.96479 117.241737 
L 89.069035 116.981169 
L 89.261065 116.876942 
L 89.326904 116.616374 
L 89.486015 116.512147 
L 89.551853 116.303692 
L 89.705478 116.199465 
L 89.798749 115.886783 
L 89.930427 115.782556 
L 89.930427 115.730442 
L 90.062105 115.626215 
L 90.127944 115.313534 
L 90.276081 115.209306 
L 90.352893 114.948738 
L 90.424219 114.844511 
L 90.53395 114.479716 
L 90.687574 114.375489 
L 90.780846 114.010693 
L 90.901551 113.906466 
L 90.978363 113.802239 
L 91.164906 113.698012 
L 91.274638 113.333216 
L 91.373396 113.228989 
L 91.455695 113.072648 
L 91.603832 112.968421 
L 91.675158 112.759967 
L 91.784889 112.65574 
L 91.889134 112.290944 
L 92.020812 112.186717 
L 92.103111 111.769808 
L 92.185409 111.665581 
L 92.240275 111.50924 
L 92.339033 111.405013 
L 92.443278 110.988104 
L 92.55301 110.883877 
L 92.657255 110.362741 
L 92.772473 110.258514 
L 92.854771 110.102173 
L 93.002909 109.997945 
L 93.052288 109.841605 
L 93.194939 109.737377 
L 93.244318 109.424696 
L 93.397942 109.320469 
L 93.491214 109.007787 
L 93.606432 108.90356 
L 93.683244 108.486651 
L 93.803949 108.382424 
L 93.902707 108.121856 
L 93.985006 108.017628 
L 94.061818 107.704947 
L 94.10571 107.600719 
L 94.209955 107.392265 
L 94.369066 107.288038 
L 94.445878 107.131697 
L 94.555609 107.131697 
L 94.555609 106.975356 
L 94.73118 106.871129 
L 94.829938 106.714788 
L 94.989049 106.610561 
L 95.027455 106.402106 
L 95.345676 106.349993 
L 95.455408 105.985198 
L 95.72425 105.88097 
L 95.828495 105.620402 
L 95.93274 105.568289 
L 95.982119 105.203493 
L 96.179635 105.099266 
L 96.234501 104.786585 
L 96.344233 104.682357 
L 96.426531 104.421789 
L 96.547236 104.317562 
L 96.624048 104.161221 
L 96.728293 104.056994 
L 96.794132 103.692199 
L 96.958729 103.587972 
L 97.057487 103.379517 
L 97.244031 103.27529 
L 97.304383 103.171063 
L 97.562252 103.066836 
L 97.639064 102.70204 
L 97.666497 102.70204 
L 97.67747 102.70204 
L 97.748796 102.441472 
L 97.935339 102.337245 
L 97.990205 102.233018 
L 98.198695 102.128791 
L 98.27002 101.920336 
L 98.665054 101.816109 
L 98.736379 101.451314 
L 98.86257 101.347086 
L 98.86257 101.294973 
L 99.136899 101.190746 
L 99.241144 100.82595 
L 99.328929 100.721723 
L 99.361849 100.617496 
L 99.460607 100.513269 
L 99.570338 100.356928 
L 99.745909 100.252701 
L 99.844667 100.044246 
L 99.998291 99.940019 
L 99.998291 99.887905 
L 100.206781 99.783678 
L 100.206781 99.731565 
L 100.387838 99.731565 
L 100.48111 99.470996 
L 100.6896 99.366769 
L 100.6896 99.314656 
L 100.854197 99.210428 
L 100.925522 99.001974 
L 101.139499 98.897747 
L 101.216311 98.689292 
L 101.326042 98.585065 
L 101.413827 98.376611 
L 101.572938 98.272383 
L 101.611344 98.116043 
L 101.781428 98.011815 
L 101.852753 97.855475 
L 102.088676 97.751247 
L 102.160002 97.64702 
L 102.25876 97.542793 
L 102.346545 97.177998 
L 102.500169 97.07377 
L 102.549548 96.969543 
L 102.758038 96.865316 
L 102.807417 96.656862 
L 102.961041 96.552634 
L 103.010421 96.34418 
L 103.23537 96.239953 
L 103.262803 96.135726 
L 103.520672 96.031498 
L 103.630404 95.666703 
L 103.866326 95.562476 
L 103.926679 95.354021 
L 104.140655 95.249794 
L 104.250386 95.04134 
L 104.316225 94.937113 
L 104.42047 94.728658 
L 104.639933 94.624431 
L 104.66188 94.46809 
L 104.881343 94.363863 
L 104.919749 94.207522 
L 105.051426 94.103295 
L 105.161158 93.842727 
L 105.331242 93.7385 
L 105.408054 93.530045 
L 105.583624 93.425818 
L 105.687869 93.16525 
L 105.923792 93.061023 
L 105.923792 93.008909 
L 106.181661 92.904682 
L 106.192634 92.800455 
L 106.390151 92.696227 
L 106.477936 92.487773 
L 106.955268 92.383546 
L 106.971727 92.279318 
L 107.163758 92.175091 
L 107.235083 92.070864 
L 107.586224 91.966637 
L 107.679496 91.706069 
L 107.745334 91.706069 
L 107.750821 91.497614 
L 107.99223 91.393387 
L 108.101962 91.28916 
L 108.272046 91.184933 
L 108.354344 91.028592 
L 108.623186 90.924365 
L 108.683539 90.71591 
L 108.787784 90.663797 
L 108.859109 90.507456 
L 108.990787 90.403229 
L 109.023706 90.090547 
L 109.171844 90.038433 
L 109.204763 89.777865 
L 109.462632 89.673638 
L 109.522985 89.569411 
L 109.665635 89.465184 
L 109.753421 89.256729 
L 109.97837 89.152502 
L 110.01129 88.944048 
L 110.274645 88.83982 
L 110.373404 88.683479 
L 110.505081 88.579252 
L 110.60384 88.162343 
L 110.878168 88.058116 
L 110.944007 87.745435 
L 111.141524 87.641207 
L 111.174443 87.484866 
L 111.481692 87.432753 
L 111.525584 87.224298 
L 111.629829 87.120071 
L 111.695668 87.015844 
L 112.096188 86.911617 
L 112.140081 86.755276 
L 112.425382 86.651049 
L 112.425382 86.598935 
L 112.611926 86.494708 
L 112.622899 86.182026 
L 112.880768 86.077799 
L 112.9905 85.817231 
L 113.193503 85.713004 
L 113.292261 85.556663 
L 113.604996 85.452436 
L 113.714727 85.296095 
L 113.873838 85.191868 
L 113.873838 85.139754 
L 114.400549 85.035527 
L 114.477361 84.879186 
L 114.570633 84.827072 
L 114.658418 84.514391 
L 114.833989 84.410164 
L 114.866908 84.253823 
L 115.229022 84.149596 
L 115.278401 83.889027 
L 115.486891 83.7848 
L 115.514324 83.628459 
L 115.777679 83.524232 
L 115.859978 83.367891 
L 116.090414 83.263664 
L 116.117847 83.159437 
L 116.32085 83.05521 
L 116.419609 82.898869 
L 116.710397 82.794642 
L 116.75429 82.586187 
L 117.028618 82.48196 
L 117.094457 82.325619 
L 117.176756 82.221392 
L 117.253568 81.960824 
L 117.440111 81.856597 
L 117.489491 81.700256 
L 117.681521 81.596029 
L 117.780279 81.283347 
L 117.884524 81.17912 
L 117.972309 81.022779 
L 118.449641 80.918552 
L 118.542913 80.762211 
L 118.74043 80.657984 
L 118.789809 80.553757 
L 118.959893 80.449529 
L 118.998299 80.345302 
L 119.514037 80.241075 
L 119.596335 80.03262 
L 119.71704 79.928393 
L 119.760932 79.772052 
L 120.013315 79.667825 
L 120.013315 79.615712 
L 120.166939 79.511484 
L 120.227291 79.407257 
L 120.567459 79.30303 
L 120.594892 79.146689 
L 120.88568 79.042462 
L 120.989925 78.938235 
L 121.176469 78.834007 
L 121.26974 78.72978 
L 121.439824 78.625553 
L 121.538583 78.469212 
L 121.631854 78.364985 
L 121.708666 78.156531 
L 121.873264 78.052303 
L 121.972022 77.948076 
L 122.246351 77.843849 
L 122.334136 77.739622 
L 122.559085 77.635394 
L 122.624924 77.479054 
L 122.87182 77.374826 
L 122.970579 77.114258 
L 123.327206 77.010031 
L 123.414991 76.801577 
L 123.799051 76.697349 
L 123.89781 76.541009 
L 124.106299 76.436781 
L 124.216031 76.1241 
L 124.561685 76.019873 
L 124.561685 75.967759 
L 125.143262 75.863532 
L 125.187155 75.759305 
L 125.280426 75.655077 
L 125.373698 75.55085 
L 125.488916 75.446623 
L 125.538295 75.342396 
L 125.785191 75.238168 
L 125.856517 75.029714 
L 126.04306 74.925487 
L 126.04306 74.873373 
L 126.218631 74.769146 
L 127.985308 73.570533 
L 127.985308 73.466306 
L 128.188311 73.362079 
L 128.25415 73.10151 
L 128.490072 72.997283 
L 128.544938 72.893056 
L 128.879619 72.788829 
L 128.961918 72.632488 
L 128.994837 72.632488 
L 129.099082 72.319806 
L 129.225273 72.215579 
L 129.329518 72.059238 
L 129.505089 71.955011 
L 129.609334 71.79867 
L 129.708092 71.694443 
L 129.762958 71.381761 
L 130.185424 71.277534 
L 130.295155 71.121193 
L 130.465239 71.06908 
L 130.542051 70.860625 
L 130.783461 70.756398 
L 130.860273 70.600057 
L 131.02487 70.49583 
L 131.068762 70.391603 
L 131.282739 70.287376 
L 131.376011 70.131035 
L 131.694232 70.026808 
L 131.732638 69.92258 
L 132.308728 69.818353 
L 132.308728 69.76624 
L 132.714735 69.662012 
L 132.808007 69.557785 
L 133.148174 69.453558 
L 133.2195 69.349331 
L 133.37861 69.245103 
L 133.471882 69.036649 
L 133.60356 68.932422 
L 133.674885 68.828195 
L 133.790103 68.723967 
L 133.866915 68.61974 
L 134.218056 68.515513 
L 134.272922 68.411286 
L 134.536277 68.307058 
L 134.536277 68.254945 
L 134.832553 68.150718 
L 134.843526 68.04649 
L 135.595186 67.942263 
L 135.628106 67.838036 
L 136.028626 67.733809 
L 136.028626 67.681695 
L 136.763827 67.577468 
L 136.802233 67.369014 
L 137.032669 67.264786 
L 137.032669 67.212673 
L 137.372836 67.108445 
L 137.372836 67.056332 
L 137.778843 66.952105 
L 137.855655 66.847877 
L 138.431745 66.74365 
L 138.525017 66.639423 
L 138.865185 66.535196 
L 138.865185 66.483082 
L 139.183406 66.378855 
L 139.282164 66.222514 
L 139.501627 66.118287 
L 139.594899 65.961946 
L 139.73755 65.857719 
L 139.836308 65.701378 
L 140.170989 65.597151 
L 140.170989 65.545037 
L 140.373993 65.44081 
L 140.384966 65.336583 
L 140.752566 65.232356 
L 140.818405 65.128128 
L 141.213439 65.023901 
L 141.213439 64.971787 
L 141.624932 64.86756 
L 141.718203 64.763333 
L 141.882801 64.659106 
L 141.937666 64.554879 
L 142.074831 64.450651 
L 142.173589 64.346424 
L 142.34916 64.242197 
L 142.431458 64.033743 
L 142.623488 63.929515 
L 142.634461 63.825288 
L 142.826491 63.721061 
L 142.90879 63.56472 
L 143.08436 63.460493 
L 143.128253 63.356266 
L 144.121323 63.252038 
L 144.203622 63.147811 
L 144.697413 63.043584 
L 144.779712 62.939357 
L 145.048554 62.83513 
L 145.136339 62.730902 
L 145.416155 62.626675 
L 145.449074 62.470334 
L 145.898973 62.366107 
L 145.997732 62.209766 
L 146.178788 62.105539 
L 146.255601 61.844971 
L 146.590282 61.740744 
L 146.590282 61.68863 
L 146.765852 61.636517 
L 146.853637 61.480176 
L 147.396808 61.375948 
L 147.495566 61.219608 
L 147.687596 61.11538 
L 147.797328 60.95904 
L 148.044224 60.854812 
L 148.132009 60.594244 
L 148.219794 60.490017 
L 148.313066 60.281563 
L 148.65872 60.177335 
L 148.735532 59.968881 
L 149.020834 59.864654 
L 149.125079 59.708313 
L 149.278703 59.604086 
L 149.317109 59.499859 
L 149.646304 59.395631 
L 149.756035 59.291404 
L 150.205934 59.187177 
L 150.22788 59.08295 
L 150.441857 58.978722 
L 150.447343 58.874495 
L 150.880783 58.770268 
L 150.880783 58.718154 
L 151.089273 58.613927 
L 151.160598 58.405473 
L 151.467846 58.301246 
L 151.473333 58.144905 
L 152.142695 58.040678 
L 152.252426 57.93645 
L 152.609054 57.832223 
L 152.625513 57.727996 
L 153.185144 57.623769 
L 153.294876 57.519541 
L 153.728315 57.467428 
L 153.755748 57.311087 
L 154.44157 57.20686 
L 154.44157 57.154746 
L 155.22615 57.050519 
L 155.22615 56.946292 
L 155.621183 56.842065 
L 155.621183 56.789951 
L 155.884539 56.685724 
L 155.884539 56.63361 
L 156.071082 56.529383 
L 156.153381 56.425156 
L 156.564874 56.320928 
L 156.61974 56.216701 
L 157.042206 56.112474 
L 157.113531 56.008247 
L 157.38786 55.90402 
L 157.497592 55.695565 
L 157.700595 55.591338 
L 157.80484 55.382883 
L 158.128548 55.278656 
L 158.227306 55.174429 
L 158.512608 55.070202 
L 158.512608 55.018088 
L 158.759504 54.913861 
L 158.775963 54.809634 
L 159.247809 54.705407 
L 159.247809 54.653293 
L 159.780007 54.549066 
L 159.780007 54.496952 
L 160.109201 54.392725 
L 160.213446 54.132157 
L 160.877321 54.02793 
L 160.877321 53.975816 
L 161.908797 53.871589 
L 162.013042 53.767362 
L 162.17764 53.663134 
L 162.17764 53.611021 
L 162.408076 53.506794 
L 162.506834 53.298339 
L 162.627539 53.194112 
L 162.704351 53.089885 
L 163.220089 52.985657 
L 163.302387 52.829317 
L 163.549283 52.725089 
L 163.549283 52.672976 
L 164.152806 52.568749 
L 164.152806 52.516635 
L 164.498461 52.412408 
L 164.498461 52.360294 
L 165.10747 52.256067 
L 165.217202 52.15184 
L 165.859131 52.047613 
L 165.903024 51.839158 
L 166.594332 51.734931 
L 166.594332 51.682817 
L 167.230775 51.57859 
L 167.230775 51.526476 
L 167.784919 51.422249 
L 167.801378 51.318022 
L 168.108627 51.213795 
L 168.207385 51.109568 
L 168.410388 51.00534 
L 168.426848 50.901113 
L 168.810908 50.849 
L 168.810908 50.744772 
L 169.408945 50.640545 
L 169.408945 50.588431 
L 169.787518 50.484204 
L 169.86433 50.327863 
L 170.056361 50.27575 
L 170.061847 50.119409 
L 170.522719 50.015182 
L 170.522719 49.963068 
L 170.895806 49.858841 
L 170.939699 49.754614 
L 171.296326 49.650387 
L 171.318273 49.494046 
L 171.839497 49.389818 
L 171.938256 49.181364 
L 172.218071 49.12925 
L 172.218071 49.025023 
L 173.271493 48.920796 
L 173.271493 48.868682 
L 173.704933 48.764455 
L 173.715906 48.660228 
L 174.313942 48.556001 
L 174.313942 48.503887 
L 174.505972 48.39966 
L 174.505972 48.347546 
L 174.719949 48.243319 
L 174.719949 48.191205 
L 175.279579 48.086978 
L 175.317985 47.982751 
L 176.151945 47.878524 
L 176.162918 47.774297 
L 176.645736 47.670069 
L 176.733522 47.565842 
L 177.869243 47.461615 
L 177.880216 47.357388 
L 178.379494 47.253161 
L 178.379494 47.201047 
L 178.566038 47.09682 
L 178.587984 46.992592 
L 178.906205 46.888365 
L 178.999477 46.784138 
L 179.240886 46.679911 
L 179.240886 46.627797 
L 179.61946 46.52357 
L 179.61946 46.471456 
L 180.168117 46.367229 
L 180.168117 46.315116 
L 180.458906 46.210888 
L 180.458906 46.158775 
L 181.550734 46.054548 
L 181.583653 45.95032 
L 182.560264 45.846093 
L 182.615129 45.741866 
L 183.240599 45.637639 
L 183.240599 45.585525 
L 183.695985 45.481298 
L 183.695985 45.429184 
L 184.074558 45.324957 
L 184.091018 45.22073 
L 184.700028 45.116503 
L 184.700028 45.064389 
L 185.533987 44.960162 
L 185.533987 44.908048 
L 186.258215 44.803821 
L 186.258215 44.751707 
L 187.152527 44.64748 
L 187.152527 44.595366 
L 187.701184 44.491139 
L 187.810916 44.334798 
L 188.035865 44.230571 
L 188.052325 44.126344 
L 188.551603 44.022117 
L 188.551603 43.970003 
L 188.825932 43.91789 
L 188.825932 43.813662 
L 189.264858 43.709435 
L 189.303264 43.605208 
L 189.824488 43.500981 
L 189.824488 43.448867 
L 190.225008 43.34464 
L 190.225008 43.292526 
L 191.108347 43.188299 
L 191.108347 43.136185 
L 191.5363 43.031958 
L 191.5363 42.979845 
L 192.255041 42.875617 
L 192.255041 42.823504 
L 192.929889 42.719277 
L 192.929889 42.667163 
L 193.500493 42.562936 
L 193.500493 42.510822 
L 194.433211 42.406595 
L 194.504536 42.302368 
L 194.910543 42.19814 
L 195.014788 41.989686 
L 195.349469 41.885459 
L 195.4592 41.729118 
L 195.66769 41.624891 
L 195.70061 41.520664 
L 196.380945 41.416436 
L 196.380945 41.364323 
L 196.748545 41.260096 
L 196.83633 41.103755 
L 197.593478 40.999527 
L 197.68675 40.8953 
L 198.833444 40.791073 
L 198.910256 40.686846 
L 199.277856 40.582619 
L 199.338208 40.426278 
L 200.298359 40.322051 
L 200.298359 40.269937 
L 201.362754 40.16571 
L 201.362754 40.113596 
L 202.2022 40.009369 
L 202.289986 39.853028 
L 203.03616 39.748801 
L 203.03616 39.696687 
L 203.897552 39.59246 
L 203.897552 39.540346 
L 204.58886 39.436119 
L 204.599833 39.331892 
L 205.351494 39.227665 
L 205.351494 39.175551 
L 205.499632 39.071324 
L 205.499632 39.01921 
L 206.130588 38.914983 
L 206.163507 38.706529 
L 206.816409 38.602301 
L 206.816409 38.550188 
L 207.590016 38.445961 
L 207.688775 38.341733 
L 208.423976 38.237506 
L 208.440435 38.133279 
L 208.890335 38.029052 
L 208.994579 37.924825 
L 209.340234 37.820597 
L 209.340234 37.768484 
L 210.009596 37.664257 
L 210.009596 37.612143 
L 210.54728 37.507916 
L 210.54728 37.455802 
L 210.969746 37.351575 
L 210.969746 37.299461 
L 211.244075 37.195234 
L 211.266021 37.091007 
L 212.857128 36.98678 
L 212.857128 36.934666 
L 213.674628 36.830439 
L 213.674628 36.778325 
L 214.579912 36.674098 
L 214.662211 36.569871 
L 215.51263 36.465644 
L 215.51263 36.41353 
L 216.884274 36.309303 
L 216.961086 36.205075 
L 217.312226 36.152962 
L 217.312226 36.048735 
L 218.436974 35.944507 
L 218.436974 35.892394 
L 219.424558 35.788167 
L 219.424558 35.736053 
L 220.247544 35.631826 
L 220.247544 35.579712 
L 220.960798 35.475485 
L 220.960798 35.423371 
L 221.624674 35.319144 
L 221.66308 35.214917 
L 222.716502 35.11069 
L 222.716502 35.058576 
L 223.26516 34.954349 
L 223.26516 34.902235 
L 224.126552 34.798008 
L 224.126552 34.745894 
L 224.477693 34.641667 
L 224.477693 34.589554 
L 224.719102 34.485326 
L 224.724588 34.381099 
L 225.882256 34.276872 
L 225.882256 34.224758 
L 226.271802 34.120531 
L 226.271802 34.068418 
L 226.710728 33.96419 
L 226.710728 33.912077 
L 228.192104 33.807849 
L 228.192104 33.755736 
L 229.39915 33.651509 
L 229.39915 33.599395 
L 230.013646 33.495168 
L 230.013646 33.443054 
L 230.589737 33.338827 
L 230.677522 33.130373 
L 231.38529 33.026145 
L 231.434669 32.921918 
L 232.729501 32.817691 
L 232.729501 32.765577 
L 233.991413 32.66135 
L 233.991413 32.609236 
L 234.803426 32.505009 
L 234.852805 32.400782 
L 235.209432 32.296555 
L 235.209432 32.244441 
L 236.383559 32.192328 
L 236.383559 32.0881 
L 237.607065 31.983873 
L 237.71131 31.879646 
L 238.402619 31.775419 
L 238.402619 31.723305 
L 240.262567 31.619078 
L 240.350353 31.514851 
L 240.613708 31.410623 
L 240.613708 31.35851 
L 243.027801 31.254283 
L 243.027801 31.202169 
L 244.410418 31.097942 
L 244.410418 31.045828 
L 245.524192 30.941601 
L 245.562598 30.837374 
L 246.725752 30.733147 
L 246.725752 30.681033 
L 247.713335 30.576806 
L 247.713335 30.524692 
L 248.744811 30.420465 
L 248.744811 30.368351 
L 249.529392 30.264124 
L 249.595231 30.159897 
L 250.253619 30.05567 
L 250.253619 30.003556 
L 251.43872 29.899329 
L 251.477126 29.795102 
L 253.161504 29.690874 
L 253.161504 29.638761 
L 253.847326 29.534534 
L 253.847326 29.48242 
L 254.725178 29.378193 
L 254.725178 29.326079 
L 255.690815 29.221852 
L 255.690815 29.169738 
L 256.288851 29.065511 
L 256.38761 28.90917 
L 258.006149 28.804943 
L 258.088448 28.648602 
L 258.401183 28.544375 
L 258.401183 28.492261 
L 260.486081 28.388034 
L 260.486081 28.335921 
L 261.605342 28.231693 
L 261.605342 28.17958 
L 264.518713 28.075352 
L 264.518713 28.023239 
L 265.572135 27.919012 
L 265.572135 27.866898 
L 268.298963 27.762671 
L 268.298963 27.710557 
L 270.191831 27.658444 
L 270.191831 27.658444 
" clip-path="url(#p9fc0e62876)" style="fill: none; stroke: #a5a58d; stroke-width: 1.5; stroke-linecap: square"/>
   </g>
   <g id="line2d_16">
    <path d="M 48.051404 243.877806 
L 48.09384 243.778532 
L 48.18932 243.182886 
L 48.221147 243.083612 
L 48.306019 242.239781 
L 48.380281 242.140507 
L 48.459848 241.892321 
L 48.518197 241.793047 
L 48.618982 241.04849 
L 48.645504 241.04849 
L 48.751594 240.403207 
L 48.772812 240.303933 
L 48.862988 239.757924 
L 48.905423 239.65865 
L 48.990295 239.112641 
L 49.022122 239.013367 
L 49.122906 238.368084 
L 49.149429 238.26881 
L 49.239605 237.375342 
L 49.266127 237.276067 
L 49.372216 236.283325 
L 49.404043 236.18405 
L 49.510132 235.638042 
L 49.547264 235.538768 
L 49.653353 234.496388 
L 49.679875 234.397113 
L 49.785965 233.851105 
L 49.791269 233.851105 
L 49.854923 233.503645 
L 49.950403 233.404371 
L 50.040579 232.709451 
L 50.088319 232.610177 
L 50.1838 232.064168 
L 50.220931 232.014531 
L 50.311107 231.369248 
L 50.369456 231.269974 
L 50.464936 230.326868 
L 50.539199 230.227594 
L 50.634679 229.582311 
L 50.73016 229.483037 
L 50.836249 228.490294 
L 50.857467 228.39102 
L 50.958252 227.894649 
L 50.979469 227.845012 
L 51.069645 227.150092 
L 51.127995 227.050817 
L 51.228779 226.405535 
L 51.329564 226.30626 
L 51.41974 225.859526 
L 51.462176 225.809889 
L 51.562961 225.114969 
L 51.584179 225.015695 
L 51.679659 224.618598 
L 51.759226 224.519323 
L 51.860011 223.625855 
L 51.886533 223.576218 
L 51.992622 223.179121 
L 52.024449 223.179121 
L 52.093407 222.484201 
L 52.157061 222.384927 
L 52.252541 221.392184 
L 52.337413 221.29291 
L 52.443502 220.498715 
L 52.496547 220.399441 
L 52.602636 219.90307 
L 52.618549 219.853433 
L 52.724639 219.357061 
L 52.740552 219.257787 
L 52.846642 218.612504 
L 52.899686 218.51323 
L 53.000471 218.066496 
L 53.032298 218.016859 
L 53.111865 217.570124 
L 53.196736 217.47085 
L 53.302826 217.12339 
L 53.334652 217.073753 
L 53.435437 216.478108 
L 53.499091 216.378833 
L 53.60518 216.031373 
L 53.642311 215.981736 
L 53.737792 215.435728 
L 53.812054 215.336453 
L 53.875708 214.988993 
L 53.896926 214.988993 
L 53.987102 214.889719 
L 54.066669 214.591896 
L 54.125018 214.492622 
L 54.231107 213.748065 
L 54.284152 213.648791 
L 54.374328 213.202057 
L 54.459199 213.102782 
L 54.533462 212.804959 
L 54.60242 212.705685 
L 54.681987 212.159677 
L 54.740336 212.060402 
L 54.835816 211.41512 
L 54.862339 211.365483 
L 54.941906 211.117297 
L 55.010864 211.018023 
L 55.111649 210.670563 
L 55.138171 210.620926 
L 55.238956 210.174191 
L 55.270782 210.074917 
L 55.360958 209.876368 
L 55.387481 209.826731 
L 55.488266 209.479271 
L 55.509483 209.379997 
L 55.615573 208.833989 
L 55.6474 208.784351 
L 55.726967 208.536166 
L 55.811838 208.436892 
L 55.864883 208.089432 
L 55.976276 207.990157 
L 56.082366 207.444149 
L 56.146019 207.344875 
L 56.214977 207.146326 
L 56.310458 207.096689 
L 56.347589 206.947777 
L 56.443069 206.89814 
L 56.527941 206.55068 
L 56.612812 206.451406 
L 56.676466 206.20322 
L 56.745424 206.153583 
L 56.851513 205.85576 
L 56.904558 205.806123 
L 57.010647 205.160841 
L 57.116737 205.061566 
L 57.169781 204.763744 
L 57.291784 204.664469 
L 57.376655 204.465921 
L 57.450918 204.366646 
L 57.551703 204.019186 
L 57.615356 203.919912 
L 57.668401 203.572452 
L 57.806317 203.473178 
L 57.907102 203.125718 
L 57.965451 203.076081 
L 58.071541 202.678984 
L 58.087454 202.629347 
L 58.145803 202.281887 
L 58.22537 202.23225 
L 58.326155 201.88479 
L 58.373895 201.785515 
L 58.464071 201.438055 
L 58.479984 201.438055 
L 58.52242 201.338781 
L 58.628509 200.892047 
L 58.660336 200.84241 
L 58.72399 200.49495 
L 58.824775 200.395676 
L 58.92556 199.948941 
L 59.031649 199.849667 
L 59.137738 199.601481 
L 59.174869 199.551844 
L 59.27035 198.75765 
L 59.328699 198.658376 
L 59.41357 198.162004 
L 59.456006 198.112367 
L 59.498442 197.814545 
L 59.668185 197.71527 
L 59.737143 197.615996 
L 59.837928 197.516722 
L 59.938713 197.119625 
L 59.954626 197.069987 
L 60.039497 196.573616 
L 60.150891 196.474342 
L 60.225154 196.275793 
L 60.294112 196.226156 
L 60.394897 195.729785 
L 60.447941 195.630511 
L 60.516899 195.332688 
L 60.633598 195.233413 
L 60.739687 194.935591 
L 60.776818 194.836316 
L 60.882907 194.439219 
L 60.914734 194.339945 
L 60.999606 193.893211 
L 61.057955 193.843574 
L 61.153435 193.545751 
L 61.201175 193.446477 
L 61.296656 193.148654 
L 61.402745 193.04938 
L 61.50353 192.404097 
L 61.567184 192.304822 
L 61.65736 191.858088 
L 61.763449 191.808451 
L 61.869538 191.560265 
L 61.980932 191.460991 
L 62.060499 191.063894 
L 62.219633 190.96462 
L 62.304504 190.517886 
L 62.373462 190.468248 
L 62.426507 190.170426 
L 62.50077 190.120788 
L 62.553814 189.674054 
L 62.633381 189.624417 
L 62.723557 189.177683 
L 62.760688 189.128046 
L 62.861473 188.681312 
L 62.8933 188.582037 
L 62.978172 188.234577 
L 63.158523 188.135303 
L 63.222177 188.036029 
L 63.354789 187.936755 
L 63.450269 187.539657 
L 63.492705 187.440383 
L 63.577576 186.944012 
L 63.673057 186.844738 
L 63.768537 186.44764 
L 63.832191 186.348366 
L 63.89054 186.149818 
L 63.980716 186.050543 
L 64.060283 185.653446 
L 64.13985 185.554172 
L 64.240634 185.157075 
L 64.28307 185.057801 
L 64.383855 184.710341 
L 64.410377 184.611066 
L 64.468727 184.313244 
L 64.638469 184.213969 
L 64.739254 183.816872 
L 64.850648 183.717598 
L 64.93552 183.270864 
L 64.999173 183.221227 
L 65.089349 182.923404 
L 65.153003 182.82413 
L 65.23257 182.575944 
L 65.439444 182.47667 
L 65.52962 182.079573 
L 65.556142 182.029935 
L 65.6251 181.583201 
L 65.688754 181.533564 
L 65.768321 181.235741 
L 65.842583 181.136467 
L 65.948673 180.789007 
L 66.033544 180.689733 
L 66.134329 180.39191 
L 66.203287 180.292636 
L 66.309376 179.945176 
L 66.426074 179.845901 
L 66.51625 179.250256 
L 66.579904 179.150982 
L 66.659471 178.753884 
L 66.728429 178.65461 
L 66.834518 178.456062 
L 66.91939 178.356787 
L 67.020175 178.108602 
L 67.158091 178.009327 
L 67.200526 177.810779 
L 67.333138 177.711505 
L 67.433923 177.364045 
L 67.508186 177.26477 
L 67.614275 176.867673 
L 67.656711 176.768399 
L 67.757495 176.420939 
L 67.826453 176.321665 
L 67.826453 176.272028 
L 67.974979 176.272028 
L 68.070459 175.974205 
L 68.134113 175.874931 
L 68.208375 175.676382 
L 68.266724 175.577108 
L 68.372813 175.229648 
L 68.40464 175.130374 
L 68.473598 174.931825 
L 68.574383 174.832551 
L 68.627428 174.634002 
L 68.80778 174.534728 
L 68.897956 174.187268 
L 69.009349 174.087994 
L 69.073003 173.641259 
L 69.205615 173.541985 
L 69.311704 173.194525 
L 69.364749 173.095251 
L 69.460229 172.94634 
L 69.555709 172.847065 
L 69.645885 172.549242 
L 69.709539 172.449968 
L 69.805019 172.152145 
L 69.852759 172.052871 
L 69.958849 171.506863 
L 70.022502 171.407588 
L 70.117983 170.960854 
L 70.139201 170.960854 
L 70.24529 170.563757 
L 70.255899 170.51412 
L 70.335466 170.315571 
L 70.473382 170.216297 
L 70.579471 169.918474 
L 70.63782 169.8192 
L 70.701474 169.521377 
L 70.802259 169.422103 
L 70.881826 169.12428 
L 71.003829 169.025006 
L 71.104613 168.826457 
L 71.152354 168.727183 
L 71.247834 168.528635 
L 71.300879 168.528635 
L 71.353923 168.0819 
L 71.518362 167.982626 
L 71.619147 167.635166 
L 71.640365 167.535892 
L 71.698714 167.238069 
L 71.83663 167.188432 
L 71.942719 166.592786 
L 72.101853 166.493512 
L 72.202638 165.997141 
L 72.340554 165.947503 
L 72.420121 165.550406 
L 72.504992 165.451132 
L 72.605777 165.054035 
L 72.68004 164.954761 
L 72.717171 164.756212 
L 72.812652 164.656938 
L 72.88161 164.359115 
L 73.008917 164.259841 
L 73.008917 164.210204 
L 73.199878 164.110929 
L 73.290053 163.763469 
L 73.32188 163.664195 
L 73.380229 163.167824 
L 73.544668 163.06855 
L 73.640148 162.621815 
L 73.778064 162.522541 
L 73.862936 162.323993 
L 73.921285 162.224718 
L 74.02207 161.976533 
L 74.154681 161.877258 
L 74.234248 161.629073 
L 74.335033 161.529798 
L 74.419905 161.33125 
L 74.531298 161.231976 
L 74.626779 161.033427 
L 74.748782 160.934153 
L 74.854871 160.586693 
L 74.945047 160.487419 
L 75.014005 160.189596 
L 75.109485 160.090321 
L 75.21027 159.742862 
L 75.295142 159.643587 
L 75.401231 159.445039 
L 75.422449 159.345764 
L 75.480798 159.047942 
L 75.666454 158.948667 
L 75.767239 158.700482 
L 75.836197 158.601207 
L 75.942286 158.20411 
L 76.069594 158.154473 
L 76.15977 157.807013 
L 76.196901 157.707739 
L 76.297686 157.360279 
L 76.387862 157.261005 
L 76.488646 157.062456 
L 76.562909 156.963182 
L 76.663694 156.566085 
L 76.764479 156.466811 
L 76.80161 156.367536 
L 76.976657 156.317899 
L 77.019093 156.069713 
L 77.135791 155.970439 
L 77.241881 155.523705 
L 77.294925 155.424431 
L 77.401015 155.027334 
L 77.432841 154.977696 
L 77.491191 154.729511 
L 77.671542 154.630237 
L 77.761718 154.133865 
L 77.878417 154.034591 
L 77.984506 153.687131 
L 78.064073 153.637494 
L 78.148944 153.389308 
L 78.19138 153.290034 
L 78.276251 153.041848 
L 78.366427 152.942574 
L 78.408863 152.8433 
L 78.631651 152.744025 
L 78.674086 152.446203 
L 78.934005 152.346928 
L 79.03479 152.198017 
L 79.103748 152.098743 
L 79.199229 151.80092 
L 79.347754 151.701646 
L 79.368971 151.602371 
L 79.501583 151.503097 
L 79.517497 151.403823 
L 79.681935 151.304548 
L 79.756197 151.056363 
L 79.872896 151.006726 
L 79.957767 150.75854 
L 80.021421 150.659266 
L 80.106292 150.361443 
L 80.201773 150.262169 
L 80.302557 150.013983 
L 80.42456 149.914709 
L 80.482909 149.71616 
L 80.583694 149.666523 
L 80.642043 149.3687 
L 80.663261 149.3687 
L 80.774655 149.269426 
L 80.859526 148.971603 
L 81.002747 148.921966 
L 81.055792 148.723417 
L 81.252057 148.624143 
L 81.347537 148.524869 
L 81.416495 148.425595 
L 81.496062 148.276683 
L 81.607456 148.177409 
L 81.697632 147.829949 
L 81.750677 147.730675 
L 81.819635 147.432852 
L 81.877984 147.383215 
L 81.984073 147.035755 
L 82.042422 146.936481 
L 82.100771 146.837206 
L 82.21747 146.737932 
L 82.307646 146.340835 
L 82.387213 146.241561 
L 82.493302 145.993375 
L 82.519824 145.943738 
L 82.620609 145.645915 
L 82.668349 145.596278 
L 82.668349 145.447366 
L 82.848701 145.348092 
L 82.944182 145.248818 
L 83.01314 145.149544 
L 83.119229 144.752447 
L 83.235927 144.653172 
L 83.31019 144.355349 
L 83.395061 144.256075 
L 83.495846 143.908615 
L 83.575413 143.809341 
L 83.580717 143.66043 
L 83.851245 143.561155 
L 83.930812 143.263332 
L 84.015684 143.164058 
L 84.095251 143.015147 
L 84.217253 142.915873 
L 84.312734 142.61805 
L 84.466563 142.518775 
L 84.556739 142.320227 
L 84.715873 142.220953 
L 84.816658 141.972767 
L 84.864398 141.873493 
L 84.896225 141.774218 
L 85.103099 141.674944 
L 85.14023 141.57567 
L 85.256929 141.476396 
L 85.357714 141.22821 
L 85.373627 141.128936 
L 85.431976 140.930387 
L 85.607023 140.831113 
L 85.649459 140.682201 
L 85.697199 140.682201 
L 85.813898 140.582927 
L 85.919987 140.285104 
L 86.063208 140.18583 
L 86.169297 139.689459 
L 86.222342 139.590184 
L 86.2913 139.242724 
L 86.492869 139.14345 
L 86.545914 138.895265 
L 86.614872 138.79599 
L 86.720961 138.498167 
L 86.858877 138.44853 
L 86.964967 138.10107 
L 87.033925 138.051433 
L 87.086969 137.852885 
L 87.315062 137.75361 
L 87.405237 137.555062 
L 87.585589 137.455788 
L 87.686374 137.306876 
L 87.797768 137.207602 
L 87.903857 136.959416 
L 87.994033 136.860142 
L 88.089514 136.463045 
L 88.131949 136.363771 
L 88.184994 136.214859 
L 88.349432 136.115585 
L 88.349432 136.065948 
L 88.598742 135.966674 
L 88.683614 135.768125 
L 88.906401 135.668851 
L 88.975359 135.519939 
L 89.081449 135.420665 
L 89.161016 135.271754 
L 89.325454 135.172479 
L 89.357281 135.023568 
L 89.542937 134.924294 
L 89.627809 134.825019 
L 89.659635 134.725745 
L 89.755116 134.527197 
L 89.887728 134.427922 
L 89.977903 134.229374 
L 90.158255 134.1301 
L 90.190082 134.030825 
L 90.418174 133.931551 
L 90.513655 133.683365 
L 90.561395 133.584091 
L 90.619744 133.43518 
L 90.837227 133.335905 
L 90.95923 133.186994 
L 91.017579 133.137357 
L 91.123668 132.938808 
L 91.171408 132.839534 
L 91.219148 132.690623 
L 91.537416 132.591348 
L 91.590461 132.442437 
L 91.792031 132.343163 
L 91.860989 132.04534 
L 92.030732 131.946066 
L 92.131517 131.598606 
L 92.264128 131.499331 
L 92.370218 131.400057 
L 92.571787 131.300783 
L 92.624832 131.151871 
L 92.794575 131.052597 
L 92.837011 130.754774 
L 93.123452 130.705137 
L 93.229541 130.357677 
L 93.28789 130.258403 
L 93.319717 130.109492 
L 93.457633 130.010217 
L 93.531896 129.762032 
L 93.622072 129.662757 
L 93.696334 129.464209 
L 93.781206 129.364935 
L 93.828946 129.216023 
L 94.009298 129.116749 
L 94.062342 129.017475 
L 94.28513 128.9182 
L 94.375306 128.620377 
L 94.476091 128.521103 
L 94.53444 128.322555 
L 94.656442 128.22328 
L 94.709487 128.124006 
L 94.820881 128.024732 
L 94.911057 127.726909 
L 95.006537 127.627635 
L 95.0808 127.379449 
L 95.213411 127.280175 
L 95.314196 126.883078 
L 95.574115 126.783803 
L 95.680204 126.684529 
L 95.712031 126.585255 
L 95.791598 126.237795 
L 95.87647 126.138521 
L 95.92421 125.939972 
L 96.290218 125.840698 
L 96.391003 125.592512 
L 96.444048 125.493238 
L 96.51831 125.195415 
L 96.619095 125.145778 
L 96.619095 125.046504 
L 96.804751 124.947229 
L 96.910841 124.649407 
L 97.022234 124.550132 
L 97.107106 124.301947 
L 97.382938 124.202672 
L 97.467809 123.90485 
L 97.542072 123.805575 
L 97.595117 123.656664 
L 97.711815 123.55739 
L 97.791382 123.309204 
L 98.019474 123.20993 
L 98.125563 122.961744 
L 98.242261 122.86247 
L 98.332437 122.564647 
L 98.50218 122.465373 
L 98.576443 122.217187 
L 98.666619 122.117913 
L 98.724968 121.919364 
L 98.873493 121.82009 
L 98.873493 121.720816 
L 99.032627 121.720816 
L 99.117498 121.47263 
L 99.255414 121.422993 
L 99.350895 121.12517 
L 99.79647 121.025896 
L 99.828297 120.926621 
L 99.923777 120.876984 
L 99.982126 120.678436 
L 100.151869 120.579162 
L 100.210218 120.43025 
L 100.443615 120.380613 
L 100.507268 120.033153 
L 100.783101 119.933879 
L 100.79371 119.834604 
L 101.064237 119.73533 
L 101.064237 119.685693 
L 101.207458 119.586419 
L 101.308243 119.437507 
L 101.334765 119.338233 
L 101.382505 119.189322 
L 101.499204 119.090047 
L 101.578771 118.841862 
L 101.764427 118.742587 
L 101.870516 118.544039 
L 101.98191 118.444765 
L 102.045564 118.295853 
L 102.204698 118.196579 
L 102.27896 118.047668 
L 102.37444 117.948393 
L 102.48053 117.600933 
L 102.591924 117.501659 
L 102.660882 117.402385 
L 102.719231 117.303111 
L 102.820016 117.154199 
L 102.942018 117.054925 
L 103.032194 116.906013 
L 103.111761 116.806739 
L 103.196633 116.608191 
L 103.286809 116.508916 
L 103.392898 116.360005 
L 103.578554 116.260731 
L 103.578554 116.211094 
L 103.700557 116.161456 
L 103.700557 116.062182 
L 103.96578 116.012545 
L 104.040043 115.813996 
L 104.130219 115.714722 
L 104.231004 115.466537 
L 104.549272 115.367262 
L 104.655361 115.218351 
L 104.819799 115.168714 
L 104.925889 114.870891 
L 105.143372 114.771617 
L 105.153981 114.672342 
L 105.286592 114.573068 
L 105.350246 114.324882 
L 105.55712 114.225608 
L 105.6526 113.927785 
L 105.848866 113.828511 
L 105.875388 113.6796 
L 106.087567 113.580325 
L 106.188352 113.232865 
L 106.320963 113.133591 
L 106.326268 113.034317 
L 106.623318 112.935043 
L 106.718798 112.786131 
L 106.787756 112.686857 
L 106.846105 112.488308 
L 106.957499 112.438671 
L 107.042371 112.190486 
L 107.296985 112.091211 
L 107.403074 111.9423 
L 107.509164 111.843026 
L 107.535686 111.743751 
L 107.843345 111.644477 
L 107.917607 111.545203 
L 108.119177 111.445929 
L 108.204049 111.297017 
L 108.315442 111.24738 
L 108.421532 111.048831 
L 108.596579 110.949557 
L 108.670842 110.651734 
L 108.824671 110.602097 
L 108.909543 110.453186 
L 109.116417 110.353912 
L 109.195984 110.205 
L 109.317986 110.105726 
L 109.349813 109.907177 
L 109.466512 109.807903 
L 109.561992 109.559717 
L 109.710517 109.460443 
L 109.795388 109.212257 
L 109.874955 109.112983 
L 109.938609 108.964072 
L 110.198528 108.864797 
L 110.251572 108.616612 
L 110.538014 108.517338 
L 110.56984 108.418063 
L 110.755497 108.318789 
L 110.856282 108.12024 
L 111.142723 108.020966 
L 111.216985 107.822418 
L 111.27003 107.723143 
L 111.370815 107.474958 
L 111.56708 107.375683 
L 111.61482 107.127498 
L 111.805781 107.028223 
L 111.885348 106.780038 
L 111.954306 106.680764 
L 112.039178 106.482215 
L 112.16118 106.382941 
L 112.193007 106.234029 
L 112.399881 106.134755 
L 112.490057 105.836932 
L 112.596146 105.737658 
L 112.670409 105.439835 
L 112.850761 105.390198 
L 112.951546 105.092375 
L 113.089462 104.993101 
L 113.179638 104.84419 
L 113.413034 104.744915 
L 113.471383 104.645641 
L 113.625213 104.546367 
L 113.720693 104.397455 
L 113.821478 104.298181 
L 113.858609 104.14927 
L 114.134442 104.099632 
L 114.219313 103.851447 
L 114.362534 103.752173 
L 114.463318 103.603261 
L 114.495145 103.503987 
L 114.59593 103.404713 
L 114.739151 103.305438 
L 114.781586 103.206164 
L 114.967243 103.10689 
L 115.073332 102.908341 
L 115.195335 102.809067 
L 115.243075 102.709793 
L 115.407513 102.610518 
L 115.476471 102.461607 
L 115.609083 102.362333 
L 115.693955 102.163784 
L 115.853089 102.06451 
L 115.916742 101.915599 
L 116.155443 101.816324 
L 116.256228 101.667413 
L 116.335795 101.568139 
L 116.415362 101.319953 
L 116.765457 101.220679 
L 116.855633 100.972493 
L 116.924591 100.873219 
L 117.014767 100.773944 
L 117.142074 100.67467 
L 117.163292 100.575396 
L 117.354252 100.476122 
L 117.449733 100.376847 
L 117.608867 100.277573 
L 117.709652 100.128662 
L 117.815741 100.029387 
L 117.92183 99.880476 
L 118.224185 99.781202 
L 118.287838 99.483379 
L 118.393928 99.384105 
L 118.46819 99.235193 
L 118.701587 99.135919 
L 118.722805 98.93737 
L 118.887243 98.838096 
L 118.897852 98.689185 
L 119.067595 98.58991 
L 119.147162 98.490636 
L 119.269165 98.391362 
L 119.300991 98.192813 
L 119.529083 98.093539 
L 119.571519 97.994265 
L 119.863265 97.894991 
L 119.863265 97.795716 
L 120.117879 97.696442 
L 120.186837 97.497893 
L 120.393711 97.398619 
L 120.494496 97.150433 
L 120.616499 97.051159 
L 120.690762 96.703699 
L 120.754415 96.604425 
L 120.828678 96.505151 
L 121.003725 96.405876 
L 121.040856 96.256965 
L 121.502345 96.157691 
L 121.565998 95.859868 
L 121.799395 95.760594 
L 121.799395 95.710957 
L 122.144185 95.611682 
L 122.144185 95.562045 
L 122.409409 95.462771 
L 122.488976 95.313859 
L 122.531411 95.214585 
L 122.637501 94.9664 
L 122.786026 94.867125 
L 122.786026 94.718214 
L 122.9929 94.61894 
L 123.08838 94.370754 
L 123.311168 94.27148 
L 123.401344 94.072931 
L 123.984835 93.973657 
L 124.090924 93.626197 
L 124.186405 93.526923 
L 124.255363 93.278737 
L 124.441019 93.179463 
L 124.520586 93.080188 
L 124.647893 92.980914 
L 124.663807 92.88164 
L 125.040424 92.782366 
L 125.07225 92.683091 
L 125.22608 92.583817 
L 125.326865 92.484543 
L 125.432954 92.385268 
L 125.512521 92.285994 
L 125.581479 92.18672 
L 125.639828 92.037809 
L 125.793658 91.938534 
L 125.899747 91.640711 
L 126.111926 91.541437 
L 126.191493 91.342889 
L 126.483238 91.243614 
L 126.578719 91.094703 
L 126.875769 90.995429 
L 126.981858 90.846517 
L 127.125079 90.747243 
L 127.204646 90.647969 
L 127.310735 90.548694 
L 127.406215 90.300509 
L 127.623699 90.201235 
L 127.713875 90.052323 
L 127.841182 89.953049 
L 127.883617 89.804137 
L 128.111709 89.7545 
L 128.212494 89.456677 
L 128.313279 89.357403 
L 128.355715 89.208492 
L 128.620938 89.109218 
L 128.684592 88.960306 
L 128.774768 88.861032 
L 128.774768 88.811395 
L 129.029382 88.71212 
L 129.103645 88.612846 
L 129.246865 88.513572 
L 129.289301 88.414298 
L 129.676527 88.315023 
L 129.676527 88.265386 
L 129.931141 88.166112 
L 130.000099 87.818652 
L 130.069057 87.719378 
L 130.069057 87.669741 
L 130.244105 87.570466 
L 130.313063 87.421555 
L 130.472197 87.322281 
L 130.578286 87.123732 
L 130.742725 87.024458 
L 130.827596 86.875546 
L 131.251953 86.776272 
L 131.251953 86.726635 
L 131.469436 86.627361 
L 131.506568 86.528086 
L 131.665702 86.428812 
L 131.750573 86.230264 
L 132.349978 86.130989 
L 132.445458 86.031715 
L 132.753117 85.982078 
L 132.763726 85.833167 
L 133.055472 85.733892 
L 133.150952 85.584981 
L 133.341913 85.485707 
L 133.410871 85.336795 
L 133.51696 85.237521 
L 133.585918 84.939698 
L 133.867055 84.840424 
L 133.973144 84.691512 
L 134.185323 84.592238 
L 134.291412 84.244778 
L 134.503591 84.145504 
L 134.503591 84.095867 
L 134.896121 83.996593 
L 134.980993 83.798044 
L 135.06056 83.69877 
L 135.087082 83.549858 
L 135.251521 83.450584 
L 135.283347 83.35131 
L 135.575093 83.252036 
L 135.575093 83.202398 
L 135.787272 83.103124 
L 135.80849 83.00385 
L 135.941101 82.904576 
L 136.004755 82.755664 
L 136.15328 82.65639 
L 136.254065 82.457841 
L 136.434417 82.358567 
L 136.45033 82.259293 
L 136.673118 82.160019 
L 136.736771 82.060744 
L 136.805729 81.96147 
L 136.906514 81.663647 
L 136.975472 81.564373 
L 137.060344 81.465099 
L 137.187651 81.365824 
L 137.187651 81.316187 
L 137.431656 81.216913 
L 137.490005 81.068002 
L 137.808273 80.968727 
L 137.893145 80.869453 
L 138.179586 80.770179 
L 138.275066 80.521993 
L 138.545594 80.422719 
L 138.646379 80.174533 
L 138.969951 80.075259 
L 138.969951 80.025622 
L 139.13439 79.926347 
L 139.240479 79.827073 
L 139.330655 79.727799 
L 139.351873 79.628525 
L 139.664836 79.52925 
L 139.701968 79.429976 
L 139.983104 79.330702 
L 140.083889 79.18179 
L 140.550682 79.082516 
L 140.640858 78.933605 
L 140.789383 78.83433 
L 140.853037 78.735056 
L 141.112956 78.635782 
L 141.219045 78.337959 
L 141.500182 78.288322 
L 141.574444 78.040136 
L 141.802536 77.940862 
L 141.834363 77.791951 
L 142.025324 77.692676 
L 142.025324 77.643039 
L 142.264025 77.543765 
L 142.279938 77.444491 
L 142.550466 77.345216 
L 142.635337 77.245942 
L 142.937692 77.146668 
L 142.937692 77.097031 
L 143.118044 76.997756 
L 143.118044 76.948119 
L 143.362049 76.848845 
L 143.362049 76.799208 
L 143.807624 76.699934 
L 143.855365 76.600659 
L 144.088761 76.501385 
L 144.136501 76.402111 
L 144.465378 76.302837 
L 144.523727 76.153925 
L 144.799559 76.054651 
L 144.905649 75.905739 
L 145.123132 75.806465 
L 145.123132 75.756828 
L 145.340615 75.657554 
L 145.409573 75.459005 
L 145.844539 75.359731 
L 145.897584 75.21082 
L 145.998369 75.111545 
L 146.099154 74.962634 
L 146.406813 74.86336 
L 146.48638 74.565537 
L 146.672036 74.466263 
L 146.756907 74.317351 
L 147.038044 74.218077 
L 147.107002 74.069165 
L 147.255527 73.969891 
L 147.255527 73.920254 
L 147.738234 73.82098 
L 147.833714 73.672068 
L 148.01937 73.572794 
L 148.114851 73.324608 
L 148.438423 73.225334 
L 148.51799 73.076423 
L 148.942347 72.977148 
L 149.032523 72.828237 
L 149.324269 72.728963 
L 149.366705 72.580051 
L 149.806975 72.480777 
L 149.891847 72.282229 
L 150.125243 72.182954 
L 150.231333 72.08368 
L 150.395771 71.984406 
L 150.40638 71.885131 
L 150.496556 71.885131 
L 150.910304 71.785857 
L 151.00048 71.686583 
L 151.04822 71.587309 
L 151.101265 71.438397 
L 151.29753 71.38876 
L 151.29753 71.289486 
L 151.504404 71.190212 
L 151.504404 71.140574 
L 151.663538 71.0413 
L 151.74841 70.942026 
L 152.034851 70.842752 
L 152.109114 70.743477 
L 152.252334 70.69384 
L 152.358424 70.495292 
L 152.74565 70.396017 
L 152.819912 70.296743 
L 153.382185 70.197469 
L 153.382185 70.147832 
L 153.769411 70.048557 
L 153.859587 69.899646 
L 153.923241 69.850009 
L 154.024026 69.601823 
L 154.204378 69.502549 
L 154.299858 69.304 
L 154.485514 69.204726 
L 154.554472 68.95654 
L 154.766651 68.857266 
L 154.766651 68.807629 
L 155.313011 68.708355 
L 155.387274 68.609081 
L 155.578234 68.509806 
L 155.679019 68.261621 
L 155.864676 68.162346 
L 155.912416 68.063072 
L 156.373904 67.963798 
L 156.437558 67.864523 
L 156.639128 67.765249 
L 156.655041 67.665975 
L 157.127138 67.566701 
L 157.233228 67.467426 
L 157.747761 67.368152 
L 157.832632 67.169604 
L 157.938722 67.070329 
L 157.975853 66.971055 
L 158.235772 66.871781 
L 158.299425 66.772506 
L 158.474473 66.673232 
L 158.55404 66.573958 
L 158.861699 66.474684 
L 158.920048 66.375409 
L 159.386841 66.276135 
L 159.429277 66.176861 
L 159.678587 66.077587 
L 159.678587 66.027949 
L 159.821807 65.978312 
L 159.864243 65.68049 
L 160.065813 65.581215 
L 160.076422 65.481941 
L 160.495474 65.382667 
L 160.495474 65.283392 
L 161.03653 65.184118 
L 161.03653 65.134481 
L 161.614717 65.035207 
L 161.710197 64.886295 
L 161.826895 64.787021 
L 161.826895 64.737384 
L 162.27247 64.63811 
L 162.346733 64.538835 
L 162.558912 64.439561 
L 162.659696 64.340287 
L 163.057531 64.241013 
L 163.073445 64.092101 
L 163.243188 63.992827 
L 163.306841 63.843915 
L 163.508411 63.744641 
L 163.587978 63.59573 
L 163.943377 63.496456 
L 164.033553 63.397181 
L 164.26695 63.297907 
L 164.304081 63.198633 
L 164.595827 63.099358 
L 164.680698 63.000084 
L 164.914095 62.90081 
L 164.914095 62.851173 
L 165.179318 62.751899 
L 165.195231 62.652624 
L 165.364974 62.602987 
L 165.444541 62.404439 
L 165.768114 62.305164 
L 165.858289 62.156253 
L 165.937856 62.056979 
L 165.964379 61.908067 
L 166.134122 61.808793 
L 166.134122 61.759156 
L 166.542566 61.659882 
L 166.632741 61.560607 
L 166.866138 61.461333 
L 166.871442 61.362059 
L 167.173797 61.262784 
L 167.263973 61.16351 
L 167.423107 61.064236 
L 167.523892 60.964962 
L 167.905813 60.865687 
L 167.911118 60.766413 
L 168.202863 60.667139 
L 168.224081 60.567865 
L 168.521131 60.46859 
L 168.53174 60.369316 
L 168.722701 60.270042 
L 168.823486 60.12113 
L 169.062187 60.021856 
L 169.136449 59.823308 
L 169.502458 59.77367 
L 169.582025 59.475848 
L 169.969251 59.376573 
L 169.985164 59.277299 
L 170.46787 59.178025 
L 170.568655 59.07875 
L 171.019535 58.979476 
L 171.099102 58.830565 
L 171.247627 58.731291 
L 171.247627 58.681653 
L 171.751551 58.582379 
L 171.85764 58.334193 
L 171.91599 58.234919 
L 171.990252 58.086008 
L 172.191822 57.986733 
L 172.287302 57.837822 
L 172.589657 57.738548 
L 172.589657 57.688911 
L 173.040536 57.589636 
L 173.072363 57.440725 
L 173.634637 57.341451 
L 173.69829 57.242176 
L 174.048385 57.142902 
L 174.122647 56.993991 
L 174.19691 56.894717 
L 174.19691 56.845079 
L 174.260564 56.845079 
L 174.483351 56.745805 
L 174.58944 56.646531 
L 174.79101 56.547257 
L 174.79101 56.497619 
L 175.050929 56.447982 
L 175.050929 56.348708 
L 175.369197 56.249434 
L 175.369197 56.199797 
L 175.793554 56.100522 
L 175.793554 56.050885 
L 176.281565 55.951611 
L 176.324001 55.8027 
L 176.690009 55.703425 
L 176.690009 55.653788 
L 176.700618 55.653788 
L 177.103757 55.554514 
L 177.151498 55.45524 
L 177.315936 55.355965 
L 177.353067 55.256691 
L 177.761511 55.157417 
L 177.761511 55.10778 
L 178.164651 55.008505 
L 178.185868 54.859594 
L 178.429874 54.76032 
L 178.482919 54.561771 
L 178.838318 54.462497 
L 178.870145 54.263948 
L 179.331633 54.164674 
L 179.36346 53.966126 
L 179.787817 53.866851 
L 179.835557 53.668303 
L 180.233392 53.569028 
L 180.233392 53.519391 
L 180.710794 53.420117 
L 180.710794 53.320843 
L 181.198805 53.221568 
L 181.278372 53.122294 
L 181.39507 53.02302 
L 181.490551 52.874109 
L 181.623162 52.774834 
L 181.723947 52.526649 
L 182.39231 52.427374 
L 182.445355 52.3281 
L 182.673447 52.228826 
L 182.731796 52.079914 
L 183.087195 51.98064 
L 183.087195 51.931003 
L 183.500943 51.831729 
L 183.500943 51.732454 
L 183.622946 51.682817 
L 183.729035 51.484269 
L 184.057912 51.384994 
L 184.105652 51.186446 
L 184.503487 51.087172 
L 184.503487 51.037535 
L 184.848278 50.93826 
L 184.949063 50.739712 
L 185.097588 50.640437 
L 185.118805 50.541163 
L 186.211525 50.441889 
L 186.238048 50.342615 
L 186.795017 50.24334 
L 186.795017 50.193703 
L 187.123894 50.094429 
L 187.123894 50.044792 
L 187.394421 49.945518 
L 187.394421 49.89588 
L 188.264354 49.796606 
L 188.30679 49.647695 
L 188.572013 49.54842 
L 188.572013 49.498783 
L 189.028197 49.399509 
L 189.113068 49.300235 
L 189.7443 49.20096 
L 189.829171 49.101686 
L 190.88476 49.002412 
L 190.88476 48.903138 
L 191.287899 48.803863 
L 191.287899 48.754226 
L 191.712257 48.654952 
L 191.72817 48.555678 
L 191.913826 48.456403 
L 191.913826 48.357129 
L 192.465491 48.257855 
L 192.486709 48.158581 
L 192.624625 48.108944 
L 192.656452 47.960032 
L 193.855261 47.860758 
L 193.871174 47.761484 
L 194.051526 47.711846 
L 194.11518 47.463661 
L 194.332663 47.414024 
L 194.422839 47.265112 
L 194.624409 47.165838 
L 194.719889 46.967289 
L 194.979808 46.868015 
L 195.075288 46.719104 
L 195.70652 46.619829 
L 195.802 46.421281 
L 196.507494 46.322007 
L 196.507494 46.272369 
L 196.804544 46.222732 
L 196.804544 46.123458 
L 197.430471 46.024184 
L 197.430471 45.974547 
L 198.173096 45.875272 
L 198.231445 45.726361 
L 198.767196 45.627087 
L 198.767196 45.57745 
L 199.117291 45.478175 
L 199.149118 45.329264 
L 200.183489 45.22999 
L 200.204707 45.130715 
L 200.851852 45.031441 
L 200.851852 44.981804 
L 201.419429 44.88253 
L 201.477779 44.783255 
L 201.896831 44.683981 
L 201.976398 44.485433 
L 202.724328 44.386158 
L 202.8092 44.286884 
L 203.24947 44.18761 
L 203.24947 44.137973 
L 203.54652 44.038698 
L 203.54652 43.989061 
L 204.172447 43.889787 
L 204.172447 43.84015 
L 204.596805 43.740876 
L 204.623327 43.641601 
L 204.761243 43.542327 
L 204.835506 43.393416 
L 205.015857 43.343778 
L 205.015857 43.244504 
L 205.275776 43.14523 
L 205.376561 42.946681 
L 205.938834 42.847407 
L 206.002488 42.748133 
L 206.400323 42.648859 
L 206.501108 42.499947 
L 206.697373 42.400673 
L 206.697373 42.351036 
L 207.18008 42.251761 
L 207.211906 42.152487 
L 207.577914 42.053213 
L 207.652177 41.904302 
L 208.140188 41.805027 
L 208.203841 41.705753 
L 208.734288 41.606479 
L 208.734288 41.556842 
L 209.312475 41.457567 
L 209.312475 41.40793 
L 209.625438 41.308656 
L 209.667874 41.209382 
L 209.821704 41.110107 
L 209.821704 41.06047 
L 210.0551 40.961196 
L 210.161189 40.861922 
L 210.580242 40.762647 
L 210.580242 40.71301 
L 211.073558 40.613736 
L 211.073558 40.564099 
L 211.482001 40.464825 
L 211.482001 40.415187 
L 211.779052 40.36555 
L 211.779052 40.266276 
L 212.346629 40.167002 
L 212.410283 40.067728 
L 212.744464 39.968453 
L 212.744464 39.918816 
L 213.089255 39.819542 
L 213.147604 39.720268 
L 214.52146 39.620993 
L 214.62755 39.472082 
L 214.760161 39.372808 
L 214.866251 39.223896 
L 215.179214 39.124622 
L 215.179214 39.074985 
L 215.460351 38.975711 
L 215.460351 38.926073 
L 216.192367 38.826799 
L 216.192367 38.777162 
L 216.669769 38.677888 
L 216.669769 38.628251 
L 217.189607 38.528976 
L 217.189607 38.479339 
L 217.598051 38.380065 
L 217.598051 38.330428 
L 218.314154 38.231154 
L 218.393721 38.131879 
L 219.056779 38.032605 
L 219.056779 37.982968 
L 219.512963 37.883694 
L 219.555399 37.734782 
L 220.085845 37.635508 
L 220.165412 37.536234 
L 220.335155 37.436959 
L 220.414722 37.337685 
L 220.759512 37.238411 
L 220.823166 37.139137 
L 220.9823 37.039862 
L 220.9823 36.990225 
L 221.337699 36.890951 
L 221.411962 36.791677 
L 222.011366 36.692402 
L 222.011366 36.642765 
L 222.456942 36.543491 
L 222.462246 36.444217 
L 222.838863 36.344942 
L 222.91843 36.146394 
L 224.042977 36.04712 
L 224.101326 35.947845 
L 224.578728 35.848571 
L 224.578728 35.798934 
L 225.204655 35.69966 
L 225.204655 35.650022 
L 225.708579 35.550748 
L 225.713884 35.451474 
L 226.005629 35.3522 
L 226.010934 35.252925 
L 227.024087 35.153651 
L 227.066523 35.054377 
L 227.077131 35.054377 
L 227.623491 34.955103 
L 227.718972 34.855828 
L 228.021326 34.756554 
L 228.021326 34.706917 
L 228.700298 34.607643 
L 228.700298 34.558005 
L 229.257267 34.458731 
L 229.257267 34.409094 
L 229.564926 34.30982 
L 229.564926 34.260183 
L 229.999892 34.160908 
L 230.074155 34.011997 
L 230.169635 33.912723 
L 230.169635 33.863086 
L 230.509121 33.763811 
L 230.51973 33.664537 
L 231.405576 33.565263 
L 231.453316 33.416351 
L 232.328553 33.317077 
L 232.328553 33.26744 
L 232.699865 33.217803 
L 232.699865 33.118529 
L 233.506144 33.019254 
L 233.564493 32.91998 
L 234.657213 32.820706 
L 234.657213 32.771069 
L 235.2354 32.671794 
L 235.277836 32.57252 
L 236.036375 32.473246 
L 236.131855 32.324334 
L 236.800218 32.22506 
L 236.842653 32.125786 
L 237.107877 32.026512 
L 237.155617 31.827963 
L 237.903547 31.728689 
L 237.940678 31.679052 
L 237.951287 31.679052 
L 238.189988 31.629414 
L 238.189988 31.53014 
L 239.813154 31.430866 
L 239.813154 31.381229 
L 240.40195 31.281955 
L 240.481517 31.18268 
L 241.319623 31.083406 
L 241.319623 31.033769 
L 241.781111 30.934495 
L 241.797025 30.83522 
L 242.624521 30.735946 
L 242.624521 30.686309 
L 243.096619 30.587035 
L 243.096619 30.537397 
L 243.971856 30.438123 
L 243.971856 30.388486 
L 245.181274 30.289212 
L 245.181274 30.239575 
L 247.292451 30.1403 
L 247.393236 30.041026 
L 248.666308 29.941752 
L 248.666308 29.892115 
L 249.615807 29.79284 
L 249.615807 29.743203 
L 250.692614 29.643929 
L 250.692614 29.594292 
L 252.262736 29.495018 
L 252.331694 29.395743 
L 253.270585 29.296469 
L 253.270585 29.246832 
L 253.753291 29.147558 
L 253.816945 29.048283 
L 255.837946 28.949009 
L 255.837946 28.899372 
L 256.575267 28.800098 
L 256.575267 28.750461 
L 258.320436 28.651186 
L 258.320436 28.601549 
L 261.21137 28.502275 
L 261.21137 28.452638 
L 264.319787 28.353364 
L 264.420572 28.254089 
L 265.327636 28.154815 
L 265.327636 28.105178 
L 267.629774 28.005904 
L 267.629774 27.956266 
L 269.024849 27.856992 
L 269.024849 27.807355 
L 269.634862 27.708081 
L 269.634862 27.658444 
L 270.191831 27.658444 
L 270.191831 27.658444 
" clip-path="url(#p9fc0e62876)" style="fill: none; stroke: #44757a; stroke-width: 1.5; stroke-linecap: square"/>
   </g>
   <g id="patch_3">
    <path d="M 45.83 246.04 
L 45.83 25.49625 
" style="fill: none; stroke: #000000; stroke-width: 0.8; stroke-linejoin: miter; stroke-linecap: square"/>
   </g>
   <g id="patch_4">
    <path d="M 45.83 246.04 
L 272.413235 246.04 
" style="fill: none; stroke: #000000; stroke-width: 0.8; stroke-linejoin: miter; stroke-linecap: square"/>
   </g>
   <g id="text_15">
    <text style="font: 12px 'Arial'; text-anchor: middle" x="159.121618" y="19.49625" transform="rotate(-0 159.121618 19.49625)">YTHDF1/2 Binding Sites</text>
   </g>
   <g id="legend_1">
    <g id="line2d_17">
     <path d="M 86.713235 187.73375 
L 96.713235 187.73375 
L 106.713235 187.73375 
" style="fill: none; stroke: #d44c3c; stroke-width: 1.5; stroke-linecap: square"/>
    </g>
    <g id="text_16">
     <text style="font: 10px 'Arial'; text-anchor: start" x="114.713235" y="191.23375" transform="rotate(-0 114.713235 191.23375)">deepSRAMP AUROC=0.967</text>
    </g>
    <g id="line2d_18">
     <path d="M 86.713235 202.02125 
L 96.713235 202.02125 
L 106.713235 202.02125 
" style="fill: none; stroke: #cb997e; stroke-width: 1.5; stroke-linecap: square"/>
    </g>
    <g id="text_17">
     <!-- deepSRAMP$_{single}$ AUROC=0.953 -->
     <g transform="translate(114.713235 205.52125)">
      <text>
       <tspan style="font: 10px 'Arial'" x="0 5.561523 11.123047 16.68457 22.246094 28.916016 36.137695 42.807617 51.137695 78.899902 81.678223 88.348145 95.569824 102.791504 110.569824 117.791504 123.631348 129.192871 131.971191 137.532715 143.094238" y="-0.71875">deepSRAMPAUROC=0.953</tspan>
       <tspan style="font: oblique 7px 'DejaVu Sans'" x="57.90332 61.550293 63.495117 67.931641 72.375 74.319824" y="0.921875">single</tspan>
      </text>
     </g>
    </g>
    <g id="line2d_19">
     <path d="M 86.713235 217.279062 
L 96.713235 217.279062 
L 106.713235 217.279062 
" style="fill: none; stroke: #a5a58d; stroke-width: 1.5; stroke-linecap: square"/>
    </g>
    <g id="text_18">
     <text style="font: 10px 'Arial'; text-anchor: start" x="114.713235" y="220.779062" transform="rotate(-0 114.713235 220.779062)">WHISTLE AUROC=0.782</text>
    </g>
    <g id="line2d_20">
     <path d="M 86.713235 231.5525 
L 96.713235 231.5525 
L 106.713235 231.5525 
" style="fill: none; stroke: #44757a; stroke-width: 1.5; stroke-linecap: square"/>
    </g>
    <g id="text_19">
     <text style="font: 10px 'Arial'; text-anchor: start" x="114.713235" y="235.0525" transform="rotate(-0 114.713235 235.0525)">DeepPromise AUROC=0.739</text>
    </g>
   </g>
  </g>
 </g>
 <defs>
  <clipPath id="p9fc0e62876">
   <rect x="45.83" y="25.49625" width="226.583235" height="220.54375"/>
  </clipPath>
 </defs>
</svg>
