<?xml version="1.0" encoding="utf-8" standalone="no"?>
<!DOCTYPE svg PUBLIC "-//W3C//DTD SVG 1.1//EN"
  "http://www.w3.org/Graphics/SVG/1.1/DTD/svg11.dtd">
<svg xmlns:xlink="http://www.w3.org/1999/xlink" width="432pt" height="288pt" viewBox="0 0 432 288" xmlns="http://www.w3.org/2000/svg" version="1.1">
 <metadata>
  <rdf:RDF xmlns:dc="http://purl.org/dc/elements/1.1/" xmlns:cc="http://creativecommons.org/ns#" xmlns:rdf="http://www.w3.org/1999/02/22-rdf-syntax-ns#">
   <cc:Work>
    <dc:type rdf:resource="http://purl.org/dc/dcmitype/StillImage"/>
    <dc:date>2024-09-17T12:24:59.892054</dc:date>
    <dc:format>image/svg+xml</dc:format>
    <dc:creator>
     <cc:Agent>
      <dc:title>Matplotlib v3.9.2, https://matplotlib.org/</dc:title>
     </cc:Agent>
    </dc:creator>
   </cc:Work>
  </rdf:RDF>
 </metadata>
 <defs>
  <style type="text/css">*{stroke-linejoin: round; stroke-linecap: butt}</style>
 </defs>
 <g id="figure_1">
  <g id="patch_1">
   <path d="M 0 288 
L 432 288 
L 432 0 
L 0 0 
z
" style="fill: #ffffff"/>
  </g>
  <g id="axes_1">
   <g id="patch_2">
    <path d="M 45.83 260.12 
L 421.2 260.12 
L 421.2 27.976 
L 45.83 27.976 
z
" style="fill: #ffffff"/>
   </g>
   <g id="PolyCollection_1">
    <defs>
     <path id="mb6fb5a8e95" d="M 73.833877 -6.712436 
L 73.25095 -6.712436 
L 73.167271 -8.55958 
L 73.064879 -10.406725 
L 72.941147 -12.253869 
L 72.79348 -14.101014 
L 72.619414 -15.948158 
L 72.416737 -17.795303 
L 72.183609 -19.642447 
L 71.918678 -21.489592 
L 71.62119 -23.336736 
L 71.291078 -25.183881 
L 70.929027 -27.031025 
L 70.536508 -28.87817 
L 70.115782 -30.725314 
L 69.669866 -32.572459 
L 69.202475 -34.419603 
L 68.717931 -36.266748 
L 68.221061 -38.113892 
L 67.717081 -39.961037 
L 67.211483 -41.808181 
L 66.709924 -43.655326 
L 66.218128 -45.502471 
L 65.7418 -47.349615 
L 65.286544 -49.19676 
L 64.857803 -51.043904 
L 64.460778 -52.891049 
L 64.100354 -54.738193 
L 63.781 -56.585338 
L 63.506657 -58.432482 
L 63.280596 -60.279627 
L 63.105264 -62.126771 
L 62.982116 -63.973916 
L 62.911451 -65.82106 
L 62.892273 -67.668205 
L 62.922181 -69.515349 
L 62.997328 -71.362494 
L 63.112445 -73.209638 
L 63.260954 -75.056783 
L 63.435163 -76.903927 
L 63.626554 -78.751072 
L 63.826137 -80.598216 
L 64.024863 -82.445361 
L 64.21406 -84.292505 
L 64.385871 -86.13965 
L 64.533656 -87.986794 
L 64.652332 -89.833939 
L 64.738619 -91.681083 
L 64.791184 -93.528228 
L 64.810655 -95.375372 
L 64.799515 -97.222517 
L 64.761888 -99.069661 
L 64.703223 -100.916806 
L 64.629909 -102.76395 
L 64.548857 -104.611095 
L 64.467077 -106.458239 
L 64.391291 -108.305384 
L 64.327599 -110.152528 
L 64.281239 -111.999673 
L 64.25644 -113.846817 
L 64.256372 -115.693962 
L 64.2832 -117.541106 
L 64.338193 -119.388251 
L 64.421901 -121.235395 
L 64.534346 -123.08254 
L 64.675199 -124.929685 
L 64.843941 -126.776829 
L 65.039962 -128.623974 
L 65.262606 -130.471118 
L 65.511158 -132.318263 
L 65.784783 -134.165407 
L 66.082423 -136.012552 
L 66.402696 -137.859696 
L 66.743785 -139.706841 
L 67.103368 -141.553985 
L 67.478583 -143.40113 
L 67.866043 -145.248274 
L 68.261907 -147.095419 
L 68.661991 -148.942563 
L 69.06192 -150.789708 
L 69.457291 -152.636852 
L 69.843855 -154.483997 
L 70.217668 -156.331141 
L 70.57524 -158.178286 
L 70.91363 -160.02543 
L 71.230523 -161.872575 
L 71.524247 -163.719719 
L 71.793778 -165.566864 
L 72.038691 -167.414008 
L 72.259109 -169.261153 
L 72.455621 -171.108297 
L 72.629202 -172.955442 
L 72.781129 -174.802586 
L 72.912896 -176.649731 
L 73.02614 -178.496875 
L 73.122577 -180.34402 
L 73.203944 -182.191164 
L 73.271955 -184.038309 
L 73.328259 -185.885453 
L 73.37442 -187.732598 
L 73.411888 -189.579742 
L 73.67294 -189.579742 
L 73.67294 -189.579742 
L 73.710407 -187.732598 
L 73.756568 -185.885453 
L 73.812873 -184.038309 
L 73.880883 -182.191164 
L 73.962251 -180.34402 
L 74.058687 -178.496875 
L 74.171931 -176.649731 
L 74.303698 -174.802586 
L 74.455625 -172.955442 
L 74.629207 -171.108297 
L 74.825719 -169.261153 
L 75.046136 -167.414008 
L 75.29105 -165.566864 
L 75.56058 -163.719719 
L 75.854305 -161.872575 
L 76.171197 -160.02543 
L 76.509588 -158.178286 
L 76.867159 -156.331141 
L 77.240973 -154.483997 
L 77.627536 -152.636852 
L 78.022908 -150.789708 
L 78.422836 -148.942563 
L 78.822921 -147.095419 
L 79.218784 -145.248274 
L 79.606244 -143.40113 
L 79.981459 -141.553985 
L 80.341042 -139.706841 
L 80.682131 -137.859696 
L 81.002404 -136.012552 
L 81.300045 -134.165407 
L 81.573669 -132.318263 
L 81.822222 -130.471118 
L 82.044866 -128.623974 
L 82.240886 -126.776829 
L 82.409629 -124.929685 
L 82.550482 -123.08254 
L 82.662926 -121.235395 
L 82.746635 -119.388251 
L 82.801628 -117.541106 
L 82.828455 -115.693962 
L 82.828388 -113.846817 
L 82.803588 -111.999673 
L 82.757228 -110.152528 
L 82.693536 -108.305384 
L 82.61775 -106.458239 
L 82.535971 -104.611095 
L 82.454919 -102.76395 
L 82.381604 -100.916806 
L 82.322939 -99.069661 
L 82.285312 -97.222517 
L 82.274173 -95.375372 
L 82.293643 -93.528228 
L 82.346208 -91.681083 
L 82.432496 -89.833939 
L 82.551171 -87.986794 
L 82.698956 -86.13965 
L 82.870767 -84.292505 
L 83.059964 -82.445361 
L 83.25869 -80.598216 
L 83.458273 -78.751072 
L 83.649664 -76.903927 
L 83.823873 -75.056783 
L 83.972382 -73.209638 
L 84.0875 -71.362494 
L 84.162647 -69.515349 
L 84.192555 -67.668205 
L 84.173376 -65.82106 
L 84.102711 -63.973916 
L 83.979563 -62.126771 
L 83.804231 -60.279627 
L 83.578171 -58.432482 
L 83.303827 -56.585338 
L 82.984474 -54.738193 
L 82.624049 -52.891049 
L 82.227024 -51.043904 
L 81.798283 -49.19676 
L 81.343028 -47.349615 
L 80.866699 -45.502471 
L 80.374903 -43.655326 
L 79.873345 -41.808181 
L 79.367747 -39.961037 
L 78.863767 -38.113892 
L 78.366896 -36.266748 
L 77.882352 -34.419603 
L 77.414961 -32.572459 
L 76.969046 -30.725314 
L 76.548319 -28.87817 
L 76.1558 -27.031025 
L 75.793749 -25.183881 
L 75.463637 -23.336736 
L 75.166149 -21.489592 
L 74.901218 -19.642447 
L 74.66809 -17.795303 
L 74.465414 -15.948158 
L 74.291347 -14.101014 
L 74.14368 -12.253869 
L 74.019949 -10.406725 
L 73.917557 -8.55958 
L 73.833877 -6.712436 
z
" style="stroke: #3f3f3f; stroke-width: 1.25"/>
    </defs>
    <g clip-path="url(#p1bd097cef5)">
     <use xlink:href="#mb6fb5a8e95" x="0" y="288" style="fill: #3274a1; stroke: #3f3f3f; stroke-width: 1.25"/>
    </g>
   </g>
   <g id="PolyCollection_2">
    <defs>
     <path id="m6a69633e13" d="M 125.835146 -103.011445 
L 122.971316 -103.011445 
L 122.698681 -103.721099 
L 122.385503 -104.430754 
L 122.028133 -105.140408 
L 121.623056 -105.850062 
L 121.166996 -106.559716 
L 120.65703 -107.26937 
L 120.090714 -107.979024 
L 119.466212 -108.688679 
L 118.782419 -109.398333 
L 118.039097 -110.107987 
L 117.236986 -110.817641 
L 116.377913 -111.527295 
L 115.464877 -112.236949 
L 114.502109 -112.946604 
L 113.495112 -113.656258 
L 112.450653 -114.365912 
L 111.376731 -115.075566 
L 110.282497 -115.78522 
L 109.178142 -116.494874 
L 108.074736 -117.204529 
L 106.984038 -117.914183 
L 105.918266 -118.623837 
L 104.889841 -119.333491 
L 103.911117 -120.043145 
L 102.994085 -120.752799 
L 102.150088 -121.462454 
L 101.389534 -122.172108 
L 100.721632 -122.881762 
L 100.154151 -123.591416 
L 99.69322 -124.30107 
L 99.343171 -125.010724 
L 99.106431 -125.720379 
L 98.983473 -126.430033 
L 98.972822 -127.139687 
L 99.07112 -127.849341 
L 99.27324 -128.558995 
L 99.572457 -129.26865 
L 99.960658 -129.978304 
L 100.428583 -130.687958 
L 100.966093 -131.397612 
L 101.562452 -132.107266 
L 102.20661 -132.81692 
L 102.887478 -133.526575 
L 103.594186 -134.236229 
L 104.316317 -134.945883 
L 105.044114 -135.655537 
L 105.768638 -136.365191 
L 106.481904 -137.074845 
L 107.176965 -137.7845 
L 107.847968 -138.494154 
L 108.490169 -139.203808 
L 109.099918 -139.913462 
L 109.674627 -140.623116 
L 110.212702 -141.33277 
L 110.713475 -142.042425 
L 111.177118 -142.752079 
L 111.604554 -143.461733 
L 111.997366 -144.171387 
L 112.357705 -144.881041 
L 112.688202 -145.590695 
L 112.991885 -146.30035 
L 113.272095 -147.010004 
L 113.532408 -147.719658 
L 113.776558 -148.429312 
L 114.008361 -149.138966 
L 114.231639 -149.848621 
L 114.450147 -150.558275 
L 114.667493 -151.267929 
L 114.887072 -151.977583 
L 115.111988 -152.687237 
L 115.34499 -153.396891 
L 115.588408 -154.106546 
L 115.844107 -154.8162 
L 116.113438 -155.525854 
L 116.397215 -156.235508 
L 116.695698 -156.945162 
L 117.008601 -157.654816 
L 117.335105 -158.364471 
L 117.673897 -159.074125 
L 118.023219 -159.783779 
L 118.380931 -160.493433 
L 118.744587 -161.203087 
L 119.111514 -161.912741 
L 119.478901 -162.622396 
L 119.843885 -163.33205 
L 120.203636 -164.041704 
L 120.555437 -164.751358 
L 120.896754 -165.461012 
L 121.225298 -166.170666 
L 121.539073 -166.880321 
L 121.836409 -167.589975 
L 122.115988 -168.299629 
L 122.376851 -169.009283 
L 122.618394 -169.718937 
L 122.840352 -170.428591 
L 123.04278 -171.138246 
L 123.226017 -171.8479 
L 123.390654 -172.557554 
L 123.537489 -173.267208 
L 125.268974 -173.267208 
L 125.268974 -173.267208 
L 125.415808 -172.557554 
L 125.580445 -171.8479 
L 125.763683 -171.138246 
L 125.96611 -170.428591 
L 126.188069 -169.718937 
L 126.429611 -169.009283 
L 126.690474 -168.299629 
L 126.970053 -167.589975 
L 127.267389 -166.880321 
L 127.581164 -166.170666 
L 127.909708 -165.461012 
L 128.251025 -164.751358 
L 128.602826 -164.041704 
L 128.962577 -163.33205 
L 129.327561 -162.622396 
L 129.694948 -161.912741 
L 130.061876 -161.203087 
L 130.425531 -160.493433 
L 130.783243 -159.783779 
L 131.132565 -159.074125 
L 131.471357 -158.364471 
L 131.797861 -157.654816 
L 132.110764 -156.945162 
L 132.409248 -156.235508 
L 132.693024 -155.525854 
L 132.962355 -154.8162 
L 133.218054 -154.106546 
L 133.461473 -153.396891 
L 133.694474 -152.687237 
L 133.91939 -151.977583 
L 134.138969 -151.267929 
L 134.356316 -150.558275 
L 134.574823 -149.848621 
L 134.798101 -149.138966 
L 135.029904 -148.429312 
L 135.274054 -147.719658 
L 135.534367 -147.010004 
L 135.814577 -146.30035 
L 136.11826 -145.590695 
L 136.448758 -144.881041 
L 136.809096 -144.171387 
L 137.201908 -143.461733 
L 137.629344 -142.752079 
L 138.092988 -142.042425 
L 138.593761 -141.33277 
L 139.131835 -140.623116 
L 139.706544 -139.913462 
L 140.316294 -139.203808 
L 140.958494 -138.494154 
L 141.629497 -137.7845 
L 142.324558 -137.074845 
L 143.037824 -136.365191 
L 143.762348 -135.655537 
L 144.490145 -134.945883 
L 145.212277 -134.236229 
L 145.918984 -133.526575 
L 146.599852 -132.81692 
L 147.24401 -132.107266 
L 147.84037 -131.397612 
L 148.37788 -130.687958 
L 148.845804 -129.978304 
L 149.234005 -129.26865 
L 149.533223 -128.558995 
L 149.735342 -127.849341 
L 149.83364 -127.139687 
L 149.822989 -126.430033 
L 149.700032 -125.720379 
L 149.463292 -125.010724 
L 149.113242 -124.30107 
L 148.652311 -123.591416 
L 148.08483 -122.881762 
L 147.416928 -122.172108 
L 146.656374 -121.462454 
L 145.812377 -120.752799 
L 144.895346 -120.043145 
L 143.916621 -119.333491 
L 142.888197 -118.623837 
L 141.822424 -117.914183 
L 140.731726 -117.204529 
L 139.62832 -116.494874 
L 138.523965 -115.78522 
L 137.429732 -115.075566 
L 136.355809 -114.365912 
L 135.31135 -113.656258 
L 134.304353 -112.946604 
L 133.341586 -112.236949 
L 132.428549 -111.527295 
L 131.569476 -110.817641 
L 130.767365 -110.107987 
L 130.024043 -109.398333 
L 129.340251 -108.688679 
L 128.715748 -107.979024 
L 128.149433 -107.26937 
L 127.639467 -106.559716 
L 127.183406 -105.850062 
L 126.778329 -105.140408 
L 126.420959 -104.430754 
L 126.107781 -103.721099 
L 125.835146 -103.011445 
z
" style="stroke: #3f3f3f; stroke-width: 1.25"/>
    </defs>
    <g clip-path="url(#p1bd097cef5)">
     <use xlink:href="#m6a69633e13" x="0" y="288" style="fill: #e1812c; stroke: #3f3f3f; stroke-width: 1.25"/>
    </g>
   </g>
   <g id="PolyCollection_3">
    <defs>
     <path id="m6c7d9e3111" d="M 201.853199 -16.527644 
L 199.535716 -16.527644 
L 199.301427 -17.537926 
L 199.030425 -18.548209 
L 198.719244 -19.558492 
L 198.364529 -20.568775 
L 197.963128 -21.579058 
L 197.512193 -22.589341 
L 197.009283 -23.599624 
L 196.452467 -24.609906 
L 195.840432 -25.620189 
L 195.172573 -26.630472 
L 194.449085 -27.640755 
L 193.671037 -28.651038 
L 192.840433 -29.661321 
L 191.960252 -30.671604 
L 191.034469 -31.681886 
L 190.068058 -32.692169 
L 189.06697 -33.702452 
L 188.038088 -34.712735 
L 186.989162 -35.723018 
L 185.928725 -36.733301 
L 184.865986 -37.743584 
L 183.810712 -38.753866 
L 182.773084 -39.764149 
L 181.763556 -40.774432 
L 180.792685 -41.784715 
L 179.870969 -42.794998 
L 179.008666 -43.805281 
L 178.215621 -44.815564 
L 177.501083 -45.825846 
L 176.873538 -46.836129 
L 176.340536 -47.846412 
L 175.908539 -48.856695 
L 175.582778 -49.866978 
L 175.367137 -50.877261 
L 175.264049 -51.887544 
L 175.274432 -52.897826 
L 175.397646 -53.908109 
L 175.631486 -54.918392 
L 175.972207 -55.928675 
L 176.414588 -56.938958 
L 176.952019 -57.949241 
L 177.576631 -58.959524 
L 178.279439 -59.969807 
L 179.050526 -60.980089 
L 179.879224 -61.990372 
L 180.754326 -63.000655 
L 181.664295 -64.010938 
L 182.597477 -65.021221 
L 183.542313 -66.031504 
L 184.487541 -67.041787 
L 185.422387 -68.052069 
L 186.336742 -69.062352 
L 187.221322 -70.072635 
L 188.067808 -71.082918 
L 188.868967 -72.093201 
L 189.618749 -73.103484 
L 190.312365 -74.113767 
L 190.946335 -75.124049 
L 191.518519 -76.134332 
L 192.028113 -77.144615 
L 192.47563 -78.154898 
L 192.862842 -79.165181 
L 193.192704 -80.175464 
L 193.469247 -81.185747 
L 193.697447 -82.196029 
L 193.883072 -83.206312 
L 194.032504 -84.216595 
L 194.152554 -85.226878 
L 194.250261 -86.237161 
L 194.332687 -87.247444 
L 194.406716 -88.257727 
L 194.47886 -89.268009 
L 194.555085 -90.278292 
L 194.640657 -91.288575 
L 194.740012 -92.298858 
L 194.85667 -93.309141 
L 194.993167 -94.319424 
L 195.151044 -95.329707 
L 195.330854 -96.339989 
L 195.532213 -97.350272 
L 195.753884 -98.360555 
L 195.993882 -99.370838 
L 196.249599 -100.381121 
L 196.517947 -101.391404 
L 196.795506 -102.401687 
L 197.078671 -103.411969 
L 197.363798 -104.422252 
L 197.647328 -105.432535 
L 197.925911 -106.442818 
L 198.196493 -107.453101 
L 198.456396 -108.463384 
L 198.703369 -109.473667 
L 198.935616 -110.483949 
L 199.151804 -111.494232 
L 199.351059 -112.504515 
L 199.532934 -113.514798 
L 199.697377 -114.525081 
L 199.844677 -115.535364 
L 199.97542 -116.545647 
L 201.413495 -116.545647 
L 201.413495 -116.545647 
L 201.544237 -115.535364 
L 201.691538 -114.525081 
L 201.85598 -113.514798 
L 202.037856 -112.504515 
L 202.23711 -111.494232 
L 202.453299 -110.483949 
L 202.685545 -109.473667 
L 202.932518 -108.463384 
L 203.192422 -107.453101 
L 203.463004 -106.442818 
L 203.741586 -105.432535 
L 204.025117 -104.422252 
L 204.310243 -103.411969 
L 204.593409 -102.401687 
L 204.870968 -101.391404 
L 205.139316 -100.381121 
L 205.395033 -99.370838 
L 205.635031 -98.360555 
L 205.856702 -97.350272 
L 206.058061 -96.339989 
L 206.23787 -95.329707 
L 206.395747 -94.319424 
L 206.532245 -93.309141 
L 206.648902 -92.298858 
L 206.748258 -91.288575 
L 206.83383 -90.278292 
L 206.910055 -89.268009 
L 206.982199 -88.257727 
L 207.056227 -87.247444 
L 207.138653 -86.237161 
L 207.236361 -85.226878 
L 207.356411 -84.216595 
L 207.505843 -83.206312 
L 207.691467 -82.196029 
L 207.919668 -81.185747 
L 208.196211 -80.175464 
L 208.526073 -79.165181 
L 208.913285 -78.154898 
L 209.360802 -77.144615 
L 209.870396 -76.134332 
L 210.44258 -75.124049 
L 211.07655 -74.113767 
L 211.770166 -73.103484 
L 212.519948 -72.093201 
L 213.321107 -71.082918 
L 214.167593 -70.072635 
L 215.052173 -69.062352 
L 215.966528 -68.052069 
L 216.901374 -67.041787 
L 217.846602 -66.031504 
L 218.791438 -65.021221 
L 219.72462 -64.010938 
L 220.634589 -63.000655 
L 221.509691 -61.990372 
L 222.338389 -60.980089 
L 223.109475 -59.969807 
L 223.812284 -58.959524 
L 224.436896 -57.949241 
L 224.974327 -56.938958 
L 225.416708 -55.928675 
L 225.757429 -54.918392 
L 225.991269 -53.908109 
L 226.114483 -52.897826 
L 226.124866 -51.887544 
L 226.021778 -50.877261 
L 225.806137 -49.866978 
L 225.480376 -48.856695 
L 225.048379 -47.846412 
L 224.515377 -46.836129 
L 223.887832 -45.825846 
L 223.173294 -44.815564 
L 222.380248 -43.805281 
L 221.517946 -42.794998 
L 220.596229 -41.784715 
L 219.625359 -40.774432 
L 218.615831 -39.764149 
L 217.578203 -38.753866 
L 216.522928 -37.743584 
L 215.46019 -36.733301 
L 214.399753 -35.723018 
L 213.350827 -34.712735 
L 212.321945 -33.702452 
L 211.320857 -32.692169 
L 210.354446 -31.681886 
L 209.428663 -30.671604 
L 208.548481 -29.661321 
L 207.717877 -28.651038 
L 206.93983 -27.640755 
L 206.216342 -26.630472 
L 205.548483 -25.620189 
L 204.936447 -24.609906 
L 204.379632 -23.599624 
L 203.876722 -22.589341 
L 203.425787 -21.579058 
L 203.024386 -20.568775 
L 202.669671 -19.558492 
L 202.35849 -18.548209 
L 202.087488 -17.537926 
L 201.853199 -16.527644 
z
" style="stroke: #3f3f3f; stroke-width: 1.25"/>
    </defs>
    <g clip-path="url(#p1bd097cef5)">
     <use xlink:href="#m6c7d9e3111" x="0" y="288" style="fill: #3274a1; stroke: #3f3f3f; stroke-width: 1.25"/>
    </g>
   </g>
   <g id="PolyCollection_4">
    <defs>
     <path id="m79f09b7826" d="M 328.177177 -8.261007 
L 327.515825 -8.261007 
L 327.431054 -9.896783 
L 327.329688 -11.53256 
L 327.209853 -13.168337 
L 327.069783 -14.804114 
L 326.907904 -16.439891 
L 326.722913 -18.075668 
L 326.513863 -19.711444 
L 326.280226 -21.347221 
L 326.02196 -22.982998 
L 325.73954 -24.618775 
L 325.433977 -26.254552 
L 325.106807 -27.890328 
L 324.760049 -29.526105 
L 324.396149 -31.161882 
L 324.017892 -32.797659 
L 323.628304 -34.433436 
L 323.230549 -36.069212 
L 322.827819 -37.704989 
L 322.423246 -39.340766 
L 322.01982 -40.976543 
L 321.620338 -42.61232 
L 321.22738 -44.248097 
L 320.84331 -45.883873 
L 320.470303 -47.51965 
L 320.110392 -49.155427 
L 319.765526 -50.791204 
L 319.437628 -52.426981 
L 319.128641 -54.062757 
L 318.840555 -55.698534 
L 318.575408 -57.334311 
L 318.335249 -58.970088 
L 318.122066 -60.605865 
L 317.937682 -62.241641 
L 317.783622 -63.877418 
L 317.660963 -65.513195 
L 317.570177 -67.148972 
L 317.510991 -68.784749 
L 317.48226 -70.420526 
L 317.481888 -72.056302 
L 317.506797 -73.692079 
L 317.552952 -75.327856 
L 317.61545 -76.963633 
L 317.688677 -78.59941 
L 317.766518 -80.235186 
L 317.84262 -81.870963 
L 317.910685 -83.50674 
L 317.964792 -85.142517 
L 317.999708 -86.778294 
L 318.011186 -88.414071 
L 317.996225 -90.049847 
L 317.953274 -91.685624 
L 317.882354 -93.321401 
L 317.785119 -94.957178 
L 317.66481 -96.592955 
L 317.52613 -98.228731 
L 317.375039 -99.864508 
L 317.218475 -101.500285 
L 317.064024 -103.136062 
L 316.919553 -104.771839 
L 316.792839 -106.407615 
L 316.691212 -108.043392 
L 316.621228 -109.679169 
L 316.58841 -111.314946 
L 316.597051 -112.950723 
L 316.650109 -114.5865 
L 316.749174 -116.222276 
L 316.894523 -117.858053 
L 317.085235 -119.49383 
L 317.31936 -121.129607 
L 317.594123 -122.765384 
L 317.906135 -124.40116 
L 318.251598 -126.036937 
L 318.626491 -127.672714 
L 319.026711 -129.308491 
L 319.448181 -130.944268 
L 319.886914 -132.580044 
L 320.339037 -134.215821 
L 320.800787 -135.851598 
L 321.268492 -137.487375 
L 321.73854 -139.123152 
L 322.207359 -140.758929 
L 322.67141 -142.394705 
L 323.127198 -144.030482 
L 323.571311 -145.666259 
L 324.000471 -147.302036 
L 324.411611 -148.937813 
L 324.801955 -150.573589 
L 325.169098 -152.209366 
L 325.511084 -153.845143 
L 325.82646 -155.48092 
L 326.114315 -157.116697 
L 326.374295 -158.752473 
L 326.606585 -160.38825 
L 326.811876 -162.024027 
L 326.991305 -163.659804 
L 327.14638 -165.295581 
L 327.278898 -166.931358 
L 327.390858 -168.567134 
L 327.484369 -170.202911 
L 328.208633 -170.202911 
L 328.208633 -170.202911 
L 328.302145 -168.567134 
L 328.414104 -166.931358 
L 328.546622 -165.295581 
L 328.701697 -163.659804 
L 328.881126 -162.024027 
L 329.086417 -160.38825 
L 329.318707 -158.752473 
L 329.578687 -157.116697 
L 329.866542 -155.48092 
L 330.181918 -153.845143 
L 330.523904 -152.209366 
L 330.891047 -150.573589 
L 331.281391 -148.937813 
L 331.692531 -147.302036 
L 332.121691 -145.666259 
L 332.565804 -144.030482 
L 333.021592 -142.394705 
L 333.485643 -140.758929 
L 333.954462 -139.123152 
L 334.42451 -137.487375 
L 334.892215 -135.851598 
L 335.353965 -134.215821 
L 335.806089 -132.580044 
L 336.244822 -130.944268 
L 336.666291 -129.308491 
L 337.066511 -127.672714 
L 337.441404 -126.036937 
L 337.786868 -124.40116 
L 338.098879 -122.765384 
L 338.373642 -121.129607 
L 338.607767 -119.49383 
L 338.798479 -117.858053 
L 338.943828 -116.222276 
L 339.042893 -114.5865 
L 339.095951 -112.950723 
L 339.104593 -111.314946 
L 339.071774 -109.679169 
L 339.00179 -108.043392 
L 338.900163 -106.407615 
L 338.773449 -104.771839 
L 338.628978 -103.136062 
L 338.474527 -101.500285 
L 338.317963 -99.864508 
L 338.166872 -98.228731 
L 338.028192 -96.592955 
L 337.907883 -94.957178 
L 337.810648 -93.321401 
L 337.739729 -91.685624 
L 337.696777 -90.049847 
L 337.681816 -88.414071 
L 337.693294 -86.778294 
L 337.72821 -85.142517 
L 337.782317 -83.50674 
L 337.850382 -81.870963 
L 337.926484 -80.235186 
L 338.004325 -78.59941 
L 338.077552 -76.963633 
L 338.14005 -75.327856 
L 338.186205 -73.692079 
L 338.211114 -72.056302 
L 338.210743 -70.420526 
L 338.182011 -68.784749 
L 338.122825 -67.148972 
L 338.032039 -65.513195 
L 337.90938 -63.877418 
L 337.75532 -62.241641 
L 337.570936 -60.605865 
L 337.357753 -58.970088 
L 337.117594 -57.334311 
L 336.852447 -55.698534 
L 336.564361 -54.062757 
L 336.255374 -52.426981 
L 335.927476 -50.791204 
L 335.58261 -49.155427 
L 335.2227 -47.51965 
L 334.849692 -45.883873 
L 334.465622 -44.248097 
L 334.072664 -42.61232 
L 333.673183 -40.976543 
L 333.269756 -39.340766 
L 332.865183 -37.704989 
L 332.462453 -36.069212 
L 332.064698 -34.433436 
L 331.67511 -32.797659 
L 331.296853 -31.161882 
L 330.932953 -29.526105 
L 330.586196 -27.890328 
L 330.259025 -26.254552 
L 329.953462 -24.618775 
L 329.671042 -22.982998 
L 329.412776 -21.347221 
L 329.179139 -19.711444 
L 328.970089 -18.075668 
L 328.785098 -16.439891 
L 328.623219 -14.804114 
L 328.483149 -13.168337 
L 328.363314 -11.53256 
L 328.261948 -9.896783 
L 328.177177 -8.261007 
z
" style="stroke: #3f3f3f; stroke-width: 1.25"/>
    </defs>
    <g clip-path="url(#p1bd097cef5)">
     <use xlink:href="#m79f09b7826" x="0" y="288" style="fill: #3274a1; stroke: #3f3f3f; stroke-width: 1.25"/>
    </g>
   </g>
   <g id="PolyCollection_5">
    <defs>
     <path id="m47f59100c8" d="M 380.139234 -103.011445 
L 377.275404 -103.011445 
L 377.002769 -103.721099 
L 376.689591 -104.430754 
L 376.332221 -105.140408 
L 375.927144 -105.850062 
L 375.471083 -106.559716 
L 374.961117 -107.26937 
L 374.394802 -107.979024 
L 373.770299 -108.688679 
L 373.086507 -109.398333 
L 372.343185 -110.107987 
L 371.541074 -110.817641 
L 370.682001 -111.527295 
L 369.768964 -112.236949 
L 368.806197 -112.946604 
L 367.7992 -113.656258 
L 366.754741 -114.365912 
L 365.680818 -115.075566 
L 364.586584 -115.78522 
L 363.482229 -116.494874 
L 362.378824 -117.204529 
L 361.288126 -117.914183 
L 360.222353 -118.623837 
L 359.193928 -119.333491 
L 358.215204 -120.043145 
L 357.298172 -120.752799 
L 356.454175 -121.462454 
L 355.693622 -122.172108 
L 355.025719 -122.881762 
L 354.458238 -123.591416 
L 353.997307 -124.30107 
L 353.647258 -125.010724 
L 353.410518 -125.720379 
L 353.28756 -126.430033 
L 353.27691 -127.139687 
L 353.375207 -127.849341 
L 353.577327 -128.558995 
L 353.876544 -129.26865 
L 354.264745 -129.978304 
L 354.73267 -130.687958 
L 355.27018 -131.397612 
L 355.86654 -132.107266 
L 356.510698 -132.81692 
L 357.191565 -133.526575 
L 357.898273 -134.236229 
L 358.620405 -134.945883 
L 359.348201 -135.655537 
L 360.072725 -136.365191 
L 360.785991 -137.074845 
L 361.481052 -137.7845 
L 362.152055 -138.494154 
L 362.794256 -139.203808 
L 363.404006 -139.913462 
L 363.978714 -140.623116 
L 364.516789 -141.33277 
L 365.017562 -142.042425 
L 365.481205 -142.752079 
L 365.908642 -143.461733 
L 366.301453 -144.171387 
L 366.661792 -144.881041 
L 366.992289 -145.590695 
L 367.295972 -146.30035 
L 367.576182 -147.010004 
L 367.836496 -147.719658 
L 368.080646 -148.429312 
L 368.312449 -149.138966 
L 368.535727 -149.848621 
L 368.754234 -150.558275 
L 368.97158 -151.267929 
L 369.191159 -151.977583 
L 369.416075 -152.687237 
L 369.649077 -153.396891 
L 369.892496 -154.106546 
L 370.148195 -154.8162 
L 370.417525 -155.525854 
L 370.701302 -156.235508 
L 370.999786 -156.945162 
L 371.312688 -157.654816 
L 371.639192 -158.364471 
L 371.977984 -159.074125 
L 372.327306 -159.783779 
L 372.685018 -160.493433 
L 373.048674 -161.203087 
L 373.415601 -161.912741 
L 373.782988 -162.622396 
L 374.147972 -163.33205 
L 374.507724 -164.041704 
L 374.859525 -164.751358 
L 375.200842 -165.461012 
L 375.529386 -166.170666 
L 375.84316 -166.880321 
L 376.140496 -167.589975 
L 376.420076 -168.299629 
L 376.680939 -169.009283 
L 376.922481 -169.718937 
L 377.144439 -170.428591 
L 377.346867 -171.138246 
L 377.530105 -171.8479 
L 377.694741 -172.557554 
L 377.841576 -173.267208 
L 379.573061 -173.267208 
L 379.573061 -173.267208 
L 379.719896 -172.557554 
L 379.884532 -171.8479 
L 380.06777 -171.138246 
L 380.270198 -170.428591 
L 380.492156 -169.718937 
L 380.733698 -169.009283 
L 380.994561 -168.299629 
L 381.274141 -167.589975 
L 381.571477 -166.880321 
L 381.885251 -166.170666 
L 382.213795 -165.461012 
L 382.555112 -164.751358 
L 382.906913 -164.041704 
L 383.266665 -163.33205 
L 383.631649 -162.622396 
L 383.999036 -161.912741 
L 384.365963 -161.203087 
L 384.729619 -160.493433 
L 385.087331 -159.783779 
L 385.436653 -159.074125 
L 385.775445 -158.364471 
L 386.101949 -157.654816 
L 386.414851 -156.945162 
L 386.713335 -156.235508 
L 386.997112 -155.525854 
L 387.266442 -154.8162 
L 387.522141 -154.106546 
L 387.76556 -153.396891 
L 387.998562 -152.687237 
L 388.223478 -151.977583 
L 388.443057 -151.267929 
L 388.660403 -150.558275 
L 388.87891 -149.848621 
L 389.102188 -149.138966 
L 389.333991 -148.429312 
L 389.578141 -147.719658 
L 389.838455 -147.010004 
L 390.118665 -146.30035 
L 390.422348 -145.590695 
L 390.752845 -144.881041 
L 391.113184 -144.171387 
L 391.505995 -143.461733 
L 391.933432 -142.752079 
L 392.397075 -142.042425 
L 392.897848 -141.33277 
L 393.435923 -140.623116 
L 394.010631 -139.913462 
L 394.620381 -139.203808 
L 395.262582 -138.494154 
L 395.933585 -137.7845 
L 396.628646 -137.074845 
L 397.341912 -136.365191 
L 398.066436 -135.655537 
L 398.794232 -134.945883 
L 399.516364 -134.236229 
L 400.223072 -133.526575 
L 400.903939 -132.81692 
L 401.548097 -132.107266 
L 402.144457 -131.397612 
L 402.681967 -130.687958 
L 403.149892 -129.978304 
L 403.538093 -129.26865 
L 403.83731 -128.558995 
L 404.03943 -127.849341 
L 404.137727 -127.139687 
L 404.127077 -126.430033 
L 404.004119 -125.720379 
L 403.767379 -125.010724 
L 403.41733 -124.30107 
L 402.956399 -123.591416 
L 402.388918 -122.881762 
L 401.721016 -122.172108 
L 400.960462 -121.462454 
L 400.116465 -120.752799 
L 399.199433 -120.043145 
L 398.220709 -119.333491 
L 397.192284 -118.623837 
L 396.126511 -117.914183 
L 395.035813 -117.204529 
L 393.932408 -116.494874 
L 392.828053 -115.78522 
L 391.733819 -115.075566 
L 390.659897 -114.365912 
L 389.615437 -113.656258 
L 388.60844 -112.946604 
L 387.645673 -112.236949 
L 386.732636 -111.527295 
L 385.873563 -110.817641 
L 385.071452 -110.107987 
L 384.32813 -109.398333 
L 383.644338 -108.688679 
L 383.019835 -107.979024 
L 382.45352 -107.26937 
L 381.943554 -106.559716 
L 381.487493 -105.850062 
L 381.082416 -105.140408 
L 380.725046 -104.430754 
L 380.411868 -103.721099 
L 380.139234 -103.011445 
z
" style="stroke: #3f3f3f; stroke-width: 1.25"/>
    </defs>
    <g clip-path="url(#p1bd097cef5)">
     <use xlink:href="#m47f59100c8" x="0" y="288" style="fill: #e1812c; stroke: #3f3f3f; stroke-width: 1.25"/>
    </g>
   </g>
   <g id="patch_3">
    <path d="M 98.972822 249.568 
L 98.972822 249.568 
L 98.972822 249.568 
L 98.972822 249.568 
z
" clip-path="url(#p1bd097cef5)" style="fill: #3274a1; stroke: #3f3f3f; stroke-width: 1.25; stroke-linejoin: miter"/>
   </g>
   <g id="patch_4">
    <path d="M 98.972822 249.568 
L 98.972822 249.568 
L 98.972822 249.568 
L 98.972822 249.568 
z
" clip-path="url(#p1bd097cef5)" style="fill: #e1812c; stroke: #3f3f3f; stroke-width: 1.25; stroke-linejoin: miter"/>
   </g>
   <g id="PathCollection_1">
    <defs>
     <path id="me6bd84f83b" d="M 0 3 
C 0.795609 3 1.55874 2.683901 2.12132 2.12132 
C 2.683901 1.55874 3 0.795609 3 0 
C 3 -0.795609 2.683901 -1.55874 2.12132 -2.12132 
C 1.55874 -2.683901 0.795609 -3 0 -3 
C -0.795609 -3 -1.55874 -2.683901 -2.12132 -2.12132 
C -2.683901 -1.55874 -3 -0.795609 -3 0 
C -3 0.795609 -2.683901 1.55874 -2.12132 2.12132 
C -1.55874 2.683901 -0.795609 3 0 3 
z
" style="stroke: #000000"/>
    </defs>
    <g clip-path="url(#p1bd097cef5)">
     <use xlink:href="#me6bd84f83b" x="251.555275" y="161.273085" style="fill: #dd8452; stroke: #000000"/>
    </g>
   </g>
   <g id="matplotlib.axis_1">
    <g id="xtick_1">
     <g id="line2d_1">
      <defs>
       <path id="mf3590ed3e7" d="M 0 0 
L 0 3.5 
" style="stroke: #000000; stroke-width: 0.8"/>
      </defs>
      <g>
       <use xlink:href="#mf3590ed3e7" x="98.972822" y="260.12" style="stroke: #000000; stroke-width: 0.8"/>
      </g>
     </g>
     <g id="text_1">
      <text style="font: 10px 'Arial'; text-anchor: middle" x="98.972822" y="274.277812" transform="rotate(-0 98.972822 274.277812)">ENST00000291295</text>
     </g>
    </g>
    <g id="xtick_2">
     <g id="line2d_2">
      <g>
       <use xlink:href="#mf3590ed3e7" x="226.124866" y="260.12" style="stroke: #000000; stroke-width: 0.8"/>
      </g>
     </g>
     <g id="text_2">
      <text style="font: 10px 'Arial'; text-anchor: middle" x="226.124866" y="274.277812" transform="rotate(-0 226.124866 274.277812)">ENST00000391918</text>
     </g>
    </g>
    <g id="xtick_3">
     <g id="line2d_3">
      <g>
       <use xlink:href="#mf3590ed3e7" x="353.27691" y="260.12" style="stroke: #000000; stroke-width: 0.8"/>
      </g>
     </g>
     <g id="text_3">
      <text style="font: 10px 'Arial'; text-anchor: middle" x="353.27691" y="274.277812" transform="rotate(-0 353.27691 274.277812)">ENST00000486500</text>
     </g>
    </g>
   </g>
   <g id="matplotlib.axis_2">
    <g id="ytick_1">
     <g id="line2d_4">
      <defs>
       <path id="mfd95d993da" d="M 0 0 
L -3.5 0 
" style="stroke: #000000; stroke-width: 0.8"/>
      </defs>
      <g>
       <use xlink:href="#mfd95d993da" x="45.83" y="249.568" style="stroke: #000000; stroke-width: 0.8"/>
      </g>
     </g>
     <g id="text_4">
      <text style="font: 10px 'Arial'; text-anchor: end" x="38.83" y="253.146906" transform="rotate(-0 38.83 253.146906)">0.0</text>
     </g>
    </g>
    <g id="ytick_2">
     <g id="line2d_5">
      <g>
       <use xlink:href="#mfd95d993da" x="45.83" y="207.36" style="stroke: #000000; stroke-width: 0.8"/>
      </g>
     </g>
     <g id="text_5">
      <text style="font: 10px 'Arial'; text-anchor: end" x="38.83" y="210.938906" transform="rotate(-0 38.83 210.938906)">0.2</text>
     </g>
    </g>
    <g id="ytick_3">
     <g id="line2d_6">
      <g>
       <use xlink:href="#mfd95d993da" x="45.83" y="165.152" style="stroke: #000000; stroke-width: 0.8"/>
      </g>
     </g>
     <g id="text_6">
      <text style="font: 10px 'Arial'; text-anchor: end" x="38.83" y="168.730906" transform="rotate(-0 38.83 168.730906)">0.4</text>
     </g>
    </g>
    <g id="ytick_4">
     <g id="line2d_7">
      <g>
       <use xlink:href="#mfd95d993da" x="45.83" y="122.944" style="stroke: #000000; stroke-width: 0.8"/>
      </g>
     </g>
     <g id="text_7">
      <text style="font: 10px 'Arial'; text-anchor: end" x="38.83" y="126.522906" transform="rotate(-0 38.83 126.522906)">0.6</text>
     </g>
    </g>
    <g id="ytick_5">
     <g id="line2d_8">
      <g>
       <use xlink:href="#mfd95d993da" x="45.83" y="80.736" style="stroke: #000000; stroke-width: 0.8"/>
      </g>
     </g>
     <g id="text_8">
      <text style="font: 10px 'Arial'; text-anchor: end" x="38.83" y="84.314906" transform="rotate(-0 38.83 84.314906)">0.8</text>
     </g>
    </g>
    <g id="ytick_6">
     <g id="line2d_9">
      <g>
       <use xlink:href="#mfd95d993da" x="45.83" y="38.528" style="stroke: #000000; stroke-width: 0.8"/>
      </g>
     </g>
     <g id="text_9">
      <text style="font: 10px 'Arial'; text-anchor: end" x="38.83" y="42.106906" transform="rotate(-0 38.83 42.106906)">1.0</text>
     </g>
    </g>
    <g id="text_10">
     <text style="font: 10px 'Arial'; text-anchor: middle" x="18.825313" y="144.048" transform="rotate(-90 18.825313 144.048)">m6Anet predicted probability</text>
    </g>
   </g>
   <g id="line2d_10">
    <path d="M 73.542414 248.709025 
L 73.542414 130.998796 
" clip-path="url(#p1bd097cef5)" style="fill: none; stroke: #3f3f3f; stroke-width: 1.875; stroke-linecap: square"/>
   </g>
   <g id="line2d_11">
    <path d="M 73.542414 222.749368 
L 73.542414 172.869577 
" clip-path="url(#p1bd097cef5)" style="fill: none; stroke: #3f3f3f; stroke-width: 5.625; stroke-linecap: square"/>
   </g>
   <g id="line2d_12">
    <path d="M 73.542414 197.014713 
" clip-path="url(#p1bd097cef5)" style="fill: none; stroke: #3f3f3f; stroke-width: 1.5; stroke-linecap: square"/>
    <defs>
     <path id="mc627c02d24" d="M 2.34375 0 
L -2.34375 -0 
" style="stroke: #ffffff; stroke-width: 1.125"/>
    </defs>
    <g clip-path="url(#p1bd097cef5)">
     <use xlink:href="#mc627c02d24" x="73.542414" y="197.014713" style="fill: #ffffff; stroke: #ffffff; stroke-width: 1.125"/>
    </g>
   </g>
   <g id="line2d_13">
    <path d="M 124.403231 167.025384 
L 124.403231 132.695963 
" clip-path="url(#p1bd097cef5)" style="fill: none; stroke: #3f3f3f; stroke-width: 1.875; stroke-linecap: square"/>
   </g>
   <g id="line2d_14">
    <path d="M 124.403231 162.42197 
L 124.403231 149.646038 
" clip-path="url(#p1bd097cef5)" style="fill: none; stroke: #3f3f3f; stroke-width: 5.625; stroke-linecap: square"/>
   </g>
   <g id="line2d_15">
    <path d="M 124.403231 159.951877 
" clip-path="url(#p1bd097cef5)" style="fill: none; stroke: #3f3f3f; stroke-width: 1.5; stroke-linecap: square"/>
    <g clip-path="url(#p1bd097cef5)">
     <use xlink:href="#mc627c02d24" x="124.403231" y="159.951877" style="fill: #ffffff; stroke: #ffffff; stroke-width: 1.125"/>
    </g>
   </g>
   <g id="line2d_16">
    <path d="M 200.694457 247.762334 
L 200.694457 220.94563 
" clip-path="url(#p1bd097cef5)" style="fill: none; stroke: #3f3f3f; stroke-width: 1.875; stroke-linecap: square"/>
   </g>
   <g id="line2d_17">
    <path d="M 200.694457 238.835875 
L 200.694457 226.76075 
" clip-path="url(#p1bd097cef5)" style="fill: none; stroke: #3f3f3f; stroke-width: 5.625; stroke-linecap: square"/>
   </g>
   <g id="line2d_18">
    <path d="M 200.694457 233.804847 
" clip-path="url(#p1bd097cef5)" style="fill: none; stroke: #3f3f3f; stroke-width: 1.5; stroke-linecap: square"/>
    <g clip-path="url(#p1bd097cef5)">
     <use xlink:href="#mc627c02d24" x="200.694457" y="233.804847" style="fill: #ffffff; stroke: #ffffff; stroke-width: 1.125"/>
    </g>
   </g>
   <g id="line2d_19">
    <path d="M 327.846501 248.709025 
L 327.846501 148.827057 
" clip-path="url(#p1bd097cef5)" style="fill: none; stroke: #3f3f3f; stroke-width: 1.875; stroke-linecap: square"/>
   </g>
   <g id="line2d_20">
    <path d="M 327.846501 221.521905 
L 327.846501 173.244878 
" clip-path="url(#p1bd097cef5)" style="fill: none; stroke: #3f3f3f; stroke-width: 5.625; stroke-linecap: square"/>
   </g>
   <g id="line2d_21">
    <path d="M 327.846501 196.627732 
" clip-path="url(#p1bd097cef5)" style="fill: none; stroke: #3f3f3f; stroke-width: 1.5; stroke-linecap: square"/>
    <g clip-path="url(#p1bd097cef5)">
     <use xlink:href="#mc627c02d24" x="327.846501" y="196.627732" style="fill: #ffffff; stroke: #ffffff; stroke-width: 1.125"/>
    </g>
   </g>
   <g id="line2d_22">
    <path d="M 378.707319 167.025384 
L 378.707319 132.695963 
" clip-path="url(#p1bd097cef5)" style="fill: none; stroke: #3f3f3f; stroke-width: 1.875; stroke-linecap: square"/>
   </g>
   <g id="line2d_23">
    <path d="M 378.707319 162.42197 
L 378.707319 149.646038 
" clip-path="url(#p1bd097cef5)" style="fill: none; stroke: #3f3f3f; stroke-width: 5.625; stroke-linecap: square"/>
   </g>
   <g id="line2d_24">
    <path d="M 378.707319 159.951877 
" clip-path="url(#p1bd097cef5)" style="fill: none; stroke: #3f3f3f; stroke-width: 1.5; stroke-linecap: square"/>
    <g clip-path="url(#p1bd097cef5)">
     <use xlink:href="#mc627c02d24" x="378.707319" y="159.951877" style="fill: #ffffff; stroke: #ffffff; stroke-width: 1.125"/>
    </g>
   </g>
   <g id="LineCollection_1">
    <path d="M 73.542414 80.736 
L 124.403231 80.736 
" clip-path="url(#p1bd097cef5)" style="fill: none; stroke: #000000; stroke-width: 1.5"/>
   </g>
   <g id="LineCollection_2">
    <path d="M 327.846501 80.736 
L 378.707319 80.736 
" clip-path="url(#p1bd097cef5)" style="fill: none; stroke: #000000; stroke-width: 1.5"/>
   </g>
   <g id="patch_5">
    <path d="M 45.83 260.12 
L 45.83 27.976 
" style="fill: none; stroke: #000000; stroke-width: 0.8; stroke-linejoin: miter; stroke-linecap: square"/>
   </g>
   <g id="patch_6">
    <path d="M 45.83 260.12 
L 421.2 260.12 
" style="fill: none; stroke: #000000; stroke-width: 0.8; stroke-linejoin: miter; stroke-linecap: square"/>
   </g>
   <g id="text_11">
    <text style="font: 10px 'Arial'; text-anchor: middle" x="98.972822" y="78.7485" transform="rotate(-0 98.972822 78.7485)">0.007</text>
   </g>
   <g id="text_12">
    <text style="font: 10px 'Arial'; text-anchor: middle" x="353.27691" y="78.7485" transform="rotate(-0 353.27691 78.7485)">0.002</text>
   </g>
   <g id="legend_1">
    <g id="text_13">
     <text style="font: 10px 'Arial'; text-anchor: start" x="152.922031" y="21.041287" transform="rotate(-0 152.922031 21.041287)">m6A sites predicted by deepSRAMP</text>
    </g>
    <g id="patch_7">
     <path d="M 158.275156 35.303787 
L 178.275156 35.303787 
L 178.275156 28.303787 
L 158.275156 28.303787 
z
" style="fill: #3274a1; stroke: #3f3f3f; stroke-width: 1.25; stroke-linejoin: miter"/>
    </g>
    <g id="text_14">
     <text style="font: 10px 'Arial'; text-anchor: start" x="186.275156" y="35.303787" transform="rotate(-0 186.275156 35.303787)">Negative</text>
    </g>
    <g id="patch_8">
     <path d="M 245.740781 35.303787 
L 265.740781 35.303787 
L 265.740781 28.303787 
L 245.740781 28.303787 
z
" style="fill: #e1812c; stroke: #3f3f3f; stroke-width: 1.25; stroke-linejoin: miter"/>
    </g>
    <g id="text_15">
     <text style="font: 10px 'Arial'; text-anchor: start" x="273.740781" y="35.303787" transform="rotate(-0 273.740781 35.303787)">Positive</text>
    </g>
   </g>
  </g>
 </g>
 <defs>
  <clipPath id="p1bd097cef5">
   <rect x="45.83" y="27.976" width="375.37" height="232.144"/>
  </clipPath>
 </defs>
</svg>
