<?xml version="1.0" encoding="utf-8" standalone="no"?>
<!DOCTYPE svg PUBLIC "-//W3C//DTD SVG 1.1//EN"
  "http://www.w3.org/Graphics/SVG/1.1/DTD/svg11.dtd">
<svg xmlns:xlink="http://www.w3.org/1999/xlink" width="432pt" height="288pt" viewBox="0 0 432 288" xmlns="http://www.w3.org/2000/svg" version="1.1">
 <metadata>
  <rdf:RDF xmlns:dc="http://purl.org/dc/elements/1.1/" xmlns:cc="http://creativecommons.org/ns#" xmlns:rdf="http://www.w3.org/1999/02/22-rdf-syntax-ns#">
   <cc:Work>
    <dc:type rdf:resource="http://purl.org/dc/dcmitype/StillImage"/>
    <dc:date>2024-09-15T23:56:24.032156</dc:date>
    <dc:format>image/svg+xml</dc:format>
    <dc:creator>
     <cc:Agent>
      <dc:title>Matplotlib v3.9.2, https://matplotlib.org/</dc:title>
     </cc:Agent>
    </dc:creator>
   </cc:Work>
  </rdf:RDF>
 </metadata>
 <defs>
  <style type="text/css">*{stroke-linejoin: round; stroke-linecap: butt}</style>
 </defs>
 <g id="figure_1">
  <g id="patch_1">
   <path d="M 0 288 
L 432 288 
L 432 0 
L 0 0 
z
" style="fill: #ffffff"/>
  </g>
  <g id="axes_1">
   <g id="patch_2">
    <path d="M 45.83 260.12 
L 421.2 260.12 
L 421.2 27.976 
L 45.83 27.976 
z
" style="fill: #ffffff"/>
   </g>
   <g id="PolyCollection_1">
    <defs>
     <path id="mf7369637f8" d="M 74.136384 -7.205621 
L 73.586407 -7.205621 
L 73.507821 -9.042802 
L 73.411815 -10.879983 
L 73.295978 -12.717164 
L 73.157926 -14.554345 
L 72.995385 -16.391527 
L 72.806293 -18.228708 
L 72.58889 -20.065889 
L 72.341811 -21.90307 
L 72.06417 -23.740251 
L 71.755621 -25.577433 
L 71.416408 -27.414614 
L 71.047387 -29.251795 
L 70.650026 -31.088976 
L 70.226393 -32.926157 
L 69.779119 -34.763338 
L 69.311361 -36.60052 
L 68.826751 -38.437701 
L 68.329355 -40.274882 
L 67.823634 -42.112063 
L 67.314408 -43.949244 
L 66.806836 -45.786426 
L 66.30638 -47.623607 
L 65.818773 -49.460788 
L 65.349968 -51.297969 
L 64.906055 -53.13515 
L 64.493151 -54.972331 
L 64.117238 -56.809513 
L 63.78397 -58.646694 
L 63.498434 -60.483875 
L 63.264894 -62.321056 
L 63.086511 -64.158237 
L 62.965091 -65.995418 
L 62.900855 -67.8326 
L 62.892273 -69.669781 
L 62.935984 -71.506962 
L 63.026811 -73.344143 
L 63.157891 -75.181324 
L 63.320917 -77.018506 
L 63.506481 -78.855687 
L 63.704515 -80.692868 
L 63.904786 -82.530049 
L 64.097431 -84.36723 
L 64.273478 -86.204411 
L 64.425329 -88.041593 
L 64.547171 -89.878774 
L 64.63527 -91.715955 
L 64.688139 -93.553136 
L 64.706569 -95.390317 
L 64.693503 -97.227498 
L 64.653789 -99.06468 
L 64.593807 -100.901861 
L 64.521024 -102.739042 
L 64.443491 -104.576223 
L 64.369335 -106.413404 
L 64.306288 -108.250586 
L 64.26128 -110.087767 
L 64.240122 -111.924948 
L 64.247311 -113.762129 
L 64.285952 -115.59931 
L 64.357787 -117.436491 
L 64.46333 -119.273673 
L 64.602066 -121.110854 
L 64.772692 -122.948035 
L 64.973368 -124.785216 
L 65.201942 -126.622397 
L 65.45614 -128.459579 
L 65.733689 -130.29676 
L 66.032385 -132.133941 
L 66.350096 -133.971122 
L 66.684722 -135.808303 
L 67.034131 -137.645484 
L 67.396078 -139.482666 
L 67.768136 -141.319847 
L 68.147657 -143.157028 
L 68.53176 -144.994209 
L 68.91736 -146.83139 
L 69.301232 -148.668571 
L 69.680097 -150.505753 
L 70.050737 -152.342934 
L 70.410097 -154.180115 
L 70.755395 -156.017296 
L 71.084206 -157.854477 
L 71.394529 -159.691659 
L 71.68482 -161.52884 
L 71.95401 -163.366021 
L 72.201488 -165.203202 
L 72.427072 -167.040383 
L 72.630967 -168.877564 
L 72.813711 -170.714746 
L 72.976119 -172.551927 
L 73.119229 -174.389108 
L 73.244246 -176.226289 
L 73.352498 -178.06347 
L 73.445388 -179.900652 
L 73.524357 -181.737833 
L 73.59085 -183.575014 
L 73.646286 -185.412195 
L 73.692034 -187.249376 
L 73.729391 -189.086557 
L 73.9934 -189.086557 
L 73.9934 -189.086557 
L 74.030757 -187.249376 
L 74.076505 -185.412195 
L 74.13194 -183.575014 
L 74.198433 -181.737833 
L 74.277402 -179.900652 
L 74.370292 -178.06347 
L 74.478544 -176.226289 
L 74.603562 -174.389108 
L 74.746672 -172.551927 
L 74.90908 -170.714746 
L 75.091824 -168.877564 
L 75.295719 -167.040383 
L 75.521303 -165.203202 
L 75.768781 -163.366021 
L 76.03797 -161.52884 
L 76.328262 -159.691659 
L 76.638585 -157.854477 
L 76.967396 -156.017296 
L 77.312694 -154.180115 
L 77.672054 -152.342934 
L 78.042693 -150.505753 
L 78.421559 -148.668571 
L 78.80543 -146.83139 
L 79.191031 -144.994209 
L 79.575134 -143.157028 
L 79.954655 -141.319847 
L 80.326713 -139.482666 
L 80.688659 -137.645484 
L 81.038069 -135.808303 
L 81.372695 -133.971122 
L 81.690405 -132.133941 
L 81.989101 -130.29676 
L 82.266651 -128.459579 
L 82.520848 -126.622397 
L 82.749423 -124.785216 
L 82.950098 -122.948035 
L 83.120725 -121.110854 
L 83.259461 -119.273673 
L 83.365004 -117.436491 
L 83.436839 -115.59931 
L 83.475479 -113.762129 
L 83.482668 -111.924948 
L 83.46151 -110.087767 
L 83.416502 -108.250586 
L 83.353456 -106.413404 
L 83.2793 -104.576223 
L 83.201766 -102.739042 
L 83.128983 -100.901861 
L 83.069002 -99.06468 
L 83.029287 -97.227498 
L 83.016221 -95.390317 
L 83.034651 -93.553136 
L 83.087521 -91.715955 
L 83.17562 -89.878774 
L 83.297462 -88.041593 
L 83.449313 -86.204411 
L 83.625359 -84.36723 
L 83.818004 -82.530049 
L 84.018276 -80.692868 
L 84.21631 -78.855687 
L 84.401874 -77.018506 
L 84.564899 -75.181324 
L 84.69598 -73.344143 
L 84.786807 -71.506962 
L 84.830518 -69.669781 
L 84.821936 -67.8326 
L 84.757699 -65.995418 
L 84.63628 -64.158237 
L 84.457897 -62.321056 
L 84.224356 -60.483875 
L 83.938821 -58.646694 
L 83.605552 -56.809513 
L 83.229639 -54.972331 
L 82.816735 -53.13515 
L 82.372823 -51.297969 
L 81.904018 -49.460788 
L 81.416411 -47.623607 
L 80.915954 -45.786426 
L 80.408382 -43.949244 
L 79.899157 -42.112063 
L 79.393435 -40.274882 
L 78.896039 -38.437701 
L 78.411429 -36.60052 
L 77.943671 -34.763338 
L 77.496398 -32.926157 
L 77.072765 -31.088976 
L 76.675404 -29.251795 
L 76.306382 -27.414614 
L 75.967169 -25.577433 
L 75.658621 -23.740251 
L 75.38098 -21.90307 
L 75.133901 -20.065889 
L 74.916497 -18.228708 
L 74.727405 -16.391527 
L 74.564865 -14.554345 
L 74.426812 -12.717164 
L 74.310976 -10.879983 
L 74.214969 -9.042802 
L 74.136384 -7.205621 
z
" style="stroke: #3f3f3f; stroke-width: 1.25"/>
    </defs>
    <g clip-path="url(#p369bbae56e)">
     <use xlink:href="#mf7369637f8" x="0" y="288" style="fill: #3274a1; stroke: #3f3f3f; stroke-width: 1.25"/>
    </g>
   </g>
   <g id="PolyCollection_2">
    <defs>
     <path id="mb37678e398" d="M 125.227538 -4.426094 
L 124.118739 -4.426094 
L 124.01064 -6.384118 
L 123.888012 -8.342143 
L 123.750382 -10.300167 
L 123.597596 -12.258191 
L 123.429881 -14.216215 
L 123.247898 -16.17424 
L 123.052786 -18.132264 
L 122.846195 -20.090288 
L 122.630289 -22.048312 
L 122.407742 -24.006337 
L 122.181699 -25.964361 
L 121.955717 -27.922385 
L 121.73368 -29.880409 
L 121.519691 -31.838434 
L 121.317943 -33.796458 
L 121.132574 -35.754482 
L 120.967517 -37.712506 
L 120.826339 -39.670531 
L 120.712089 -41.628555 
L 120.627157 -43.586579 
L 120.573145 -45.544604 
L 120.550767 -47.502628 
L 120.559775 -49.460652 
L 120.598907 -51.418676 
L 120.665878 -53.376701 
L 120.757395 -55.334725 
L 120.869195 -57.292749 
L 120.996119 -59.250773 
L 121.132194 -61.208798 
L 121.27074 -63.166822 
L 121.404481 -65.124846 
L 121.525665 -67.08287 
L 121.62619 -69.040895 
L 121.697728 -70.998919 
L 121.731852 -72.956943 
L 121.720167 -74.914967 
L 121.654443 -76.872992 
L 121.526757 -78.831016 
L 121.329647 -80.78904 
L 121.05627 -82.747065 
L 120.700589 -84.705089 
L 120.257555 -86.663113 
L 119.723322 -88.621137 
L 119.095448 -90.579162 
L 118.373109 -92.537186 
L 117.557301 -94.49521 
L 116.651017 -96.453234 
L 115.65939 -98.411259 
L 114.589797 -100.369283 
L 113.451891 -102.327307 
L 112.257572 -104.285331 
L 111.020871 -106.243356 
L 109.75776 -108.20138 
L 108.485868 -110.159404 
L 107.224118 -112.117428 
L 105.992301 -114.075453 
L 104.810582 -116.033477 
L 103.698971 -117.991501 
L 102.676778 -119.949526 
L 101.762064 -121.90755 
L 100.971125 -123.865574 
L 100.318023 -125.823598 
L 99.814189 -127.781623 
L 99.468109 -129.739647 
L 99.285113 -131.697671 
L 99.267267 -133.655695 
L 99.413377 -135.61372 
L 99.719097 -137.571744 
L 100.177136 -139.529768 
L 100.777547 -141.487792 
L 101.508089 -143.445817 
L 102.354641 -145.403841 
L 103.301643 -147.361865 
L 104.332564 -149.319889 
L 105.430349 -151.277914 
L 106.577863 -153.235938 
L 107.758289 -155.193962 
L 108.955492 -157.151987 
L 110.154321 -159.110011 
L 111.340865 -161.068035 
L 112.502642 -163.026059 
L 113.628736 -164.984084 
L 114.709873 -166.942108 
L 115.738454 -168.900132 
L 116.708529 -170.858156 
L 117.615749 -172.816181 
L 118.457266 -174.774205 
L 119.231622 -176.732229 
L 119.93861 -178.690253 
L 120.579123 -180.648278 
L 121.154996 -182.606302 
L 121.668847 -184.564326 
L 122.123915 -186.52235 
L 122.523914 -188.480375 
L 122.872882 -190.438399 
L 123.175058 -192.396423 
L 123.434758 -194.354448 
L 123.656281 -196.312472 
L 123.843817 -198.270496 
L 125.50246 -198.270496 
L 125.50246 -198.270496 
L 125.689996 -196.312472 
L 125.911519 -194.354448 
L 126.17122 -192.396423 
L 126.473395 -190.438399 
L 126.822363 -188.480375 
L 127.222362 -186.52235 
L 127.677431 -184.564326 
L 128.191281 -182.606302 
L 128.767154 -180.648278 
L 129.407667 -178.690253 
L 130.114655 -176.732229 
L 130.889011 -174.774205 
L 131.730528 -172.816181 
L 132.637748 -170.858156 
L 133.607824 -168.900132 
L 134.636404 -166.942108 
L 135.717541 -164.984084 
L 136.843635 -163.026059 
L 138.005412 -161.068035 
L 139.191956 -159.110011 
L 140.390785 -157.151987 
L 141.587988 -155.193962 
L 142.768415 -153.235938 
L 143.915929 -151.277914 
L 145.013714 -149.319889 
L 146.044634 -147.361865 
L 146.991637 -145.403841 
L 147.838188 -143.445817 
L 148.56873 -141.487792 
L 149.169141 -139.529768 
L 149.62718 -137.571744 
L 149.9329 -135.61372 
L 150.07901 -133.655695 
L 150.061164 -131.697671 
L 149.878168 -129.739647 
L 149.532088 -127.781623 
L 149.028254 -125.823598 
L 148.375153 -123.865574 
L 147.584213 -121.90755 
L 146.669499 -119.949526 
L 145.647306 -117.991501 
L 144.535696 -116.033477 
L 143.353976 -114.075453 
L 142.122159 -112.117428 
L 140.86041 -110.159404 
L 139.588517 -108.20138 
L 138.325406 -106.243356 
L 137.088706 -104.285331 
L 135.894386 -102.327307 
L 134.75648 -100.369283 
L 133.686887 -98.411259 
L 132.695261 -96.453234 
L 131.788976 -94.49521 
L 130.973168 -92.537186 
L 130.250829 -90.579162 
L 129.622955 -88.621137 
L 129.088722 -86.663113 
L 128.645689 -84.705089 
L 128.290007 -82.747065 
L 128.016631 -80.78904 
L 127.81952 -78.831016 
L 127.691835 -76.872992 
L 127.62611 -74.914967 
L 127.614425 -72.956943 
L 127.648549 -70.998919 
L 127.720087 -69.040895 
L 127.820612 -67.08287 
L 127.941796 -65.124846 
L 128.075537 -63.166822 
L 128.214083 -61.208798 
L 128.350158 -59.250773 
L 128.477082 -57.292749 
L 128.588883 -55.334725 
L 128.680399 -53.376701 
L 128.747371 -51.418676 
L 128.786503 -49.460652 
L 128.79551 -47.502628 
L 128.773133 -45.544604 
L 128.719121 -43.586579 
L 128.634188 -41.628555 
L 128.519938 -39.670531 
L 128.37876 -37.712506 
L 128.213703 -35.754482 
L 128.028334 -33.796458 
L 127.826586 -31.838434 
L 127.612597 -29.880409 
L 127.39056 -27.922385 
L 127.164579 -25.964361 
L 126.938536 -24.006337 
L 126.715989 -22.048312 
L 126.500083 -20.090288 
L 126.293491 -18.132264 
L 126.09838 -16.17424 
L 125.916396 -14.216215 
L 125.748681 -12.258191 
L 125.595895 -10.300167 
L 125.458265 -8.342143 
L 125.335637 -6.384118 
L 125.227538 -4.426094 
z
" style="stroke: #3f3f3f; stroke-width: 1.25"/>
    </defs>
    <g clip-path="url(#p369bbae56e)">
     <use xlink:href="#mb37678e398" x="0" y="288" style="fill: #e1812c; stroke: #3f3f3f; stroke-width: 1.25"/>
    </g>
   </g>
   <g id="PolyCollection_3">
    <defs>
     <path id="m524b45567e" d="M 202.048377 -16.527644 
L 199.733131 -16.527644 
L 199.499067 -17.537926 
L 199.228327 -18.548209 
L 198.917446 -19.558492 
L 198.563073 -20.568775 
L 198.16206 -21.579058 
L 197.71156 -22.589341 
L 197.209135 -23.599624 
L 196.652857 -24.609906 
L 196.041412 -25.620189 
L 195.374197 -26.630472 
L 194.651407 -27.640755 
L 193.87411 -28.651038 
L 193.044308 -29.661321 
L 192.164975 -30.671604 
L 191.240086 -31.681886 
L 190.274607 -32.692169 
L 189.274486 -33.702452 
L 188.246596 -34.712735 
L 187.198682 -35.723018 
L 186.139268 -36.733301 
L 185.077555 -37.743584 
L 184.023299 -38.753866 
L 182.986672 -39.764149 
L 181.978118 -40.774432 
L 181.008184 -41.784715 
L 180.087358 -42.794998 
L 179.225887 -43.805281 
L 178.433606 -44.815564 
L 177.719758 -45.825846 
L 177.092819 -46.836129 
L 176.560331 -47.846412 
L 176.12875 -48.856695 
L 175.803304 -49.866978 
L 175.587871 -50.877261 
L 175.484882 -51.887544 
L 175.495255 -52.897826 
L 175.61835 -53.908109 
L 175.851964 -54.918392 
L 176.192357 -55.928675 
L 176.634311 -56.938958 
L 177.171224 -57.949241 
L 177.795233 -58.959524 
L 178.497363 -59.969807 
L 179.267706 -60.980089 
L 180.095604 -61.990372 
L 180.969862 -63.000655 
L 181.878953 -64.010938 
L 182.811234 -65.021221 
L 183.755159 -66.031504 
L 184.699475 -67.041787 
L 185.633419 -68.052069 
L 186.546892 -69.062352 
L 187.430618 -70.072635 
L 188.276287 -71.082918 
L 189.076673 -72.093201 
L 189.825732 -73.103484 
L 190.518679 -74.113767 
L 191.152037 -75.124049 
L 191.723669 -76.134332 
L 192.232771 -77.144615 
L 192.679856 -78.154898 
L 193.066695 -79.165181 
L 193.396238 -80.175464 
L 193.672515 -81.185747 
L 193.900495 -82.196029 
L 194.08594 -83.206312 
L 194.235228 -84.216595 
L 194.355162 -85.226878 
L 194.452776 -86.237161 
L 194.535122 -87.247444 
L 194.609079 -88.257727 
L 194.681154 -89.268009 
L 194.757305 -90.278292 
L 194.842794 -91.288575 
L 194.942054 -92.298858 
L 195.058599 -93.309141 
L 195.194965 -94.319424 
L 195.352689 -95.329707 
L 195.532325 -96.339989 
L 195.73349 -97.350272 
L 195.954948 -98.360555 
L 196.194714 -99.370838 
L 196.450184 -100.381121 
L 196.718273 -101.391404 
L 196.995564 -102.401687 
L 197.278457 -103.411969 
L 197.563308 -104.422252 
L 197.846565 -105.432535 
L 198.124878 -106.442818 
L 198.395199 -107.453101 
L 198.654852 -108.463384 
L 198.901587 -109.473667 
L 199.133609 -110.483949 
L 199.349589 -111.494232 
L 199.548652 -112.504515 
L 199.730351 -113.514798 
L 199.894635 -114.525081 
L 200.041794 -115.535364 
L 200.17241 -116.545647 
L 201.609098 -116.545647 
L 201.609098 -116.545647 
L 201.739714 -115.535364 
L 201.886872 -114.525081 
L 202.051156 -113.514798 
L 202.232856 -112.504515 
L 202.431918 -111.494232 
L 202.647898 -110.483949 
L 202.879921 -109.473667 
L 203.126655 -108.463384 
L 203.386308 -107.453101 
L 203.656629 -106.442818 
L 203.934943 -105.432535 
L 204.2182 -104.422252 
L 204.503051 -103.411969 
L 204.785943 -102.401687 
L 205.063234 -101.391404 
L 205.331324 -100.381121 
L 205.586794 -99.370838 
L 205.82656 -98.360555 
L 206.048018 -97.350272 
L 206.249182 -96.339989 
L 206.428818 -95.329707 
L 206.586543 -94.319424 
L 206.722909 -93.309141 
L 206.839454 -92.298858 
L 206.938713 -91.288575 
L 207.024202 -90.278292 
L 207.100354 -89.268009 
L 207.172428 -88.257727 
L 207.246385 -87.247444 
L 207.328732 -86.237161 
L 207.426345 -85.226878 
L 207.54628 -84.216595 
L 207.695567 -83.206312 
L 207.881013 -82.196029 
L 208.108993 -81.185747 
L 208.385269 -80.175464 
L 208.714813 -79.165181 
L 209.101651 -78.154898 
L 209.548736 -77.144615 
L 210.057839 -76.134332 
L 210.62947 -75.124049 
L 211.262829 -74.113767 
L 211.955776 -73.103484 
L 212.704835 -72.093201 
L 213.50522 -71.082918 
L 214.35089 -70.072635 
L 215.234616 -69.062352 
L 216.148089 -68.052069 
L 217.082032 -67.041787 
L 218.026348 -66.031504 
L 218.970273 -65.021221 
L 219.902555 -64.010938 
L 220.811645 -63.000655 
L 221.685903 -61.990372 
L 222.513802 -60.980089 
L 223.284144 -59.969807 
L 223.986275 -58.959524 
L 224.610284 -57.949241 
L 225.147196 -56.938958 
L 225.58915 -55.928675 
L 225.929543 -54.918392 
L 226.163157 -53.908109 
L 226.286252 -52.897826 
L 226.296625 -51.887544 
L 226.193637 -50.877261 
L 225.978203 -49.866978 
L 225.652757 -48.856695 
L 225.221177 -47.846412 
L 224.688689 -46.836129 
L 224.061749 -45.825846 
L 223.347901 -44.815564 
L 222.555621 -43.805281 
L 221.69415 -42.794998 
L 220.773323 -41.784715 
L 219.803389 -40.774432 
L 218.794835 -39.764149 
L 217.758209 -38.753866 
L 216.703952 -37.743584 
L 215.642239 -36.733301 
L 214.582825 -35.723018 
L 213.534911 -34.712735 
L 212.507022 -33.702452 
L 211.5069 -32.692169 
L 210.541422 -31.681886 
L 209.616532 -30.671604 
L 208.7372 -29.661321 
L 207.907397 -28.651038 
L 207.1301 -27.640755 
L 206.40731 -26.630472 
L 205.740096 -25.620189 
L 205.128651 -24.609906 
L 204.572373 -23.599624 
L 204.069948 -22.589341 
L 203.619448 -21.579058 
L 203.218434 -20.568775 
L 202.864061 -19.558492 
L 202.55318 -18.548209 
L 202.28244 -17.537926 
L 202.048377 -16.527644 
z
" style="stroke: #3f3f3f; stroke-width: 1.25"/>
    </defs>
    <g clip-path="url(#p369bbae56e)">
     <use xlink:href="#m524b45567e" x="0" y="288" style="fill: #3274a1; stroke: #3f3f3f; stroke-width: 1.25"/>
    </g>
   </g>
   <g id="PolyCollection_4">
    <defs>
     <path id="mcdc4717419" d="M 328.237899 -9.323766 
L 327.602326 -9.323766 
L 327.522266 -10.914245 
L 327.427027 -12.504723 
L 327.315035 -14.095201 
L 327.184847 -15.68568 
L 327.035218 -17.276158 
L 326.865164 -18.866636 
L 326.674023 -20.457115 
L 326.461496 -22.047593 
L 326.227672 -23.638071 
L 325.973041 -25.22855 
L 325.698473 -26.819028 
L 325.40518 -28.409507 
L 325.094661 -29.999985 
L 324.768622 -31.590463 
L 324.428895 -33.180942 
L 324.077352 -34.77142 
L 323.715831 -36.361898 
L 323.34607 -37.952377 
L 322.969672 -39.542855 
L 322.588097 -41.133333 
L 322.202684 -42.723812 
L 321.814706 -44.31429 
L 321.425445 -45.904769 
L 321.036292 -47.495247 
L 320.648852 -49.085725 
L 320.265033 -50.676204 
L 319.887134 -52.266682 
L 319.517885 -53.85716 
L 319.160453 -55.447639 
L 318.8184 -57.038117 
L 318.495586 -58.628595 
L 318.196024 -60.219074 
L 317.92369 -61.809552 
L 317.682305 -63.400031 
L 317.475096 -64.990509 
L 317.304556 -66.580987 
L 317.172222 -68.171466 
L 317.078488 -69.761944 
L 317.022471 -71.352422 
L 317.001937 -72.942901 
L 317.013304 -74.533379 
L 317.05172 -76.123857 
L 317.111221 -77.714336 
L 317.184961 -79.304814 
L 317.265501 -80.895293 
L 317.345153 -82.485771 
L 317.416349 -84.076249 
L 317.472024 -85.666728 
L 317.505991 -87.257206 
L 317.513282 -88.847684 
L 317.490441 -90.438163 
L 317.43575 -92.028641 
L 317.349368 -93.619119 
L 317.233375 -95.209598 
L 317.091727 -96.800076 
L 316.930096 -98.390555 
L 316.755628 -99.981033 
L 316.576618 -101.571511 
L 316.402119 -103.16199 
L 316.241515 -104.752468 
L 316.104074 -106.342946 
L 315.99852 -107.933425 
L 315.932632 -109.523903 
L 315.912923 -111.114381 
L 315.944378 -112.70486 
L 316.030309 -114.295338 
L 316.172288 -115.885817 
L 316.370189 -117.476295 
L 316.622314 -119.066773 
L 316.925585 -120.657252 
L 317.275793 -122.24773 
L 317.667868 -123.838208 
L 318.096155 -125.428687 
L 318.554679 -127.019165 
L 319.037371 -128.609643 
L 319.538258 -130.200122 
L 320.051599 -131.7906 
L 320.571979 -133.381079 
L 321.094356 -134.971557 
L 321.614083 -136.562035 
L 322.126898 -138.152514 
L 322.628912 -139.742992 
L 323.116587 -141.33347 
L 323.586734 -142.923949 
L 324.036504 -144.514427 
L 324.463404 -146.104905 
L 324.865322 -147.695384 
L 325.24055 -149.285862 
L 325.587812 -150.876341 
L 325.906295 -152.466819 
L 326.195654 -154.057297 
L 326.456014 -155.647776 
L 326.687952 -157.238254 
L 326.892464 -158.828732 
L 327.070909 -160.419211 
L 327.224954 -162.009689 
L 327.356494 -163.600167 
L 327.467585 -165.190646 
L 327.560363 -166.781124 
L 328.279861 -166.781124 
L 328.279861 -166.781124 
L 328.372639 -165.190646 
L 328.48373 -163.600167 
L 328.615271 -162.009689 
L 328.769315 -160.419211 
L 328.947761 -158.828732 
L 329.152272 -157.238254 
L 329.384211 -155.647776 
L 329.64457 -154.057297 
L 329.933929 -152.466819 
L 330.252412 -150.876341 
L 330.599675 -149.285862 
L 330.974902 -147.695384 
L 331.37682 -146.104905 
L 331.803721 -144.514427 
L 332.25349 -142.923949 
L 332.723637 -141.33347 
L 333.211313 -139.742992 
L 333.713326 -138.152514 
L 334.226141 -136.562035 
L 334.745868 -134.971557 
L 335.268246 -133.381079 
L 335.788625 -131.7906 
L 336.301967 -130.200122 
L 336.802853 -128.609643 
L 337.285546 -127.019165 
L 337.74407 -125.428687 
L 338.172357 -123.838208 
L 338.564431 -122.24773 
L 338.914639 -120.657252 
L 339.21791 -119.066773 
L 339.470035 -117.476295 
L 339.667936 -115.885817 
L 339.809915 -114.295338 
L 339.895846 -112.70486 
L 339.927302 -111.114381 
L 339.907592 -109.523903 
L 339.841705 -107.933425 
L 339.73615 -106.342946 
L 339.59871 -104.752468 
L 339.438106 -103.16199 
L 339.263607 -101.571511 
L 339.084596 -99.981033 
L 338.910128 -98.390555 
L 338.748497 -96.800076 
L 338.606849 -95.209598 
L 338.490857 -93.619119 
L 338.404474 -92.028641 
L 338.349783 -90.438163 
L 338.326942 -88.847684 
L 338.334233 -87.257206 
L 338.3682 -85.666728 
L 338.423876 -84.076249 
L 338.495072 -82.485771 
L 338.574724 -80.895293 
L 338.655264 -79.304814 
L 338.729003 -77.714336 
L 338.788504 -76.123857 
L 338.82692 -74.533379 
L 338.838287 -72.942901 
L 338.817753 -71.352422 
L 338.761737 -69.761944 
L 338.668003 -68.171466 
L 338.535668 -66.580987 
L 338.365128 -64.990509 
L 338.157919 -63.400031 
L 337.916535 -61.809552 
L 337.644201 -60.219074 
L 337.344638 -58.628595 
L 337.021824 -57.038117 
L 336.679771 -55.447639 
L 336.32234 -53.85716 
L 335.95309 -52.266682 
L 335.575191 -50.676204 
L 335.191373 -49.085725 
L 334.803932 -47.495247 
L 334.41478 -45.904769 
L 334.025519 -44.31429 
L 333.63754 -42.723812 
L 333.252127 -41.133333 
L 332.870553 -39.542855 
L 332.494155 -37.952377 
L 332.124393 -36.361898 
L 331.762872 -34.77142 
L 331.41133 -33.180942 
L 331.071602 -31.590463 
L 330.745563 -29.999985 
L 330.435044 -28.409507 
L 330.141752 -26.819028 
L 329.867184 -25.22855 
L 329.612553 -23.638071 
L 329.378729 -22.047593 
L 329.166201 -20.457115 
L 328.97506 -18.866636 
L 328.805006 -17.276158 
L 328.655377 -15.68568 
L 328.525189 -14.095201 
L 328.413197 -12.504723 
L 328.317958 -10.914245 
L 328.237899 -9.323766 
z
" style="stroke: #3f3f3f; stroke-width: 1.25"/>
    </defs>
    <g clip-path="url(#p369bbae56e)">
     <use xlink:href="#mcdc4717419" x="0" y="288" style="fill: #3274a1; stroke: #3f3f3f; stroke-width: 1.25"/>
    </g>
   </g>
   <g id="PolyCollection_5">
    <defs>
     <path id="me15b735d25" d="M 379.286255 -4.426094 
L 378.177456 -4.426094 
L 378.069357 -6.384118 
L 377.946729 -8.342143 
L 377.809099 -10.300167 
L 377.656313 -12.258191 
L 377.488598 -14.216215 
L 377.306615 -16.17424 
L 377.111503 -18.132264 
L 376.904912 -20.090288 
L 376.689006 -22.048312 
L 376.466459 -24.006337 
L 376.240416 -25.964361 
L 376.014434 -27.922385 
L 375.792397 -29.880409 
L 375.578408 -31.838434 
L 375.37666 -33.796458 
L 375.191291 -35.754482 
L 375.026234 -37.712506 
L 374.885056 -39.670531 
L 374.770806 -41.628555 
L 374.685874 -43.586579 
L 374.631862 -45.544604 
L 374.609484 -47.502628 
L 374.618492 -49.460652 
L 374.657624 -51.418676 
L 374.724595 -53.376701 
L 374.816112 -55.334725 
L 374.927912 -57.292749 
L 375.054836 -59.250773 
L 375.190911 -61.208798 
L 375.329457 -63.166822 
L 375.463198 -65.124846 
L 375.584382 -67.08287 
L 375.684907 -69.040895 
L 375.756445 -70.998919 
L 375.790569 -72.956943 
L 375.778884 -74.914967 
L 375.71316 -76.872992 
L 375.585474 -78.831016 
L 375.388364 -80.78904 
L 375.114987 -82.747065 
L 374.759305 -84.705089 
L 374.316272 -86.663113 
L 373.782039 -88.621137 
L 373.154165 -90.579162 
L 372.431826 -92.537186 
L 371.616018 -94.49521 
L 370.709734 -96.453234 
L 369.718107 -98.411259 
L 368.648514 -100.369283 
L 367.510608 -102.327307 
L 366.316289 -104.285331 
L 365.079588 -106.243356 
L 363.816477 -108.20138 
L 362.544585 -110.159404 
L 361.282835 -112.117428 
L 360.051018 -114.075453 
L 358.869299 -116.033477 
L 357.757688 -117.991501 
L 356.735495 -119.949526 
L 355.820781 -121.90755 
L 355.029842 -123.865574 
L 354.37674 -125.823598 
L 353.872906 -127.781623 
L 353.526826 -129.739647 
L 353.34383 -131.697671 
L 353.325984 -133.655695 
L 353.472094 -135.61372 
L 353.777814 -137.571744 
L 354.235853 -139.529768 
L 354.836264 -141.487792 
L 355.566806 -143.445817 
L 356.413357 -145.403841 
L 357.36036 -147.361865 
L 358.39128 -149.319889 
L 359.489066 -151.277914 
L 360.63658 -153.235938 
L 361.817006 -155.193962 
L 363.014209 -157.151987 
L 364.213038 -159.110011 
L 365.399582 -161.068035 
L 366.561359 -163.026059 
L 367.687453 -164.984084 
L 368.76859 -166.942108 
L 369.797171 -168.900132 
L 370.767246 -170.858156 
L 371.674466 -172.816181 
L 372.515983 -174.774205 
L 373.290339 -176.732229 
L 373.997327 -178.690253 
L 374.63784 -180.648278 
L 375.213713 -182.606302 
L 375.727563 -184.564326 
L 376.182632 -186.52235 
L 376.582631 -188.480375 
L 376.931599 -190.438399 
L 377.233775 -192.396423 
L 377.493475 -194.354448 
L 377.714998 -196.312472 
L 377.902534 -198.270496 
L 379.561177 -198.270496 
L 379.561177 -198.270496 
L 379.748713 -196.312472 
L 379.970236 -194.354448 
L 380.229936 -192.396423 
L 380.532112 -190.438399 
L 380.88108 -188.480375 
L 381.281079 -186.52235 
L 381.736148 -184.564326 
L 382.249998 -182.606302 
L 382.825871 -180.648278 
L 383.466384 -178.690253 
L 384.173372 -176.732229 
L 384.947728 -174.774205 
L 385.789245 -172.816181 
L 386.696465 -170.858156 
L 387.666541 -168.900132 
L 388.695121 -166.942108 
L 389.776258 -164.984084 
L 390.902352 -163.026059 
L 392.064129 -161.068035 
L 393.250673 -159.110011 
L 394.449502 -157.151987 
L 395.646705 -155.193962 
L 396.827132 -153.235938 
L 397.974645 -151.277914 
L 399.072431 -149.319889 
L 400.103351 -147.361865 
L 401.050354 -145.403841 
L 401.896905 -143.445817 
L 402.627447 -141.487792 
L 403.227858 -139.529768 
L 403.685897 -137.571744 
L 403.991617 -135.61372 
L 404.137727 -133.655695 
L 404.119881 -131.697671 
L 403.936885 -129.739647 
L 403.590805 -127.781623 
L 403.086971 -125.823598 
L 402.433869 -123.865574 
L 401.64293 -121.90755 
L 400.728216 -119.949526 
L 399.706023 -117.991501 
L 398.594412 -116.033477 
L 397.412693 -114.075453 
L 396.180876 -112.117428 
L 394.919127 -110.159404 
L 393.647234 -108.20138 
L 392.384123 -106.243356 
L 391.147423 -104.285331 
L 389.953103 -102.327307 
L 388.815197 -100.369283 
L 387.745604 -98.411259 
L 386.753977 -96.453234 
L 385.847693 -94.49521 
L 385.031885 -92.537186 
L 384.309546 -90.579162 
L 383.681672 -88.621137 
L 383.147439 -86.663113 
L 382.704406 -84.705089 
L 382.348724 -82.747065 
L 382.075347 -80.78904 
L 381.878237 -78.831016 
L 381.750551 -76.872992 
L 381.684827 -74.914967 
L 381.673142 -72.956943 
L 381.707266 -70.998919 
L 381.778804 -69.040895 
L 381.879329 -67.08287 
L 382.000513 -65.124846 
L 382.134254 -63.166822 
L 382.2728 -61.208798 
L 382.408875 -59.250773 
L 382.535799 -57.292749 
L 382.647599 -55.334725 
L 382.739116 -53.376701 
L 382.806088 -51.418676 
L 382.845219 -49.460652 
L 382.854227 -47.502628 
L 382.831849 -45.544604 
L 382.777837 -43.586579 
L 382.692905 -41.628555 
L 382.578655 -39.670531 
L 382.437477 -37.712506 
L 382.27242 -35.754482 
L 382.087051 -33.796458 
L 381.885303 -31.838434 
L 381.671314 -29.880409 
L 381.449277 -27.922385 
L 381.223295 -25.964361 
L 380.997253 -24.006337 
L 380.774706 -22.048312 
L 380.5588 -20.090288 
L 380.352208 -18.132264 
L 380.157097 -16.17424 
L 379.975113 -14.216215 
L 379.807398 -12.258191 
L 379.654612 -10.300167 
L 379.516982 -8.342143 
L 379.394354 -6.384118 
L 379.286255 -4.426094 
z
" style="stroke: #3f3f3f; stroke-width: 1.25"/>
    </defs>
    <g clip-path="url(#p369bbae56e)">
     <use xlink:href="#me15b735d25" x="0" y="288" style="fill: #e1812c; stroke: #3f3f3f; stroke-width: 1.25"/>
    </g>
   </g>
   <g id="patch_3">
    <path d="M 99.267267 249.568 
L 99.267267 249.568 
L 99.267267 249.568 
L 99.267267 249.568 
z
" clip-path="url(#p369bbae56e)" style="fill: #3274a1; stroke: #3f3f3f; stroke-width: 1.25; stroke-linejoin: miter"/>
   </g>
   <g id="patch_4">
    <path d="M 99.267267 249.568 
L 99.267267 249.568 
L 99.267267 249.568 
L 99.267267 249.568 
z
" clip-path="url(#p369bbae56e)" style="fill: #e1812c; stroke: #3f3f3f; stroke-width: 1.25; stroke-linejoin: miter"/>
   </g>
   <g id="PathCollection_1">
    <defs>
     <path id="m27011a336c" d="M 0 3 
C 0.795609 3 1.55874 2.683901 2.12132 2.12132 
C 2.683901 1.55874 3 0.795609 3 0 
C 3 -0.795609 2.683901 -1.55874 2.12132 -2.12132 
C 1.55874 -2.683901 0.795609 -3 0 -3 
C -0.795609 -3 -1.55874 -2.683901 -2.12132 -2.12132 
C -2.683901 -1.55874 -3 -0.795609 -3 0 
C -3 0.795609 -2.683901 1.55874 -2.12132 2.12132 
C -1.55874 2.683901 -0.795609 3 0 3 
z
" style="stroke: #000000"/>
    </defs>
    <g clip-path="url(#p369bbae56e)">
     <use xlink:href="#m27011a336c" x="251.702497" y="161.273085" style="fill: #dd8452; stroke: #000000"/>
    </g>
   </g>
   <g id="matplotlib.axis_1">
    <g id="xtick_1">
     <g id="line2d_1">
      <defs>
       <path id="m6772056e2b" d="M 0 0 
L 0 3.5 
" style="stroke: #000000; stroke-width: 0.8"/>
      </defs>
      <g>
       <use xlink:href="#m6772056e2b" x="99.267267" y="260.12" style="stroke: #000000; stroke-width: 0.8"/>
      </g>
     </g>
     <g id="text_1">
      <text style="font: 10px 'Arial'; text-anchor: middle" x="99.267267" y="274.277812" transform="rotate(-0 99.267267 274.277812)">ENST00000291295</text>
     </g>
    </g>
    <g id="xtick_2">
     <g id="line2d_2">
      <g>
       <use xlink:href="#m6772056e2b" x="226.296625" y="260.12" style="stroke: #000000; stroke-width: 0.8"/>
      </g>
     </g>
     <g id="text_2">
      <text style="font: 10px 'Arial'; text-anchor: middle" x="226.296625" y="274.277812" transform="rotate(-0 226.296625 274.277812)">ENST00000391918</text>
     </g>
    </g>
    <g id="xtick_3">
     <g id="line2d_3">
      <g>
       <use xlink:href="#m6772056e2b" x="353.325984" y="260.12" style="stroke: #000000; stroke-width: 0.8"/>
      </g>
     </g>
     <g id="text_3">
      <text style="font: 10px 'Arial'; text-anchor: middle" x="353.325984" y="274.277812" transform="rotate(-0 353.325984 274.277812)">ENST00000486500</text>
     </g>
    </g>
   </g>
   <g id="matplotlib.axis_2">
    <g id="ytick_1">
     <g id="line2d_4">
      <defs>
       <path id="mb633595eb1" d="M 0 0 
L -3.5 0 
" style="stroke: #000000; stroke-width: 0.8"/>
      </defs>
      <g>
       <use xlink:href="#mb633595eb1" x="45.83" y="249.568" style="stroke: #000000; stroke-width: 0.8"/>
      </g>
     </g>
     <g id="text_4">
      <text style="font: 10px 'Arial'; text-anchor: end" x="38.83" y="253.146906" transform="rotate(-0 38.83 253.146906)">0.0</text>
     </g>
    </g>
    <g id="ytick_2">
     <g id="line2d_5">
      <g>
       <use xlink:href="#mb633595eb1" x="45.83" y="207.36" style="stroke: #000000; stroke-width: 0.8"/>
      </g>
     </g>
     <g id="text_5">
      <text style="font: 10px 'Arial'; text-anchor: end" x="38.83" y="210.938906" transform="rotate(-0 38.83 210.938906)">0.2</text>
     </g>
    </g>
    <g id="ytick_3">
     <g id="line2d_6">
      <g>
       <use xlink:href="#mb633595eb1" x="45.83" y="165.152" style="stroke: #000000; stroke-width: 0.8"/>
      </g>
     </g>
     <g id="text_6">
      <text style="font: 10px 'Arial'; text-anchor: end" x="38.83" y="168.730906" transform="rotate(-0 38.83 168.730906)">0.4</text>
     </g>
    </g>
    <g id="ytick_4">
     <g id="line2d_7">
      <g>
       <use xlink:href="#mb633595eb1" x="45.83" y="122.944" style="stroke: #000000; stroke-width: 0.8"/>
      </g>
     </g>
     <g id="text_7">
      <text style="font: 10px 'Arial'; text-anchor: end" x="38.83" y="126.522906" transform="rotate(-0 38.83 126.522906)">0.6</text>
     </g>
    </g>
    <g id="ytick_5">
     <g id="line2d_8">
      <g>
       <use xlink:href="#mb633595eb1" x="45.83" y="80.736" style="stroke: #000000; stroke-width: 0.8"/>
      </g>
     </g>
     <g id="text_8">
      <text style="font: 10px 'Arial'; text-anchor: end" x="38.83" y="84.314906" transform="rotate(-0 38.83 84.314906)">0.8</text>
     </g>
    </g>
    <g id="ytick_6">
     <g id="line2d_9">
      <g>
       <use xlink:href="#mb633595eb1" x="45.83" y="38.528" style="stroke: #000000; stroke-width: 0.8"/>
      </g>
     </g>
     <g id="text_9">
      <text style="font: 10px 'Arial'; text-anchor: end" x="38.83" y="42.106906" transform="rotate(-0 38.83 42.106906)">1.0</text>
     </g>
    </g>
    <g id="text_10">
     <text style="font: 10px 'Arial'; text-anchor: middle" x="18.825313" y="144.048" transform="rotate(-90 18.825313 144.048)">m6Anet predicted probability</text>
    </g>
   </g>
   <g id="line2d_10">
    <path d="M 73.861395 248.709025 
L 73.861395 130.998796 
" clip-path="url(#p369bbae56e)" style="fill: none; stroke: #3f3f3f; stroke-width: 1.875; stroke-linecap: square"/>
   </g>
   <g id="line2d_11">
    <path d="M 73.861395 220.924801 
L 73.861395 172.90644 
" clip-path="url(#p369bbae56e)" style="fill: none; stroke: #3f3f3f; stroke-width: 5.625; stroke-linecap: square"/>
   </g>
   <g id="line2d_12">
    <path d="M 73.861395 197.014713 
" clip-path="url(#p369bbae56e)" style="fill: none; stroke: #3f3f3f; stroke-width: 1.5; stroke-linecap: square"/>
    <defs>
     <path id="mfc6c537474" d="M 2.34375 0 
L -2.34375 -0 
" style="stroke: #ffffff; stroke-width: 1.125"/>
    </defs>
    <g clip-path="url(#p369bbae56e)">
     <use xlink:href="#mfc6c537474" x="73.861395" y="197.014713" style="fill: #ffffff; stroke: #ffffff; stroke-width: 1.125"/>
    </g>
   </g>
   <g id="line2d_13">
    <path d="M 124.673139 167.025384 
L 124.673139 132.695963 
" clip-path="url(#p369bbae56e)" style="fill: none; stroke: #3f3f3f; stroke-width: 1.875; stroke-linecap: square"/>
   </g>
   <g id="line2d_14">
    <path d="M 124.673139 163.895585 
L 124.673139 148.271236 
" clip-path="url(#p369bbae56e)" style="fill: none; stroke: #3f3f3f; stroke-width: 5.625; stroke-linecap: square"/>
   </g>
   <g id="line2d_15">
    <path d="M 124.673139 159.951877 
" clip-path="url(#p369bbae56e)" style="fill: none; stroke: #3f3f3f; stroke-width: 1.5; stroke-linecap: square"/>
    <g clip-path="url(#p369bbae56e)">
     <use xlink:href="#mfc6c537474" x="124.673139" y="159.951877" style="fill: #ffffff; stroke: #ffffff; stroke-width: 1.125"/>
    </g>
   </g>
   <g id="line2d_16">
    <path d="M 200.890754 247.762334 
L 200.890754 220.94563 
" clip-path="url(#p369bbae56e)" style="fill: none; stroke: #3f3f3f; stroke-width: 1.875; stroke-linecap: square"/>
   </g>
   <g id="line2d_17">
    <path d="M 200.890754 238.835875 
L 200.890754 226.76075 
" clip-path="url(#p369bbae56e)" style="fill: none; stroke: #3f3f3f; stroke-width: 5.625; stroke-linecap: square"/>
   </g>
   <g id="line2d_18">
    <path d="M 200.890754 233.804847 
" clip-path="url(#p369bbae56e)" style="fill: none; stroke: #3f3f3f; stroke-width: 1.5; stroke-linecap: square"/>
    <g clip-path="url(#p369bbae56e)">
     <use xlink:href="#mfc6c537474" x="200.890754" y="233.804847" style="fill: #ffffff; stroke: #ffffff; stroke-width: 1.125"/>
    </g>
   </g>
   <g id="line2d_19">
    <path d="M 327.920112 248.709025 
L 327.920112 151.186084 
" clip-path="url(#p369bbae56e)" style="fill: none; stroke: #3f3f3f; stroke-width: 1.875; stroke-linecap: square"/>
   </g>
   <g id="line2d_20">
    <path d="M 327.920112 219.066979 
L 327.920112 173.84803 
" clip-path="url(#p369bbae56e)" style="fill: none; stroke: #3f3f3f; stroke-width: 5.625; stroke-linecap: square"/>
   </g>
   <g id="line2d_21">
    <path d="M 327.920112 196.627732 
" clip-path="url(#p369bbae56e)" style="fill: none; stroke: #3f3f3f; stroke-width: 1.5; stroke-linecap: square"/>
    <g clip-path="url(#p369bbae56e)">
     <use xlink:href="#mfc6c537474" x="327.920112" y="196.627732" style="fill: #ffffff; stroke: #ffffff; stroke-width: 1.125"/>
    </g>
   </g>
   <g id="line2d_22">
    <path d="M 378.731856 167.025384 
L 378.731856 132.695963 
" clip-path="url(#p369bbae56e)" style="fill: none; stroke: #3f3f3f; stroke-width: 1.875; stroke-linecap: square"/>
   </g>
   <g id="line2d_23">
    <path d="M 378.731856 163.895585 
L 378.731856 148.271236 
" clip-path="url(#p369bbae56e)" style="fill: none; stroke: #3f3f3f; stroke-width: 5.625; stroke-linecap: square"/>
   </g>
   <g id="line2d_24">
    <path d="M 378.731856 159.951877 
" clip-path="url(#p369bbae56e)" style="fill: none; stroke: #3f3f3f; stroke-width: 1.5; stroke-linecap: square"/>
    <g clip-path="url(#p369bbae56e)">
     <use xlink:href="#mfc6c537474" x="378.731856" y="159.951877" style="fill: #ffffff; stroke: #ffffff; stroke-width: 1.125"/>
    </g>
   </g>
   <g id="LineCollection_1">
    <path d="M 73.861395 80.736 
L 124.673139 80.736 
" clip-path="url(#p369bbae56e)" style="fill: none; stroke: #000000; stroke-width: 1.5"/>
   </g>
   <g id="LineCollection_2">
    <path d="M 327.920112 80.736 
L 378.731856 80.736 
" clip-path="url(#p369bbae56e)" style="fill: none; stroke: #000000; stroke-width: 1.5"/>
   </g>
   <g id="patch_5">
    <path d="M 45.83 260.12 
L 45.83 27.976 
" style="fill: none; stroke: #000000; stroke-width: 0.8; stroke-linejoin: miter; stroke-linecap: square"/>
   </g>
   <g id="patch_6">
    <path d="M 45.83 260.12 
L 421.2 260.12 
" style="fill: none; stroke: #000000; stroke-width: 0.8; stroke-linejoin: miter; stroke-linecap: square"/>
   </g>
   <g id="text_11">
    <text style="font: 10px 'Arial'; text-anchor: middle" x="99.267267" y="78.7485" transform="rotate(-0 99.267267 78.7485)">0.018</text>
   </g>
   <g id="text_12">
    <text style="font: 10px 'Arial'; text-anchor: middle" x="353.325984" y="78.7485" transform="rotate(-0 353.325984 78.7485)">0.005</text>
   </g>
   <g id="legend_1">
    <g id="text_13">
     <text style="font: 10px 'Arial'; text-anchor: start" x="152.922031" y="21.041287" transform="rotate(-0 152.922031 21.041287)">m6A sites predicted by deepSRAMP</text>
    </g>
    <g id="patch_7">
     <path d="M 158.275156 35.303787 
L 178.275156 35.303787 
L 178.275156 28.303787 
L 158.275156 28.303787 
z
" style="fill: #3274a1; stroke: #3f3f3f; stroke-width: 1.25; stroke-linejoin: miter"/>
    </g>
    <g id="text_14">
     <text style="font: 10px 'Arial'; text-anchor: start" x="186.275156" y="35.303787" transform="rotate(-0 186.275156 35.303787)">Negative</text>
    </g>
    <g id="patch_8">
     <path d="M 245.740781 35.303787 
L 265.740781 35.303787 
L 265.740781 28.303787 
L 245.740781 28.303787 
z
" style="fill: #e1812c; stroke: #3f3f3f; stroke-width: 1.25; stroke-linejoin: miter"/>
    </g>
    <g id="text_15">
     <text style="font: 10px 'Arial'; text-anchor: start" x="273.740781" y="35.303787" transform="rotate(-0 273.740781 35.303787)">Positive</text>
    </g>
   </g>
  </g>
 </g>
 <defs>
  <clipPath id="p369bbae56e">
   <rect x="45.83" y="27.976" width="375.37" height="232.144"/>
  </clipPath>
 </defs>
</svg>
