<?xml version="1.0" encoding="utf-8" standalone="no"?>
<!DOCTYPE svg PUBLIC "-//W3C//DTD SVG 1.1//EN"
  "http://www.w3.org/Graphics/SVG/1.1/DTD/svg11.dtd">
<svg xmlns:xlink="http://www.w3.org/1999/xlink" width="288pt" height="288pt" viewBox="0 0 288 288" xmlns="http://www.w3.org/2000/svg" version="1.1">
 <metadata>
  <rdf:RDF xmlns:dc="http://purl.org/dc/elements/1.1/" xmlns:cc="http://creativecommons.org/ns#" xmlns:rdf="http://www.w3.org/1999/02/22-rdf-syntax-ns#">
   <cc:Work>
    <dc:type rdf:resource="http://purl.org/dc/dcmitype/StillImage"/>
    <dc:date>2024-09-14T23:17:12.011999</dc:date>
    <dc:format>image/svg+xml</dc:format>
    <dc:creator>
     <cc:Agent>
      <dc:title>Matplotlib v3.9.2, https://matplotlib.org/</dc:title>
     </cc:Agent>
    </dc:creator>
   </cc:Work>
  </rdf:RDF>
 </metadata>
 <defs>
  <style type="text/css">*{stroke-linejoin: round; stroke-linecap: butt}</style>
 </defs>
 <g id="figure_1">
  <g id="patch_1">
   <path d="M 0 288 
L 288 288 
L 288 0 
L 0 0 
L 0 288 
z
" style="fill: none"/>
  </g>
  <g id="axes_1">
   <g id="patch_2">
    <path d="M 45.83 246.04 
L 272.413235 246.04 
L 272.413235 12.585882 
L 45.83 12.585882 
L 45.83 246.04 
z
" style="fill: none"/>
   </g>
   <g id="matplotlib.axis_1">
    <g id="xtick_1">
     <g id="line2d_1">
      <defs>
       <path id="m55180c8e31" d="M 0 0 
L 0 3.5 
" style="stroke: #000000; stroke-width: 0.8"/>
      </defs>
      <g>
       <use xlink:href="#m55180c8e31" x="48.051404" y="246.04" style="stroke: #000000; stroke-width: 0.8"/>
      </g>
     </g>
     <g id="text_1">
      <text style="font: 10px 'Arial'; text-anchor: middle" x="48.051404" y="260.197812" transform="rotate(-0 48.051404 260.197812)">0.0</text>
     </g>
    </g>
    <g id="xtick_2">
     <g id="line2d_2">
      <g>
       <use xlink:href="#m55180c8e31" x="92.47949" y="246.04" style="stroke: #000000; stroke-width: 0.8"/>
      </g>
     </g>
     <g id="text_2">
      <text style="font: 10px 'Arial'; text-anchor: middle" x="92.47949" y="260.197812" transform="rotate(-0 92.47949 260.197812)">0.2</text>
     </g>
    </g>
    <g id="xtick_3">
     <g id="line2d_3">
      <g>
       <use xlink:href="#m55180c8e31" x="136.907575" y="246.04" style="stroke: #000000; stroke-width: 0.8"/>
      </g>
     </g>
     <g id="text_3">
      <text style="font: 10px 'Arial'; text-anchor: middle" x="136.907575" y="260.197812" transform="rotate(-0 136.907575 260.197812)">0.4</text>
     </g>
    </g>
    <g id="xtick_4">
     <g id="line2d_4">
      <g>
       <use xlink:href="#m55180c8e31" x="181.33566" y="246.04" style="stroke: #000000; stroke-width: 0.8"/>
      </g>
     </g>
     <g id="text_4">
      <text style="font: 10px 'Arial'; text-anchor: middle" x="181.33566" y="260.197812" transform="rotate(-0 181.33566 260.197812)">0.6</text>
     </g>
    </g>
    <g id="xtick_5">
     <g id="line2d_5">
      <g>
       <use xlink:href="#m55180c8e31" x="225.763746" y="246.04" style="stroke: #000000; stroke-width: 0.8"/>
      </g>
     </g>
     <g id="text_5">
      <text style="font: 10px 'Arial'; text-anchor: middle" x="225.763746" y="260.197812" transform="rotate(-0 225.763746 260.197812)">0.8</text>
     </g>
    </g>
    <g id="xtick_6">
     <g id="line2d_6">
      <g>
       <use xlink:href="#m55180c8e31" x="270.191831" y="246.04" style="stroke: #000000; stroke-width: 0.8"/>
      </g>
     </g>
     <g id="text_6">
      <text style="font: 10px 'Arial'; text-anchor: middle" x="270.191831" y="260.197812" transform="rotate(-0 270.191831 260.197812)">1.0</text>
     </g>
    </g>
    <g id="text_7">
     <text style="font: 10px 'Arial'; text-anchor: middle" x="159.121618" y="273.343125" transform="rotate(-0 159.121618 273.343125)">False Postive Rate</text>
    </g>
   </g>
   <g id="matplotlib.axis_2">
    <g id="ytick_1">
     <g id="line2d_7">
      <defs>
       <path id="mc4928ce96b" d="M 0 0 
L -3.5 0 
" style="stroke: #000000; stroke-width: 0.8"/>
      </defs>
      <g>
       <use xlink:href="#mc4928ce96b" x="45.83" y="243.751234" style="stroke: #000000; stroke-width: 0.8"/>
      </g>
     </g>
     <g id="text_8">
      <text style="font: 10px 'Arial'; text-anchor: end" x="38.83" y="247.33014" transform="rotate(-0 38.83 247.33014)">0.0</text>
     </g>
    </g>
    <g id="ytick_2">
     <g id="line2d_8">
      <g>
       <use xlink:href="#mc4928ce96b" x="45.83" y="197.975917" style="stroke: #000000; stroke-width: 0.8"/>
      </g>
     </g>
     <g id="text_9">
      <text style="font: 10px 'Arial'; text-anchor: end" x="38.83" y="201.554823" transform="rotate(-0 38.83 201.554823)">0.2</text>
     </g>
    </g>
    <g id="ytick_3">
     <g id="line2d_9">
      <g>
       <use xlink:href="#mc4928ce96b" x="45.83" y="152.2006" style="stroke: #000000; stroke-width: 0.8"/>
      </g>
     </g>
     <g id="text_10">
      <text style="font: 10px 'Arial'; text-anchor: end" x="38.83" y="155.779506" transform="rotate(-0 38.83 155.779506)">0.4</text>
     </g>
    </g>
    <g id="ytick_4">
     <g id="line2d_10">
      <g>
       <use xlink:href="#mc4928ce96b" x="45.83" y="106.425283" style="stroke: #000000; stroke-width: 0.8"/>
      </g>
     </g>
     <g id="text_11">
      <text style="font: 10px 'Arial'; text-anchor: end" x="38.83" y="110.004189" transform="rotate(-0 38.83 110.004189)">0.6</text>
     </g>
    </g>
    <g id="ytick_5">
     <g id="line2d_11">
      <g>
       <use xlink:href="#mc4928ce96b" x="45.83" y="60.649965" style="stroke: #000000; stroke-width: 0.8"/>
      </g>
     </g>
     <g id="text_12">
      <text style="font: 10px 'Arial'; text-anchor: end" x="38.83" y="64.228872" transform="rotate(-0 38.83 64.228872)">0.8</text>
     </g>
    </g>
    <g id="ytick_6">
     <g id="line2d_12">
      <g>
       <use xlink:href="#mc4928ce96b" x="45.83" y="14.874648" style="stroke: #000000; stroke-width: 0.8"/>
      </g>
     </g>
     <g id="text_13">
      <text style="font: 10px 'Arial'; text-anchor: end" x="38.83" y="18.453554" transform="rotate(-0 38.83 18.453554)">1.0</text>
     </g>
    </g>
    <g id="text_14">
     <text style="font: 10px 'Arial'; text-anchor: middle" x="18.9425" y="129.312941" transform="rotate(-90 18.9425 129.312941)">True Postive Rate</text>
    </g>
   </g>
   <g id="line2d_13">
    <path d="M 48.051404 243.751234 
L 48.160959 229.017587 
L 48.164279 229.017587 
L 48.273834 224.628841 
L 48.277153 224.628841 
L 48.386708 219.787288 
L 48.393348 219.682794 
L 48.496263 216.547975 
L 48.509542 216.513144 
L 48.615777 213.308663 
L 48.625737 213.273832 
L 48.735291 210.731145 
L 48.741931 210.626651 
L 48.841526 208.641266 
L 48.854805 208.641266 
L 48.954401 206.830038 
L 48.97764 206.725544 
L 49.087194 204.461508 
L 49.097154 204.357014 
L 49.206708 202.65028 
L 49.216668 202.615448 
L 49.326223 200.28175 
L 49.336182 200.212088 
L 49.445737 197.948052 
L 49.459016 197.913221 
L 49.565251 195.927835 
L 49.58185 195.893004 
L 49.691405 194.081776 
L 49.701365 193.977282 
L 49.810919 191.573921 
L 49.834158 191.53909 
L 49.933753 189.240223 
L 49.973591 189.135729 
L 50.083146 187.742476 
L 50.096425 187.637982 
L 50.20266 186.244729 
L 50.21262 186.140235 
L 50.318855 183.980694 
L 50.338774 183.8762 
L 50.438369 182.239128 
L 50.468247 182.134634 
L 50.574482 180.462731 
L 50.604361 180.358237 
L 50.713916 178.825659 
L 50.730515 178.721165 
L 50.82347 176.909936 
L 50.850029 176.805442 
L 50.959584 175.203202 
L 50.962904 175.203202 
L 51.065819 173.705455 
L 51.085738 173.600961 
L 51.195292 171.998721 
L 51.208572 171.998721 
L 51.314807 169.943673 
L 51.328086 169.839179 
L 51.434321 167.993119 
L 51.45424 167.923456 
L 51.560475 166.356047 
L 51.570434 166.251553 
L 51.679989 164.57965 
L 51.699908 164.475156 
L 51.809463 162.872915 
L 51.812783 162.872915 
L 51.922337 161.688651 
L 51.928977 161.618988 
L 52.025252 160.330229 
L 52.051811 160.225735 
L 52.161366 159.250458 
L 52.177965 159.180796 
L 52.28752 157.996531 
L 52.304119 157.9617 
L 52.413673 156.324628 
L 52.450192 156.220134 
L 52.556427 155.279688 
L 52.573026 155.175194 
L 52.679261 153.990929 
L 52.68922 153.990929 
L 52.798775 152.353858 
L 52.818694 152.284195 
L 52.921609 151.378581 
L 52.951488 151.274087 
L 53.057722 150.29881 
L 53.071002 150.194316 
L 53.180556 149.114545 
L 53.200475 149.010051 
L 53.31003 147.860618 
L 53.333269 147.825786 
L 53.442824 146.850509 
L 53.469382 146.746015 
L 53.578937 145.666245 
L 53.582257 145.666245 
L 53.691812 144.48198 
L 53.701771 144.412317 
L 53.811326 143.228052 
L 53.831245 143.123558 
L 53.93748 142.287607 
L 53.964039 142.183113 
L 54.070273 141.068511 
L 54.083553 141.033679 
L 54.179828 140.26739 
L 54.206387 140.197728 
L 54.312622 138.978632 
L 54.35246 138.874138 
L 54.455375 137.794367 
L 54.478614 137.689873 
L 54.574889 137.167403 
L 54.588168 137.167403 
L 54.591488 137.167403 
L 54.701043 136.226958 
L 54.707683 136.157295 
L 54.817237 135.321343 
L 54.827197 135.251681 
L 54.933432 134.485392 
L 54.97659 134.380898 
L 55.086144 133.301127 
L 55.109383 133.231464 
L 55.218938 132.116862 
L 55.248817 132.012368 
L 55.358371 131.280911 
L 55.368331 131.211248 
L 55.477885 130.375296 
L 55.497804 130.340465 
L 55.607359 129.504513 
L 55.623958 129.400019 
L 55.733513 128.076429 
L 55.766711 127.971935 
L 55.876266 126.996659 
L 55.896185 126.892165 
L 55.9991 126.125876 
L 56.019019 126.021382 
L 56.128574 125.324755 
L 56.151813 125.220261 
L 56.258048 124.210153 
L 56.274647 124.140491 
L 56.384202 123.513527 
L 56.387521 123.513527 
L 56.493756 122.886563 
L 56.507036 122.851732 
L 56.61659 122.01578 
L 56.62323 121.946118 
L 56.729465 120.970841 
L 56.762663 120.866347 
L 56.872218 120.030395 
L 56.892137 119.925901 
L 56.981773 119.264106 
L 57.03821 119.159612 
L 57.141125 118.393323 
L 57.157724 118.393323 
L 57.254 117.627034 
L 57.297158 117.52254 
L 57.406712 116.895577 
L 57.44323 116.791083 
L 57.549465 116.024794 
L 57.585984 115.9203 
L 57.695538 115.188842 
L 57.715457 115.084348 
L 57.821692 114.178734 
L 57.851571 114.07424 
L 57.957806 112.959638 
L 57.991004 112.889975 
L 58.093919 111.775373 
L 58.137077 111.70571 
L 58.239992 111.009084 
L 58.269871 110.90459 
L 58.376105 110.38212 
L 58.429223 110.277626 
L 58.538778 109.650663 
L 58.565336 109.546169 
L 58.654972 108.919205 
L 58.70145 108.814711 
L 58.804365 107.769771 
L 58.844203 107.665277 
L 58.950438 107.142808 
L 58.970357 107.107976 
L 59.079911 106.272025 
L 59.096511 106.272025 
L 59.202745 105.575398 
L 59.209385 105.575398 
L 59.30566 104.739447 
L 59.332219 104.634953 
L 59.435134 103.833833 
L 59.455053 103.76417 
L 59.557968 103.311363 
L 59.587847 103.206869 
L 59.684122 102.579905 
L 59.714001 102.475411 
L 59.820236 101.952941 
L 59.856754 101.848447 
L 59.962989 100.977665 
L 59.992867 100.908002 
L 60.099102 100.246207 
L 60.128981 100.141713 
L 60.238535 99.514749 
L 60.278373 99.445087 
L 60.387928 98.818123 
L 60.407847 98.713629 
L 60.510762 98.017003 
L 60.5672 97.912509 
L 60.676754 97.14622 
L 60.75975 97.041726 
L 60.856026 96.519256 
L 60.879264 96.414762 
L 60.988819 95.892292 
L 61.015378 95.82263 
L 61.114973 95.021509 
L 61.148171 94.917015 
L 61.251086 94.568702 
L 61.327443 94.464208 
L 61.433678 93.732751 
L 61.496755 93.628257 
L 61.606309 93.001293 
L 61.619589 93.001293 
L 61.709224 92.513654 
L 61.755702 92.409161 
L 61.858617 91.538378 
L 61.901775 91.468715 
L 62.00469 90.841751 
L 62.054488 90.772089 
L 62.164042 90.28445 
L 62.197241 90.179956 
L 62.296836 89.48333 
L 62.313435 89.378836 
L 62.42299 88.612547 
L 62.449549 88.508053 
L 62.555783 88.124908 
L 62.585662 88.020415 
L 62.688577 87.602439 
L 62.745014 87.532776 
L 62.854569 87.184463 
L 62.927605 87.079969 
L 63.017241 86.766487 
L 63.083638 86.696824 
L 63.193193 86.104692 
L 63.203152 86.035029 
L 63.289468 85.477728 
L 63.339266 85.373234 
L 63.442181 84.850765 
L 63.4621 84.781102 
L 63.571654 84.084476 
L 63.581614 84.049644 
L 63.691169 83.457512 
L 63.740966 83.353018 
L 63.847201 82.656392 
L 63.890359 82.586729 
L 63.979995 82.308078 
L 64.009873 82.203585 
L 64.119428 81.82044 
L 64.152626 81.715946 
L 64.262181 81.29797 
L 64.295379 81.193476 
L 64.404934 80.462019 
L 64.458052 80.357525 
L 64.567606 79.939549 
L 64.630683 79.835055 
L 64.736918 79.312585 
L 64.790036 79.208091 
L 64.882991 78.685621 
L 64.962667 78.581128 
L 65.045663 78.302477 
L 65.10542 78.197983 
L 65.214975 77.675513 
L 65.228254 77.571019 
L 65.31457 77.083381 
L 65.371007 76.978887 
L 65.457323 76.80473 
L 65.543639 76.700236 
L 65.626635 76.491249 
L 65.686392 76.386755 
L 65.769388 76.00361 
L 65.829145 75.899116 
L 65.92874 75.446309 
L 65.975218 75.341815 
L 66.074813 74.889008 
L 66.15449 74.784514 
L 66.260724 74.262044 
L 66.317162 74.15755 
L 66.410117 73.8789 
L 66.446635 73.844068 
L 66.55619 73.35643 
L 66.576109 73.251936 
L 66.679024 72.799129 
L 66.735462 72.694635 
L 66.841696 72.276659 
L 66.868255 72.172165 
L 66.96785 71.893515 
L 67.001049 71.789021 
L 67.054166 71.684527 
L 67.137162 71.580033 
L 67.246717 71.092394 
L 67.342992 71.057563 
L 67.452547 70.500262 
L 67.525583 70.395768 
L 67.611899 70.047455 
L 67.651737 69.977792 
L 67.751332 69.629479 
L 67.80445 69.524985 
L 67.914005 69.072178 
L 67.957162 69.002515 
L 68.063397 68.619371 
L 68.099916 68.514877 
L 68.202831 68.096901 
L 68.20947 68.096901 
L 68.338944 67.644094 
L 68.451819 67.5396 
L 68.558053 67.086793 
L 68.584612 66.982299 
L 68.670928 66.73848 
L 68.720726 66.633986 
L 68.82696 66.250841 
L 68.856839 66.146347 
L 68.966394 65.902528 
L 69.016191 65.798034 
L 69.125746 65.519384 
L 69.261859 65.41489 
L 69.361455 65.031745 
L 69.497568 64.927251 
L 69.603803 64.36995 
L 69.66024 64.265456 
L 69.763155 63.708155 
L 69.859431 63.603661 
L 69.909228 63.533998 
L 70.035382 63.429505 
L 70.138297 63.150854 
L 70.178135 63.04636 
L 70.28437 62.663216 
L 70.317568 62.558722 
L 70.413844 62.001421 
L 70.460322 61.931758 
L 70.553277 61.409288 
L 70.626314 61.339625 
L 70.69271 61.026144 
L 70.782346 60.92165 
L 70.881941 60.747493 
L 70.928419 60.642999 
L 71.037974 60.364349 
L 71.047933 60.329517 
L 71.150848 59.911541 
L 71.180727 59.807048 
L 71.263723 59.423903 
L 71.340079 59.319409 
L 71.446314 59.005927 
L 71.506071 58.901433 
L 71.615626 58.344132 
L 71.642184 58.239638 
L 71.751739 57.995819 
L 71.831415 57.891325 
L 71.93765 57.543012 
L 71.977488 57.438518 
L 72.067124 57.055373 
L 72.166719 56.95088 
L 72.272954 56.567735 
L 72.299513 56.532904 
L 72.372549 56.289084 
L 72.475464 56.184591 
L 72.55846 55.766615 
L 72.638136 55.662121 
L 72.727772 55.244145 
L 72.77757 55.139651 
L 72.887124 55.000326 
L 72.956841 54.895832 
L 73.063076 54.408193 
L 73.109554 54.303699 
L 73.202509 54.025049 
L 73.282185 53.955386 
L 73.38842 53.53741 
L 73.461457 53.432916 
L 73.571011 53.154266 
L 73.610849 53.049772 
L 73.660647 52.840784 
L 73.763562 52.73629 
L 73.863157 52.248652 
L 73.952793 52.178989 
L 74.059028 51.865507 
L 74.138704 51.761013 
L 74.244939 51.273375 
L 74.364453 51.168881 
L 74.470688 50.681242 
L 74.530445 50.576748 
L 74.590202 50.263267 
L 74.782753 50.158773 
L 74.885668 49.740797 
L 75.001862 49.636303 
L 75.081538 49.427315 
L 75.194413 49.322821 
L 75.294008 49.04417 
L 75.436761 48.939677 
L 75.539676 48.626195 
L 75.616032 48.521701 
L 75.725587 48.24305 
L 75.795304 48.138556 
L 75.87498 47.790243 
L 75.994494 47.685749 
L 76.064211 47.511593 
L 76.183725 47.407099 
L 76.28664 47.232942 
L 76.333118 47.128448 
L 76.436033 46.710472 
L 76.585426 46.605978 
L 76.681701 46.327328 
L 76.744778 46.222834 
L 76.831094 45.979015 
L 76.884211 45.909352 
L 76.957248 45.770027 
L 77.050203 45.665533 
L 77.153118 45.561039 
L 77.222835 45.456545 
L 77.309151 45.247557 
L 77.378867 45.143063 
L 77.451904 45.003738 
L 77.601296 44.934075 
L 77.697572 44.620593 
L 77.763969 44.550931 
L 77.856924 44.167786 
L 78.026236 44.063292 
L 78.082673 43.784642 
L 78.178949 43.680148 
L 78.285183 43.505991 
L 78.461135 43.401497 
L 78.56073 43.122847 
L 78.673605 43.018353 
L 78.76656 42.913859 
L 78.859516 42.809365 
L 78.866155 42.739702 
L 79.071985 42.635208 
L 79.164941 42.495883 
L 79.271176 42.391389 
L 79.340892 42.217232 
L 79.450447 42.14757 
L 79.536763 41.729594 
L 79.709395 41.6251 
L 79.782431 41.416112 
L 79.905265 41.311618 
L 80.0115 41.10263 
L 80.167533 40.998136 
L 80.267128 40.858811 
L 80.41984 40.754317 
L 80.526075 40.614992 
L 80.559274 40.510498 
L 80.575873 40.30151 
L 80.768423 40.197016 
L 80.877978 39.848703 
L 80.977573 39.744209 
L 81.087128 39.50039 
L 81.160165 39.395896 
L 81.269719 39.186908 
L 81.309557 39.082414 
L 81.389233 38.943088 
L 81.495468 38.838595 
L 81.581784 38.699269 
L 81.721217 38.594775 
L 81.827452 38.316125 
L 81.87061 38.211631 
L 81.960246 38.072306 
L 82.159436 37.967812 
L 82.255712 37.793655 
L 82.305509 37.689161 
L 82.381866 37.549836 
L 82.591015 37.445342 
L 82.683971 37.201523 
L 82.853283 37.097029 
L 82.956198 36.957703 
L 83.079032 36.853209 
L 83.181947 36.713884 
L 83.311421 36.60939 
L 83.394417 36.400402 
L 83.630125 36.295908 
L 83.723081 36.156583 
L 83.769558 36.052089 
L 83.825996 35.843101 
L 84.088263 35.738607 
L 84.177899 35.529619 
L 84.277494 35.425125 
L 84.387049 35.146475 
L 84.685834 35.041981 
L 84.78211 34.76333 
L 84.994579 34.658836 
L 85.057656 34.48468 
L 85.203729 34.380186 
L 85.286725 34.171198 
L 85.548992 34.066704 
L 85.59879 33.857716 
L 85.768102 33.753222 
L 85.778061 33.68356 
L 85.927454 33.579066 
L 86.037009 33.43974 
L 86.196361 33.335246 
L 86.285997 33.091427 
L 86.43207 32.986933 
L 86.475228 32.917271 
L 86.667778 32.812777 
L 86.737495 32.708283 
L 86.863649 32.63862 
L 86.883568 32.534126 
L 87.119277 32.429632 
L 87.202273 32.255476 
L 87.444621 32.150982 
L 87.497738 32.081319 
L 87.683649 31.976825 
L 87.786564 31.802668 
L 87.939277 31.698174 
L 87.989075 31.593681 
L 88.145107 31.489187 
L 88.218144 31.175705 
L 88.360897 31.071211 
L 88.440573 30.931885 
L 88.606565 30.827392 
L 88.663002 30.757729 
L 88.845593 30.653235 
L 88.945188 30.479078 
L 89.081302 30.374584 
L 89.184217 30.235259 
L 89.32365 30.130765 
L 89.419925 29.99144 
L 89.632395 29.886946 
L 89.725351 29.782452 
L 89.844865 29.677958 
L 89.94114 29.364476 
L 90.220007 29.259982 
L 90.322922 28.876838 
L 90.482274 28.772344 
L 90.538711 28.66785 
L 91.049967 28.563356 
L 91.146242 28.424031 
L 91.275716 28.319537 
L 91.348752 28.215043 
L 91.644218 28.110549 
L 91.644218 28.075717 
L 91.913125 28.006055 
L 91.989481 27.901561 
L 92.172072 27.797067 
L 92.23183 27.657742 
L 92.367943 27.553248 
L 92.474178 27.413922 
L 92.553854 27.309428 
L 92.553854 27.274597 
L 92.826081 27.170103 
L 92.892478 27.100441 
L 93.576365 26.995947 
L 93.612883 26.856621 
L 93.845272 26.752127 
L 93.951506 26.54314 
L 94.051102 26.438646 
L 94.104219 26.264489 
L 94.154017 26.264489 
L 94.426244 26.159995 
L 94.519199 26.02067 
L 94.725029 25.916176 
L 94.728349 25.846513 
L 95.027135 25.742019 
L 95.11677 25.602694 
L 95.259523 25.4982 
L 95.33588 25.393706 
L 95.657904 25.289212 
L 95.75086 25.149887 
L 95.996528 25.045393 
L 96.013127 24.97573 
L 96.554261 24.871236 
L 96.610698 24.801574 
L 96.78001 24.69708 
L 96.879605 24.488092 
L 97.138553 24.383598 
L 97.221548 24.279104 
L 97.646488 24.17461 
L 97.719524 24.070116 
L 98.034909 23.965622 
L 98.107946 23.791465 
L 98.363573 23.686971 
L 98.413371 23.582478 
L 98.665679 23.477984 
L 98.775233 23.408321 
L 98.934586 23.338658 
L 98.971104 23.234164 
L 99.240011 23.12967 
L 99.309728 23.025176 
L 99.532157 22.920683 
L 99.581954 22.85102 
L 99.933857 22.746526 
L 100.000254 22.676863 
L 100.790376 22.572369 
L 100.886651 22.433044 
L 101.265113 22.32855 
L 101.358069 22.189225 
L 101.73653 22.084731 
L 101.73653 22.0499 
L 101.975559 21.945406 
L 102.028676 21.80608 
L 102.254425 21.701586 
L 102.324142 21.562261 
L 102.732482 21.457767 
L 102.835397 21.353273 
L 103.074426 21.248779 
L 103.157422 21.179117 
L 103.559122 21.074623 
L 103.559122 21.039791 
L 104.355884 20.935297 
L 104.355884 20.900466 
L 104.711107 20.795972 
L 104.740985 20.72631 
L 105.345196 20.621816 
L 105.345196 20.586984 
L 105.733617 20.48249 
L 105.826573 20.343165 
L 106.029083 20.238671 
L 106.029083 20.20384 
L 106.71629 20.099346 
L 106.786006 20.029683 
L 107.254104 19.925189 
L 107.290622 19.855527 
L 107.881553 19.751033 
L 107.888193 19.646539 
L 108.107303 19.542045 
L 108.1571 19.402719 
L 108.535562 19.298226 
L 108.628517 19.228563 
L 109.149732 19.124069 
L 109.149732 19.089238 
L 109.60787 18.984744 
L 109.60787 18.949912 
L 109.896696 18.845418 
L 109.983012 18.740924 
L 110.567304 18.63643 
L 110.660259 18.566768 
L 111.314268 18.462274 
L 111.423822 18.392611 
L 112.313539 18.288117 
L 112.313539 18.253286 
L 112.701961 18.148792 
L 112.751758 18.079129 
L 113.668034 17.974635 
L 113.668034 17.939804 
L 114.126172 17.83531 
L 114.126172 17.800479 
L 114.547791 17.695985 
L 114.551111 17.626322 
L 114.962771 17.521828 
L 115.039128 17.452166 
L 115.490626 17.347672 
L 115.490626 17.278009 
L 115.902286 17.173515 
L 115.902286 17.138684 
L 116.297347 17.03419 
L 116.350464 16.964527 
L 117.130627 16.860033 
L 117.200343 16.755539 
L 118.10334 16.651045 
L 118.199615 16.581383 
L 119.12585 16.476889 
L 119.12585 16.442057 
L 120.174919 16.337564 
L 120.174919 16.302732 
L 121.911196 16.23307 
L 121.911196 16.163407 
L 122.385933 16.058913 
L 122.385933 16.024082 
L 125.045124 15.919588 
L 125.118161 15.849925 
L 126.134032 15.745431 
L 126.134032 15.7106 
L 129.105288 15.606106 
L 129.105288 15.571275 
L 130.253952 15.466781 
L 130.253952 15.431949 
L 132.232577 15.327455 
L 132.232577 15.292624 
L 134.742376 15.18813 
L 134.742376 15.153299 
L 135.705129 15.048805 
L 135.705129 15.013973 
L 138.815819 14.90948 
L 138.815819 14.874648 
L 270.191831 14.874648 
L 270.191831 14.874648 
" clip-path="url(#pf8ac9e7fe1)" style="fill: none; stroke: #44757a; stroke-width: 2; stroke-linecap: square"/>
   </g>
   <g id="line2d_14">
    <path d="M 48.051404 243.751234 
L 48.157639 241.069223 
L 48.536101 235.426549 
L 50.053268 218.498529 
L 50.474887 215.224385 
L 50.82015 211.288446 
L 51.407762 207.631158 
L 51.87254 204.600834 
L 53.007925 197.1121 
L 53.502581 192.86268 
L 54.13667 189.518873 
L 55.155861 182.413284 
L 55.916104 177.362743 
L 56.948574 171.963889 
L 58.69149 160.225735 
L 61.948253 143.262884 
L 63.472059 136.29662 
L 65.829145 124.488804 
L 70.881941 103.415857 
L 71.93765 99.967556 
L 76.509069 82.691223 
L 81.024051 68.828359 
L 87.544216 54.268868 
L 95.452074 42.252064 
L 109.219449 31.419524 
L 112.841394 29.329645 
L 122.790953 25.219549 
L 134.526586 21.562261 
L 139.974443 20.273502 
L 149.017686 18.601599 
L 156.460766 17.730816 
L 162.987571 16.790371 
L 171.516239 15.919588 
L 184.241184 15.18813 
L 185.917703 15.118467 
L 192.168961 15.013973 
L 198.005239 14.90948 
L 270.191831 14.874648 
L 270.191831 14.874648 
" clip-path="url(#pf8ac9e7fe1)" style="fill: none; stroke: #cb997e; stroke-width: 2; stroke-linecap: square"/>
   </g>
   <g id="line2d_15">
    <path d="M 48.051404 243.751234 
L 48.160959 224.489516 
L 48.164279 224.489516 
L 48.270514 217.941228 
L 48.280473 217.836734 
L 48.390028 214.144614 
L 48.396668 214.04012 
L 48.506222 209.546881 
L 48.509542 209.546881 
L 48.619097 206.725544 
L 48.625737 206.690713 
L 48.728652 203.730051 
L 48.741931 203.730051 
L 48.844846 201.117702 
L 48.861445 201.117702 
L 48.971 198.087377 
L 48.980959 198.087377 
L 49.090514 194.778402 
L 49.097154 194.743571 
L 49.206708 193.245824 
L 49.226627 193.14133 
L 49.329543 191.051451 
L 49.352781 190.946957 
L 49.462336 187.742476 
L 49.492215 187.637982 
L 49.601769 185.757091 
L 49.605089 185.757091 
L 49.711324 183.562718 
L 49.724603 183.458224 
L 49.830838 182.099803 
L 49.844118 182.03014 
L 49.953672 179.522285 
L 49.970272 179.417791 
L 50.066547 177.745888 
L 50.106385 177.641394 
L 50.21594 175.795334 
L 50.222579 175.69084 
L 50.332134 174.506575 
L 50.352053 174.402081 
L 50.458288 172.381865 
L 50.468247 172.277371 
L 50.577802 170.291986 
L 50.584442 170.291986 
L 50.693997 168.794239 
L 50.697316 168.794239 
L 50.800231 167.331324 
L 50.83011 167.22683 
L 50.933025 166.042565 
L 50.952944 165.938071 
L 51.062499 164.335831 
L 51.065819 164.335831 
L 51.162094 163.221229 
L 51.182013 163.151566 
L 51.291568 162.071795 
L 51.311487 162.036964 
L 51.421041 160.678542 
L 51.427681 160.678542 
L 51.537236 158.797651 
L 51.540556 158.797651 
L 51.640151 157.090917 
L 51.676669 156.986423 
L 51.786224 156.185302 
L 51.809463 156.080809 
L 51.912378 154.931375 
L 51.922337 154.931375 
L 52.031892 153.572954 
L 52.045171 153.46846 
L 52.154726 151.796556 
L 52.174645 151.692063 
L 52.27756 150.82128 
L 52.294159 150.751617 
L 52.403714 149.567352 
L 52.426953 149.462858 
L 52.536508 148.696569 
L 52.546467 148.626907 
L 52.656022 147.198823 
L 52.675941 147.094329 
L 52.785496 145.596582 
L 52.788815 145.596582 
L 52.89505 144.029173 
L 52.931568 143.924679 
L 53.041123 142.322438 
L 53.067682 142.217944 
L 53.177237 141.173005 
L 53.203795 141.138173 
L 53.31335 139.292114 
L 53.32331 139.257282 
L 53.416265 137.86403 
L 53.456103 137.759536 
L 53.565658 136.610102 
L 53.582257 136.505608 
L 53.681852 135.530331 
L 53.73165 135.425837 
L 53.841205 134.346067 
L 53.881043 134.241573 
L 53.973998 133.335958 
L 54.007196 133.231464 
L 54.116751 132.430344 
L 54.14995 132.32585 
L 54.259504 131.00226 
L 54.272784 130.967429 
L 54.372379 129.852827 
L 54.392298 129.748333 
L 54.501853 128.807887 
L 54.515132 128.703393 
L 54.624687 127.762948 
L 54.637966 127.658454 
L 54.740881 126.787671 
L 54.750841 126.787671 
L 54.850436 126.091044 
L 54.876994 125.98655 
L 54.96663 125.046105 
L 55.013108 124.941611 
L 55.122663 124.453972 
L 55.145901 124.419141 
L 55.252136 123.513527 
L 55.265416 123.443864 
L 55.37497 122.433756 
L 55.431408 122.364093 
L 55.534323 120.970841 
L 55.544282 120.970841 
L 55.653837 119.960732 
L 55.667116 119.856239 
L 55.776671 119.194444 
L 55.79659 119.08995 
L 55.906145 117.696697 
L 55.926064 117.592203 
L 56.035618 116.756251 
L 56.068817 116.651757 
L 56.178372 115.885468 
L 56.188331 115.780974 
L 56.297886 114.910191 
L 56.314485 114.805698 
L 56.4174 114.004577 
L 56.437319 113.900083 
L 56.540234 113.098963 
L 56.566793 113.0293 
L 56.673028 112.332674 
L 56.742744 112.263011 
L 56.852299 111.566385 
L 56.862259 111.461891 
L 57.254 108.361904 
L 57.307117 108.25741 
L 57.406712 107.525952 
L 57.436591 107.421458 
L 57.546146 106.515844 
L 57.566065 106.446181 
L 57.672299 105.958543 
L 57.712137 105.923712 
L 57.818372 104.913603 
L 57.87149 104.809109 
L 57.974405 104.182146 
L 58.000964 104.077652 
L 58.107198 103.381025 
L 58.130437 103.276532 
L 58.236672 102.649568 
L 58.269871 102.545074 
L 58.379425 101.91811 
L 58.402664 101.813616 
L 58.49562 100.803508 
L 58.565336 100.699014 
L 58.645012 100.141713 
L 58.68485 100.07205 
L 58.787766 99.410255 
L 58.811004 99.305761 
L 58.90064 98.74846 
L 58.933838 98.643966 
L 59.016834 97.877677 
L 59.053353 97.808015 
L 59.159588 96.972063 
L 59.176187 96.867569 
L 59.358778 96.066449 
L 59.372057 95.996786 
L 59.474972 95.195666 
L 59.508171 95.126003 
L 59.617725 94.464208 
L 59.667523 94.359714 
L 59.777078 93.663088 
L 59.813596 93.558594 
L 59.909871 92.687811 
L 59.92979 92.687811 
L 60.032705 91.991185 
L 60.072543 91.886691 
L 60.182098 91.399052 
L 60.215297 91.294558 
L 60.318212 90.563101 
L 60.34809 90.458607 
L 60.457645 89.936137 
L 60.484204 89.866474 
L 60.583799 89.100185 
L 60.650196 88.995691 
L 60.75975 88.612547 
L 60.792949 88.508053 
L 60.902503 88.229402 
L 60.952301 88.124908 
L 61.038617 87.602439 
L 61.101694 87.497945 
L 61.207929 86.696824 
L 61.274325 86.592331 
L 61.38388 85.895704 
L 61.407119 85.79121 
L 61.516674 85.094584 
L 61.536593 84.99009 
L 61.642828 84.293464 
L 61.679346 84.18897 
L 61.778941 83.701331 
L 61.832058 83.596837 
L 61.911735 83.248524 
L 61.981451 83.14403 
L 62.084366 82.691223 
L 62.127524 82.586729 
L 62.230439 81.750777 
L 62.253678 81.646283 
L 62.359913 81.01932 
L 62.383152 80.949657 
L 62.479427 80.183368 
L 62.509306 80.183368 
L 62.61886 79.521573 
L 62.62882 79.45191 
L 62.735055 79.033935 
L 62.778213 78.929441 
L 62.881128 78.441802 
L 62.911006 78.337308 
L 63.013921 77.814839 
L 63.086958 77.710345 
L 63.179913 77.118212 
L 63.262909 77.013718 
L 63.345905 76.595742 
L 63.382424 76.491249 
L 63.482019 75.968779 
L 63.525177 75.864285 
L 63.634731 75.446309 
L 63.684529 75.341815 
L 63.784124 74.993502 
L 63.847201 74.889008 
L 63.956756 74.540695 
L 63.970035 74.436201 
L 64.07959 73.809237 
L 64.142667 73.704743 
L 64.245582 72.973285 
L 64.295379 72.868792 
L 64.375056 72.485647 
L 64.431493 72.381153 
L 64.531088 71.998009 
L 64.547687 71.963177 
L 64.643963 71.336214 
L 64.710359 71.23172 
L 64.813274 70.848575 
L 64.863072 70.744081 
L 64.949388 70.465431 
L 65.048983 70.360937 
L 65.141938 69.90813 
L 65.271412 69.803636 
L 65.371007 69.594648 
L 65.417485 69.490154 
L 65.52704 68.967684 
L 65.550279 68.932853 
L 65.649874 68.375552 
L 65.706311 68.271058 
L 65.812546 67.853082 
L 65.835785 67.748588 
L 65.93206 67.365443 
L 66.011736 67.295781 
L 66.117971 66.668817 
L 66.14453 66.564323 
L 66.240805 66.146347 
L 66.277324 66.076685 
L 66.363639 65.728371 
L 66.453275 65.623878 
L 66.55287 65.310396 
L 66.622587 65.205902 
L 66.732142 64.683432 
L 66.76202 64.648601 
L 66.841696 64.230625 
L 66.908093 64.126131 
L 67.017648 63.673324 
L 67.077405 63.56883 
L 67.18364 63.081191 
L 67.236757 62.976697 
L 67.329713 62.663216 
L 67.37951 62.558722 
L 67.489065 62.24524 
L 67.502344 62.140746 
L 67.5953 62.001421 
L 67.684936 61.896927 
L 67.784531 61.409288 
L 67.827689 61.339625 
L 67.827689 61.304794 
L 67.937243 60.747493 
L 68.00032 60.642999 
L 68.096596 60.329517 
L 68.139754 60.225023 
L 68.22275 59.946373 
L 68.295786 59.841879 
L 68.405341 59.423903 
L 68.435219 59.319409 
L 68.534815 59.110421 
L 68.574653 59.005927 
L 68.677568 58.483457 
L 68.734005 58.378964 
L 68.83692 58.169976 
L 68.873438 58.065482 
L 68.969714 57.543012 
L 69.082588 57.438518 
L 69.188823 57.090205 
L 69.228661 56.985711 
L 69.328256 56.567735 
L 69.371414 56.463241 
L 69.480969 56.114928 
L 69.487609 56.114928 
L 69.597163 55.731783 
L 69.646961 55.627289 
L 69.749876 55.10482 
L 69.779754 55.069988 
L 69.882669 54.686844 
L 69.922508 54.58235 
L 70.025423 54.234037 
L 70.174815 54.129543 
L 70.264451 53.746398 
L 70.327528 53.641904 
L 70.433763 53.223929 
L 70.49352 53.119435 
L 70.599755 52.805953 
L 70.676111 52.701459 
L 70.735868 52.492471 
L 70.871982 52.387977 
L 70.948338 52.039664 
L 71.071172 51.93517 
L 71.180727 51.656519 
L 71.283642 51.552025 
L 71.346719 51.273375 
L 71.396516 51.273375 
L 71.479512 50.820568 
L 71.635545 50.716074 
L 71.745099 50.576748 
L 71.838055 50.472254 
L 71.94429 50.123941 
L 71.994087 50.019447 
L 72.097002 49.636303 
L 72.199917 49.531809 
L 72.299513 49.183496 
L 72.36259 49.079002 
L 72.468824 48.835183 
L 72.531901 48.730689 
L 72.621537 48.382375 
L 72.691254 48.277881 
L 72.787529 48.068894 
L 72.850606 47.9644 
L 72.923643 47.755412 
L 72.990039 47.650918 
L 73.056436 47.511593 
L 73.156031 47.407099 
L 73.255626 47.267773 
L 73.39838 47.163279 
L 73.478056 46.849797 
L 73.571011 46.745304 
L 73.663967 46.64081 
L 73.707125 46.536316 
L 73.81004 46.222834 
L 73.889716 46.222834 
L 73.999271 45.839689 
L 74.065667 45.735195 
L 74.175222 45.630701 
L 74.308016 45.526207 
L 74.41425 45.177894 
L 74.530445 45.0734 
L 74.620081 44.934075 
L 74.656599 44.864412 
L 74.766153 44.620593 
L 74.855789 44.516099 
L 74.958704 44.063292 
L 75.058299 43.958798 
L 75.141295 43.645316 
L 75.280729 43.540822 
L 75.330526 43.262172 
L 75.503158 43.157678 
L 75.592794 42.774533 
L 75.712308 42.670039 
L 75.752146 42.495883 
L 75.86502 42.391389 
L 75.964616 42.077907 
L 76.040972 41.973413 
L 76.130608 41.764425 
L 76.220243 41.659931 
L 76.303239 41.555437 
L 76.406154 41.450943 
L 76.50243 41.172293 
L 76.625264 41.067799 
L 76.718219 40.789148 
L 76.791256 40.684654 
L 76.894171 40.440835 
L 77.036924 40.336341 
L 77.12324 40.162185 
L 77.199596 40.092522 
L 77.305831 39.744209 
L 77.445264 39.639715 
L 77.511661 39.50039 
L 77.700892 39.395896 
L 77.783888 39.012751 
L 77.893442 38.908257 
L 78.002997 38.629607 
L 78.192228 38.525113 
L 78.285183 38.176799 
L 78.388098 38.072306 
L 78.474414 37.898149 
L 78.650366 37.793655 
L 78.759921 37.515004 
L 78.859516 37.410511 
L 78.952471 37.271185 
L 79.118463 37.166691 
L 79.204779 37.062197 
L 79.307694 36.957703 
L 79.413929 36.679053 
L 79.649638 36.574559 
L 79.719354 36.504896 
L 79.862107 36.400402 
L 79.955063 36.191414 
L 80.084537 36.08692 
L 80.187452 35.80827 
L 80.346804 35.703776 
L 80.366723 35.529619 
L 80.549314 35.425125 
L 80.63895 35.2858 
L 80.731905 35.216138 
L 80.83482 34.972318 
L 80.911177 34.902656 
L 81.020731 34.658836 
L 81.070529 34.554342 
L 81.156845 34.415017 
L 81.289638 34.310523 
L 81.395873 34.240861 
L 81.714578 34.136367 
L 81.804213 33.96221 
L 81.863971 33.857716 
L 81.970205 33.788054 
L 82.023323 33.718391 
L 82.119598 33.579066 
L 82.239112 33.474572 
L 82.318789 33.126258 
L 82.454902 33.021765 
L 82.561137 32.847608 
L 82.674011 32.777945 
L 82.776926 32.63862 
L 82.929639 32.534126 
L 83.029234 32.464463 
L 83.274902 32.359969 
L 83.351259 32.255476 
L 83.603566 32.150982 
L 83.709801 32.011656 
L 83.899032 31.907162 
L 83.962109 31.802668 
L 84.068344 31.698174 
L 84.14138 31.593681 
L 84.300733 31.489187 
L 84.410288 31.245367 
L 84.509883 31.140873 
L 84.599518 31.001548 
L 84.811988 30.897054 
L 84.901624 30.757729 
L 85.134013 30.653235 
L 85.233608 30.304922 
L 85.369721 30.200428 
L 85.459357 29.99144 
L 85.701705 29.921777 
L 85.778061 29.712789 
L 85.924134 29.608295 
L 85.970612 29.538633 
L 86.315875 29.434139 
L 86.402191 29.294814 
L 86.481867 29.19032 
L 86.588102 29.085826 
L 86.647859 28.981332 
L 86.727536 28.807175 
L 86.936685 28.702681 
L 87.016362 28.633019 
L 87.142515 28.528525 
L 87.142515 28.493693 
L 87.45458 28.389199 
L 87.550856 28.215043 
L 87.706888 28.110549 
L 87.773285 27.971224 
L 87.88284 27.86673 
L 87.88284 27.831898 
L 88.248022 27.727404 
L 88.327698 27.518416 
L 88.453852 27.413922 
L 88.483731 27.309428 
L 88.676281 27.239766 
L 88.769237 27.065609 
L 88.988346 26.961115 
L 89.087941 26.82179 
L 89.247294 26.717296 
L 89.310371 26.54314 
L 89.715391 26.438646 
L 89.728671 26.368983 
L 89.967699 26.264489 
L 90.050695 26.159995 
L 90.306323 26.055501 
L 90.405918 25.951007 
L 90.870695 25.881344 
L 90.870695 25.811682 
L 91.292315 25.707188 
L 91.375311 25.602694 
L 91.627619 25.4982 
L 91.700655 25.428537 
L 91.876607 25.324043 
L 91.976202 25.184718 
L 92.258388 25.080224 
L 92.328105 24.97573 
L 92.865919 24.871236 
L 92.962194 24.662248 
L 93.231101 24.557754 
L 93.297498 24.45326 
L 93.626162 24.348767 
L 93.732397 24.139779 
L 94.183895 24.035285 
L 94.227053 23.965622 
L 94.539118 23.861128 
L 94.562357 23.791465 
L 94.851183 23.686971 
L 94.861143 23.617309 
L 95.359118 23.512815 
L 95.445434 23.303827 
L 95.604787 23.199333 
L 95.701062 23.094839 
L 96.218957 22.990345 
L 96.315232 22.85102 
L 96.5609 22.746526 
L 96.610698 22.676863 
L 96.77669 22.572369 
L 96.863006 22.363381 
L 97.035637 22.258887 
L 97.035637 22.224056 
L 97.284625 22.119562 
L 97.287945 22.0499 
L 97.629889 21.945406 
L 97.732804 21.875743 
L 98.187622 21.771249 
L 98.254019 21.701586 
L 98.62916 21.597092 
L 98.712156 21.52743 
L 99.150375 21.422936 
L 99.206813 21.353273 
L 100.189485 21.248779 
L 100.189485 21.213948 
L 100.674182 21.109454 
L 100.733939 21.00496 
L 101.059283 20.900466 
L 101.165518 20.830803 
L 101.444384 20.72631 
L 101.444384 20.691478 
L 102.241146 20.586984 
L 102.241146 20.552153 
L 102.609648 20.447659 
L 102.709243 20.343165 
L 103.409729 20.238671 
L 103.486086 20.169008 
L 103.987382 20.064514 
L 104.000661 19.994852 
L 104.681228 19.890358 
L 104.747625 19.820695 
L 105.398313 19.716201 
L 105.46803 19.646539 
L 106.50382 19.542045 
L 106.50382 19.507213 
L 106.928759 19.402719 
L 106.935399 19.333057 
L 107.413456 19.228563 
L 107.413456 19.193732 
L 107.845035 19.089238 
L 107.848355 19.019575 
L 108.967141 18.915081 
L 108.967141 18.88025 
L 109.295805 18.775756 
L 109.385441 18.706093 
L 109.793781 18.601599 
L 109.880097 18.531937 
L 110.142364 18.427443 
L 110.165603 18.35778 
L 110.497587 18.253286 
L 110.527466 18.183623 
L 111.184794 18.079129 
L 111.291029 17.939804 
L 112.330138 17.83531 
L 112.369977 17.765648 
L 112.818155 17.661154 
L 112.897831 17.591491 
L 113.415726 17.486997 
L 113.458884 17.417334 
L 114.544471 17.31284 
L 114.57767 17.243178 
L 114.919613 17.138684 
L 114.919613 17.103853 
L 115.520504 16.999359 
L 115.540423 16.929696 
L 116.632651 16.825202 
L 116.632651 16.790371 
L 118.262692 16.685877 
L 118.355647 16.581383 
L 119.298482 16.476889 
L 119.34496 16.407226 
L 121.386661 16.302732 
L 121.419859 16.198238 
L 122.923747 16.093744 
L 123.016702 16.024082 
L 124.752978 15.919588 
L 124.752978 15.884756 
L 126.193789 15.780262 
L 126.193789 15.745431 
L 127.687716 15.640937 
L 127.687716 15.606106 
L 129.07209 15.501612 
L 129.07209 15.466781 
L 132.196059 15.362287 
L 132.269095 15.292624 
L 134.417031 15.18813 
L 134.417031 15.153299 
L 136.92683 15.048805 
L 136.92683 15.013973 
L 140.356224 14.90948 
L 140.356224 14.874648 
L 270.191831 14.874648 
L 270.191831 14.874648 
" clip-path="url(#pf8ac9e7fe1)" style="fill: none; stroke: #d44c3c; stroke-width: 2; stroke-linecap: square"/>
   </g>
   <g id="patch_3">
    <path d="M 45.83 246.04 
L 45.83 12.585882 
" style="fill: none; stroke: #000000; stroke-width: 0.8; stroke-linejoin: miter; stroke-linecap: square"/>
   </g>
   <g id="patch_4">
    <path d="M 45.83 246.04 
L 272.413235 246.04 
" style="fill: none; stroke: #000000; stroke-width: 0.8; stroke-linejoin: miter; stroke-linecap: square"/>
   </g>
   <g id="legend_1">
    <g id="line2d_16">
     <path d="M 93.971048 203.13375 
L 103.971048 203.13375 
L 113.971048 203.13375 
" style="fill: none; stroke: #44757a; stroke-width: 2; stroke-linecap: square"/>
    </g>
    <g id="text_15">
     <text style="font: 10px 'Arial'; text-anchor: start" x="121.971048" y="206.63375" transform="rotate(-0 121.971048 206.63375)">w/o Transformer AUROC=0.941</text>
    </g>
    <g id="line2d_17">
     <path d="M 93.971048 217.279063 
L 103.971048 217.279063 
L 113.971048 217.279063 
" style="fill: none; stroke: #cb997e; stroke-width: 2; stroke-linecap: square"/>
    </g>
    <g id="text_16">
     <text style="font: 10px 'Arial'; text-anchor: start" x="121.971048" y="220.779063" transform="rotate(-0 121.971048 220.779063)">w/o BiGRU AUROC=0.895</text>
    </g>
    <g id="line2d_18">
     <path d="M 93.971048 231.5525 
L 103.971048 231.5525 
L 113.971048 231.5525 
" style="fill: none; stroke: #d44c3c; stroke-width: 2; stroke-linecap: square"/>
    </g>
    <g id="text_17">
     <text style="font: 10px 'Arial'; text-anchor: start" x="121.971048" y="235.0525" transform="rotate(-0 121.971048 235.0525)">deepSRAMP AUROC=0.947</text>
    </g>
   </g>
  </g>
 </g>
 <defs>
  <clipPath id="pf8ac9e7fe1">
   <rect x="45.83" y="12.585882" width="226.583235" height="233.454118"/>
  </clipPath>
 </defs>
</svg>
