<?xml version="1.0" encoding="utf-8" standalone="no"?>
<!DOCTYPE svg PUBLIC "-//W3C//DTD SVG 1.1//EN"
  "http://www.w3.org/Graphics/SVG/1.1/DTD/svg11.dtd">
<svg xmlns:xlink="http://www.w3.org/1999/xlink" width="288pt" height="288pt" viewBox="0 0 288 288" xmlns="http://www.w3.org/2000/svg" version="1.1">
 <metadata>
  <rdf:RDF xmlns:dc="http://purl.org/dc/elements/1.1/" xmlns:cc="http://creativecommons.org/ns#" xmlns:rdf="http://www.w3.org/1999/02/22-rdf-syntax-ns#">
   <cc:Work>
    <dc:type rdf:resource="http://purl.org/dc/dcmitype/StillImage"/>
    <dc:date>2024-09-16T23:25:59.187868</dc:date>
    <dc:format>image/svg+xml</dc:format>
    <dc:creator>
     <cc:Agent>
      <dc:title>Matplotlib v3.9.2, https://matplotlib.org/</dc:title>
     </cc:Agent>
    </dc:creator>
   </cc:Work>
  </rdf:RDF>
 </metadata>
 <defs>
  <style type="text/css">*{stroke-linejoin: round; stroke-linecap: butt}</style>
 </defs>
 <g id="figure_1">
  <g id="patch_1">
   <path d="M 0 288 
L 288 288 
L 288 0 
L 0 0 
L 0 288 
z
" style="fill: none"/>
  </g>
  <g id="axes_1">
   <g id="patch_2">
    <path d="M 45.83 246.04 
L 272.413235 246.04 
L 272.413235 12.585882 
L 45.83 12.585882 
L 45.83 246.04 
z
" style="fill: none"/>
   </g>
   <g id="matplotlib.axis_1">
    <g id="xtick_1">
     <g id="line2d_1">
      <defs>
       <path id="md8f2d2014f" d="M 0 0 
L 0 3.5 
" style="stroke: #000000; stroke-width: 0.8"/>
      </defs>
      <g>
       <use xlink:href="#md8f2d2014f" x="48.051404" y="246.04" style="stroke: #000000; stroke-width: 0.8"/>
      </g>
     </g>
     <g id="text_1">
      <text style="font: 10px 'Arial'; text-anchor: middle" x="48.051404" y="260.197812" transform="rotate(-0 48.051404 260.197812)">0.0</text>
     </g>
    </g>
    <g id="xtick_2">
     <g id="line2d_2">
      <g>
       <use xlink:href="#md8f2d2014f" x="92.47949" y="246.04" style="stroke: #000000; stroke-width: 0.8"/>
      </g>
     </g>
     <g id="text_2">
      <text style="font: 10px 'Arial'; text-anchor: middle" x="92.47949" y="260.197812" transform="rotate(-0 92.47949 260.197812)">0.2</text>
     </g>
    </g>
    <g id="xtick_3">
     <g id="line2d_3">
      <g>
       <use xlink:href="#md8f2d2014f" x="136.907575" y="246.04" style="stroke: #000000; stroke-width: 0.8"/>
      </g>
     </g>
     <g id="text_3">
      <text style="font: 10px 'Arial'; text-anchor: middle" x="136.907575" y="260.197812" transform="rotate(-0 136.907575 260.197812)">0.4</text>
     </g>
    </g>
    <g id="xtick_4">
     <g id="line2d_4">
      <g>
       <use xlink:href="#md8f2d2014f" x="181.33566" y="246.04" style="stroke: #000000; stroke-width: 0.8"/>
      </g>
     </g>
     <g id="text_4">
      <text style="font: 10px 'Arial'; text-anchor: middle" x="181.33566" y="260.197812" transform="rotate(-0 181.33566 260.197812)">0.6</text>
     </g>
    </g>
    <g id="xtick_5">
     <g id="line2d_5">
      <g>
       <use xlink:href="#md8f2d2014f" x="225.763746" y="246.04" style="stroke: #000000; stroke-width: 0.8"/>
      </g>
     </g>
     <g id="text_5">
      <text style="font: 10px 'Arial'; text-anchor: middle" x="225.763746" y="260.197812" transform="rotate(-0 225.763746 260.197812)">0.8</text>
     </g>
    </g>
    <g id="xtick_6">
     <g id="line2d_6">
      <g>
       <use xlink:href="#md8f2d2014f" x="270.191831" y="246.04" style="stroke: #000000; stroke-width: 0.8"/>
      </g>
     </g>
     <g id="text_6">
      <text style="font: 10px 'Arial'; text-anchor: middle" x="270.191831" y="260.197812" transform="rotate(-0 270.191831 260.197812)">1.0</text>
     </g>
    </g>
    <g id="text_7">
     <text style="font: 10px 'Arial'; text-anchor: middle" x="159.121618" y="273.343125" transform="rotate(-0 159.121618 273.343125)">False Postive Rate</text>
    </g>
   </g>
   <g id="matplotlib.axis_2">
    <g id="ytick_1">
     <g id="line2d_7">
      <defs>
       <path id="md5ee492218" d="M 0 0 
L -3.5 0 
" style="stroke: #000000; stroke-width: 0.8"/>
      </defs>
      <g>
       <use xlink:href="#md5ee492218" x="45.83" y="243.751234" style="stroke: #000000; stroke-width: 0.8"/>
      </g>
     </g>
     <g id="text_8">
      <text style="font: 10px 'Arial'; text-anchor: end" x="38.83" y="247.33014" transform="rotate(-0 38.83 247.33014)">0.0</text>
     </g>
    </g>
    <g id="ytick_2">
     <g id="line2d_8">
      <g>
       <use xlink:href="#md5ee492218" x="45.83" y="197.975917" style="stroke: #000000; stroke-width: 0.8"/>
      </g>
     </g>
     <g id="text_9">
      <text style="font: 10px 'Arial'; text-anchor: end" x="38.83" y="201.554823" transform="rotate(-0 38.83 201.554823)">0.2</text>
     </g>
    </g>
    <g id="ytick_3">
     <g id="line2d_9">
      <g>
       <use xlink:href="#md5ee492218" x="45.83" y="152.2006" style="stroke: #000000; stroke-width: 0.8"/>
      </g>
     </g>
     <g id="text_10">
      <text style="font: 10px 'Arial'; text-anchor: end" x="38.83" y="155.779506" transform="rotate(-0 38.83 155.779506)">0.4</text>
     </g>
    </g>
    <g id="ytick_4">
     <g id="line2d_10">
      <g>
       <use xlink:href="#md5ee492218" x="45.83" y="106.425283" style="stroke: #000000; stroke-width: 0.8"/>
      </g>
     </g>
     <g id="text_11">
      <text style="font: 10px 'Arial'; text-anchor: end" x="38.83" y="110.004189" transform="rotate(-0 38.83 110.004189)">0.6</text>
     </g>
    </g>
    <g id="ytick_5">
     <g id="line2d_11">
      <g>
       <use xlink:href="#md5ee492218" x="45.83" y="60.649965" style="stroke: #000000; stroke-width: 0.8"/>
      </g>
     </g>
     <g id="text_12">
      <text style="font: 10px 'Arial'; text-anchor: end" x="38.83" y="64.228872" transform="rotate(-0 38.83 64.228872)">0.8</text>
     </g>
    </g>
    <g id="ytick_6">
     <g id="line2d_12">
      <g>
       <use xlink:href="#md5ee492218" x="45.83" y="14.874648" style="stroke: #000000; stroke-width: 0.8"/>
      </g>
     </g>
     <g id="text_13">
      <text style="font: 10px 'Arial'; text-anchor: end" x="38.83" y="18.453554" transform="rotate(-0 38.83 18.453554)">1.0</text>
     </g>
    </g>
    <g id="text_14">
     <text style="font: 10px 'Arial'; text-anchor: middle" x="18.9425" y="129.312941" transform="rotate(-90 18.9425 129.312941)">True Postive Rate</text>
    </g>
   </g>
   <g id="line2d_13">
    <path d="M 48.051404 243.751234 
L 48.162136 226.850885 
L 48.168288 226.765959 
L 48.276969 221.097123 
L 48.283121 221.012197 
L 48.393853 217.487752 
L 48.404106 217.381594 
L 48.514838 214.66395 
L 48.520989 214.579024 
L 48.631721 212.179854 
L 48.639924 212.094927 
L 48.750655 209.759452 
L 48.762959 209.653294 
L 48.873691 207.721219 
L 48.881893 207.615061 
L 48.992625 205.895302 
L 49.000827 205.831607 
L 49.111559 204.154311 
L 49.125913 204.048153 
L 49.234595 202.222236 
L 49.238696 202.222236 
L 49.349428 200.290161 
L 49.365833 200.184003 
L 49.474514 198.527938 
L 49.484767 198.42178 
L 49.595499 196.5534 
L 49.603701 196.489705 
L 49.714433 194.706251 
L 49.728787 194.642557 
L 49.839519 192.710482 
L 49.849772 192.625555 
L 49.960504 190.502396 
L 49.970757 190.417469 
L 50.081488 188.676479 
L 50.08764 188.676479 
L 50.198372 186.362235 
L 50.206574 186.256077 
L 50.317306 184.812329 
L 50.32961 184.791097 
L 50.438291 183.156264 
L 50.448544 183.050106 
L 50.557225 181.224189 
L 50.57363 181.118031 
L 50.67821 179.695514 
L 50.700767 179.589356 
L 50.809448 178.060682 
L 50.825853 177.954524 
L 50.936585 175.873827 
L 50.946838 175.767669 
L 51.051418 174.536237 
L 51.05962 174.536237 
L 51.170352 173.177415 
L 51.182655 173.071257 
L 51.291337 171.393961 
L 51.30364 171.309035 
L 51.410271 169.419423 
L 51.430777 169.313265 
L 51.541509 168.18799 
L 51.557913 168.081832 
L 51.666595 166.807937 
L 51.682999 166.72301 
L 51.779377 165.342957 
L 51.806035 165.300493 
L 51.912665 164.366303 
L 51.933171 164.281377 
L 52.043903 163.092408 
L 52.052106 163.071176 
L 52.162837 161.988365 
L 52.183343 161.903438 
L 52.294075 161.160333 
L 52.31048 161.075406 
L 52.421212 159.631658 
L 52.431465 159.546731 
L 52.542197 157.93313 
L 52.560652 157.826972 
L 52.671384 156.361992 
L 52.689839 156.255834 
L 52.800571 154.981939 
L 52.808773 154.875781 
L 52.917455 153.750506 
L 52.937961 153.644348 
L 53.048692 152.47661 
L 53.060996 152.370453 
L 53.171728 151.393799 
L 53.194284 151.287641 
L 53.305016 149.865124 
L 53.31937 149.780198 
L 53.430102 148.421376 
L 53.446507 148.315218 
L 53.557239 147.211175 
L 53.573643 147.105017 
L 53.684375 145.533879 
L 53.690527 145.427721 
L 53.795107 144.557226 
L 53.801259 144.557226 
L 53.819714 144.472299 
L 53.930446 143.262099 
L 53.94275 143.155941 
L 54.053482 142.136824 
L 54.069886 142.030666 
L 54.178568 141.436181 
L 54.194972 141.351255 
L 54.297502 139.992433 
L 54.320058 139.907507 
L 54.43079 138.718537 
L 54.438992 138.612379 
L 54.549724 137.656958 
L 54.557927 137.635726 
L 54.662507 136.786462 
L 54.701468 136.680304 
L 54.806048 136.000893 
L 54.824503 135.894735 
L 54.933185 134.854387 
L 54.947539 134.769461 
L 55.054169 134.005124 
L 55.072625 133.898966 
L 55.177205 132.901081 
L 55.189508 132.837386 
L 55.294089 131.712111 
L 55.328949 131.648417 
L 55.43763 130.735458 
L 55.460186 130.6293 
L 55.568868 129.482794 
L 55.607829 129.376636 
L 55.718561 128.421214 
L 55.747269 128.315056 
L 55.858001 127.614414 
L 55.868254 127.508256 
L 55.978986 126.956234 
L 56.001542 126.850076 
L 56.112274 125.788497 
L 56.126628 125.682339 
L 56.235309 125.045391 
L 56.255815 124.960464 
L 56.364497 124.026274 
L 56.3768 123.920116 
L 56.485481 122.943463 
L 56.497785 122.879768 
L 56.604416 121.733262 
L 56.626972 121.627104 
L 56.733603 120.799072 
L 56.762311 120.692914 
L 56.868942 120.077198 
L 56.875094 120.077198 
L 56.979674 119.185471 
L 57.014534 119.079313 
L 57.125266 117.996501 
L 57.147822 117.911575 
L 57.258554 117.083543 
L 57.277009 116.998617 
L 57.381589 116.255511 
L 57.400045 116.149353 
L 57.510776 115.151468 
L 57.535384 115.04531 
L 57.644065 114.365899 
L 57.668672 114.259741 
L 57.773252 113.389245 
L 57.812213 113.304319 
L 57.922945 112.327666 
L 57.945502 112.221508 
L 58.050082 111.520865 
L 58.095195 111.414707 
L 58.199775 110.756528 
L 58.224382 110.65037 
L 58.333063 109.949727 
L 58.343316 109.907264 
L 58.449947 109.270316 
L 58.478655 109.164158 
L 58.579134 108.421052 
L 58.603741 108.336126 
L 58.712422 107.486862 
L 58.73908 107.401936 
L 58.837508 106.573904 
L 58.858014 106.467746 
L 58.968746 105.682177 
L 58.985151 105.576019 
L 59.091781 104.811681 
L 59.124591 104.705523 
L 59.235323 104.217197 
L 59.253778 104.13227 
L 59.362459 103.495323 
L 59.397319 103.389165 
L 59.508051 102.79468 
L 59.524456 102.709754 
L 59.629036 102.051574 
L 59.655694 101.966648 
L 59.762324 101.393395 
L 59.791033 101.308468 
L 59.873056 100.9263 
L 59.928422 100.820142 
L 60.039154 100.119499 
L 60.053508 100.034573 
L 60.160139 99.503783 
L 60.205252 99.397625 
L 60.30163 98.866835 
L 60.350844 98.760677 
L 60.459525 98.293582 
L 60.541549 98.187424 
L 60.65023 97.380623 
L 60.662533 97.33816 
L 60.771215 96.764907 
L 60.791721 96.722444 
L 60.896301 96.127959 
L 60.945515 96.021801 
L 61.035741 95.59717 
L 61.084955 95.491012 
L 61.187485 94.917759 
L 61.228496 94.811601 
L 61.339228 94.13219 
L 61.361785 94.047263 
L 61.464314 93.346621 
L 61.480719 93.261694 
L 61.5894 92.837062 
L 61.609906 92.730904 
L 61.716537 92.178883 
L 61.747296 92.072725 
L 61.855977 91.393314 
L 61.876483 91.308387 
L 61.974911 90.735134 
L 62.04053 90.628976 
L 62.149211 90.268039 
L 62.208678 90.161881 
L 62.313258 89.631092 
L 62.339916 89.524934 
L 62.450648 88.866754 
L 62.495761 88.760596 
L 62.604442 88.187343 
L 62.629049 88.081185 
L 62.731579 87.677785 
L 62.747984 87.571627 
L 62.856665 87.062069 
L 62.912031 86.955911 
L 62.996105 86.616205 
L 63.055572 86.531279 
L 63.166304 85.958026 
L 63.209366 85.851868 
L 63.313946 85.427236 
L 63.350857 85.34231 
L 63.461589 84.938909 
L 63.488247 84.853983 
L 63.594877 84.301961 
L 63.642041 84.217035 
L 63.74252 83.686245 
L 63.793785 83.601319 
L 63.900415 83.028066 
L 63.914769 82.921908 
L 64.0214 82.518507 
L 64.025501 82.518507 
L 64.05626 82.433581 
L 64.16084 82.072644 
L 64.203903 81.966486 
L 64.312584 81.287075 
L 64.339242 81.265843 
L 64.445872 80.777517 
L 64.478682 80.671359 
L 64.581211 80.183032 
L 64.652982 80.076874 
L 64.757562 79.631011 
L 64.78422 79.546084 
L 64.894951 79.100221 
L 64.92366 79.036526 
L 65.032341 78.548199 
L 65.044645 78.442041 
L 65.153326 78.123567 
L 65.173832 78.038641 
L 65.262007 77.677704 
L 65.327626 77.571546 
L 65.432206 77.189377 
L 65.483471 77.083219 
L 65.594203 76.616124 
L 65.614709 76.531198 
L 65.715187 76.170261 
L 65.756199 76.064103 
L 65.864881 75.554545 
L 65.912044 75.469618 
L 66.008422 75.002523 
L 66.067889 74.896365 
L 66.17657 74.450502 
L 66.215531 74.344344 
L 66.326263 73.89848 
L 66.35087 73.792322 
L 66.457501 73.49508 
L 66.484159 73.410154 
L 66.590789 73.09168 
L 66.631801 73.027985 
L 66.738432 72.8369 
L 66.76714 72.751974 
L 66.873771 72.348574 
L 66.890176 72.242416 
L 66.988604 71.881479 
L 67.035768 71.796552 
L 67.140348 71.456847 
L 67.222371 71.350689 
L 67.318749 70.96852 
L 67.376165 70.862362 
L 67.480746 70.522657 
L 67.554567 70.416499 
L 67.663248 69.970635 
L 67.718614 69.90694 
L 67.829346 69.461077 
L 67.862155 69.376151 
L 67.962634 68.993982 
L 68.022101 68.887824 
L 68.130783 68.633045 
L 68.198452 68.526887 
L 68.309184 68.208413 
L 68.368651 68.102255 
L 68.475282 67.698855 
L 68.555255 67.592697 
L 68.665987 67.252991 
L 68.682391 67.146833 
L 68.78287 66.743433 
L 68.844388 66.637275 
L 68.95512 66.17018 
L 68.99203 66.085254 
L 69.102762 65.618158 
L 69.145825 65.512 
L 69.256557 65.087369 
L 69.287315 65.023674 
L 69.393946 64.641505 
L 69.445211 64.556579 
L 69.549791 64.216873 
L 69.584651 64.110715 
L 69.687181 63.813473 
L 69.711788 63.728547 
L 69.820469 63.452536 
L 69.855329 63.346378 
L 69.96401 63.049136 
L 70.035781 62.942978 
L 70.144462 62.539577 
L 70.193676 62.433419 
L 70.300307 62.157409 
L 70.365926 62.051251 
L 70.470506 61.690314 
L 70.51767 61.584156 
L 70.616098 61.11706 
L 70.69402 61.010903 
L 70.802702 60.819818 
L 70.874472 60.734892 
L 70.979052 60.289028 
L 71.034418 60.18287 
L 71.14515 59.821933 
L 71.18001 59.715775 
L 71.270236 59.439765 
L 71.335855 59.354838 
L 71.438384 59.121291 
L 71.501953 59.036364 
L 71.583976 58.696659 
L 71.666 58.590501 
L 71.762378 58.293258 
L 71.827997 58.1871 
L 71.930526 57.91109 
L 71.946931 57.826163 
L 72.053562 57.528921 
L 72.100725 57.422763 
L 72.211457 57.231679 
L 72.29143 57.125521 
L 72.402162 56.870742 
L 72.445224 56.764584 
L 72.547754 56.403647 
L 72.619524 56.297489 
L 72.689244 56.106404 
L 72.77947 56.000246 
L 72.882 55.724236 
L 72.908658 55.618078 
L 73.019389 55.172214 
L 73.054249 55.066056 
L 73.128071 54.85374 
L 73.144475 54.85374 
L 73.181386 54.811277 
L 73.257258 54.514035 
L 73.331079 54.429108 
L 73.435659 53.962013 
L 73.515632 53.877087 
L 73.607909 53.579845 
L 73.659174 53.473687 
L 73.767855 53.176444 
L 73.841676 53.091518 
L 73.946256 52.666886 
L 74.054937 52.560728 
L 74.165669 52.284717 
L 74.218985 52.178559 
L 74.309211 51.881317 
L 74.364577 51.775159 
L 74.469157 51.584075 
L 74.559383 51.477917 
L 74.651659 51.11698 
L 74.772644 51.010822 
L 74.879275 50.777274 
L 74.934641 50.671116 
L 75.039221 50.331411 
L 75.092536 50.225253 
L 75.201217 49.843084 
L 75.299646 49.736926 
L 75.396023 49.609536 
L 75.443187 49.503378 
L 75.539565 49.142441 
L 75.615437 49.036283 
L 75.726168 48.802736 
L 75.793838 48.696578 
L 75.902519 48.420567 
L 75.957885 48.314409 
L 76.068617 48.038398 
L 76.130135 47.974704 
L 76.21831 47.741156 
L 76.281878 47.634998 
L 76.39261 47.295293 
L 76.435673 47.189135 
L 76.546404 46.870661 
L 76.585366 46.764503 
L 76.685845 46.488492 
L 76.747362 46.382334 
L 76.833487 46.212481 
L 76.936017 46.106323 
L 77.011888 46.042629 
L 77.106216 45.936471 
L 77.186189 45.596765 
L 77.274364 45.490607 
L 77.36459 45.341986 
L 77.415855 45.235828 
L 77.460968 45.12967 
L 77.579902 45.023512 
L 77.686533 44.705038 
L 77.789062 44.59888 
L 77.897743 44.301638 
L 77.944907 44.19548 
L 78.051538 43.898238 
L 78.19918 43.79208 
L 78.305811 43.494837 
L 78.404239 43.388679 
L 78.514971 43.112669 
L 78.646209 43.006511 
L 78.744637 42.772963 
L 78.785649 42.666805 
L 78.884077 42.305868 
L 78.957898 42.220942 
L 79.060428 41.987394 
L 79.1363 41.881236 
L 79.24088 41.690152 
L 79.382371 41.583994 
L 79.493102 41.371678 
L 79.595632 41.26552 
L 79.69201 41.095667 
L 79.749426 40.989509 
L 79.856057 40.755962 
L 79.979092 40.649804 
L 80.083672 40.458719 
L 80.122634 40.352561 
L 80.225163 40.182709 
L 80.374856 40.076551 
L 80.467133 39.949161 
L 80.569662 39.843003 
L 80.647585 39.758077 
L 80.828037 39.651919 
L 80.928516 39.482066 
L 81.028994 39.375908 
L 81.139726 39.14236 
L 81.199193 39.036202 
L 81.303774 38.930044 
L 81.398101 38.823887 
L 81.504731 38.717729 
L 81.592907 38.611571 
L 81.676981 38.441718 
L 81.781561 38.33556 
L 81.892293 38.165707 
L 82.025581 38.059549 
L 82.121959 37.910928 
L 82.255247 37.826002 
L 82.363929 37.571222 
L 82.400839 37.486296 
L 82.495166 37.27398 
L 82.622303 37.167822 
L 82.704327 36.997969 
L 82.907335 36.891811 
L 83.018067 36.785653 
L 83.180063 36.679495 
L 83.290795 36.530874 
L 83.348212 36.424716 
L 83.44664 36.2124 
L 83.588131 36.106242 
L 83.698863 36.000084 
L 83.739875 35.893927 
L 83.850606 35.724074 
L 83.920326 35.617916 
L 84.016704 35.532989 
L 84.188954 35.426831 
L 84.275079 35.299442 
L 84.412468 35.193284 
L 84.48834 35.108358 
L 84.791827 35.0022 
L 84.888205 34.896042 
L 85.000987 34.789884 
L 85.107618 34.641262 
L 85.277817 34.535104 
L 85.374195 34.322789 
L 85.515686 34.216631 
L 85.622316 34.089241 
L 85.685885 33.983083 
L 85.728947 33.94062 
L 85.866337 33.834462 
L 85.977068 33.643378 
L 86.096003 33.53722 
L 86.194431 33.346135 
L 86.305163 33.239977 
L 86.360529 33.155051 
L 86.475362 33.048893 
L 86.53893 32.921503 
L 86.71118 32.815345 
L 86.789102 32.751651 
L 86.973655 32.645493 
L 87.047476 32.47564 
L 87.242282 32.369482 
L 87.340711 32.263324 
L 87.549871 32.157166 
L 87.592933 32.029776 
L 87.740576 31.923618 
L 87.836954 31.796229 
L 87.931281 31.690071 
L 88.023557 31.605144 
L 88.087126 31.520218 
L 88.179402 31.286671 
L 88.286033 31.180513 
L 88.394714 31.116818 
L 88.489041 31.01066 
L 88.581318 30.88327 
L 88.655139 30.777112 
L 88.720758 30.670954 
L 88.872502 30.564796 
L 88.925817 30.437407 
L 89.016043 30.331249 
L 89.108319 30.182628 
L 89.274417 30.07647 
L 89.356441 29.970312 
L 89.573803 29.864154 
L 89.647625 29.779227 
L 89.932657 29.673069 
L 90.024933 29.566911 
L 90.092603 29.460753 
L 90.15207 29.354595 
L 90.299712 29.290901 
L 90.410444 29.121048 
L 90.599098 29.01489 
L 90.648313 28.951195 
L 90.828765 28.845037 
L 90.939496 28.675184 
L 91.074835 28.569026 
L 91.183517 28.377942 
L 91.283996 28.271784 
L 91.366019 28.165626 
L 91.517763 28.059468 
L 91.595685 27.974542 
L 91.852009 27.868384 
L 91.931982 27.719763 
L 92.085776 27.613605 
L 92.176002 27.443752 
L 92.266228 27.337594 
L 92.370808 27.252668 
L 92.555361 27.14651 
L 92.666093 27.061583 
L 92.969581 26.955425 
L 93.07211 26.806804 
L 93.457621 26.700646 
L 93.517088 26.61572 
L 93.734451 26.509562 
L 93.812373 26.424635 
L 93.97642 26.318478 
L 94.056393 26.233551 
L 94.187631 26.127393 
L 94.265554 26.08493 
L 94.382437 25.978772 
L 94.433702 25.893846 
L 94.628508 25.787688 
L 94.700279 25.745224 
L 94.800758 25.639066 
L 94.847921 25.55414 
L 95.079638 25.447982 
L 95.139105 25.363056 
L 95.362619 25.256898 
L 95.432339 25.171971 
L 95.616892 25.065813 
L 95.717371 24.938424 
L 95.947037 24.832266 
L 96.018808 24.74734 
L 96.238221 24.641182 
L 96.238221 24.61995 
L 96.726262 24.513792 
L 96.832892 24.428866 
L 96.970282 24.322708 
L 97.076913 24.237781 
L 97.279921 24.131623 
L 97.390653 23.983002 
L 97.646977 23.876844 
L 97.751557 23.749455 
L 97.888946 23.643297 
L 97.923806 23.579602 
L 98.186282 23.473444 
L 98.186282 23.452212 
L 98.551287 23.346054 
L 98.618956 23.261128 
L 98.945 23.15497 
L 98.971658 23.112507 
L 99.15211 23.006349 
L 99.252589 22.900191 
L 99.461749 22.794033 
L 99.539671 22.709106 
L 99.81445 22.602949 
L 99.890322 22.539254 
L 100.308643 22.433096 
L 100.355806 22.369401 
L 100.782329 22.263243 
L 100.872555 22.199548 
L 101.190396 22.09339 
L 101.194498 22.050927 
L 101.5513 21.944769 
L 101.623071 21.838611 
L 101.885546 21.732453 
L 101.942963 21.668758 
L 102.324373 21.5626 
L 102.396143 21.498906 
L 102.66067 21.392748 
L 102.73039 21.350284 
L 102.771401 21.350284 
L 103.158963 21.244126 
L 103.259442 21.1592 
L 103.458349 21.053042 
L 103.56703 20.968116 
L 103.751583 20.861958 
L 103.862315 20.798263 
L 104.112487 20.692105 
L 104.217067 20.62841 
L 104.588224 20.522252 
L 104.631287 20.437326 
L 104.904015 20.331168 
L 104.975786 20.288705 
L 105.623772 20.182547 
L 105.670936 20.118852 
L 105.896501 20.012694 
L 105.902652 19.970231 
L 106.286113 19.885304 
L 106.286113 19.842841 
L 106.823367 19.736683 
L 106.934099 19.672989 
L 107.200676 19.566831 
L 107.200676 19.545599 
L 107.536973 19.439441 
L 107.618996 19.396978 
L 107.625148 19.396978 
L 108.53356 19.29082 
L 108.642241 19.248357 
L 109.074915 19.142199 
L 109.181546 19.057272 
L 109.770065 18.951114 
L 109.860291 18.88742 
L 110.290915 18.781262 
L 110.399597 18.696335 
L 110.846625 18.590177 
L 110.846625 18.568946 
L 111.508966 18.462788 
L 111.508966 18.441556 
L 112.308696 18.335398 
L 112.308696 18.314166 
L 112.909519 18.208009 
L 113.003846 18.165545 
L 113.272473 18.059387 
L 113.280676 18.016924 
L 113.541101 17.910766 
L 113.621074 17.868303 
L 113.998382 17.762145 
L 114.066052 17.69845 
L 115.177472 17.592292 
L 115.230787 17.549829 
L 115.65731 17.443671 
L 115.743434 17.401208 
L 116.539063 17.29505 
L 116.635441 17.231355 
L 117.724304 17.125197 
L 117.835036 17.040271 
L 118.257458 16.934113 
L 118.257458 16.912881 
L 119.500116 16.806723 
L 119.500116 16.785492 
L 120.566422 16.679334 
L 120.566422 16.658102 
L 121.548655 16.551944 
L 121.548655 16.530713 
L 122.348385 16.424555 
L 122.350436 16.403323 
L 124.181613 16.297165 
L 124.181613 16.275933 
L 124.839852 16.169775 
L 124.919825 16.127312 
L 125.768769 16.021154 
L 125.797478 15.95746 
L 126.892493 15.851302 
L 127.001174 15.808838 
L 128.489903 15.70268 
L 128.539117 15.660217 
L 130.109869 15.554059 
L 130.109869 15.532828 
L 131.455056 15.42667 
L 131.455056 15.405438 
L 132.847407 15.29928 
L 132.847407 15.278049 
L 134.97797 15.171891 
L 134.97797 15.150659 
L 136.694314 15.044501 
L 136.694314 15.023269 
L 143.63146 14.917111 
L 143.688876 14.874648 
L 270.191831 14.874648 
L 270.191831 14.874648 
" clip-path="url(#p75389b93ed)" style="fill: none; stroke: #44757a; stroke-width: 2; stroke-linecap: square"/>
   </g>
   <g id="line2d_14">
    <path d="M 48.051404 243.751234 
L 48.158035 241.245906 
L 48.555849 235.683228 
L 49.062345 229.674687 
L 49.246898 227.785075 
L 49.583195 224.876347 
L 49.898986 221.564218 
L 50.132753 219.143816 
L 53.225043 192.476934 
L 54.984449 180.417389 
L 58.587336 162.009596 
L 62.155363 148.421376 
L 68.194351 130.692995 
L 73.778108 117.529406 
L 75.654398 113.792646 
L 82.618202 100.905068 
L 93.404306 84.726593 
L 100.407071 75.002523 
L 102.375637 73.09168 
L 109.140534 65.320916 
L 112.558868 62.17864 
L 118.657323 55.830394 
L 124.610186 50.756042 
L 126.295771 49.630768 
L 130.544594 46.297408 
L 134.321781 42.836658 
L 139.093504 38.823887 
L 143.994414 35.172052 
L 148.448296 32.178398 
L 151.561092 30.692186 
L 154.694394 28.696416 
L 155.859129 28.208089 
L 159.767554 26.339709 
L 162.373854 25.299361 
L 165.008862 24.046697 
L 168.2693 23.070044 
L 171.351337 21.68999 
L 174.496942 20.607179 
L 178.594021 19.460673 
L 179.125124 19.142199 
L 181.645299 18.377861 
L 187.97137 17.061502 
L 191.502486 16.127312 
L 194.945427 15.638986 
L 206.082182 14.874648 
L 270.191831 14.874648 
L 270.191831 14.874648 
" clip-path="url(#p75389b93ed)" style="fill: none; stroke: #cb997e; stroke-width: 2; stroke-linecap: square"/>
   </g>
   <g id="line2d_15">
    <path d="M 48.051404 243.751234 
L 48.158035 222.604566 
L 48.166237 222.51964 
L 48.276969 216.341246 
L 48.28107 216.25632 
L 48.389752 212.79557 
L 48.402055 212.710643 
L 48.512787 209.695757 
L 48.527141 209.653294 
L 48.637873 207.46644 
L 48.652227 207.360282 
L 48.760908 205.003575 
L 48.76706 204.93988 
L 48.875741 203.092731 
L 48.885994 203.050268 
L 48.994676 200.820951 
L 49.004929 200.757256 
L 49.11361 199.058728 
L 49.127964 199.037497 
L 49.238696 196.702021 
L 49.248949 196.617095 
L 49.35763 194.451472 
L 49.369934 194.387778 
L 49.476564 192.68925 
L 49.482716 192.68925 
L 49.591397 190.481164 
L 49.60165 190.417469 
L 49.710332 188.442931 
L 49.714433 188.442931 
L 49.816962 186.447161 
L 49.833367 186.404698 
L 49.944099 184.472623 
L 49.962554 184.408928 
L 50.073286 182.625474 
L 50.083539 182.540548 
L 50.194271 181.054336 
L 50.198372 180.990642 
L 50.309104 179.334577 
L 50.341913 179.228419 
L 50.450595 177.784671 
L 50.458797 177.720976 
L 50.569529 175.852596 
L 50.579782 175.746438 
L 50.690514 174.557469 
L 50.696666 174.493774 
L 50.803296 172.965099 
L 50.8156 172.858941 
L 50.926332 170.990561 
L 50.938635 170.884403 
L 51.049367 169.270802 
L 52.382251 154.366222 
L 52.490932 153.262179 
L 52.513488 153.156022 
L 52.62217 152.349221 
L 52.640625 152.243063 
L 52.747256 151.287641 
L 52.771863 151.181483 
L 52.882595 149.822661 
L 52.892848 149.758966 
L 52.993326 148.73985 
L 53.013832 148.676155 
L 53.124564 147.614575 
L 53.151222 147.508417 
L 53.259903 146.21329 
L 53.278358 146.149595 
L 53.38909 144.918163 
L 53.405495 144.812005 
L 53.516227 143.559341 
L 53.522379 143.453183 
L 53.633111 142.412835 
L 53.645414 142.34914 
L 53.749994 141.160171 
L 53.764348 141.117708 
L 53.870979 140.077359 
L 53.897637 139.971201 
L 54.006318 138.697306 
L 54.041178 138.612379 
L 54.149859 138.017895 
L 54.176517 137.932968 
L 54.281097 136.595378 
L 54.322109 136.48922 
L 54.432841 135.172861 
L 54.455397 135.087935 
L 54.555876 134.217439 
L 54.582534 134.111281 
L 54.689164 133.43187 
L 54.715822 133.368176 
L 54.826554 132.476449 
L 54.851161 132.370291 
L 54.957792 131.414869 
L 54.965994 131.372406 
L 55.076726 130.077279 
L 55.103384 129.971121 
L 55.205913 128.973236 
L 55.22847 128.867078 
L 55.3351 127.996582 
L 55.351505 127.911656 
L 55.460186 126.998697 
L 55.47249 126.935003 
L 55.583222 126.191897 
L 55.601677 126.10697 
L 55.712409 125.491254 
L 55.726763 125.385096 
L 55.833394 124.429675 
L 55.864153 124.323517 
L 55.974884 123.580411 
L 56.001542 123.474253 
L 56.108173 122.455136 
L 56.138932 122.37021 
L 56.249664 121.499714 
L 56.270169 121.393557 
L 56.380901 120.820303 
L 56.401407 120.714146 
L 56.505987 120.013503 
L 56.528544 119.907345 
L 56.637225 119.121776 
L 56.65568 119.015618 
L 56.766412 118.187586 
L 56.778716 118.081428 
L 56.889448 117.04108 
L 56.907903 116.956153 
L 57.018635 116.149353 
L 57.03709 116.043195 
L 57.143721 115.321321 
L 57.194986 115.257626 
L 57.301616 114.493288 
L 57.320072 114.38713 
L 57.426702 113.686488 
L 57.443107 113.622793 
L 57.545636 112.731066 
L 57.568193 112.624908 
L 57.678925 111.775644 
L 57.705583 111.690718 
L 57.814264 111.075002 
L 57.824517 110.968844 
L 57.894237 110.607907 
L 57.951653 110.501749 
L 58.052132 109.801106 
L 58.084942 109.694948 
L 58.195674 109.036769 
L 58.21823 108.930611 
L 58.328962 108.229968 
L 58.347417 108.12381 
L 58.454048 107.359473 
L 58.482756 107.253315 
L 58.591437 106.552672 
L 58.611943 106.446514 
L 58.718574 105.745872 
L 58.734979 105.660945 
L 58.837508 104.981534 
L 58.870318 104.875376 
L 58.978999 104.174734 
L 58.999505 104.068576 
L 59.104085 103.559017 
L 59.128692 103.474091 
L 59.239424 102.900838 
L 59.25993 102.79468 
L 59.370662 102.051574 
L 59.385016 101.945416 
L 59.493697 101.350932 
L 59.512152 101.244774 
L 59.616732 100.968763 
L 59.649542 100.905068 
L 59.754122 100.246889 
L 59.791033 100.140731 
L 59.901765 99.525014 
L 59.934574 99.418856 
L 60.041205 98.654519 
L 60.05966 98.612056 
L 60.166291 97.826487 
L 60.192948 97.720329 
L 60.295478 97.295697 
L 60.328287 97.210771 
L 60.439019 96.658749 
L 60.447221 96.552591 
L 60.557953 96.212886 
L 60.605117 96.106728 
L 60.715849 95.384854 
L 60.742506 95.278696 
L 60.853238 94.811601 
L 60.873744 94.726674 
L 60.980375 94.323274 
L 61.025488 94.217116 
L 61.128017 93.537705 
L 61.146473 93.431547 
L 61.328975 92.603515 
L 61.374088 92.497357 
L 61.482769 91.902872 
L 61.509427 91.796714 
L 61.620159 91.096072 
L 61.669373 90.989914 
L 61.769852 90.204345 
L 61.827269 90.098187 
L 61.921596 89.694786 
L 61.987215 89.588628 
L 62.093845 89.227691 
L 62.112301 89.121533 
L 62.223033 88.293501 
L 62.290702 88.187343 
L 62.401434 87.720248 
L 62.450648 87.61409 
L 62.555228 87.019605 
L 62.592139 86.913447 
L 62.702871 86.14911 
L 62.731579 86.064184 
L 62.83821 85.384773 
L 62.889474 85.278615 
L 62.987903 84.853983 
L 63.033016 84.747825 
L 63.143747 84.408119 
L 63.180658 84.301961 
L 63.281137 83.941024 
L 63.320098 83.834866 
L 63.398021 83.34654 
L 63.457488 83.304076 
L 63.553866 82.81575 
L 63.619484 82.709592 
L 63.728166 82.348655 
L 63.758925 82.242497 
L 63.869656 81.839096 
L 63.912719 81.732938 
L 64.019349 81.308307 
L 64.070614 81.22338 
L 64.181346 80.374116 
L 64.201852 80.267958 
L 64.304381 79.694705 
L 64.328989 79.588547 
L 64.433569 78.9516 
L 64.495086 78.845442 
L 64.589414 78.590663 
L 64.659134 78.484505 
L 64.759612 78.166031 
L 64.81908 78.059873 
L 64.921609 77.635241 
L 64.968773 77.529083 
L 65.079505 76.892135 
L 65.112314 76.807209 
L 65.216894 76.276419 
L 65.245602 76.170261 
L 65.356334 75.830555 
L 65.397346 75.724397 
L 65.506027 75.066218 
L 65.555241 74.96006 
L 65.661872 74.599123 
L 65.696732 74.492965 
L 65.807464 74.216954 
L 65.844375 74.132028 
L 65.955107 73.664933 
L 66.030978 73.558775 
L 66.14171 72.985522 
L 66.184773 72.879364 
L 66.283201 72.539658 
L 66.322162 72.4335 
L 66.432894 72.051332 
L 66.486209 71.945174 
L 66.596941 71.456847 
L 66.611295 71.414384 
L 66.719977 71.053447 
L 66.750735 70.947289 
L 66.851214 70.501425 
L 66.896327 70.395267 
L 67.007059 69.843246 
L 67.054223 69.737088 
L 67.156752 69.269993 
L 67.203916 69.163835 
L 67.314648 68.739203 
L 67.353609 68.633045 
L 67.449987 68.229645 
L 67.486897 68.123487 
L 67.595579 67.911171 
L 67.628388 67.826244 
L 67.73912 67.550234 
L 67.761676 67.444076 
L 67.868307 67.168065 
L 67.91342 67.061907 
L 68.022101 66.57358 
L 68.063113 66.467422 
L 68.167693 66.085254 
L 68.216907 66.000327 
L 68.327639 65.618158 
L 68.366601 65.512 
L 68.465029 65.129832 
L 68.536799 65.023674 
L 68.64138 64.514116 
L 68.680341 64.407958 
L 68.786971 64.04702 
L 68.830034 63.962094 
L 68.940766 63.516231 
L 68.951019 63.494999 
L 69.061751 63.049136 
L 69.143774 62.942978 
L 69.234 62.70943 
L 69.279113 62.645735 
L 69.389845 62.199872 
L 69.410351 62.093714 
L 69.498526 61.923861 
L 69.551842 61.817703 
L 69.654371 61.393071 
L 69.687181 61.286913 
L 69.793811 60.968439 
L 69.853278 60.862281 
L 69.951707 60.480113 
L 70.002971 60.395186 
L 70.111653 60.097944 
L 70.179322 60.013018 
L 70.288003 59.65208 
L 70.290054 59.65208 
L 70.326965 59.545922 
L 70.425393 59.142522 
L 70.482809 59.036364 
L 70.591491 58.632964 
L 70.620199 58.548038 
L 70.72683 58.229564 
L 70.784246 58.123406 
L 70.890877 57.7837 
L 70.925737 57.677542 
L 71.020064 57.337837 
L 71.089784 57.231679 
L 71.198465 56.828278 
L 71.235376 56.764584 
L 71.335855 56.467341 
L 71.368664 56.403647 
L 71.477346 56.106404 
L 71.501953 56.042709 
L 71.608583 55.681772 
L 71.635241 55.575614 
L 71.739821 55.299604 
L 71.793137 55.193446 
L 71.899767 54.874972 
L 72.065865 54.768814 
L 72.168395 54.45034 
L 72.285278 54.344182 
L 72.39601 53.962013 
L 72.439072 53.855855 
L 72.549804 53.537381 
L 72.566209 53.431223 
L 72.67489 53.070286 
L 72.740509 53.006591 
L 72.84919 52.624423 
L 72.886101 52.518265 
L 72.980428 52.284717 
L 73.099362 52.178559 
L 73.208044 51.966243 
L 73.232651 51.860085 
L 73.320826 51.605306 
L 73.355686 51.52038 
L 73.462317 51.265601 
L 73.513582 51.159443 
L 73.620212 50.8622 
L 73.687882 50.756042 
L 73.794513 50.501263 
L 73.909346 50.395105 
L 74.003673 50.140326 
L 74.056988 50.034168 
L 74.16772 49.800621 
L 74.223086 49.694463 
L 74.333818 49.39722 
L 74.362526 49.291062 
L 74.463005 49.142441 
L 74.510168 49.036283 
L 74.600394 48.908894 
L 74.672165 48.802736 
L 74.772644 48.505493 
L 74.821858 48.399336 
L 74.926438 48.165788 
L 75.00231 48.05963 
L 75.110991 47.762388 
L 75.133548 47.65623 
L 75.240179 47.465145 
L 75.400125 47.358987 
L 75.498553 47.231598 
L 75.580577 47.12544 
L 75.681055 46.849429 
L 75.80204 46.743271 
L 75.90457 46.637113 
L 75.961986 46.530955 
L 76.050162 46.382334 
L 76.109629 46.297408 
L 76.208057 45.957702 
L 76.326991 45.851544 
L 76.435673 45.53307 
L 76.519747 45.426912 
L 76.628428 45.12967 
L 76.694047 45.023512 
L 76.788374 44.874891 
L 76.884752 44.768733 
L 76.987281 44.513954 
L 77.057001 44.407796 
L 77.167733 44.19548 
L 77.26206 44.089322 
L 77.370742 43.898238 
L 77.428158 43.79208 
L 77.530688 43.5373 
L 77.657824 43.431142 
L 77.768556 43.1339 
L 77.823922 43.027742 
L 77.934654 42.666805 
L 77.983868 42.581879 
L 78.074094 42.242173 
L 78.182775 42.136015 
L 78.291457 41.902468 
L 78.416543 41.79631 
L 78.480111 41.66892 
L 78.65236 41.562762 
L 78.756941 41.371678 
L 78.814357 41.26552 
L 78.85947 41.13813 
L 79.03172 41.031972 
L 79.121946 40.947046 
L 79.218323 40.840888 
L 79.300347 40.60734 
L 79.329055 40.60734 
L 79.370067 40.501182 
L 79.452091 40.225172 
L 79.620239 40.119014 
L 79.724819 39.991624 
L 79.79659 39.885466 
L 79.90117 39.630687 
L 79.997548 39.524529 
L 80.079571 39.333445 
L 80.186202 39.248518 
L 80.278478 39.014971 
L 80.413817 38.908813 
L 80.518398 38.802655 
L 80.598371 38.696497 
L 80.705001 38.441718 
L 80.850593 38.33556 
L 80.961325 38.102012 
L 81.104866 37.995854 
L 81.209446 37.847233 
L 81.32633 37.741075 
L 81.42886 37.465064 
L 81.545743 37.380138 
L 81.656475 37.040433 
L 81.750802 36.934275 
L 81.857433 36.721959 
L 81.984569 36.615801 
L 82.0912 36.424716 
L 82.19373 36.318558 
L 82.29831 36.106242 
L 82.351625 36.021316 
L 82.458256 35.872695 
L 82.589494 35.766537 
L 82.700225 35.660379 
L 82.843767 35.554221 
L 82.942195 35.341905 
L 83.067281 35.235747 
L 83.159558 35.065894 
L 83.40973 34.959736 
L 83.518411 34.768652 
L 83.72347 34.662494 
L 83.832151 34.513873 
L 83.936731 34.407715 
L 84.041311 34.237862 
L 84.207409 34.131704 
L 84.318141 33.94062 
L 84.45348 33.834462 
L 84.55806 33.685841 
L 84.720057 33.579683 
L 84.828738 33.388598 
L 84.933318 33.28244 
L 85.00919 33.197514 
L 85.095315 33.091356 
L 85.203996 32.87904 
L 85.351638 32.772882 
L 85.454168 32.687956 
L 85.626417 32.581798 
L 85.737149 32.411945 
L 85.854033 32.305787 
L 85.950411 32.178398 
L 86.040637 32.07224 
L 86.132913 31.94485 
L 86.284657 31.838692 
L 86.393338 31.753766 
L 86.547132 31.647608 
L 86.639409 31.54145 
L 86.795254 31.456523 
L 86.889581 31.350365 
L 87.039274 31.244207 
L 87.137702 31.201744 
L 87.250485 31.095586 
L 87.332508 30.946965 
L 87.418633 30.862039 
L 87.521163 30.586028 
L 87.705716 30.47987 
L 87.816448 30.373712 
L 87.972293 30.267554 
L 88.058417 30.140164 
L 88.388562 30.034007 
L 88.493142 29.970312 
L 88.630532 29.864154 
L 88.737163 29.694301 
L 88.815085 29.588143 
L 88.923766 29.41829 
L 88.960677 29.312132 
L 89.065257 29.14228 
L 89.235456 29.036122 
L 89.290822 28.908732 
L 89.475375 28.823806 
L 89.577905 28.632721 
L 89.77066 28.526563 
L 89.819874 28.420405 
L 90.022883 28.314247 
L 90.123362 28.186858 
L 90.273055 28.0807 
L 90.328421 27.995773 
L 90.580643 27.889615 
L 90.681122 27.719763 
L 90.824663 27.613605 
L 90.88208 27.54991 
L 91.242984 27.443752 
L 91.331159 27.380057 
L 91.620292 27.273899 
L 91.71667 27.188973 
L 91.817149 27.082815 
L 91.872515 27.01912 
L 92.071422 26.912962 
L 92.163699 26.828036 
L 92.290835 26.721878 
L 92.381061 26.679415 
L 92.600474 26.573257 
L 92.694802 26.360941 
L 92.887557 26.254783 
L 92.975732 26.21232 
L 93.170538 26.106162 
L 93.221803 26.000004 
L 93.504785 25.893846 
L 93.584758 25.808919 
L 93.715995 25.702761 
L 93.818525 25.617835 
L 93.921054 25.511677 
L 94.019483 25.405519 
L 94.269655 25.299361 
L 94.345527 25.235666 
L 94.646963 25.129508 
L 94.747442 25.065813 
L 94.993513 24.959655 
L 95.069385 24.917192 
L 95.268292 24.811034 
L 95.368771 24.683645 
L 95.475402 24.577487 
L 95.561527 24.471329 
L 95.797344 24.365171 
L 95.891672 24.301476 
L 96.152097 24.195318 
L 96.197209 24.131623 
L 96.420724 24.025465 
L 96.527354 23.940539 
L 96.957978 23.834381 
L 97.052306 23.749455 
L 97.185594 23.643297 
L 97.296326 23.537139 
L 97.495233 23.430981 
L 97.558801 23.324823 
L 97.960717 23.218665 
L 98.022235 23.070044 
L 98.192434 22.963886 
L 98.245749 22.857728 
L 98.52668 22.75157 
L 98.637412 22.645412 
L 99.016771 22.539254 
L 99.065985 22.433096 
L 99.379725 22.326938 
L 99.451496 22.22078 
L 99.820602 22.114622 
L 99.88212 22.050927 
L 100.243024 21.944769 
L 100.281985 21.859843 
L 100.710558 21.753685 
L 100.813088 21.711222 
L 100.970983 21.605064 
L 101.067361 21.5626 
L 101.354444 21.477674 
L 101.450821 21.28659 
L 101.670234 21.180432 
L 101.700993 21.095505 
L 101.850686 20.989347 
L 101.922457 20.861958 
L 102.162376 20.7558 
L 102.271057 20.62841 
L 102.486369 20.522252 
L 102.486369 20.501021 
L 102.990815 20.394863 
L 103.068737 20.288705 
L 103.224582 20.182547 
L 103.314808 20.09762 
L 103.587536 19.991462 
L 103.694167 19.906536 
L 104.046868 19.800378 
L 104.128892 19.736683 
L 104.413924 19.630525 
L 104.524656 19.588062 
L 105.053708 19.481904 
L 105.053708 19.460673 
L 105.92726 19.354515 
L 106.013384 19.312051 
L 106.058497 19.227125 
L 106.058497 19.184662 
L 106.444008 19.078504 
L 106.538335 18.993577 
L 107.094045 18.88742 
L 107.196575 18.802493 
L 107.588238 18.696335 
L 107.647705 18.611409 
L 108.275185 18.505251 
L 108.303894 18.441556 
L 108.839098 18.335398 
L 108.839098 18.314166 
L 109.076966 18.208009 
L 109.175394 18.165545 
L 110.165829 18.059387 
L 110.165829 18.038156 
L 111.043482 17.931998 
L 111.078342 17.847071 
L 112.181559 17.740913 
L 112.181559 17.719682 
L 113.221209 17.613524 
L 113.221209 17.592292 
L 113.979927 17.486134 
L 113.979927 17.464903 
L 114.496676 17.358745 
L 114.605357 17.316282 
L 115.140561 17.210124 
L 115.140561 17.188892 
L 116.102288 17.082734 
L 116.18021 16.997808 
L 117.574611 16.89165 
L 117.574611 16.870418 
L 118.710638 16.76426 
L 118.755751 16.700565 
L 119.65596 16.594407 
L 119.65596 16.573176 
L 120.586928 16.467018 
L 120.586928 16.445786 
L 121.351798 16.339628 
L 121.351798 16.318397 
L 121.374355 16.318397 
L 122.206894 16.212239 
L 122.206894 16.191007 
L 122.908196 16.084849 
L 122.908196 16.063617 
L 123.937593 15.95746 
L 123.937593 15.936228 
L 125.202807 15.83007 
L 125.202807 15.808838 
L 126.451616 15.70268 
L 126.529538 15.638986 
L 128.811845 15.532828 
L 128.885666 15.490364 
L 131.463258 15.384206 
L 131.463258 15.362975 
L 134.348439 15.256817 
L 134.348439 15.235585 
L 137.003953 15.129427 
L 137.003953 15.108196 
L 140.467399 15.002038 
L 140.467399 14.980806 
L 270.191831 14.874648 
L 270.191831 14.874648 
" clip-path="url(#p75389b93ed)" style="fill: none; stroke: #d44c3c; stroke-width: 2; stroke-linecap: square"/>
   </g>
   <g id="patch_3">
    <path d="M 45.83 246.04 
L 45.83 12.585882 
" style="fill: none; stroke: #000000; stroke-width: 0.8; stroke-linejoin: miter; stroke-linecap: square"/>
   </g>
   <g id="patch_4">
    <path d="M 45.83 246.04 
L 272.413235 246.04 
" style="fill: none; stroke: #000000; stroke-width: 0.8; stroke-linejoin: miter; stroke-linecap: square"/>
   </g>
   <g id="legend_1">
    <g id="line2d_16">
     <path d="M 93.971048 203.13375 
L 103.971048 203.13375 
L 113.971048 203.13375 
" style="fill: none; stroke: #44757a; stroke-width: 2; stroke-linecap: square"/>
    </g>
    <g id="text_15">
     <text style="font: 10px 'Arial'; text-anchor: start" x="121.971048" y="206.63375" transform="rotate(-0 121.971048 206.63375)">w/o Transformer AUROC=0.941</text>
    </g>
    <g id="line2d_17">
     <path d="M 93.971048 217.279063 
L 103.971048 217.279063 
L 113.971048 217.279063 
" style="fill: none; stroke: #cb997e; stroke-width: 2; stroke-linecap: square"/>
    </g>
    <g id="text_16">
     <text style="font: 10px 'Arial'; text-anchor: start" x="121.971048" y="220.779063" transform="rotate(-0 121.971048 220.779063)">w/o BiGRU AUROC=0.842</text>
    </g>
    <g id="line2d_18">
     <path d="M 93.971048 231.5525 
L 103.971048 231.5525 
L 113.971048 231.5525 
" style="fill: none; stroke: #d44c3c; stroke-width: 2; stroke-linecap: square"/>
    </g>
    <g id="text_17">
     <text style="font: 10px 'Arial'; text-anchor: start" x="121.971048" y="235.0525" transform="rotate(-0 121.971048 235.0525)">deepSRAMP AUROC=0.943</text>
    </g>
   </g>
  </g>
 </g>
 <defs>
  <clipPath id="p75389b93ed">
   <rect x="45.83" y="12.585882" width="226.583235" height="233.454118"/>
  </clipPath>
 </defs>
</svg>
